<svg width="81" height="81" viewBox="0 0 81 81" fill="none" xmlns="http://www.w3.org/2000/svg">
<path d="M80.0039 40.5071V40.768C79.9955 41.5927 79.9702 42.4173 79.9113 43.2335C79.8608 43.974 79.7935 44.7061 79.701 45.4298C79.6337 45.9684 79.5579 46.5069 79.4738 47.0371C79.4064 47.4494 79.3307 47.8701 79.2466 48.274C79.0783 49.1408 78.8763 49.9991 78.6491 50.8406C78.3378 52.0271 77.9675 53.1967 77.5383 54.3412C77.1176 55.5024 76.638 56.6468 76.1078 57.7576C75.1401 59.7771 74.0041 61.6957 72.7335 63.5133C70.0744 67.2748 66.7926 70.5566 63.0312 73.2073C61.222 74.4863 59.3034 75.6139 57.2922 76.5732C56.173 77.1202 55.0202 77.5998 53.8421 78.0374C53.1269 78.2982 52.4032 78.5423 51.6711 78.7695C51.2335 78.9041 50.7875 79.0303 50.3415 79.1481C49.5001 79.3753 48.6502 79.5773 47.7834 79.7372C46.8494 79.9307 45.8985 80.0822 44.9392 80.1916C44.2071 80.2925 43.475 80.3599 42.7345 80.4104C41.9267 80.4693 41.102 80.4945 40.2774 80.4945C40.1848 80.5029 40.1007 80.5029 40.0081 80.5029C39.4443 80.5029 38.8889 80.4945 38.3251 80.4609C37.5846 80.4356 36.8441 80.3851 36.1036 80.3094C35.5062 80.2589 34.9171 80.1832 34.3281 80.099C33.6381 80.0065 32.9565 79.8886 32.2833 79.754C31.7363 79.653 31.1978 79.5352 30.6592 79.4006C30.0197 79.2491 29.397 79.0808 28.7743 78.9041C28.2694 78.7526 27.7645 78.6012 27.268 78.4245C26.679 78.2309 26.0984 78.0205 25.5261 77.7933C25.0465 77.6166 24.5753 77.4231 24.1125 77.2211C23.5655 76.9855 23.0269 76.7331 22.4884 76.4638C22.0508 76.2534 21.6132 76.0346 21.1757 75.799C20.6624 75.5213 20.1491 75.2352 19.6442 74.9407C19.2318 74.6967 18.8195 74.4442 18.4156 74.1834C17.936 73.872 17.4647 73.5607 17.0019 73.2241C16.6148 72.9548 16.2277 72.6771 15.8491 72.391C15.4031 72.046 14.9571 71.6926 14.5279 71.3392C14.1661 71.0362 13.8127 70.7333 13.4593 70.4219C13.0385 70.0517 12.6262 69.6646 12.2223 69.2691C11.8773 68.9493 11.5491 68.6212 11.2377 68.2846C10.8422 67.8806 10.4551 67.4683 10.0849 67.0476C9.77355 66.6942 9.47061 66.3407 9.16768 65.9789C8.81426 65.5497 8.46083 65.1037 8.11582 64.6578C7.82972 64.2791 7.55203 63.9004 7.27434 63.5133C6.95457 63.0421 6.63481 62.5709 6.32346 62.0912C6.06259 61.6873 5.81015 61.275 5.56612 60.8627C5.26319 60.3578 4.97708 59.8445 4.70781 59.3312C4.47219 58.902 4.25341 58.4644 4.03462 58.0269C3.77376 57.4883 3.52131 56.9413 3.28569 56.3944C3.08374 55.9316 2.8902 55.4603 2.70507 54.9891C2.48629 54.4085 2.27592 53.8278 2.08238 53.2388C1.90566 52.7423 1.74578 52.2374 1.60272 51.7325C1.4176 51.1098 1.2493 50.4871 1.10625 49.8476C0.971612 49.3091 0.853806 48.7705 0.752828 48.2236C0.61819 47.5504 0.500379 46.8688 0.407816 46.1787C0.323667 45.5897 0.247933 45.0007 0.197444 44.4032C0.121711 43.6627 0.0712212 42.9222 0.0459767 42.1817C0.0123173 41.6263 0.00390625 41.0709 0.00390625 40.5071C0.00390625 40.4146 0.00390163 40.322 0.0123165 40.2294C0.0123165 39.4048 0.0375662 38.5885 0.0964701 37.7723C0.146959 37.0318 0.214278 36.3081 0.306841 35.576C0.424649 34.6167 0.576111 33.6659 0.761238 32.7318C0.929535 31.8651 1.1315 31.0068 1.3587 30.1653C1.67005 28.9788 2.0403 27.8175 2.45262 26.6815C2.8902 25.5034 3.37826 24.3506 3.91681 23.2314C4.8761 21.2203 6.0037 19.3101 7.27434 17.5009C9.92502 13.7395 13.2152 10.4409 16.9851 7.79019C18.8027 6.51113 20.7213 5.38354 22.7324 4.42425C23.8516 3.87728 25.0044 3.38922 26.1741 2.96006C27.3101 2.53932 28.4798 2.16906 29.6663 1.85772C30.5077 1.63051 31.3661 1.42856 32.2328 1.26026C33.1668 1.07513 34.1177 0.923666 35.077 0.805858C35.8007 0.713295 36.5328 0.645976 37.2733 0.595487C38.0895 0.536583 38.9058 0.51134 39.7304 0.51134C39.823 0.502925 39.9156 0.50293 40.0081 0.50293C40.5719 0.50293 41.1273 0.511341 41.6827 0.545C42.4232 0.570245 43.1637 0.620734 43.9042 0.696468C44.5016 0.746957 45.0907 0.82269 45.6797 0.906839C46.3697 0.999402 47.0513 1.11721 47.7245 1.25185C48.2715 1.35283 48.81 1.47064 49.3486 1.60527C49.9881 1.74833 50.6108 1.91662 51.2335 2.10175C51.7384 2.2448 52.2433 2.40468 52.7398 2.58139C53.3288 2.77493 53.9094 2.98531 54.4901 3.2041C54.9613 3.38922 55.4325 3.58276 55.8953 3.78472C56.4423 4.02033 56.9893 4.27278 57.5278 4.53364C57.9654 4.74401 58.403 4.97121 58.8321 5.20683C59.3454 5.4761 59.8588 5.76221 60.3636 6.06514C60.776 6.30917 61.1883 6.56162 61.5922 6.82248C62.0718 7.12541 62.5431 7.44518 63.0143 7.77336C63.4014 8.05105 63.7801 8.32874 64.1587 8.61485C64.6047 8.95144 65.0507 9.30486 65.4799 9.6667C65.8417 9.96122 66.1951 10.2642 66.5486 10.5839C66.9693 10.9542 67.39 11.3413 67.794 11.7283C68.1306 12.0565 68.4503 12.3763 68.7785 12.7129C69.1656 13.1168 69.5527 13.5375 69.9229 13.9583C70.2427 14.3117 70.5456 14.6651 70.8401 15.027C71.202 15.4561 71.5554 15.9021 71.892 16.3481C72.1781 16.7268 72.4558 17.1054 72.7335 17.4925C73.0617 17.9637 73.3814 18.435 73.6844 18.9146C73.9452 19.3185 74.1977 19.7309 74.4417 20.1432C74.7446 20.6481 75.0307 21.1614 75.3 21.6747C75.5356 22.1039 75.7628 22.5414 75.9648 22.9874C76.234 23.5175 76.4865 24.0645 76.7221 24.6115C76.9241 25.0743 77.1176 25.5455 77.3027 26.0168C77.5215 26.5974 77.7319 27.178 77.9254 27.767C78.1021 28.2635 78.262 28.7684 78.4051 29.2733C78.5902 29.896 78.7585 30.5271 78.9016 31.1582C79.0362 31.6968 79.154 32.2353 79.255 32.7823C79.3896 33.4555 79.5074 34.1371 79.6 34.8271C79.6841 35.4161 79.7599 36.0052 79.8104 36.6026C79.8861 37.3347 79.9366 38.0752 79.9618 38.8242C79.9955 39.3795 80.0039 39.9433 80.0039 40.5071Z" fill="#EFE3CD"/>
<path d="M40.0091 77.138C39.5127 77.138 39.0237 77.1321 38.5273 77.1018L38.4398 77.0976C37.7792 77.0749 37.1094 77.0294 36.4488 76.9613C35.8556 76.9099 35.3305 76.8418 34.8054 76.7669C34.1978 76.6852 33.5978 76.5843 32.944 76.4538C32.4181 76.3562 31.9469 76.2527 31.4756 76.1357C30.8462 75.986 30.2706 75.8303 29.695 75.6662C29.2911 75.545 28.8409 75.4112 28.3983 75.2539C27.7958 75.0553 27.2783 74.8676 26.7692 74.6657C26.2736 74.4822 25.8638 74.3131 25.4615 74.1372C24.955 73.9193 24.4753 73.6938 23.994 73.4531C23.5564 73.2419 23.1651 73.0475 22.7738 72.8363C22.2975 72.578 21.8154 72.3104 21.3416 72.0335C20.9848 71.8223 20.6104 71.5934 20.2435 71.3561C19.8202 71.081 19.3978 70.8033 18.9829 70.502C18.5731 70.2168 18.2214 69.9643 17.8781 69.7051C17.4918 69.4056 17.0728 69.0732 16.6689 68.7416C16.3499 68.4749 16.0175 68.1896 15.686 67.8968C15.3073 67.5635 14.9388 67.2177 14.5778 66.8634L14.5138 66.8028C14.2327 66.5411 13.9652 66.2744 13.7102 66.0001L13.6446 65.9302C13.2903 65.5684 12.9436 65.1998 12.6112 64.8228C12.32 64.4921 12.0348 64.1597 11.7495 63.8198C11.4348 63.4361 11.1024 63.017 10.7776 62.5979C10.5403 62.2841 10.2879 61.9391 10.0346 61.5873C9.72491 61.1312 9.43207 60.6996 9.14681 60.2595C8.91372 59.8985 8.68483 59.524 8.46268 59.1495C8.18162 58.6817 7.9275 58.2247 7.68852 57.7687C7.44701 57.3286 7.25178 56.9373 7.05656 56.546C6.82431 56.0663 6.5929 55.5656 6.37664 55.0641C6.18394 54.6223 6.00723 54.1907 5.83641 53.7581C5.65212 53.2684 5.45774 52.7332 5.27934 52.1896C5.10095 51.6847 4.96378 51.2505 4.84093 50.8163C4.64739 50.165 4.50434 49.6222 4.39074 49.114C4.25357 48.5628 4.15091 48.0916 4.06256 47.6128C3.92371 46.9177 3.82189 46.3177 3.74364 45.7312C3.66538 45.18 3.59637 44.6541 3.55093 44.1206C3.47772 43.3986 3.43228 42.7279 3.40956 42.0682L3.40536 41.9782C3.37591 41.4901 3.36917 41.0029 3.36917 40.5073L3.36328 40.5426L3.37759 40.3861V40.2296C3.37759 39.4403 3.40199 38.7166 3.45332 38.0156C3.50297 37.2835 3.56608 36.6289 3.64602 35.9994C3.75541 35.1066 3.8951 34.2323 4.06256 33.3866C4.2115 32.6183 4.3941 31.8349 4.60784 31.0431C4.88553 29.9828 5.21371 28.9394 5.61594 27.8295C6.01144 26.765 6.46247 25.7013 6.94885 24.6916C7.80969 22.8857 8.84387 21.1211 10.0278 19.4348C12.4732 15.9654 15.4655 12.9722 18.9198 10.5428C20.5961 9.36307 22.3657 8.3272 24.1799 7.46131C25.204 6.96147 26.2542 6.5138 27.333 6.1183C28.3815 5.73037 29.451 5.39294 30.5197 5.11188C31.3292 4.8931 32.1143 4.71049 32.8742 4.56323C33.7325 4.39325 34.6076 4.25357 35.487 4.14501C36.1206 4.06423 36.7745 4.00197 37.5015 3.95232C38.2168 3.90099 38.9413 3.87658 39.7298 3.87658H39.8854L39.9763 3.86816C40.5208 3.86816 41.0004 3.8749 41.4809 3.90351L41.5667 3.90772C42.229 3.93044 42.9005 3.97672 43.5627 4.04403C44.1534 4.09452 44.6785 4.16269 45.2036 4.23758C45.8137 4.3192 46.412 4.42018 47.0633 4.55145C47.5909 4.64907 48.0613 4.75173 48.5317 4.86953L48.6142 4.88889C49.1249 5.00333 49.6534 5.14217 50.2761 5.3273C50.7498 5.46194 51.1849 5.59995 51.6124 5.75141C52.2325 5.95674 52.7686 6.15112 53.3038 6.35307C53.6917 6.50622 54.1259 6.68378 54.5508 6.8689C55.0641 7.09021 55.5657 7.32246 56.0605 7.56144C56.4526 7.74994 56.8363 7.94937 57.2125 8.15553C57.7241 8.42481 58.1818 8.67978 58.6312 8.94905C59.025 9.18214 59.3995 9.41187 59.7672 9.64917C60.2317 9.94285 60.6617 10.2348 61.0909 10.5336C61.4165 10.7675 61.7725 11.0284 62.1293 11.2985C62.529 11.5997 62.927 11.9153 63.309 12.2376C63.6717 12.5338 63.9814 12.7988 64.2902 13.0782C64.7101 13.4476 65.0946 13.8019 65.4649 14.157C65.7586 14.444 66.059 14.7435 66.3661 15.0591C66.7036 15.4108 67.0578 15.7954 67.3961 16.1799C67.7066 16.5241 67.9717 16.8329 68.2292 17.1502C68.5902 17.5785 68.9049 17.9757 69.2045 18.3728C69.4763 18.7322 69.7371 19.089 69.9988 19.4533C70.2706 19.8446 70.5626 20.2738 70.8386 20.7105C71.0936 21.106 71.3233 21.4813 71.5438 21.8549C71.8248 22.3236 72.079 22.7797 72.318 23.2358C72.5805 23.7146 72.7547 24.0571 72.8969 24.3735L72.9642 24.5123C73.183 24.9423 73.4068 25.4237 73.6315 25.9437C73.8225 26.3813 74.0001 26.8155 74.1709 27.2488C74.3544 27.7377 74.5496 28.2738 74.728 28.8174C74.9064 29.3223 75.0444 29.7573 75.1681 30.1924C75.3523 30.8142 75.5005 31.3763 75.6191 31.9014C75.7546 32.445 75.8572 32.9154 75.9456 33.3934C76.0844 34.0893 76.1863 34.6884 76.2645 35.2758C76.3436 35.8286 76.4118 36.3529 76.4572 36.8855C76.5304 37.6016 76.5759 38.2706 76.5986 38.9362L76.6028 39.0271C76.6323 39.5152 76.639 40.0108 76.639 40.5064V40.7673C76.6297 41.6054 76.6036 42.3224 76.5548 42.9897C76.5043 43.7302 76.4429 44.3832 76.363 45.0016C76.299 45.5158 76.2283 46.0173 76.1501 46.5113C76.0928 46.8597 76.0264 47.2324 75.9515 47.5901C75.7958 48.3878 75.6132 49.1721 75.3995 49.9622C75.11 51.0662 74.7717 52.1332 74.3872 53.1582C73.9925 54.2479 73.5533 55.2947 73.0711 56.3078C72.2119 58.0994 71.1702 59.8766 69.9761 61.584C67.5375 65.0332 64.546 68.0221 61.0934 70.4557C59.4298 71.6313 57.6652 72.6663 55.8442 73.5347C54.8647 74.0127 53.8364 74.4494 52.671 74.882C52.0247 75.1176 51.3532 75.3439 50.6741 75.5551C50.2879 75.6738 49.8848 75.7874 49.4817 75.8943C48.631 76.124 47.8821 76.2973 47.1735 76.4277C46.2774 76.6129 45.4216 76.7492 44.5574 76.8485C43.8959 76.9385 43.2505 77.0025 42.5058 77.053C41.804 77.1043 41.0593 77.1295 40.2784 77.1295H40.1295L40.0091 77.138Z" fill="#2B2B2B"/>
<path d="M22.7414 4.42383L3.92578 23.231C4.88507 21.2199 6.01267 19.3097 7.28331 17.5005L16.9941 7.78977C18.8117 6.51071 20.7302 5.38312 22.7414 4.42383Z" fill="#EFE3CD"/>
<path d="M29.6787 1.85742L1.37109 30.165C1.68244 28.9785 2.05269 27.8172 2.46502 26.6812L26.1865 2.95977C27.3225 2.53903 28.4922 2.16877 29.6787 1.85742Z" fill="#EFE3CD"/>
<path d="M35.0866 0.804688L0.316406 35.5749C0.434214 34.6156 0.585676 33.6647 0.770803 32.7306L32.2423 1.25909C33.1764 1.07396 34.1273 0.922495 35.0866 0.804688Z" fill="#EFE3CD"/>
<path d="M39.7376 0.510742L0.0195312 40.2288C0.0195312 39.4042 0.0447809 38.5879 0.103685 37.7717L37.2805 0.594889C38.0967 0.535985 38.913 0.510742 39.7376 0.510742Z" fill="#EFE3CD"/>
<path d="M43.9129 0.695413L0.206155 44.4022C0.130421 43.6616 0.0799321 42.9211 0.0546875 42.1806L41.6914 0.543945C42.4319 0.56919 43.1724 0.619679 43.9129 0.695413Z" fill="#EFE3CD"/>
<path d="M47.7308 1.25029L0.759075 48.222C0.624437 47.5488 0.506626 46.8672 0.414062 46.1772L45.686 0.905273C46.376 0.997837 47.0576 1.11565 47.7308 1.25029Z" fill="#EFE3CD"/>
<path d="M51.2406 2.10097L1.60975 51.7318C1.42463 51.1091 1.25633 50.4864 1.11328 49.8468L49.3556 1.60449C49.9952 1.74754 50.6179 1.91584 51.2406 2.10097Z" fill="#EFE3CD"/>
<path d="M54.4975 3.20376L2.71254 54.9888C2.49375 54.4081 2.28339 53.8275 2.08984 53.2385L52.7472 2.58105C53.3363 2.7746 53.9169 2.98497 54.4975 3.20376Z" fill="#EFE3CD"/>
<path d="M57.5351 4.53212L4.0419 58.0253C3.78104 57.4868 3.52858 56.9398 3.29297 56.3929L55.9026 3.7832C56.4496 4.01882 56.9966 4.27126 57.5351 4.53212Z" fill="#EFE3CD"/>
<path d="M60.3668 6.06437L5.56926 60.8619C5.26632 60.357 4.98021 59.8437 4.71094 59.3304L58.8353 5.20605C59.3486 5.47533 59.8619 5.76143 60.3668 6.06437Z" fill="#EFE3CD"/>
<path d="M63.0229 7.77217L7.28291 63.5121C6.96315 63.0409 6.64338 62.5697 6.33203 62.09L61.6008 6.82129C62.0804 7.12422 62.5517 7.44399 63.0229 7.77217Z" fill="#EFE3CD"/>
<path d="M65.4851 9.66611L9.17295 65.9783C8.81953 65.5491 8.4661 65.1032 8.12109 64.6572L64.164 8.61426C64.61 8.95085 65.056 9.30428 65.4851 9.66611Z" fill="#EFE3CD"/>
<path d="M67.7989 11.7274L11.2427 68.2836C10.8472 67.8797 10.4601 67.4674 10.0898 67.0467L66.5535 10.583C66.9742 10.9533 67.395 11.3403 67.7989 11.7274Z" fill="#EFE3CD"/>
<path d="M69.935 13.9573L13.4714 70.421C13.0506 70.0507 12.6383 69.6636 12.2344 69.2681L68.7906 12.7119C69.1777 13.1158 69.5648 13.5366 69.935 13.9573Z" fill="#EFE3CD"/>
<path d="M71.8992 16.3475L15.8563 72.3904C15.4103 72.0454 14.9643 71.692 14.5352 71.3386L70.8474 15.0264C71.2092 15.4555 71.5626 15.9015 71.8992 16.3475Z" fill="#EFE3CD"/>
<path d="M73.6942 18.9143L18.4254 74.183C17.9458 73.8717 17.4745 73.5603 17.0117 73.2238L72.7433 17.4922C73.0715 17.9634 73.3912 18.4347 73.6942 18.9143Z" fill="#EFE3CD"/>
<path d="M75.3082 21.6741L21.1838 75.7984C20.6705 75.5207 20.1572 75.2346 19.6523 74.9401L74.4499 20.1426C74.7528 20.6475 75.0389 21.1608 75.3082 21.6741Z" fill="#EFE3CD"/>
<path d="M76.7298 24.6114L24.1202 77.221C23.5732 76.9854 23.0346 76.733 22.4961 76.4637L75.9725 22.9873C76.2418 23.5174 76.4942 24.0644 76.7298 24.6114Z" fill="#EFE3CD"/>
<path d="M77.9305 27.7659L27.2731 78.4233C26.6841 78.2298 26.1035 78.0194 25.5312 77.7922L77.3078 26.0156C77.5266 26.5962 77.737 27.1769 77.9305 27.7659Z" fill="#EFE3CD"/>
<path d="M78.9085 31.1574L30.6662 79.3997C30.0267 79.2483 29.4039 79.08 28.7812 78.9033L78.412 29.2725C78.5972 29.8952 78.7655 30.5263 78.9085 31.1574Z" fill="#EFE3CD"/>
<path d="M79.6097 34.827L34.3378 80.099C33.6478 80.0064 32.9662 79.8886 32.293 79.7539L79.2647 32.7822C79.3993 33.4554 79.5171 34.137 79.6097 34.827Z" fill="#EFE3CD"/>
<path d="M79.9715 38.8231L38.3348 80.4598C37.5943 80.4345 36.8538 80.384 36.1133 80.3083L79.82 36.6016C79.8958 37.3337 79.9462 38.0742 79.9715 38.8231Z" fill="#EFE3CD"/>
<path d="M80.0117 40.7666C80.0033 41.5913 79.978 42.4159 79.9191 43.2321L42.7423 80.409C41.9345 80.4679 41.1098 80.4931 40.2852 80.4931L80.0117 40.7666Z" fill="#EFE3CD"/>
<path d="M79.7071 45.4297C79.6398 45.9682 79.564 46.5068 79.4799 47.0369C79.4125 47.4493 79.3368 47.87 79.2527 48.2739L47.7895 79.737C46.8555 79.9306 45.9046 80.0821 44.9453 80.1914L79.7071 45.4297Z" fill="#EFE3CD"/>
<path d="M78.6552 50.8398C78.3439 52.0263 77.9736 53.196 77.5445 54.3404L53.8482 78.0366C53.133 78.2975 52.4093 78.5415 51.6772 78.7687C51.2396 78.9034 50.7936 79.0296 50.3477 79.1474L78.6552 50.8398Z" fill="#EFE3CD"/>
<path d="M76.1125 57.7568C75.1448 59.7764 74.0088 61.695 72.7381 63.5126L63.0358 73.2065C61.2266 74.4856 59.308 75.6132 57.2969 76.5724L76.1125 57.7568Z" fill="#EFE3CD"/>
<path d="M79.473 47.0368C76.9906 62.1415 66.0513 74.3935 51.6703 78.7692L35.4549 62.5538L35.2361 62.335V42.8967H28.3359V34.9026H35.2361V29.0122C35.2361 22.1793 39.4099 18.46 45.5106 18.46C47.9341 18.46 50.0715 18.603 51.1486 18.7124L79.473 47.0368Z" fill="#EFE3CD"/>
<path d="M51.6703 18.7713V25.9155H47.4461C44.1222 25.9155 43.4827 27.4891 43.4827 29.8032V34.9026H51.3926L50.366 42.8967H43.4827V62.5538H35.2361V42.8967H28.3359V34.9026H35.2361V29.0122C35.2361 22.1793 39.4099 18.46 45.5106 18.46C47.9341 18.46 50.0715 18.603 51.1486 18.7124C51.3674 18.7377 51.5441 18.7545 51.6703 18.7713Z" fill="#2B2B2B"/>
</svg>
