<svg width="64" height="64" viewBox="0 0 64 64" fill="none" xmlns="http://www.w3.org/2000/svg">
<path d="M46.6282 17.7861C46.1917 17.3501 45.7019 17.0254 45.1941 16.8301C43.5896 16.1723 41.7493 16.5469 40.5105 17.7866C39.8255 18.4717 39.406 19.3506 39.2825 20.2749C37.6951 19.5776 35.7703 19.8823 34.4695 21.1836C33.7317 21.9209 33.3162 22.8603 33.2229 23.8247C31.9353 23.3442 30.4832 23.4663 29.3255 24.248C28.3792 24.8852 27.7288 25.8442 27.4895 26.9311L19.3977 18.8393C18.552 17.9946 17.449 17.5508 16.2395 17.5703C15.0501 17.5976 13.9495 18.0996 13.1409 18.9848C11.6052 20.6655 11.7239 23.4014 13.406 25.083L15.0496 26.727C15.1472 26.855 15.2625 26.9858 15.3704 27.0937L29.9124 41.6357L24.2044 39.956C22.6463 39.5293 20.9622 39.9785 19.8128 41.1279C19.1233 41.8174 18.6604 42.7139 18.5105 43.6499C18.1819 45.6777 19.263 47.6977 21.1511 48.5674L35.8738 55.1094C37.075 55.6367 38.3176 55.9458 39.5906 56.0303L43.1004 56.062C44.9475 56.062 46.5852 55.664 47.9666 54.8804C48.7381 54.4429 49.4465 53.9043 50.0715 53.2788L59.1023 44.248C62.9588 40.3916 62.9588 34.1167 59.1023 30.2602L46.6282 17.7861ZM57.6882 42.834L48.6575 51.8647C48.1594 52.3628 47.5955 52.792 46.9798 53.1406C45.9026 53.7519 44.5974 54.062 43.1004 54.062L40.385 54.063L39.7005 54.0337C38.6824 53.9658 37.6653 53.7114 36.6819 53.2798L21.9758 46.7451C20.9124 46.2554 20.2996 45.1142 20.4851 43.9682C20.5696 43.4429 20.8328 42.936 21.2268 42.542C21.7166 42.0522 22.3543 41.792 23.0066 41.792C23.2234 41.792 23.4422 41.8208 23.658 41.8799L33.1111 44.6621C33.5491 44.79 34.0203 44.6064 34.2532 44.2134C34.4866 43.8203 34.4236 43.3188 34.1004 42.9956L16.7844 25.6797C16.7283 25.6235 16.6677 25.5537 16.6204 25.4883C16.5891 25.4443 16.554 25.4033 16.5154 25.3647L14.8201 23.6689C13.8836 22.7324 13.7927 21.2363 14.6174 20.3335C15.054 19.8555 15.6463 19.5845 16.2849 19.5698C16.9207 19.5527 17.5281 19.7978 17.9837 20.2534L28.6458 30.9165C28.6477 30.918 28.6492 30.9194 28.6511 30.9214C28.6541 30.9244 28.6583 30.9252 28.6613 30.9281L33.5115 35.7778C33.7068 35.9731 33.9627 36.0708 34.2185 36.0708C34.4744 36.0708 34.7302 35.9731 34.9256 35.7778C35.3162 35.3872 35.3162 34.7544 34.9256 34.3638L30.0676 29.5063C30.0656 29.5043 30.0628 29.5038 30.0607 29.5018C29.5734 29.0114 29.332 28.3331 29.3992 27.6391C29.4675 26.9292 29.8382 26.314 30.4431 25.9062C31.3347 25.3047 32.6272 25.4746 33.4524 26.2993L34.8616 27.7085C34.8751 27.722 34.8933 27.7261 34.9074 27.7386L38.2288 31.0605C38.4241 31.2558 38.6799 31.3535 38.9358 31.3535C39.1917 31.3535 39.4475 31.2558 39.6428 31.0605C40.0335 30.6704 40.0335 30.0371 39.6428 29.6465L36.283 26.2861L36.28 26.2832L35.8757 25.8794C34.9734 24.9765 34.9768 23.5044 35.8836 22.5976C36.7957 21.6865 38.2713 21.6811 39.1726 22.5815L39.5799 22.9892C39.6145 23.0239 39.6516 23.0557 39.6907 23.0845L40.5047 23.8985C40.5064 23.9002 40.5069 23.9026 40.5086 23.9043L42.9466 26.3428C43.1419 26.5381 43.3977 26.6357 43.6536 26.6357C43.9094 26.6357 44.1653 26.5381 44.3606 26.3428C44.7512 25.9526 44.7512 25.3193 44.3606 24.9287L41.9284 22.496C41.9267 22.4943 41.9263 22.4919 41.9246 22.4902C41.6912 22.2568 41.5144 21.9941 41.4104 21.7251C41.0667 20.8481 41.2683 19.8574 41.9246 19.2007C42.5921 18.5332 43.5779 18.3296 44.4553 18.6885C44.7175 18.7895 44.9802 18.9668 45.2146 19.2007L57.6882 31.6743C60.7649 34.751 60.7649 39.7573 57.6882 42.834Z" fill="#2C2C2C"/>
<path d="M16.625 13.2393V8.93799C16.625 8.38574 16.1772 7.93799 15.625 7.93799C15.0728 7.93799 14.625 8.38574 14.625 8.93799V13.2393C14.625 13.7915 15.0728 14.2393 15.625 14.2393C16.1772 14.2393 16.625 13.7915 16.625 13.2393Z" fill="#2C2C2C"/>
<path d="M8.30176 21.5645C8.30176 21.0122 7.854 20.5645 7.30176 20.5645H3C2.44775 20.5645 2 21.0122 2 21.5645C2 22.1167 2.44775 22.5645 3 22.5645H7.30176C7.854 22.5645 8.30176 22.1167 8.30176 21.5645Z" fill="#2C2C2C"/>
<path d="M22.2188 16.3848L25.2603 13.3433C25.6509 12.9526 25.6509 12.3198 25.2603 11.9292C24.8696 11.5386 24.2368 11.5386 23.8462 11.9292L20.8047 14.9707C20.4141 15.3613 20.4141 15.9941 20.8047 16.3848C21 16.5801 21.2559 16.6777 21.5117 16.6777C21.7676 16.6777 22.0234 16.5801 22.2188 16.3848Z" fill="#2C2C2C"/>
<path d="M6.69922 31.4927C6.95508 31.4927 7.21094 31.395 7.40625 31.1997L10.4478 28.1577C10.8384 27.7671 10.8384 27.1338 10.4478 26.7437C10.0571 26.353 9.42432 26.353 9.03369 26.7437L5.99219 29.7856C5.60156 30.1763 5.60156 30.8096 5.99219 31.1997C6.1875 31.395 6.44336 31.4927 6.69922 31.4927Z" fill="#2C2C2C"/>
<path d="M9.74072 16.6777C9.99658 16.6777 10.2524 16.5801 10.4478 16.3848C10.8384 15.9941 10.8384 15.3613 10.4478 14.9707L7.40625 11.9292C7.01562 11.5386 6.38281 11.5386 5.99219 11.9292C5.60156 12.3198 5.60156 12.9526 5.99219 13.3433L9.03369 16.3848C9.229 16.5801 9.48486 16.6777 9.74072 16.6777Z" fill="#2C2C2C"/>
</svg>
