<svg width="80" height="80" viewBox="0 0 80 80" fill="none" xmlns="http://www.w3.org/2000/svg">
<path d="M79.9944 40.0042V40.2651C79.986 41.0897 79.9608 41.9144 79.9019 42.7306C79.8514 43.4711 79.7841 44.2032 79.6915 44.9269C79.6242 45.4654 79.5485 46.004 79.4643 46.5341C79.397 46.9464 79.3213 47.3672 79.2371 47.7711C79.1951 47.9899 79.1446 48.2171 79.0941 48.4359C78.9595 49.0754 78.808 49.7149 78.6397 50.3376C78.3284 51.5241 77.9582 52.6938 77.529 53.8382C77.1083 54.9995 76.6287 56.1439 76.0986 57.2547C75.131 59.2742 73.9951 61.1928 72.7245 63.0104C70.0656 66.7719 66.784 70.0536 63.0229 72.7043C61.2138 73.9834 59.2953 75.111 57.2843 76.0703C56.1652 76.6172 55.0125 77.0969 53.8345 77.5344C53.1193 77.7953 52.3956 78.0393 51.6636 78.2665C51.2261 78.4012 50.7801 78.5274 50.3341 78.6452C49.4927 78.8724 48.6429 79.0744 47.7762 79.2342C46.8422 79.4278 45.8914 79.5793 44.9322 79.6887C44.2001 79.7896 43.4681 79.8569 42.7276 79.9074C41.9199 79.9663 41.0953 79.9916 40.2707 79.9916C40.1781 80 40.094 80 40.0014 80C39.4377 80 38.8823 79.9916 38.3186 79.9579C37.5781 79.9327 36.8377 79.8822 36.0972 79.8064C35.4998 79.756 34.9108 79.6802 34.3218 79.5961C33.6318 79.5035 32.9503 79.3857 32.2771 79.2511C31.7302 79.1501 31.1917 79.0323 30.6532 78.8977C30.0137 78.7462 29.391 78.5779 28.7684 78.4012C28.2635 78.2497 27.7587 78.0982 27.2622 77.9215C26.6732 77.728 26.0926 77.5176 25.5205 77.2904C25.0409 77.1137 24.5697 76.9201 24.1069 76.7182C23.5599 76.4826 23.0214 76.2301 22.4829 75.9609C22.0454 75.7505 21.6078 75.5317 21.1703 75.2961C20.657 75.0184 20.1438 74.7323 19.6389 74.4378C19.2266 74.1937 18.8143 73.9413 18.4104 73.6804C17.9308 73.3691 17.4596 73.0577 16.9968 72.7211C16.6098 72.4519 16.2227 72.1742 15.8441 71.8881C15.3981 71.5431 14.9522 71.1896 14.523 70.8362C14.1612 70.5333 13.8078 70.2303 13.4544 69.919C13.0337 69.5487 12.6214 69.1617 12.2175 68.7662C11.8725 68.4464 11.5444 68.1182 11.233 67.7816C10.8376 67.3777 10.4505 66.9654 10.0803 66.5446C9.76897 66.1912 9.46605 65.8378 9.16313 65.476C8.80974 65.0468 8.45634 64.6008 8.11135 64.1548C7.82527 63.7761 7.5476 63.3975 7.26992 63.0104C6.95018 62.5392 6.63045 62.0679 6.31912 61.5883C6.05828 61.1844 5.80584 60.7721 5.56183 60.3597C5.25892 59.8548 4.97284 59.3415 4.70358 58.8282C4.46798 58.3991 4.24921 57.9615 4.03044 57.5239C3.7696 56.9854 3.51717 56.4384 3.28157 55.8914C3.07963 55.4286 2.8861 54.9574 2.70098 54.4862C2.48221 53.9055 2.27185 53.3249 2.07832 52.7359C1.90162 52.2394 1.74176 51.7345 1.59872 51.2296C1.4136 50.6069 1.24532 49.9842 1.10228 49.3447C0.967651 48.8061 0.84984 48.2676 0.748869 47.7206C0.614241 47.0474 0.496451 46.3658 0.403894 45.6758C0.319751 45.0868 0.244023 44.4977 0.193537 43.9003C0.117809 43.1598 0.0673167 42.4193 0.0420739 41.6788C0.00841683 41.1234 0 40.568 0 40.0042C0 39.9116 8.21724e-06 39.8191 0.00842248 39.7265C0.00842248 38.9019 0.0336576 38.0856 0.0925574 37.2694C0.143043 36.5289 0.210357 35.8052 0.302914 35.0731C0.420714 34.1138 0.572178 33.1629 0.757292 32.2289C0.925577 31.3621 1.12751 30.5038 1.3547 29.6624C1.66602 28.4759 2.03626 27.3146 2.44855 26.1786C2.8861 25.0005 3.37413 23.8477 3.91264 22.7285C4.87187 20.7174 5.99937 18.8072 7.26992 16.998C9.92042 13.2366 13.2104 9.93794 16.98 7.28726C18.7975 6.00821 20.7159 4.88062 22.7269 3.92132C23.846 3.37436 24.9988 2.88628 26.1684 2.45712C27.3043 2.03638 28.4739 1.66613 29.6603 1.35478C30.5017 1.12758 31.36 0.925629 32.2266 0.757331C33.1606 0.572205 34.1114 0.42073 35.0707 0.302922C35.7943 0.210359 36.5263 0.14304 37.2668 0.092551C38.083 0.0336471 38.8992 0.00842307 39.7238 0.00842307C39.8163 8.21782e-06 39.9089 0 40.0014 0C40.5652 0 41.1205 0.00840458 41.6759 0.042064C42.4163 0.0673085 43.1568 0.117817 43.8972 0.193551C44.4946 0.24404 45.0836 0.319774 45.6726 0.403922C46.3626 0.496485 47.0442 0.614271 47.7173 0.748908C48.2642 0.849887 48.8027 0.967706 49.3412 1.10234C49.9807 1.2454 50.6034 1.41369 51.2261 1.59882C51.7309 1.74187 52.2358 1.90176 52.7322 2.07847C53.3212 2.27201 53.9018 2.48237 54.4824 2.70116C54.9536 2.88629 55.4248 3.07983 55.8875 3.28179C56.4345 3.5174 56.9814 3.76986 57.5199 4.03072C57.9575 4.24109 58.395 4.46828 58.8241 4.7039C59.3374 4.97317 59.8507 5.25927 60.3555 5.5622C60.7678 5.80624 61.1801 6.0587 61.584 6.31956C62.0636 6.6225 62.5348 6.94224 63.006 7.27042C63.3931 7.54811 63.7717 7.8258 64.1504 8.1119C64.5963 8.4485 65.0423 8.80192 65.4714 9.16376C65.8332 9.45828 66.1866 9.76124 66.54 10.081C66.9607 10.4513 67.3814 10.8383 67.7853 11.2254C68.1219 11.5536 68.4416 11.8734 68.7698 12.21C69.1568 12.6139 69.5439 13.0346 69.9141 13.4553C70.2339 13.8088 70.5368 14.1622 70.8313 14.524C71.1931 14.9532 71.5465 15.3992 71.8831 15.8452C72.1692 16.2238 72.4468 16.6025 72.7245 16.9896C73.0527 17.4608 73.3724 17.9321 73.6753 18.4117C73.9362 18.8156 74.1886 19.2279 74.4326 19.6403C74.7355 20.1452 75.0216 20.6585 75.2908 21.1718C75.5264 21.6009 75.7536 22.0385 75.9556 22.4845C76.2248 23.0146 76.4772 23.5616 76.7129 24.1085C76.9148 24.5714 77.1083 25.0426 77.2934 25.5138C77.5122 26.0945 77.7226 26.6751 77.9161 27.2641C78.0928 27.7606 78.2527 28.2655 78.3957 28.7704C78.5808 29.3931 78.7491 30.0242 78.8921 30.6553C79.0268 31.1938 79.1446 31.7324 79.2456 32.2794C79.3802 32.9525 79.498 33.6342 79.5905 34.3242C79.6747 34.9132 79.7504 35.5023 79.8009 36.0997C79.8766 36.8318 79.9271 37.5723 79.9523 38.3212C79.986 38.8766 79.9944 39.4404 79.9944 40.0042Z" fill="#2B2B2B"/>
<path d="M40.0001 76.6339C39.5037 76.6339 39.014 76.6272 38.5175 76.5977L38.4326 76.5935C37.7661 76.5716 37.0955 76.5253 36.4375 76.458C35.8477 76.4067 35.321 76.3385 34.7942 76.2645C34.1825 76.1812 33.5826 76.0802 32.9364 75.9514C32.4088 75.8538 31.9384 75.7512 31.4681 75.6325C30.8387 75.4827 30.2615 75.3279 29.6859 75.1638C29.2568 75.0342 28.8193 74.903 28.3893 74.7506C27.7877 74.5521 27.2694 74.3635 26.7586 74.1616C26.2639 73.9781 25.8524 73.8082 25.4485 73.6323C24.9487 73.4169 24.4682 73.1922 23.9878 72.9507C23.5486 72.7395 23.1573 72.5443 22.766 72.333C22.2889 72.0747 21.8068 71.8063 21.3322 71.5303C20.9763 71.3199 20.601 71.0893 20.2333 70.8521C19.8109 70.5777 19.3886 70.3 18.9737 69.9979C18.5673 69.7135 18.2148 69.4611 17.8706 69.2019C17.4844 68.9032 17.0654 68.5708 16.6623 68.2384C16.3434 67.9708 16.0111 67.6864 15.6795 67.3935C15.3017 67.0603 14.9324 66.7136 14.5714 66.3602L14.5058 66.2979C14.2239 66.0362 13.9563 65.7678 13.7013 65.4935L13.6391 65.4287C13.2848 65.0651 12.9373 64.6966 12.605 64.3196C12.313 63.9872 12.0277 63.6548 11.7425 63.3149C11.4287 62.9337 11.0963 62.5146 10.7732 62.0955C10.5342 61.7792 10.2818 61.4358 10.0302 61.0849C9.70963 60.6112 9.42185 60.1879 9.1425 59.7562C8.90858 59.3944 8.67971 59.0208 8.45842 58.6463C8.17738 58.1784 7.92412 57.7223 7.68515 57.2663C7.43862 56.8169 7.24088 56.418 7.04146 56.0192C6.82017 55.5623 6.58877 55.0607 6.37337 54.5601C6.18152 54.1208 6.00398 53.6874 5.83317 53.2541C5.64974 52.7652 5.45453 52.2283 5.27614 51.6847C5.0986 51.1815 4.96061 50.7473 4.83776 50.3122C4.64424 49.6609 4.5012 49.1173 4.38676 48.6108C4.25045 48.0596 4.14696 47.5875 4.05861 47.1095C3.91977 46.4136 3.81879 45.8128 3.7397 45.228C3.66144 44.6768 3.59246 44.1517 3.54702 43.6182C3.47382 42.8971 3.42838 42.2264 3.40566 41.5658L3.40145 41.4758C3.372 40.9877 3.36527 40.5005 3.36527 40.0057L3.35938 40.0419L3.37453 39.8854V39.728C3.37453 38.9387 3.39892 38.2142 3.45025 37.5141C3.49989 36.7828 3.56216 36.1282 3.64294 35.497C3.75233 34.6025 3.892 33.7299 4.05944 32.8859C4.20837 32.1176 4.39096 31.3334 4.60468 30.5415C4.88235 29.4813 5.21052 28.4378 5.61272 27.3271C6.00819 26.2643 6.45919 25.2006 6.94638 24.19C7.80631 22.3859 8.84042 20.6213 10.0252 18.9341C12.4695 15.4647 15.4625 12.4715 18.9165 10.043C20.5909 8.86488 22.3613 7.82734 24.1771 6.96145C25.2011 6.46077 26.2521 6.01476 27.3274 5.6201C28.3792 5.22965 29.4486 4.89307 30.5147 4.61285C31.3292 4.39323 32.1143 4.20977 32.869 4.0642C33.7222 3.89506 34.5982 3.75539 35.4825 3.646C36.1127 3.56606 36.7682 3.50294 37.4977 3.45329C38.2155 3.40196 38.9408 3.37756 39.7241 3.37756H39.8748L39.964 3.36914C40.5117 3.36914 40.9922 3.37587 41.4718 3.40448L41.5635 3.40954C42.2165 3.43057 42.8862 3.47686 43.5552 3.54502C44.145 3.59635 44.6709 3.6645 45.1968 3.73855C45.8102 3.82186 46.4101 3.92284 47.0563 4.05159C47.5822 4.1492 48.0534 4.25185 48.5229 4.36966L48.6062 4.38903C49.1119 4.50263 49.6555 4.64568 50.2681 4.82828C50.7426 4.96208 51.1768 5.10008 51.6034 5.25239L51.6842 5.2793C52.2269 5.45686 52.7595 5.6504 53.2938 5.8532C53.6843 6.00719 54.1167 6.1839 54.5408 6.36819C55.0549 6.59118 55.5573 6.82175 56.0503 7.06158C56.4475 7.25175 56.8295 7.45035 57.2056 7.65736C57.7189 7.92663 58.1766 8.18244 58.626 8.45087C59.0164 8.68144 59.39 8.91032 59.7551 9.14678C60.228 9.4455 60.6563 9.7375 61.0863 10.0362C61.4094 10.2685 61.7653 10.5293 62.1212 10.7986C62.5218 11.1007 62.9206 11.4163 63.3034 11.7394C63.6653 12.0339 63.9749 12.299 64.2837 12.5792C64.7019 12.9478 65.0873 13.302 65.4575 13.6563C65.7545 13.9458 66.0532 14.2445 66.3595 14.5592C66.6961 14.911 67.0511 15.2964 67.3902 15.6809C67.699 16.0226 67.9641 16.3305 68.2199 16.6469C68.5834 17.0786 68.8989 17.4775 69.2001 17.8763C69.4677 18.2306 69.7303 18.5883 69.9911 18.9526C70.2612 19.3422 70.554 19.7722 70.8308 20.2106C71.0883 20.6078 71.3164 20.9814 71.5376 21.355C71.8162 21.8204 72.072 22.2782 72.3109 22.7342C72.5726 23.2122 72.7476 23.5572 72.8907 23.8736L72.9563 24.0108C73.1742 24.4382 73.398 24.9196 73.6235 25.4421C73.8146 25.8805 73.9921 26.3122 74.1612 26.7439C74.348 27.237 74.5415 27.7705 74.7191 28.3124L74.746 28.3932C74.8983 28.8199 75.0363 29.2541 75.1583 29.6883C75.3434 30.3118 75.4915 30.8739 75.6101 31.399C75.7456 31.9426 75.8483 32.4138 75.9366 32.891C76.0755 33.5852 76.1764 34.1852 76.2564 34.7725C76.3346 35.3245 76.4028 35.8505 76.4491 36.3848C76.5214 37.0933 76.5677 37.7632 76.5896 38.4355L76.5946 38.5247C76.6241 39.0119 76.63 39.5076 76.63 40.004V40.2649C76.6215 41.0837 76.5946 41.8225 76.5458 42.4906C76.4953 43.2294 76.4322 43.8841 76.354 44.5026C76.29 45.01 76.2202 45.5107 76.1411 46.0038C76.0839 46.3572 76.0174 46.7292 75.9434 47.0868C75.8979 47.3165 75.8558 47.5042 75.8154 47.6834C75.6808 48.3196 75.5445 48.896 75.3922 49.459C75.1028 50.5596 74.7645 51.6275 74.3783 52.6574C73.9854 53.743 73.547 54.7906 73.0623 55.8054C72.2057 57.5936 71.1641 59.37 69.9675 61.0824C67.5291 64.5316 64.537 67.5206 61.0854 69.9517C59.4245 71.1264 57.6608 72.1622 55.8375 73.0315C54.8656 73.5061 53.8366 73.9428 52.6636 74.3795C52.0191 74.6135 51.3468 74.8407 50.6661 75.0527C50.279 75.1722 49.876 75.285 49.4729 75.3919C48.6214 75.6207 47.8725 75.7932 47.1691 75.9237C46.2705 76.1096 45.4156 76.246 44.5539 76.3436C43.8842 76.4353 43.2565 76.4976 42.4992 76.5497C41.7983 76.6002 41.0528 76.6255 40.2728 76.6255H40.1221L40.0001 76.6339Z" fill="#EFE3CD"/>
<path d="M22.7362 3.92383L3.92188 22.731C4.8811 20.7199 6.00862 18.8097 7.27917 17.0005L16.9892 7.28977C18.8067 6.01071 20.7252 4.88312 22.7362 3.92383Z" fill="#2B2B2B"/>
<path d="M29.6728 1.35645L1.36719 29.664C1.67852 28.4775 2.04875 27.3163 2.46104 26.1803L26.1809 2.45879C27.3168 2.03805 28.4864 1.66779 29.6728 1.35645Z" fill="#2B2B2B"/>
<path d="M35.0802 0.303711L0.3125 35.0739C0.4303 34.1146 0.581764 33.1637 0.766878 32.2297L32.2362 0.75812C33.1702 0.572993 34.121 0.421519 35.0802 0.303711Z" fill="#2B2B2B"/>
<path d="M39.7309 0.00976562L0.015625 39.7279C0.015625 38.9032 0.0408601 38.087 0.0997599 37.2707L37.274 0.0939193C38.0902 0.0350153 38.9064 0.00976562 39.7309 0.00976562Z" fill="#2B2B2B"/>
<path d="M43.9059 0.19443L0.202245 43.9012C0.126516 43.1607 0.076024 42.4201 0.0507812 41.6796L41.6846 0.0429688C42.425 0.0682133 43.1655 0.118696 43.9059 0.19443Z" fill="#2B2B2B"/>
<path d="M47.7236 0.749309L0.755144 47.721C0.620516 47.0478 0.502713 46.3662 0.410156 45.6762L45.6789 0.404297C46.3689 0.49686 47.0504 0.614671 47.7236 0.749309Z" fill="#2B2B2B"/>
<path d="M51.2332 1.59999L1.60581 51.2308C1.4207 50.6081 1.25242 49.9854 1.10938 49.3458L49.3483 1.10352C49.9878 1.24657 50.6105 1.41486 51.2332 1.59999Z" fill="#2B2B2B"/>
<path d="M54.49 2.70279L2.7086 54.4878C2.48983 53.9072 2.27947 53.3265 2.08594 52.7375L52.7398 2.08008C53.3288 2.27362 53.9094 2.48401 54.49 2.70279Z" fill="#2B2B2B"/>
<path d="M57.5274 4.03211L4.03793 57.5253C3.77709 56.9868 3.52466 56.4398 3.28906 55.8928L55.895 3.2832C56.442 3.51882 56.9889 3.77125 57.5274 4.03211Z" fill="#2B2B2B"/>
<path d="M60.3629 5.56436L5.56918 60.3619C5.26627 59.857 4.98019 59.3437 4.71094 58.8304L58.8315 4.70605C59.3448 4.97533 59.858 5.26143 60.3629 5.56436Z" fill="#2B2B2B"/>
<path d="M63.015 7.27119L7.27894 63.0112C6.9592 62.5399 6.63945 62.0687 6.32812 61.5891L61.593 6.32031C62.0726 6.62325 62.5438 6.94302 63.015 7.27119Z" fill="#2B2B2B"/>
<path d="M65.4772 9.16514L9.16897 65.4773C8.81557 65.0482 8.46217 64.6022 8.11719 64.1562L64.1562 8.11328C64.6021 8.44988 65.0481 8.8033 65.4772 9.16514Z" fill="#2B2B2B"/>
<path d="M67.7949 11.2265L11.2426 67.7827C10.8471 67.3788 10.4601 66.9664 10.0898 66.5457L66.5496 10.082C66.9703 10.4523 67.391 10.8394 67.7949 11.2265Z" fill="#2B2B2B"/>
<path d="M69.9271 13.4563L13.4674 69.92C13.0467 69.5498 12.6344 69.1626 12.2305 68.7672L68.7827 12.2109C69.1698 12.6149 69.5569 13.0356 69.9271 13.4563Z" fill="#2B2B2B"/>
<path d="M71.8913 15.8465L15.8523 71.8894C15.4063 71.5444 14.9604 71.191 14.5312 70.8376L70.8395 14.5254C71.2013 14.9545 71.5547 15.4005 71.8913 15.8465Z" fill="#2B2B2B"/>
<path d="M73.6863 18.4133L18.4214 73.6821C17.9418 73.3707 17.4706 73.0594 17.0078 72.7228L72.7355 16.9912C73.0636 17.4624 73.3834 17.9337 73.6863 18.4133Z" fill="#2B2B2B"/>
<path d="M75.3004 21.1731L21.1798 75.2974C20.6666 75.0197 20.1533 74.7336 19.6484 74.4391L74.4421 19.6416C74.745 20.1465 75.0311 20.6598 75.3004 21.1731Z" fill="#2B2B2B"/>
<path d="M76.7221 24.1104L24.1161 76.7201C23.5692 76.4844 23.0307 76.232 22.4922 75.9627L75.9648 22.4863C76.2341 23.0165 76.4865 23.5634 76.7221 24.1104Z" fill="#2B2B2B"/>
<path d="M77.923 27.2659L27.2691 77.9233C26.6801 77.7298 26.0995 77.5194 25.5273 77.2922L77.3003 25.5156C77.5191 26.0962 77.7295 26.6769 77.923 27.2659Z" fill="#2B2B2B"/>
<path d="M78.8972 30.6564L30.6582 78.8988C30.0188 78.7473 29.3961 78.579 28.7734 78.4023L78.4008 28.7715C78.5859 29.3942 78.7542 30.0253 78.8972 30.6564Z" fill="#2B2B2B"/>
<path d="M79.5986 34.3261L34.3298 79.598C33.6399 79.5054 32.9583 79.3876 32.2852 79.253L79.2536 32.2812C79.3882 32.9544 79.506 33.636 79.5986 34.3261Z" fill="#2B2B2B"/>
<path d="M79.9567 38.3211L74.4706 43.8076L38.3229 79.9578C37.5825 79.9326 36.842 79.8821 36.1016 79.8064L79.8053 36.0996C79.881 36.8317 79.9315 37.5722 79.9567 38.3211Z" fill="#2B2B2B"/>
<path d="M80.0011 40.2646C79.9927 41.0893 79.9674 41.914 79.9085 42.7302L42.7343 79.907C41.9265 79.9659 41.1019 79.9912 40.2773 79.9912L80.0011 40.2646Z" fill="#2B2B2B"/>
<path d="M79.6968 44.9258C79.6295 45.4643 79.5538 46.0029 79.4697 46.533C79.4023 46.9453 79.3266 47.3661 79.2425 47.77L78.8386 48.1739L47.7815 79.2331C46.8475 79.4267 45.8967 79.5782 44.9375 79.6876L79.6968 44.9258Z" fill="#2B2B2B"/>
<path d="M78.6415 50.3379C78.3302 51.5244 77.96 52.6941 77.5308 53.8385L53.8363 77.5347C53.1211 77.7955 52.3974 78.0396 51.6654 78.2668C51.2279 78.4014 50.7819 78.5276 50.3359 78.6454L78.6415 50.3379Z" fill="#2B2B2B"/>
<path d="M76.1034 57.2549C75.1357 59.2744 73.9998 61.193 72.7292 63.0106L63.0276 72.7045C61.2185 73.9836 59.3001 75.1112 57.2891 76.0705L76.1034 57.2549Z" fill="#2B2B2B"/>
<path d="M79.0954 48.4354C78.9608 49.0749 78.8093 49.7144 78.641 50.3371C78.3297 51.5236 77.9595 52.6933 77.5303 53.8377C77.1096 54.999 76.63 56.1434 76.0999 57.2541C75.1323 59.2737 73.9964 61.1923 72.7258 63.0099C70.0669 66.7713 66.7853 70.0531 63.0242 72.7038C61.2151 73.9829 59.2966 75.1105 57.2856 76.0697C56.1665 76.6167 55.0138 77.0963 53.8358 77.5339C53.1206 77.7948 52.3969 78.0388 51.6649 78.266C51.2274 78.4007 50.7814 78.5269 50.3354 78.6447C49.494 78.8719 48.6442 79.0739 47.7775 79.2337C46.8435 79.4273 45.8927 79.5788 44.9335 79.6881C44.2015 79.7891 43.4694 79.8564 42.7289 79.9069C41.9212 79.9658 41.0966 79.9911 40.272 79.9911C40.1794 79.9995 40.0953 79.9995 40.0027 79.9995C39.439 79.9995 38.8836 79.9911 38.3199 79.9574C37.5794 79.9322 36.839 79.8817 36.0985 79.8059L33.9108 77.6181L32.9263 76.6335L31.7315 75.4386L29.5522 73.2592L28.5593 72.2662L27.3729 71.0797L20.8266 64.533L19.8337 63.54L18.6389 62.3451L17.8985 61.6046L18.0836 60.9314L18.9839 57.6412L19.7412 54.898L20.6331 51.633L20.7677 51.145C20.5658 50.7999 20.3722 50.4465 20.1955 50.0847C19.9263 49.5461 19.6739 49.0076 19.4551 48.4522C19.2532 47.9725 19.0765 47.4929 18.9166 47.0048C18.7146 46.3906 18.5379 45.7763 18.3865 45.1452C18.2603 44.5982 18.1509 44.0512 18.0583 43.4959C17.9489 42.789 17.8732 42.0653 17.8311 41.3417C17.8059 40.8957 17.7891 40.4497 17.7891 39.9953C17.7891 39.7849 17.7891 39.5829 17.8059 39.381C17.8227 38.4974 17.8984 37.6391 18.0247 36.7892C18.1425 35.9393 18.3108 35.1147 18.5295 34.2984C18.8745 33.0025 19.3289 31.7487 19.8926 30.5538C22.1056 25.8331 25.9341 22.0043 30.6545 19.7912C31.8493 19.2274 33.103 18.7646 34.3988 18.428C35.215 18.2092 36.0396 18.0409 36.8895 17.9231C37.7393 17.7969 38.5975 17.7212 39.481 17.7043C39.683 17.6875 39.8849 17.6875 40.0953 17.6875C40.5497 17.6875 40.9956 17.7043 41.4416 17.7296C42.1652 17.7717 42.8804 17.8474 43.5872 17.9652C44.1425 18.0409 44.6979 18.1503 45.2448 18.285C45.8759 18.428 46.4985 18.6047 47.1128 18.8067C47.6008 18.9666 48.0804 19.1517 48.56 19.3452C49.1154 19.5724 49.6539 19.8165 50.1924 20.0857C50.6131 20.3129 51.0338 20.5402 51.4461 20.7842L51.463 20.801L52.6494 21.9875L53.6423 22.9804L68.9141 38.2534L70.109 39.4483L71.0934 40.4328L79.0954 48.4354Z" fill="#2B2B2B"/>
<path d="M59.3066 28.6437C58.3642 27.0532 57.2114 25.5722 55.8736 24.2259C54.5273 22.8795 53.0464 21.7266 51.4476 20.7842C48.0483 18.7646 44.1609 17.6875 40.0968 17.6875C27.8036 17.6875 17.799 27.6928 17.7906 39.9953C17.7906 43.925 18.8171 47.7622 20.7692 51.145L17.9 61.6046L17.6055 62.6986L18.7077 62.4124L29.4275 59.6019C32.6838 61.3774 36.3525 62.3115 40.0884 62.3115H40.0968C52.39 62.3115 62.3946 52.3062 62.403 40.0121C62.403 35.9477 61.326 32.0517 59.3066 28.6437ZM40.0968 58.55H40.0884C36.7647 58.55 33.5 57.6496 30.656 55.9667L29.9744 55.5628L22.9654 57.4056L24.8333 50.5643L24.3958 49.8575C22.5362 46.9039 21.5602 43.4959 21.5602 39.9953C21.5602 29.7712 29.8819 21.4574 40.1052 21.4574C45.0528 21.4574 49.7143 23.3844 53.2146 26.8933C56.715 30.3939 58.6418 35.0558 58.6334 40.0037C58.6334 50.2277 50.3117 58.55 40.0968 58.55Z" fill="#EFE3CD"/>
<path fill-rule="evenodd" clip-rule="evenodd" d="M51.3411 45.3139C51.198 45.0783 50.8278 44.9436 50.2725 44.6659C49.7087 44.3798 46.9741 43.0334 46.4608 42.8483C45.9476 42.6632 45.5773 42.5706 45.2071 43.126C44.8369 43.6898 43.7683 44.9436 43.4401 45.3139C43.1204 45.6841 42.7922 45.7346 42.2369 45.4569C41.6815 45.1708 39.8809 44.5818 37.7521 42.6885C36.0944 41.2074 34.9754 39.3814 34.6556 38.826C34.3275 38.2706 34.6219 37.9677 34.8996 37.69C35.152 37.4376 35.455 37.0337 35.7326 36.7139C36.0103 36.3857 36.1029 36.1501 36.288 35.7798C36.4731 35.4096 36.3805 35.0814 36.2459 34.8037C36.1029 34.526 34.9922 31.7828 34.5294 30.6636C34.075 29.5781 33.6122 29.7296 33.2757 29.7127C32.9475 29.6959 32.5773 29.6875 32.2071 29.6875C31.8368 29.6875 31.231 29.8305 30.7177 30.3859C30.2045 30.9497 28.7656 32.2961 28.7656 35.0393C28.7656 37.7826 30.7682 40.4333 31.0459 40.8035C31.3236 41.1738 34.9754 46.8033 40.5624 49.2184C41.8919 49.7906 42.9268 50.1356 43.743 50.3964C45.0725 50.8172 46.2925 50.7583 47.2518 50.6152C48.3204 50.4554 50.5502 49.2689 51.0129 47.9646C51.4757 46.6603 51.4757 45.5495 51.3411 45.3139Z" fill="#EFE3CD"/>
</svg>
