<svg width="28" height="28" viewBox="0 0 28 28" fill="none" xmlns="http://www.w3.org/2000/svg">
<g clip-path="url(#clip0_2579_15029)">
<path d="M17.7362 24.9963C17.7394 24.9932 17.7425 24.99 17.7457 24.9868L27.5474 15.198C27.6248 15.1202 27.6935 15.0343 27.7524 14.9417L27.9061 14.6598L27.9702 14.4677L27.9702 14.3267C28.0099 14.1107 28.0099 13.8893 27.9702 13.6732L27.9702 13.5451L27.9702 13.3914L27.8549 13.1736C27.789 13.0522 27.7071 12.9401 27.6115 12.8404L17.7457 3.01312C17.0929 2.35505 16.0301 2.35079 15.372 3.00363C15.3689 3.00675 15.3657 3.00994 15.3626 3.01312C14.7296 3.67648 14.7296 4.72007 15.3626 5.38349L21.2051 11.2389C21.4528 11.4915 21.4489 11.8971 21.1962 12.1448C21.0786 12.26 20.9213 12.3256 20.7567 12.3279L1.67861 12.3279C0.751596 12.3279 7.39249e-05 13.0793 1.47566e-05 14.0063C-4.63191e-05 14.9333 0.751356 15.6848 1.67837 15.6849L1.67861 15.6849L20.7567 15.6849C21.1104 15.6899 21.3932 15.9807 21.3883 16.3344C21.3859 16.499 21.3204 16.6564 21.2051 16.7739L15.3626 22.6037C14.7215 23.2688 14.7215 24.3218 15.3626 24.9869C16.0154 25.645 17.0781 25.6492 17.7362 24.9963Z" fill="#2C2C2C"/>
</g>
<defs>
<clipPath id="clip0_2579_15029">
<rect width="28" height="28" fill="white"/>
</clipPath>
</defs>
</svg>
