<svg width="32" height="32" viewBox="0 0 32 32" fill="none" xmlns="http://www.w3.org/2000/svg">
<g clip-path="url(#clip0_2568_14511)">
<path d="M31.9981 5.56519V25.0435C31.9968 25.7813 31.7043 26.4888 31.1842 27.0122L18.7807 14.6087L18.5859 14.3095L31.9981 5.56519Z" fill="#F6B445"/>
<path d="M31.1847 27.0122C30.6613 27.5323 29.9538 27.8248 29.216 27.8261H2.78122C2.04335 27.8248 1.33587 27.5323 0.8125 27.0122L13.216 14.6087L13.3899 14.3374L15.9986 16L18.5864 14.3095L18.7812 14.6087L31.1847 27.0122Z" fill="#F6A645"/>
<path d="M13.3914 14.3374L13.2174 14.6087L0.813925 27.0122C0.293817 26.4888 0.00131687 25.7813 1.2526e-05 25.0435V6.95654C-0.000835299 6.67585 0.0413603 6.39665 0.12523 6.12874L0.695686 6.26087L13.3914 14.3374Z" fill="#F6B445"/>
<path d="M31.9998 5.56519L18.5876 14.3095L15.9998 16L13.3911 14.3374L0.695456 6.26086L0.125 6.12866C0.487413 4.96564 1.56422 4.17358 2.78241 4.1739H28.5215C31.3041 4.1739 31.9998 5.56519 31.9998 5.56519Z" fill="#FED049"/>
</g>
<defs>
<clipPath id="clip0_2568_14511">
<rect width="32" height="32" fill="white"/>
</clipPath>
</defs>
</svg>
