<svg width="81" height="81" viewBox="0 0 81 81" fill="none" xmlns="http://www.w3.org/2000/svg">
<path d="M80.0117 40.5071V40.768C80.0033 41.5926 79.9781 42.4173 79.9192 43.2336C79.8687 43.9741 79.8014 44.7062 79.7088 45.4298C79.6667 45.7496 79.6247 46.0694 79.5742 46.3807C79.5489 46.5995 79.5153 46.8183 79.4816 47.0371C79.4143 47.4494 79.3386 47.8701 79.2544 48.2741C79.0861 49.1408 78.8842 49.9991 78.657 50.8406C78.3456 52.0271 77.9753 53.1967 77.5462 54.3412C77.1254 55.5024 76.6458 56.6468 76.1157 57.7576C75.1479 59.7771 74.012 61.6957 72.7413 63.5133C70.0822 67.2748 66.8004 70.5566 63.039 73.2073C61.2298 74.4863 59.3112 75.6139 57.3001 76.5732C56.1809 77.1202 55.028 77.5998 53.85 78.0374C53.1347 78.2982 52.411 78.5423 51.6789 78.7695C51.2414 78.9041 50.7954 79.0303 50.3494 79.1481C49.5079 79.3754 48.658 79.5773 47.7913 79.7372C47.219 79.855 46.6468 79.956 46.0662 80.0401C45.696 80.099 45.3257 80.1495 44.9471 80.1916C44.215 80.2926 43.4828 80.3599 42.7423 80.4104C41.9345 80.4693 41.1099 80.4945 40.2852 80.4945C40.1927 80.5029 40.1085 80.5029 40.0159 80.5029C39.4521 80.5029 38.8968 80.4945 38.333 80.4609C37.5925 80.4356 36.852 80.3851 36.1115 80.3094C35.514 80.2589 34.925 80.1832 34.3359 80.099C33.6459 80.0065 32.9643 79.8887 32.2911 79.754C31.7441 79.653 31.2056 79.5352 30.667 79.4006C30.0275 79.2491 29.4048 79.0808 28.7821 78.9041C28.2772 78.7526 27.7723 78.6012 27.2759 78.4245C26.6868 78.2309 26.1062 78.0205 25.534 77.7933C25.0543 77.6166 24.5831 77.4231 24.1203 77.2211C23.5733 76.9855 23.0348 76.7331 22.4962 76.4638C22.0586 76.2534 21.6211 76.0346 21.1835 75.799C20.6702 75.5213 20.1569 75.2352 19.652 74.9407C19.2397 74.6967 18.8273 74.4443 18.4234 74.1834C17.9438 73.872 17.4725 73.5607 17.0097 73.2241C16.6227 72.9548 16.2356 72.6771 15.8569 72.391C15.4109 72.046 14.9649 71.6926 14.5358 71.3392C14.1739 71.0362 13.8205 70.7333 13.4671 70.422C13.0463 70.0517 12.634 69.6646 12.2301 69.2691C11.8851 68.9493 11.5569 68.6212 11.2456 68.2846C10.8501 67.8807 10.463 67.4683 10.0927 67.0476C9.78137 66.6942 9.47844 66.3407 9.17551 65.9789C8.82208 65.5498 8.46866 65.1038 8.12365 64.6578C7.83754 64.2791 7.55985 63.9004 7.28216 63.5133C6.9624 63.0421 6.64263 62.5709 6.33128 62.0912C6.07042 61.6873 5.81798 61.275 5.57395 60.8627C5.27102 60.3578 4.98489 59.8445 4.71562 59.3312C4.48 58.902 4.26123 58.4644 4.04244 58.0269C3.78158 57.4883 3.52915 56.9413 3.29353 56.3944C3.09158 55.9316 2.89803 55.4603 2.71291 54.9891C2.49412 54.4085 2.28373 53.8279 2.09019 53.2388C1.91348 52.7423 1.75361 52.2374 1.61056 51.7325C1.42543 51.1098 1.25712 50.4872 1.11406 49.8476C0.979425 49.3091 0.861631 48.7705 0.760653 48.2236C0.626015 47.5504 0.508204 46.8688 0.415641 46.1788C0.331492 45.5897 0.255759 45.0007 0.20527 44.4032C0.129536 43.6627 0.079053 42.9222 0.0538084 42.1817C0.020149 41.6263 0.0117188 41.0709 0.0117188 40.5071C0.0117188 40.4146 0.011727 40.322 0.0201418 40.2295C0.0201418 39.4048 0.0453915 38.5885 0.104295 37.7723C0.154785 37.0318 0.222103 36.3081 0.314667 35.576C0.432475 34.6167 0.583949 33.6659 0.769076 32.7318C0.937373 31.8651 1.13932 31.0068 1.36652 30.1653C1.67787 28.9788 2.04812 27.8175 2.46044 26.6815C2.89802 25.5035 3.3861 24.3506 3.92465 23.2314C4.88394 21.2203 6.01152 19.3101 7.28216 17.5009C9.93284 13.7395 13.2231 10.4409 16.9929 7.79019C18.8105 6.51114 20.7291 5.38355 22.7402 4.42425C23.8594 3.87729 25.0123 3.38922 26.1819 2.96007C27.3179 2.53932 28.4876 2.16907 29.6741 1.85772C30.5156 1.63052 31.3739 1.42856 32.2406 1.26026C33.1747 1.07513 34.1256 0.923673 35.0848 0.805865C35.8085 0.713302 36.5406 0.645983 37.2811 0.595494C38.0974 0.53659 38.9136 0.51134 39.7383 0.51134C39.8308 0.502925 39.9234 0.50293 40.0159 0.50293C40.5797 0.50293 41.1351 0.511347 41.6905 0.545007C42.431 0.570251 43.1715 0.620734 43.912 0.696468C44.5095 0.746957 45.0985 0.82269 45.6875 0.906839C46.3776 0.999402 47.0592 1.11721 47.7324 1.25185C48.2793 1.35283 48.8179 1.47064 49.3564 1.60527C49.996 1.74833 50.6186 1.91662 51.2413 2.10175C51.7462 2.2448 52.2511 2.40469 52.7476 2.5814C53.3367 2.77494 53.9173 2.98532 54.4979 3.2041C54.9691 3.38923 55.4404 3.58276 55.9032 3.78472C56.4501 4.02033 56.9971 4.27278 57.5357 4.53364C57.9732 4.74401 58.4108 4.97121 58.84 5.20683C59.3533 5.4761 59.8666 5.76221 60.3715 6.06515C60.7838 6.30918 61.1961 6.56162 61.6 6.82248C62.0797 7.12541 62.5509 7.44518 63.0221 7.77336C63.4092 8.05105 63.7879 8.32874 64.1666 8.61485C64.6126 8.95144 65.0585 9.30486 65.4877 9.6667C65.8495 9.96122 66.203 10.2642 66.5564 10.5839C66.9771 10.9542 67.3979 11.3413 67.8018 11.7283C68.1384 12.0565 68.4581 12.3763 68.7863 12.7129C69.1734 13.1168 69.5605 13.5375 69.9307 13.9583C70.2505 14.3117 70.5535 14.6651 70.848 15.027C71.2098 15.4561 71.5632 15.9021 71.8998 16.3481C72.1859 16.7268 72.4636 17.1054 72.7413 17.4925C73.0695 17.9638 73.3892 18.435 73.6922 18.9146C73.953 19.3185 74.2055 19.7309 74.4495 20.1432C74.7525 20.6481 75.0386 21.1614 75.3078 21.6747C75.5434 22.1039 75.7707 22.5414 75.9726 22.9874C76.2419 23.5176 76.4943 24.0645 76.7299 24.6115C76.9319 25.0743 77.1255 25.5455 77.3106 26.0168C77.5294 26.5974 77.7397 27.178 77.9333 27.767C78.11 28.2635 78.2699 28.7684 78.4129 29.2733C78.598 29.896 78.7663 30.5271 78.9094 31.1582C79.044 31.6968 79.1618 32.2353 79.2628 32.7823C79.3975 33.4555 79.5153 34.1371 79.6078 34.8271C79.692 35.4161 79.7677 36.0052 79.8182 36.6027C79.8939 37.3347 79.9444 38.0752 79.9697 38.8242C80.0033 39.3795 80.0117 39.9433 80.0117 40.5071Z" fill="#EFE3CD"/>
<path d="M40.0149 77.1366C39.5185 77.1366 39.0287 77.1299 38.5323 77.1004L38.4473 77.0962C37.7816 77.0743 37.1101 77.0281 36.4521 76.9607C35.8614 76.9094 35.3354 76.8412 34.8087 76.7672C34.1969 76.6847 33.5978 76.5829 32.9507 76.4541C32.4214 76.3557 31.9502 76.2522 31.4772 76.1344C30.852 75.9855 30.2756 75.8289 29.6992 75.6648C29.2969 75.5445 28.8459 75.4107 28.4041 75.2533C27.8016 75.0547 27.2841 74.8671 26.7733 74.6643C26.2777 74.4809 25.8687 74.3126 25.4665 74.1367C24.9591 73.9187 24.4794 73.6941 23.9998 73.4526C23.5622 73.2422 23.1709 73.0478 22.7805 72.8366C22.3025 72.5783 21.8212 72.3107 21.3491 72.0347C20.9881 71.8209 20.6137 71.5921 20.2443 71.3539C19.8252 71.0813 19.4036 70.8036 18.9896 70.5023C18.5773 70.2145 18.2264 69.9629 17.8839 69.7046C17.496 69.405 17.0769 69.0726 16.6738 68.7411C16.3549 68.4735 16.0217 68.1874 15.6876 67.8937C15.3131 67.563 14.9437 67.2155 14.581 66.8612L14.5188 66.8015C14.2369 66.5398 13.9685 66.2713 13.7127 65.9962L13.6512 65.9314C13.297 65.5679 12.9494 65.1993 12.617 64.8223C12.325 64.4907 12.0398 64.1575 11.7528 63.8159C11.4406 63.4364 11.1083 63.0173 10.7851 62.5983C10.5402 62.2735 10.2785 61.9175 10.0177 61.5531C9.75849 61.1703 9.45219 60.7192 9.15431 60.2589C8.9229 59.8996 8.69318 59.5252 8.47019 59.149C8.18997 58.6812 7.93501 58.2242 7.69519 57.7673C7.45368 57.3272 7.2593 56.9359 7.06407 56.5463C6.83098 56.0658 6.60042 55.566 6.38584 55.0661C6.1923 54.6235 6.01474 54.1918 5.84476 53.7601C5.65879 53.2662 5.46525 52.7293 5.28601 52.1857C5.10762 51.6833 4.9713 51.25 4.8476 50.8158C4.65406 50.1653 4.511 49.6225 4.39655 49.1134C4.26108 48.564 4.15759 48.0919 4.06839 47.6122C3.92954 46.9163 3.82772 46.3164 3.74862 45.7307C3.67036 45.1787 3.6022 44.6519 3.55592 44.1176C3.48355 43.4031 3.43727 42.7325 3.41539 42.066L3.41034 41.9785C3.38088 41.4904 3.375 41.0032 3.375 40.5076L3.38846 40.3595L3.3834 40.2299C3.3834 39.444 3.40782 38.7203 3.45915 38.0159C3.5088 37.2914 3.57105 36.6368 3.65183 35.9997C3.76207 35.1027 3.90177 34.2293 4.06839 33.3886C4.21817 32.6161 4.40076 31.8336 4.61365 31.0451C4.88798 29.9958 5.22541 28.9237 5.62175 27.8306C6.01725 26.7661 6.4683 25.7025 6.95468 24.6919C7.81552 22.886 8.85054 21.1206 10.0337 19.4351C12.479 15.9657 15.4722 12.9725 18.9256 10.544C20.5993 9.36589 22.3698 8.32918 24.1866 7.46245C25.209 6.96261 26.26 6.51578 27.338 6.12028C28.3881 5.73151 29.4585 5.39408 30.5255 5.11386C31.3367 4.89508 32.121 4.71248 32.8791 4.56522C33.7341 4.39524 34.6084 4.25555 35.492 4.147C36.1256 4.06621 36.7794 4.00395 37.5073 3.95431C38.2251 3.90213 38.9505 3.87773 39.7347 3.87773H39.8837L40.0318 3.86426C40.5072 3.86931 40.9953 3.8752 41.4842 3.90465L41.5717 3.90886C42.239 3.93158 42.9097 3.97703 43.5652 4.04519C44.1576 4.09568 44.6827 4.16467 45.2077 4.23956C45.817 4.32118 46.417 4.42217 47.07 4.5526C47.5959 4.65021 48.0654 4.75287 48.535 4.87067L48.6191 4.89004C49.1274 5.00364 49.6701 5.14668 50.2785 5.3276C50.754 5.46308 51.189 5.60025 51.6157 5.75172C52.2375 5.95704 52.7727 6.15142 53.3079 6.35338C53.6967 6.50653 54.1292 6.68324 54.5533 6.86837C55.0725 7.09136 55.5732 7.32361 56.068 7.56259C56.4584 7.75024 56.8421 7.94967 57.2183 8.15584C57.7299 8.42511 58.1877 8.68008 58.637 8.94935C59.03 9.1816 59.4036 9.4105 59.7705 9.64695C60.2392 9.94316 60.6684 10.2352 61.0967 10.5339C61.4232 10.7678 61.7808 11.0295 62.1368 11.2996C62.5331 11.5992 62.932 11.9148 63.3157 12.2387C63.6792 12.5341 63.9872 12.7992 64.296 13.0785C64.7151 13.4479 65.1005 13.8014 65.4699 14.1556C65.7669 14.4451 66.0657 14.7447 66.3728 15.0602C66.7069 15.4094 67.062 15.794 67.4003 16.1786C67.7124 16.5236 67.9784 16.8332 68.235 17.1496C68.596 17.578 68.9099 17.9751 69.2086 18.3723C69.4812 18.7325 69.7429 19.0893 70.0038 19.4536C70.2765 19.8449 70.5676 20.2732 70.8419 20.7091C71.1011 21.1088 71.3291 21.4833 71.5513 21.8569C71.8307 22.3231 72.0848 22.7792 72.323 23.2344C72.588 23.7174 72.7622 24.0599 72.9027 24.3713L72.9692 24.511C73.1888 24.9418 73.4127 25.424 73.6373 25.9432C73.83 26.3833 74.0076 26.8166 74.1776 27.2491C74.361 27.7364 74.5546 28.2707 74.7329 28.8135L74.7599 28.8942C74.9122 29.3209 75.0494 29.7551 75.1722 30.1893C75.3573 30.8128 75.5055 31.3749 75.6241 31.9009C75.7596 32.4445 75.8622 32.914 75.9506 33.392C76.0894 34.0862 76.1904 34.6862 76.2703 35.2744C76.3486 35.8239 76.4176 36.349 76.4622 36.8816C76.5362 37.6045 76.5825 38.2734 76.6036 38.9332L76.6086 39.0257C76.6381 39.5138 76.6448 40.0094 76.6448 40.5051V40.7668C76.6347 41.6116 76.6086 42.3294 76.5607 42.9891C76.5102 43.7305 76.4479 44.3826 76.3688 45.0011C76.3326 45.2754 76.2964 45.5599 76.251 45.8367L76.2299 45.9907C76.2097 46.1657 76.1811 46.3408 76.1542 46.5166C76.0987 46.8625 76.0314 47.2344 75.9573 47.5904C75.8025 48.3847 75.6207 49.1698 75.4062 49.9634C75.1158 51.0682 74.7776 52.1352 74.3938 53.1568C73.9967 54.2516 73.5591 55.2984 73.0778 56.3039C72.2195 58.0955 71.1777 59.8719 69.9811 61.5826C67.5441 65.031 64.5518 68.02 61.0984 70.4544C59.4339 71.6299 57.6693 72.6658 55.85 73.5334C54.8781 74.008 53.849 74.4447 52.6751 74.8814C52.0305 75.1153 51.3573 75.3425 50.6774 75.5546C50.2971 75.6716 49.8923 75.7852 49.4892 75.892C48.6377 76.1218 47.8896 76.2951 47.181 76.4255C46.6012 76.5442 46.0938 76.6325 45.5797 76.7083C45.2162 76.7655 44.8981 76.8084 44.5758 76.8446L44.4866 76.8555C43.9018 76.9372 43.2564 77.0003 42.5142 77.0499C41.8107 77.1012 41.0668 77.1273 40.2851 77.1273H40.1361L40.0149 77.1366Z" fill="#2B2B2B"/>
<path d="M22.7375 4.42578L3.92188 23.233C4.88117 21.2218 6.00875 19.3117 7.27939 17.5025L16.9901 7.79172C18.8077 6.51266 20.7263 5.38507 22.7375 4.42578Z" fill="#EFE3CD"/>
<path d="M29.6748 1.85938L1.36719 30.1669C1.67854 28.9804 2.04881 27.8192 2.46113 26.6832L26.1826 2.96172C27.3186 2.54098 28.4883 2.17072 29.6748 1.85938Z" fill="#EFE3CD"/>
<path d="M35.0827 0.806641L0.3125 35.5768C0.430308 34.6175 0.581782 33.6666 0.766909 32.7326L32.2385 1.26104C33.1725 1.07591 34.1234 0.924449 35.0827 0.806641Z" fill="#EFE3CD"/>
<path d="M39.7337 0.512695L0.015625 40.2308C0.015625 39.4062 0.0408747 38.5899 0.0997787 37.7737L37.2766 0.596849C38.0929 0.537945 38.9091 0.512695 39.7337 0.512695Z" fill="#EFE3CD"/>
<path d="M43.909 0.697372L0.202242 44.4041C0.126509 43.6636 0.0760258 42.9231 0.0507812 42.1826L41.6875 0.545898C42.428 0.571143 43.1685 0.621639 43.909 0.697372Z" fill="#EFE3CD"/>
<path d="M47.7269 1.25224L0.755168 48.224C0.620531 47.5508 0.50272 46.8691 0.410156 46.1791L45.6821 0.907227C46.3721 0.998948 47.0537 1.1176 47.7269 1.25224Z" fill="#EFE3CD"/>
<path d="M51.2367 2.10292L1.60585 51.7337C1.42072 51.111 1.25243 50.4883 1.10938 49.8488L49.3517 1.60645C49.9912 1.7495 50.614 1.91779 51.2367 2.10292Z" fill="#EFE3CD"/>
<path d="M54.4936 3.20571L2.70863 54.9907C2.48984 54.4101 2.27948 53.8295 2.08594 53.2404L52.7433 2.58301C53.3324 2.77655 53.913 2.98693 54.4936 3.20571Z" fill="#EFE3CD"/>
<path d="M57.5312 4.53408L4.038 58.0273C3.77714 57.4888 3.52468 56.9418 3.28906 56.3948L55.8987 3.78516C56.4457 4.02077 56.9926 4.27322 57.5312 4.53408Z" fill="#EFE3CD"/>
<path d="M60.3629 6.06633L5.56534 60.8638C5.2624 60.359 4.97631 59.8456 4.70703 59.3323L58.8314 5.20801C59.3447 5.47728 59.858 5.76339 60.3629 6.06633Z" fill="#EFE3CD"/>
<path d="M63.019 7.77412L7.27901 63.5141C6.95924 63.0429 6.63947 62.5716 6.32812 62.092L61.5969 6.82324C62.0765 7.12618 62.5478 7.44595 63.019 7.77412Z" fill="#EFE3CD"/>
<path d="M65.4813 9.66807L9.16904 65.9803C8.81562 65.5511 8.4622 65.1051 8.11719 64.6591L64.1601 8.61621C64.6061 8.95281 65.0521 9.30623 65.4813 9.66807Z" fill="#EFE3CD"/>
<path d="M67.795 11.7284L11.2388 68.2846C10.8433 67.8807 10.4562 67.4684 10.0859 67.0477L66.5496 10.584C66.9704 10.9551 67.3911 11.3422 67.795 11.7284Z" fill="#EFE3CD"/>
<path d="M69.9311 13.9593L13.4675 70.4229C13.0467 70.0527 12.6344 69.6656 12.2305 69.2701L68.7867 12.7139C69.1738 13.1178 69.5609 13.5385 69.9311 13.9593Z" fill="#EFE3CD"/>
<path d="M71.8953 16.3494L15.8524 72.3924C15.4064 72.0474 14.9604 71.694 14.5312 71.3405L70.8435 15.0283C71.2053 15.4575 71.5587 15.9035 71.8953 16.3494Z" fill="#EFE3CD"/>
<path d="M73.6903 18.9163L18.4215 74.185C17.9419 73.8737 17.4706 73.5623 17.0078 73.2257L72.7394 17.4941C73.0676 17.9654 73.3873 18.4366 73.6903 18.9163Z" fill="#EFE3CD"/>
<path d="M75.3043 21.676L21.1799 75.8004C20.6666 75.5227 20.1533 75.2366 19.6484 74.9421L74.446 20.1445C74.7489 20.6494 75.035 21.1627 75.3043 21.676Z" fill="#EFE3CD"/>
<path d="M76.7259 24.6133L24.1162 77.223C23.5693 76.9874 23.0307 76.7349 22.4922 76.4657L75.9686 22.9893C76.2378 23.5186 76.4903 24.0664 76.7259 24.6133Z" fill="#EFE3CD"/>
<path d="M77.9267 27.7679L27.2692 78.4253C26.6802 78.2317 26.0996 78.0214 25.5273 77.7942L77.3039 26.0176C77.5227 26.5982 77.7331 27.1788 77.9267 27.7679Z" fill="#EFE3CD"/>
<path d="M78.9046 31.1593L30.6623 79.4017C30.0227 79.2502 29.4 79.0819 28.7773 78.9052L78.4081 29.2744C78.5933 29.8971 78.7615 30.5282 78.9046 31.1593Z" fill="#EFE3CD"/>
<path d="M79.6058 34.829L34.3339 80.1009C33.6439 80.0083 32.9623 79.8905 32.2891 79.7559L79.2608 32.7842C79.3954 33.4574 79.5132 34.139 79.6058 34.829Z" fill="#EFE3CD"/>
<path d="M79.9676 38.825L38.3309 80.4618C37.5904 80.4365 36.8499 80.386 36.1094 80.3103L79.8161 36.6035C79.8919 37.3356 79.9423 38.0761 79.9676 38.825Z" fill="#EFE3CD"/>
<path d="M80.0078 40.7686C79.9994 41.5932 79.9741 42.4179 79.9152 43.2341L42.7384 80.4109C41.9306 80.4698 41.1059 80.4951 40.2812 80.4951L80.0078 40.7686Z" fill="#EFE3CD"/>
<path d="M79.7032 45.4307C79.6611 45.7504 79.619 46.0702 79.5685 46.3815C79.5433 46.6003 79.5096 46.8191 79.4759 47.0379C79.4086 47.4502 79.3329 47.871 79.2488 48.2749L47.7856 79.738C47.2134 79.8558 46.6412 79.9568 46.0606 80.041C45.6903 80.0999 45.3201 80.1503 44.9414 80.1924L45.5809 79.5613L79.1646 45.9776L79.7032 45.4307Z" fill="#EFE3CD"/>
<path d="M78.6513 50.8408C78.34 52.0273 77.9697 53.197 77.5406 54.3414L53.8443 78.0376C53.1291 78.2985 52.4054 78.5425 51.6733 78.7697C51.2357 78.9044 50.7897 79.0306 50.3438 79.1484L78.6513 50.8408Z" fill="#EFE3CD"/>
<path d="M76.1086 57.7588C75.1409 59.7784 74.0049 61.6969 72.7342 63.5145L63.0319 73.2085C61.2227 74.4875 59.3041 75.6151 57.293 76.5744L76.1086 57.7588Z" fill="#EFE3CD"/>
<path d="M79.5725 46.3799C79.5472 46.5987 79.5135 46.8175 79.4799 47.0363C79.4126 47.4486 79.3368 47.8694 79.2527 48.2733C79.0844 49.14 78.8824 49.9983 78.6552 50.8398C78.3439 52.0263 77.9736 53.196 77.5445 54.3404C77.1237 55.5016 76.6441 56.6461 76.1139 57.7568C75.1462 59.7764 74.0102 61.695 72.7396 63.5126C70.0805 67.274 66.7987 70.5558 63.0373 73.2065C61.2281 74.4856 59.3095 75.6132 57.2983 76.5724C56.1792 77.1194 55.0263 77.599 53.8482 78.0366C53.133 78.2975 52.4093 78.5415 51.6772 78.7687C51.2397 78.9033 50.7937 79.0296 50.3477 79.1474C49.5062 79.3746 48.6563 79.5765 47.7895 79.7364C47.2173 79.8542 46.6451 79.9552 46.0645 80.0394L44.5919 78.5668L43.4054 77.3803L42.4125 76.3873L40.233 74.2079L39.0381 73.013L38.0452 72.02L36.8587 70.8335L35.8657 69.8406L34.6792 68.6541L33.6863 67.6611L31.5068 65.4817L30.3119 64.2868L29.319 63.2938L18.2534 52.2283C18.0178 51.7486 17.8411 51.2269 17.7317 50.6884C17.6475 50.2844 17.6055 49.8721 17.6055 49.4429V31.3763C17.6391 30.0131 18.1019 28.7508 18.8677 27.7242C19.238 27.2277 19.6839 26.7817 20.1804 26.4115C21.207 25.6289 22.4777 25.1577 23.8493 25.1324C23.8998 25.124 23.9587 25.124 24.0092 25.124H56.0109C56.1287 25.124 56.2465 25.124 56.3559 25.1409C57.0459 25.1661 57.7107 25.3176 58.325 25.5616C58.6111 25.671 58.8803 25.7972 59.1412 25.9487L59.5367 26.3442L61.5731 28.3806L61.7161 28.5236L62.9026 29.7101L65.0905 31.898L66.075 32.8825L67.2699 34.0774L68.2629 35.0704L69.4494 36.2569L70.4423 37.2498L71.6288 38.4363L73.8167 40.6242L74.8097 41.6171L75.9961 42.8036L76.9891 43.7966L78.1756 44.9831L79.1685 45.976L79.5725 46.3799Z" fill="#EFE3CD"/>
<path d="M61.5731 28.3806C61.0009 27.3708 60.1594 26.5209 59.1412 25.9487C58.2156 25.4186 57.1469 25.124 56.0109 25.124H24.0092C20.4918 25.124 17.6055 28.0019 17.6055 31.5277V49.4429C17.6055 50.4359 17.8411 51.3868 18.2534 52.2283C18.8761 53.5157 19.9364 54.576 21.2239 55.1987C22.0654 55.6111 23.0162 55.8467 24.0092 55.8467H56.0109C59.5283 55.8467 62.4062 52.9604 62.4062 49.4429V31.5277C62.4062 30.3833 62.1032 29.3062 61.5731 28.3806ZM35.3776 45.976V33.3958L47.4866 39.707L35.3776 45.976Z" fill="#2B2B2B"/>
</svg>
