<svg width="32" height="32" viewBox="0 0 32 32" fill="none" xmlns="http://www.w3.org/2000/svg">
<path d="M18.2082 27.9918C20.4332 27.8523 22.4982 26.7623 23.8632 24.9978C24.5382 24.1168 25.0132 23.0973 25.2482 22.0173C26.1982 17.7773 23.3332 13.9918 20.8282 10.9023C20.7082 10.7528 20.5882 10.6023 20.4682 10.4578C19.0282 8.63731 18.5132 6.25781 19.0782 4.00781C15.9232 5.26781 13.3182 7.61231 11.7332 10.6123C10.9082 12.1173 10.3182 13.7373 9.98319 15.4178C9.57319 14.4578 9.32319 13.4323 9.22819 12.3923C7.36819 15.2528 6.00819 18.6023 6.79319 22.0573C7.03319 23.1278 7.50319 24.1278 8.17319 24.9978C9.52819 26.7478 11.5682 27.8378 13.7782 27.9873C12.3182 27.0878 11.7482 25.2478 12.4532 23.6828C13.3682 21.6828 15.1582 20.2228 15.9982 18.1778C16.8382 20.2228 18.6282 21.6828 19.5432 23.6828C20.2482 25.2528 19.6732 27.0973 18.2082 27.9918Z" fill="#EFE3CD"/>
</svg>
