<svg width="40" height="40" viewBox="0 0 40 40" fill="none" xmlns="http://www.w3.org/2000/svg">
<g clip-path="url(#clip0_2640_12889)">
<path d="M1.17188 14.8959C1.81906 14.8959 2.34375 14.3712 2.34375 13.724V7.44789C2.34375 4.63352 4.63352 2.34375 7.44789 2.34375H13.724C14.3712 2.34375 14.8959 1.81906 14.8959 1.17188C14.8959 0.524688 14.3712 0 13.724 0H7.44789C3.34117 0 0 3.34117 0 7.44789V13.724C0 14.3712 0.524688 14.8959 1.17188 14.8959Z" fill="#2C2C2C"/>
<path d="M13.724 37.6566H7.44789C4.63352 37.6566 2.34375 35.3668 2.34375 32.5525V26.2764C2.34375 25.6292 1.81906 25.1045 1.17188 25.1045C0.524688 25.1045 0 25.6292 0 26.2764V32.5525C0 36.6592 3.34117 40.0004 7.44789 40.0004H13.724C14.3712 40.0004 14.8959 39.4757 14.8959 38.8285C14.8959 38.1813 14.3712 37.6566 13.724 37.6566Z" fill="#2C2C2C"/>
<path d="M32.5534 0H26.2773C25.6302 0 25.1055 0.524688 25.1055 1.17188C25.1055 1.81906 25.6302 2.34375 26.2773 2.34375H32.5534C35.3678 2.34375 37.6576 4.63352 37.6576 7.44789V13.724C37.6576 14.3712 38.1823 14.8959 38.8295 14.8959C39.4766 14.8959 40.0013 14.3712 40.0013 13.724V7.44789C40.0013 3.34117 36.6602 0 32.5534 0Z" fill="#2C2C2C"/>
<path d="M38.8295 25.1045C38.1823 25.1045 37.6576 25.6292 37.6576 26.2764V32.5525C37.6576 35.3668 35.3678 37.6566 32.5534 37.6566H26.2773C25.6302 37.6566 25.1055 38.1813 25.1055 38.8285C25.1055 39.4757 25.6302 40.0004 26.2773 40.0004H32.5534C36.6602 40.0004 40.0013 36.6592 40.0013 32.5525V26.2764C40.0013 25.6292 39.4766 25.1045 38.8295 25.1045Z" fill="#2C2C2C"/>
</g>
<defs>
<clipPath id="clip0_2640_12889">
<rect width="40" height="40" fill="white"/>
</clipPath>
</defs>
</svg>
