<svg width="32" height="32" viewBox="0 0 32 32" fill="none" xmlns="http://www.w3.org/2000/svg">
<g clip-path="url(#clip0_2569_19087)">
<path d="M16.0008 0.800049C7.60078 0.800049 0.800781 7.60005 0.800781 16C0.800781 24.4 7.60078 31.2001 16.0008 31.2001C24.4008 31.2001 31.2008 24.4 31.2008 16C31.2008 7.60005 24.4008 0.800049 16.0008 0.800049ZM16.0008 28.2001C9.30078 28.2001 3.80078 22.7 3.80078 16C3.80078 9.30005 9.30078 3.80005 16.0008 3.80005C22.7008 3.80005 28.2008 9.30005 28.2008 16C28.2008 22.7 22.7008 28.2001 16.0008 28.2001Z" fill="#2C2C2C"/>
<path d="M16.7992 13.6001H15.1992C14.8992 13.6001 14.6992 13.8001 14.6992 14.1001V23.2001C14.6992 23.5001 14.8992 23.7001 15.1992 23.7001H16.7992C17.0992 23.7001 17.2992 23.5001 17.2992 23.2001V14.1001C17.2992 13.8001 17.0992 13.6001 16.7992 13.6001Z" fill="#2C2C2C"/>
<path d="M14.6992 8.79999C14.2992 9.19999 14.1992 9.59999 14.1992 10.1C14.1992 10.6 14.3992 11.1 14.6992 11.4C14.9992 11.8 15.4992 12 15.9992 12C16.4992 12 16.9992 11.8 17.2992 11.5C17.5992 11.2 17.7992 10.7 17.7992 10.2C17.7992 9.69999 17.5992 9.19999 17.2992 8.89999C16.5992 8.09999 15.3992 8.09999 14.6992 8.79999Z" fill="#2C2C2C"/>
</g>
<defs>
<clipPath id="clip0_2569_19087">
<rect width="32" height="32" fill="white"/>
</clipPath>
</defs>
</svg>
