<svg width="80" height="81" viewBox="0 0 80 81" fill="none" xmlns="http://www.w3.org/2000/svg">
<path d="M80 40.5071V40.768C80 41.113 79.9916 41.458 79.9747 41.803C79.9663 42.2827 79.9411 42.7623 79.9074 43.2335C79.8569 43.974 79.7896 44.7061 79.6971 45.4298C79.6298 45.9684 79.554 46.5069 79.4699 47.0371C79.4026 47.4494 79.3268 47.8701 79.2427 48.274C79.0744 49.1408 78.8724 49.9991 78.6452 50.8406C78.3339 52.0271 77.9636 53.1967 77.5344 54.3412C77.1137 55.5024 76.6341 56.6468 76.1039 57.7576C75.1362 59.7771 74.0002 61.6957 72.7296 63.5133C70.0705 67.2748 66.7887 70.5566 63.0272 73.2073C61.2181 74.4863 59.2995 75.6139 57.2883 76.5732C56.1691 77.1202 55.0163 77.5998 53.8382 78.0374C53.123 78.2982 52.3993 78.5423 51.6672 78.7695C51.2296 78.9041 50.7836 79.0303 50.3376 79.1481C49.4962 79.3753 48.6463 79.5773 47.7795 79.7372C46.8455 79.9307 45.8946 80.0822 44.9353 80.1916C44.2032 80.2925 43.4711 80.3599 42.7306 80.4104C42.1584 80.4524 41.5862 80.4777 41.0056 80.4861C40.7616 80.4945 40.5175 80.4945 40.2735 80.4945C40.1809 80.5029 40.0968 80.5029 40.0042 80.5029C39.4404 80.5029 38.885 80.4945 38.3212 80.4609C37.5807 80.4356 36.8402 80.3851 36.0997 80.3094C35.5023 80.2589 34.9132 80.1832 34.3242 80.099C33.6342 80.0065 32.9526 79.8886 32.2794 79.754C31.7324 79.653 31.1939 79.5352 30.6553 79.4006C30.0158 79.2491 29.3931 79.0808 28.7704 78.9041C28.2655 78.7526 27.7606 78.6012 27.2641 78.4245C26.6751 78.2309 26.0945 78.0205 25.5222 77.7933C25.0426 77.6166 24.5714 77.4231 24.1086 77.2211C23.5616 76.9855 23.023 76.7331 22.4845 76.4638C22.0469 76.2534 21.6093 76.0346 21.1718 75.799C20.6585 75.5213 20.1452 75.2352 19.6403 74.9407C19.2279 74.6967 18.8156 74.4442 18.4117 74.1834C17.9321 73.872 17.4608 73.5607 16.998 73.2241C16.6109 72.9548 16.2238 72.6771 15.8452 72.391C15.3992 72.046 14.9532 71.6926 14.524 71.3392C14.1622 71.0362 13.8088 70.7333 13.4554 70.4219C13.0346 70.0517 12.6223 69.6646 12.2184 69.2691C11.8734 68.9493 11.5452 68.6212 11.2338 68.2846C10.8383 67.8806 10.4513 67.4683 10.081 67.0476C9.76965 66.6942 9.46671 66.3407 9.16377 65.9789C8.81035 65.5497 8.45693 65.1037 8.11192 64.6578C7.82581 64.2791 7.54812 63.9004 7.27043 63.5133C6.95067 63.0421 6.63091 62.5709 6.31956 62.0912C6.0587 61.6873 5.80625 61.275 5.56222 60.8627C5.25928 60.3578 4.97319 59.8445 4.70391 59.3312C4.4683 58.902 4.24951 58.4644 4.03072 58.0269C3.76986 57.4883 3.51742 56.9413 3.2818 56.3944C3.07984 55.9316 2.8863 55.4603 2.70117 54.9891C2.48239 54.4085 2.27201 53.8278 2.07847 53.2388C1.90176 52.7423 1.74188 52.2374 1.59883 51.7325C1.4137 51.1098 1.24541 50.4871 1.10236 49.8476C0.967719 49.3091 0.8499 48.7705 0.748921 48.2236C0.614284 47.5504 0.496486 46.8688 0.403922 46.1787C0.319774 45.5897 0.24404 45.0007 0.193551 44.4032C0.117817 43.6627 0.0673214 42.9222 0.0420768 42.1817C0.00841742 41.6263 0 41.0709 0 40.5071C0 40.4146 8.21782e-06 40.322 0.00842307 40.2294C0.00842307 39.4048 0.0336599 38.5885 0.0925639 37.7723C0.143053 37.0318 0.210372 36.3081 0.302935 35.576C0.420743 34.6167 0.572218 33.6659 0.757344 32.7318C0.925641 31.8651 1.12759 31.0068 1.35479 30.1653C1.66614 28.9788 2.0364 27.8175 2.44872 26.6815C2.8863 25.5034 3.37436 24.3506 3.91291 23.2314C4.87221 21.2203 5.99979 19.3101 7.27043 17.5009C9.92111 13.7395 13.2113 10.4409 16.9812 7.79019C18.7988 6.51113 20.7174 5.38354 22.7285 4.42425C23.8477 3.87728 25.0005 3.38922 26.1702 2.96006C27.3062 2.53932 28.4759 2.16906 29.6624 1.85772C30.5038 1.63051 31.3622 1.42856 32.2289 1.26026C33.1629 1.07513 34.1138 0.923666 35.0731 0.805858C35.7968 0.713295 36.5289 0.645976 37.2694 0.595487C38.0856 0.536583 38.9019 0.51134 39.7265 0.51134C39.8191 0.502925 39.9117 0.50293 40.0042 0.50293C40.568 0.50293 41.1234 0.511341 41.6788 0.545C42.4193 0.570245 43.1598 0.620734 43.9003 0.696468C44.4977 0.746957 45.0868 0.82269 45.6758 0.906839C46.3658 0.999402 47.0474 1.11721 47.7206 1.25185C48.2676 1.35283 48.8061 1.47064 49.3447 1.60527C49.9842 1.74833 50.6069 1.91662 51.2296 2.10175C51.7345 2.2448 52.2394 2.40468 52.7359 2.58139C53.3249 2.77493 53.9056 2.98531 54.4862 3.2041C54.9574 3.38922 55.4286 3.58276 55.8914 3.78472C56.4384 4.02033 56.9854 4.27278 57.5239 4.53364C57.9615 4.74401 58.3991 4.97121 58.8282 5.20683C59.3416 5.4761 59.8548 5.76221 60.3597 6.06514C60.7721 6.30917 61.1844 6.56162 61.5883 6.82248C62.068 7.12541 62.5392 7.44518 63.0104 7.77336C63.3975 8.05105 63.7762 8.32874 64.1548 8.61485C64.6008 8.95144 65.0468 9.30486 65.476 9.6667C65.8378 9.96122 66.1912 10.2642 66.5447 10.5839C66.9654 10.9542 67.3861 11.3413 67.7901 11.7283C68.1267 12.0565 68.4464 12.3763 68.7746 12.7129C69.1617 13.1168 69.5488 13.5375 69.919 13.9583C70.2388 14.3117 70.5417 14.6651 70.8362 15.027C71.1981 15.4561 71.5515 15.9021 71.8881 16.3481C72.1742 16.7268 72.4519 17.1054 72.7296 17.4925C73.0578 17.9637 73.3775 18.435 73.6805 18.9146C73.9413 19.3185 74.1938 19.7309 74.4378 20.1432C74.7407 20.6481 75.0268 21.1614 75.2961 21.6747C75.5317 22.1039 75.7589 22.5414 75.9609 22.9874C76.2301 23.5175 76.4826 24.0645 76.7182 24.6115C76.9202 25.0743 77.1137 25.5455 77.2988 26.0168C77.5176 26.5974 77.728 27.178 77.9215 27.767C78.0982 28.2635 78.2581 28.7684 78.4012 29.2733C78.5863 29.896 78.7546 30.5271 78.8977 31.1582C79.0323 31.6968 79.1501 32.2353 79.2511 32.7823C79.3857 33.4555 79.5035 34.1371 79.5961 34.8271C79.6802 35.4161 79.756 36.0052 79.8065 36.6026C79.8822 37.3347 79.9327 38.0752 79.9579 38.8242C79.9916 39.3795 80 39.9433 80 40.5071Z" fill="#EFE3CD"/>
<path d="M40.0052 77.138C39.5087 77.138 39.019 77.1321 38.5225 77.1018L38.435 77.0976C37.7744 77.0749 37.1046 77.0294 36.444 76.9613C35.8508 76.9099 35.3257 76.8418 34.8006 76.7669C34.1931 76.6852 33.5931 76.5843 32.9393 76.4538C32.4133 76.3562 31.9421 76.2527 31.4709 76.1357C30.8414 75.986 30.2659 75.8303 29.6903 75.6662C29.2864 75.545 28.8362 75.4112 28.3936 75.2539C27.7911 75.0553 27.2735 74.8676 26.7644 74.6657C26.2688 74.4822 25.859 74.3131 25.4568 74.1372C24.9502 73.9193 24.4705 73.6938 23.9892 73.4531C23.5516 73.2419 23.1604 73.0475 22.7691 72.8363C22.2928 72.578 21.8106 72.3104 21.3369 72.0335C20.9801 71.8223 20.6056 71.5934 20.2387 71.3561C19.8155 71.081 19.393 70.8033 18.9782 70.502C18.5692 70.2168 18.2175 69.9643 17.8733 69.7051C17.4871 69.4056 17.068 69.0732 16.6649 68.7416C16.346 68.4749 16.0136 68.1896 15.6821 67.8968C15.3034 67.5635 14.9348 67.2177 14.5738 66.8634L14.5099 66.8028C14.2288 66.5411 13.9612 66.2744 13.7063 66.0001L13.6406 65.9302C13.2864 65.5684 12.9397 65.1998 12.6073 64.8228C12.3161 64.4921 12.0309 64.1597 11.7465 63.8198C11.4317 63.4361 11.0994 63.017 10.7745 62.5979C10.5372 62.2841 10.2848 61.9391 10.0315 61.5865C9.72183 61.1304 9.429 60.6987 9.14374 60.2586C8.91065 59.8976 8.68176 59.5232 8.45961 59.1487C8.17939 58.6808 7.92442 58.2239 7.68544 57.7678C7.44394 57.3277 7.24956 56.9364 7.05349 56.546C6.8204 56.0655 6.58898 55.5648 6.37356 55.0633C6.18086 54.6215 6.00415 54.1898 5.83333 53.7573C5.64905 53.2676 5.45467 52.7324 5.27628 52.1888C5.09788 51.6839 4.95987 51.2497 4.83785 50.8155C4.64431 50.1633 4.50126 49.6214 4.38682 49.1131C4.2505 48.562 4.147 48.0907 4.05864 47.6119C3.9198 46.9169 3.81798 46.3169 3.73972 45.7304C3.66146 45.1792 3.59246 44.6533 3.54702 44.1198C3.47381 43.3986 3.42837 42.7279 3.40565 42.0682L3.40144 41.9782C3.37199 41.4901 3.36526 41.0029 3.36526 40.5073L3.35938 40.5426L3.37368 40.3861V40.2296C3.37368 39.4403 3.39808 38.7166 3.44941 38.0156C3.49906 37.2835 3.56217 36.6289 3.64211 35.9994C3.75151 35.1066 3.89118 34.2323 4.05948 33.3866C4.20842 32.6183 4.39103 31.8349 4.60477 31.0431C4.88246 29.9828 5.21064 28.9394 5.61287 27.8295C6.00837 26.765 6.4594 25.7013 6.94578 24.6916C7.80662 22.8857 8.8408 21.1211 10.0248 19.4348C12.4701 15.9654 15.4624 12.9722 18.9167 10.5428C20.593 9.36307 22.3626 8.3272 24.1769 7.46131C25.201 6.96147 26.2511 6.5138 27.3299 6.1183C28.3784 5.73037 29.4479 5.39294 30.5166 5.11188C31.3261 4.8931 32.1112 4.71049 32.8711 4.56323C33.7294 4.39325 34.6046 4.25357 35.4839 4.14501C36.1175 4.06423 36.7714 4.00197 37.4984 3.95232C38.2137 3.90099 38.9382 3.87658 39.7267 3.87658H39.8832L39.9732 3.86816C40.5177 3.86816 40.9973 3.8749 41.4761 3.90351L41.562 3.90772C42.2242 3.93044 42.8957 3.97672 43.558 4.04403C44.1487 4.09452 44.6729 4.16269 45.198 4.23758C45.8098 4.32004 46.4089 4.42102 47.0594 4.55145C47.5853 4.64907 48.0565 4.75173 48.5261 4.86953L48.6094 4.88889C49.1151 5.00249 49.6587 5.14554 50.2713 5.3273C50.7459 5.46194 51.1801 5.59995 51.6068 5.75141C52.2295 5.95674 52.7647 6.15112 53.3015 6.35307C53.6869 6.50538 54.1211 6.68378 54.5461 6.8689C55.0585 7.09021 55.5609 7.32246 56.0548 7.56144C56.4503 7.75162 56.8341 7.95105 57.2111 8.15806C57.7193 8.42565 58.1771 8.68062 58.6273 8.94989C59.0202 9.18214 59.3939 9.41103 59.7608 9.64833C60.2295 9.94453 60.6578 10.2365 61.0878 10.5353C61.4118 10.7675 61.7677 11.0284 62.122 11.2968C62.5242 11.6006 62.9222 11.9153 63.3043 12.2384C63.6661 12.5338 63.9766 12.7989 64.2863 13.0791C64.7053 13.4485 65.0907 13.8019 65.4601 14.1562C65.7563 14.4448 66.0551 14.7444 66.3622 15.0591C66.698 15.4108 67.0531 15.7962 67.393 16.1825C67.7018 16.5241 67.9678 16.8329 68.2236 17.1493C68.5854 17.5785 68.901 17.9765 69.2014 18.3754C69.4715 18.733 69.7332 19.0898 69.994 19.4542C70.265 19.8446 70.5579 20.2746 70.8347 20.713C71.0914 21.1094 71.3194 21.4838 71.5416 21.8574C71.8184 22.3211 72.0742 22.778 72.3132 23.2349C72.5749 23.7121 72.7491 24.0554 72.8938 24.376L72.9595 24.5123C73.1782 24.9423 73.4021 25.4237 73.6268 25.9437C73.8178 26.3821 73.9953 26.8146 74.1645 27.2463C74.3513 27.7394 74.5448 28.2738 74.7224 28.8157C74.9016 29.3214 75.0388 29.7556 75.1616 30.1898C75.3468 30.8142 75.4948 31.3763 75.6135 31.9014C75.749 32.445 75.8516 32.9162 75.94 33.3934C76.0788 34.0893 76.1798 34.6884 76.2598 35.2758C76.338 35.8278 76.4062 36.3537 76.4525 36.888C76.5248 37.5957 76.5711 38.2656 76.593 38.9379L76.598 39.0271C76.6275 39.5152 76.6334 40.0108 76.6334 40.5064V40.7673C76.6334 41.0593 76.6266 41.3504 76.6132 41.6424L76.6098 41.7392C76.6014 42.1591 76.5795 42.5799 76.5501 42.9922C76.4996 43.7302 76.4365 44.3857 76.3582 45.005C76.2943 45.5124 76.2244 46.0131 76.1453 46.5054C76.0881 46.8588 76.0216 47.2316 75.9467 47.5892C75.7919 48.3853 75.6093 49.1704 75.3955 49.9639C75.1069 51.0637 74.7686 52.1315 74.3832 53.159C73.9886 54.2454 73.551 55.293 73.0663 56.3078C72.2097 58.096 71.1679 59.8732 69.9713 61.5848C67.5336 65.034 64.5412 68.023 61.0886 70.4557C59.4259 71.6313 57.6621 72.6663 55.8403 73.5356C54.8616 74.0135 53.8333 74.4494 52.6662 74.8828C52.025 75.1167 51.3476 75.3456 50.6693 75.556C50.2831 75.6746 49.88 75.7882 49.477 75.8951C48.6254 76.1248 47.8764 76.2982 47.1688 76.4286C46.2726 76.6137 45.4168 76.75 44.5534 76.8493C43.8912 76.9394 43.2449 77.0033 42.5019 77.0538C41.9776 77.0925 41.4719 77.1144 40.9586 77.122C40.7205 77.1296 40.5345 77.1304 40.357 77.1304C40.3292 77.1304 40.1239 77.1304 40.1239 77.1304L40.0052 77.138Z" fill="#2B2B2B"/>
<path d="M22.7375 4.42383L3.92188 23.231C4.88117 21.2199 6.00876 19.3097 7.27941 17.5005L16.9901 7.78977C18.8077 6.51071 20.7263 5.38312 22.7375 4.42383Z" fill="#EFE3CD"/>
<path d="M29.6748 1.85742L1.36719 30.165C1.67854 28.9785 2.04879 27.8172 2.46112 26.6812L26.1826 2.95977C27.3186 2.53903 28.4883 2.16877 29.6748 1.85742Z" fill="#EFE3CD"/>
<path d="M35.0827 0.804688L0.3125 35.5749C0.430308 34.6156 0.581782 33.6647 0.766909 32.7306L32.2385 1.25909C33.1725 1.07396 34.1234 0.922495 35.0827 0.804688Z" fill="#EFE3CD"/>
<path d="M39.7337 0.510742L0.015625 40.2288C0.015625 39.4042 0.0408619 38.5879 0.0997658 37.7717L37.2766 0.594889C38.0928 0.535985 38.9091 0.510742 39.7337 0.510742Z" fill="#EFE3CD"/>
<path d="M43.909 0.695413L0.202255 44.4021C0.126522 43.6616 0.0760258 42.9211 0.0507812 42.1806L41.6875 0.543945C42.428 0.56919 43.1685 0.619679 43.909 0.695413Z" fill="#EFE3CD"/>
<path d="M47.7269 1.25029L0.755168 48.222C0.620531 47.5488 0.50272 46.8672 0.410156 46.1772L45.6821 0.905273C46.3721 0.997837 47.0537 1.11565 47.7269 1.25029Z" fill="#EFE3CD"/>
<path d="M51.2367 2.10097L1.60585 51.7318C1.42072 51.1091 1.25243 50.4864 1.10938 49.8468L49.3517 1.60449C49.9912 1.74754 50.614 1.91584 51.2367 2.10097Z" fill="#EFE3CD"/>
<path d="M54.4936 3.20376L2.70864 54.9888C2.48986 54.4081 2.27948 53.8275 2.08594 53.2385L52.7433 2.58105C53.3324 2.7746 53.913 2.98497 54.4936 3.20376Z" fill="#EFE3CD"/>
<path d="M57.5312 4.53212L4.03798 58.0253C3.77712 57.4868 3.52468 56.9398 3.28906 56.3929L55.8987 3.7832C56.4457 4.01882 56.9926 4.27126 57.5312 4.53212Z" fill="#EFE3CD"/>
<path d="M60.3629 6.06437L5.56534 60.8619C5.2624 60.357 4.97631 59.8437 4.70703 59.3304L58.8314 5.20605C59.3447 5.47533 59.858 5.76143 60.3629 6.06437Z" fill="#EFE3CD"/>
<path d="M63.019 7.77217L7.27901 63.5122C6.95924 63.0409 6.63947 62.5697 6.32812 62.09L61.5969 6.82129C62.0765 7.12422 62.5478 7.44399 63.019 7.77217Z" fill="#EFE3CD"/>
<path d="M65.4812 9.66611L9.16904 65.9783C8.81562 65.5491 8.4622 65.1032 8.11719 64.6572L64.1601 8.61426C64.6061 8.95085 65.0521 9.30428 65.4812 9.66611Z" fill="#EFE3CD"/>
<path d="M67.795 11.7274L11.2388 68.2836C10.8433 67.8797 10.4562 67.4674 10.0859 67.0467L66.5496 10.583C66.9703 10.9533 67.3911 11.3403 67.795 11.7274Z" fill="#EFE3CD"/>
<path d="M69.9311 13.9573L13.4675 70.421C13.0467 70.0507 12.6344 69.6636 12.2305 69.2681L68.7867 12.7119C69.1738 13.1158 69.5609 13.5366 69.9311 13.9573Z" fill="#EFE3CD"/>
<path d="M71.8953 16.3475L15.8524 72.3904C15.4064 72.0454 14.9604 71.692 14.5312 71.3386L70.8434 15.0264C71.2053 15.4555 71.5587 15.9015 71.8953 16.3475Z" fill="#EFE3CD"/>
<path d="M73.6903 18.9143L18.4215 74.183C17.9419 73.8717 17.4706 73.5603 17.0078 73.2237L72.7394 17.4922C73.0676 17.9634 73.3873 18.4347 73.6903 18.9143Z" fill="#EFE3CD"/>
<path d="M75.3043 21.6741L21.1799 75.7984C20.6666 75.5207 20.1533 75.2346 19.6484 74.9401L74.4459 20.1426C74.7489 20.6475 75.035 21.1608 75.3043 21.6741Z" fill="#EFE3CD"/>
<path d="M76.7259 24.6114L24.1163 77.221C23.5693 76.9854 23.0307 76.733 22.4922 76.4637L75.9686 22.9873C76.2379 23.5174 76.4903 24.0644 76.7259 24.6114Z" fill="#EFE3CD"/>
<path d="M77.9266 27.7659L27.2692 78.4233C26.6802 78.2298 26.0996 78.0194 25.5273 77.7922L77.3039 26.0156C77.5227 26.5962 77.7331 27.1769 77.9266 27.7659Z" fill="#EFE3CD"/>
<path d="M78.9046 31.1574L30.6623 79.3997C30.0227 79.2483 29.4 79.08 28.7773 78.9033L78.4081 29.2725C78.5933 29.8952 78.7616 30.5263 78.9046 31.1574Z" fill="#EFE3CD"/>
<path d="M79.6058 34.827L34.3339 80.0989C33.6439 80.0064 32.9623 79.8886 32.2891 79.7539L79.2608 32.7822C79.3954 33.4554 79.5132 34.137 79.6058 34.827Z" fill="#EFE3CD"/>
<path d="M79.9676 38.8231L38.3309 80.4598C37.5904 80.4345 36.8499 80.384 36.1094 80.3083L79.8161 36.6016C79.8919 37.3337 79.9423 38.0742 79.9676 38.8231Z" fill="#EFE3CD"/>
<path d="M80.0078 40.7666C80.0078 41.1116 79.9993 41.4566 79.9825 41.8016C79.9741 42.2813 79.9489 42.7609 79.9152 43.2321L42.7384 80.409C42.1662 80.451 41.594 80.4763 41.0134 80.4847C40.7693 80.4931 40.5253 80.4931 40.2812 80.4931L80.0078 40.7666Z" fill="#EFE3CD"/>
<path d="M79.7032 45.4297C79.6358 45.9682 79.5601 46.5068 79.476 47.0369C79.4086 47.4493 79.3329 47.87 79.2488 48.2739L47.7856 79.737C46.8516 79.9306 45.9007 80.0821 44.9414 80.1914L79.7032 45.4297Z" fill="#EFE3CD"/>
<path d="M78.6474 50.8398C78.3361 52.0263 77.9658 53.196 77.5367 54.3404L53.8404 78.0366C53.1252 78.2975 52.4015 78.5415 51.6694 78.7687C51.2318 78.9034 50.7858 79.0296 50.3398 79.1474L78.6474 50.8398Z" fill="#EFE3CD"/>
<path d="M76.1086 57.7568C75.1409 59.7764 74.0049 61.695 72.7342 63.5126L63.0319 73.2065C61.2227 74.4856 59.3041 75.6132 57.293 76.5724L76.1086 57.7568Z" fill="#EFE3CD"/>
<path d="M79.9746 41.8019C79.9662 42.2816 79.941 42.7612 79.9073 43.2324C79.8568 43.9729 79.7895 44.705 79.6969 45.4287C79.6296 45.9673 79.5539 46.5058 79.4697 47.0359C79.4024 47.4483 79.3267 47.869 79.2425 48.2729C79.0742 49.1397 78.8723 49.998 78.6451 50.8395C78.3337 52.026 77.9635 53.1956 77.5343 54.34C77.1136 55.5013 76.6339 56.6457 76.1038 57.7565C75.1361 59.776 74.0001 61.6946 72.7294 63.5122C70.0703 67.2737 66.7885 70.5555 63.0271 73.2061C61.2179 74.4852 59.2993 75.6128 57.2882 76.5721C56.169 77.119 55.0162 77.5987 53.8381 78.0363C53.1228 78.2971 52.3992 78.5412 51.6671 78.7684C51.2295 78.903 50.7835 79.0292 50.3375 79.147C49.496 79.3742 48.6461 79.5762 47.7794 79.7361C46.8454 79.9296 45.8945 80.0811 44.9352 80.1905C44.2031 80.2914 43.471 80.3588 42.7305 80.4093C42.1583 80.4513 41.5861 80.4766 41.0054 80.485L18.3442 57.8238C18.2264 57.5966 18.117 57.361 18.0161 57.1254C17.772 56.5531 17.5701 55.9557 17.4354 55.333C17.3092 54.7692 17.2251 54.1802 17.1998 53.5827C17.1914 53.4312 17.1914 53.2798 17.1914 53.1199V27.8922C17.1914 27.7239 17.1914 27.5556 17.2082 27.3873C17.2587 26.3522 17.4607 25.3593 17.8057 24.4252C18.8239 21.5894 21.0791 19.3343 23.9149 18.3076C24.8489 17.9626 25.8419 17.7607 26.8853 17.7102C27.0536 17.6934 27.2219 17.6934 27.3902 17.6934H52.6179C52.7694 17.6934 52.9209 17.6934 53.0723 17.7102C53.6698 17.727 54.2588 17.8112 54.8311 17.9374C55.4538 18.072 56.0512 18.274 56.6234 18.518C56.6655 18.5348 56.6991 18.5517 56.7412 18.5685L57.65 19.4773L58.8449 20.6722L59.8294 21.6568L61.0244 22.8517L61.95 23.7773L62.0173 23.8446L65.3833 27.2106L66.3762 28.2035L67.5711 29.3984L68.5641 30.3914L69.7506 31.5779L70.7435 32.5708L71.93 33.7573L74.1179 35.9452L75.1024 36.9297L76.2973 38.1246L78.4768 40.3041L79.4697 41.297L79.9746 41.8019Z" fill="#EFE3CD"/>
<path d="M61.95 23.7792C60.9234 21.4567 59.0553 19.5971 56.7412 18.5705C55.479 18.0067 54.0821 17.6953 52.6179 17.6953H27.3902C21.7691 17.6953 17.1914 22.2646 17.1914 27.8941V53.1218C17.1914 54.8216 17.6121 56.4205 18.3442 57.8257C19.3119 59.6686 20.8266 61.1833 22.6695 62.151C24.0832 62.8915 25.6904 63.3122 27.3902 63.3122H52.6179C58.2391 63.3122 62.8167 58.743 62.8167 53.1218V27.8941C62.8167 26.4299 62.5054 25.0331 61.95 23.7792ZM59.0637 53.1218C59.0637 56.6729 56.1774 59.5676 52.6179 59.5676H27.3902C23.8307 59.5676 20.9444 56.6729 20.9444 53.1218V27.8941C20.9444 24.3346 23.8307 21.4399 27.3902 21.4399H52.6179C56.1774 21.4399 59.0637 24.3346 59.0637 27.8941V53.1218Z" fill="#2B2B2B"/>
<path d="M40.0072 28.0176C33.1238 28.0176 27.5195 33.6135 27.5195 40.5052C27.5195 47.3886 33.1238 52.9844 40.0072 52.9844C46.8905 52.9844 52.4948 47.3886 52.4948 40.5052C52.4948 33.6135 46.8905 28.0176 40.0072 28.0176ZM40.0072 49.2398C35.1855 49.2398 31.2725 45.3185 31.2725 40.5052C31.2725 35.6835 35.1855 31.7622 40.0072 31.7622C44.8205 31.7622 48.7418 35.6835 48.7418 40.5052C48.7418 45.3185 44.8205 49.2398 40.0072 49.2398Z" fill="#2B2B2B"/>
<path d="M50.8555 28.0168C50.8555 27.1139 51.5876 26.3818 52.4905 26.3818C53.3934 26.3818 54.1255 27.1139 54.1255 28.0168C54.1255 28.9198 53.3934 29.6518 52.4905 29.6518C51.5876 29.6518 50.8555 28.9206 50.8555 28.0168Z" fill="#2B2B2B"/>
</svg>
