<svg width="40" height="40" viewBox="0 0 40 40" fill="none" xmlns="http://www.w3.org/2000/svg">
<path d="M24.9095 2.08333C22.6303 2.0833 20.793 2.08326 19.3482 2.27753C17.848 2.47923 16.5848 2.91071 15.5816 3.91391C14.7067 4.7888 14.2646 5.86393 14.0326 7.12725C13.8071 8.35485 13.764 9.85716 13.7539 11.6597C13.7501 12.35 14.3066 12.9128 14.997 12.9166C15.6873 12.9205 16.2501 12.364 16.2539 11.6736C16.264 9.85113 16.3114 8.55933 16.4915 7.57891C16.665 6.63423 16.9437 6.08743 17.3493 5.68168C17.8107 5.22041 18.4583 4.91966 19.6812 4.75525C20.9402 4.58598 22.6087 4.58333 25.001 4.58333H26.6677C29.06 4.58333 30.7285 4.58598 31.9875 4.75525C33.2105 4.91966 33.858 5.22041 34.3193 5.68168C34.7807 6.14295 35.0813 6.79058 35.2458 8.01353C35.415 9.27245 35.4177 10.941 35.4177 13.3333V26.6667C35.4177 29.059 35.415 30.7275 35.2458 31.9865C35.0813 33.2095 34.7807 33.857 34.3193 34.3183C33.858 34.7797 33.2105 35.0803 31.9875 35.2448C30.7285 35.414 29.06 35.4167 26.6677 35.4167H25.001C22.6087 35.4167 20.9402 35.414 19.6812 35.2448C18.4583 35.0803 17.8107 34.7797 17.3493 34.3183C16.9437 33.9125 16.665 33.3658 16.4915 32.4212C16.3114 31.4407 16.264 30.1488 16.2539 28.3263C16.2501 27.636 15.6873 27.0795 14.997 27.0833C14.3066 27.0872 13.7501 27.65 13.7539 28.3403C13.764 30.1428 13.8071 31.6452 14.0326 32.8727C14.2646 34.136 14.7067 35.2112 15.5816 36.0862C16.5848 37.0893 17.848 37.5208 19.3482 37.7225C20.793 37.9167 22.6303 37.9167 24.9095 37.9167H26.7592C29.0385 37.9167 30.8757 37.9167 32.3207 37.7225C33.8208 37.5208 35.0838 37.0893 36.0872 36.0862C37.0903 35.0828 37.5218 33.8198 37.7235 32.3197C37.9178 30.8747 37.9177 29.0375 37.9177 26.7582V13.2419C37.9177 10.9626 37.9178 9.12536 37.7235 7.68041C37.5218 6.18023 37.0903 4.91711 36.0872 3.91391C35.0838 2.91071 33.8208 2.47923 32.3207 2.27753C30.8757 2.08326 29.0385 2.0833 26.7592 2.08333H24.9095Z" fill="#EFE3CD"/>
<path d="M3.33594 18.7483C2.64557 18.7483 2.08594 19.308 2.08594 19.9983C2.08594 20.6887 2.64557 21.2483 3.33594 21.2483H23.2901L20.0225 24.0493C19.4983 24.4985 19.4376 25.2877 19.8868 25.8118C20.3361 26.336 21.1253 26.3967 21.6495 25.9475L27.4828 20.9475C27.7598 20.71 27.9193 20.3633 27.9193 19.9983C27.9193 19.6335 27.7598 19.2868 27.4828 19.0493L21.6495 14.0493C21.1253 13.6 20.3361 13.6607 19.8868 14.1849C19.4376 14.709 19.4983 15.4982 20.0225 15.9474L23.2901 18.7483H3.33594Z" fill="#EFE3CD"/>
</svg>
