<svg width="24" height="24" viewBox="0 0 24 24" fill="none" xmlns="http://www.w3.org/2000/svg">
<path d="M12.7494 17.9229C12.7494 17.5086 12.4136 17.1729 11.9994 17.1729C11.5852 17.1729 11.2494 17.5086 11.2494 17.9229H12.7494ZM11.2494 20.9999C11.2494 21.4141 11.5852 21.7499 11.9994 21.7499C12.4136 21.7499 12.7494 21.4141 12.7494 20.9999H11.2494ZM9.36328 20.2499C8.94907 20.2499 8.61328 20.5856 8.61328 20.9999C8.61328 21.4141 8.94907 21.7499 9.36328 21.7499V20.2499ZM14.6356 21.7499C15.0498 21.7499 15.3856 21.4141 15.3856 20.9999C15.3856 20.5856 15.0498 20.2499 14.6356 20.2499V21.7499ZM11.2494 17.9229V20.9999H12.7494V17.9229H11.2494ZM9.36328 21.7499H14.6356V20.2499H9.36328V21.7499Z" fill="#2C2C2C"/>
<path d="M3.47178 13.5544L4.19222 13.346L4.19222 13.346L3.47178 13.5544ZM3.47178 6.90653L2.75134 6.69805L2.75134 6.69805L3.47178 6.90653ZM20.5282 6.90654L21.2487 6.69806L21.2487 6.69806L20.5282 6.90654ZM20.5282 13.5544L19.8078 13.346L19.8078 13.346L20.5282 13.5544ZM16.8148 17.0075L16.6747 16.2707L16.8148 17.0075ZM7.18522 17.0075L7.32531 16.2707L7.18522 17.0075ZM7.18522 3.45344L7.04513 2.71664L7.04513 2.71664L7.18522 3.45344ZM16.8148 3.45344L16.6747 4.19024L16.6747 4.19024L16.8148 3.45344ZM3.52005 13.7212L2.79961 13.9297L2.79961 13.9297L3.52005 13.7212ZM20.48 13.7212L21.2004 13.9297L21.2004 13.9297L20.48 13.7212ZM20.48 6.73973L19.7595 6.94822L19.7595 6.94822L20.48 6.73973ZM3.52005 6.73973L4.24049 6.94822L4.24049 6.94822L3.52005 6.73973ZM19.7595 6.94822L19.8078 7.11502L21.2487 6.69806L21.2004 6.53125L19.7595 6.94822ZM19.8078 13.346L19.7595 13.5128L21.2004 13.9297L21.2487 13.7629L19.8078 13.346ZM4.24049 13.5128L4.19222 13.346L2.75134 13.7629L2.79961 13.9297L4.24049 13.5128ZM4.19222 7.11502L4.24049 6.94822L2.79961 6.53125L2.75134 6.69805L4.19222 7.11502ZM4.19222 13.346C3.60259 11.3084 3.60259 9.15256 4.19222 7.11502L2.75134 6.69805C2.08289 9.00798 2.08289 11.453 2.75134 13.7629L4.19222 13.346ZM19.8078 7.11502C20.3974 9.15256 20.3974 11.3084 19.8078 13.346L21.2487 13.7629C21.9171 11.453 21.9171 9.00798 21.2487 6.69806L19.8078 7.11502ZM16.6747 16.2707C13.5875 16.8577 10.4125 16.8577 7.32531 16.2707L7.04513 17.7443C10.3175 18.3665 13.6825 18.3665 16.9549 17.7443L16.6747 16.2707ZM7.32531 4.19024C10.4125 3.60325 13.5875 3.60325 16.6747 4.19024L16.9549 2.71664C13.6825 2.09445 10.3175 2.09445 7.04513 2.71664L7.32531 4.19024ZM7.32531 16.2707C5.83267 15.9869 4.64581 14.9134 4.24049 13.5128L2.79961 13.9297C3.36686 15.8899 5.015 17.3583 7.04513 17.7443L7.32531 16.2707ZM16.9549 17.7443C18.985 17.3583 20.6331 15.8899 21.2004 13.9297L19.7595 13.5128C19.3542 14.9134 18.1673 15.9869 16.6747 16.2707L16.9549 17.7443ZM16.6747 4.19024C18.1673 4.47405 19.3542 5.5476 19.7595 6.94822L21.2004 6.53125C20.6331 4.57103 18.985 3.10264 16.9549 2.71664L16.6747 4.19024ZM7.04513 2.71664C5.015 3.10264 3.36686 4.57103 2.79961 6.53125L4.24049 6.94822C4.64581 5.5476 5.83267 4.47405 7.32531 4.19024L7.04513 2.71664Z" fill="#2C2C2C"/>
</svg>
