<svg width="633" height="271" viewBox="0 0 633 271" fill="none" xmlns="http://www.w3.org/2000/svg">
<path d="M3.1825 271.001C1.43213 271.001 0 269.596 0 267.877V217.897C0 216.179 1.43213 214.93 3.1825 214.93C4.93288 214.93 6.365 216.179 6.365 217.897V267.877C6.365 269.596 4.93288 271.001 3.1825 271.001Z" fill="#FFB727"/>
<path d="M18.1395 271C16.3892 271 14.957 269.594 14.957 267.876V177.912C14.957 176.194 16.3892 174.788 18.1395 174.788C19.8899 174.788 21.1628 176.194 21.1628 177.912V267.876C21.1628 269.594 19.8899 271 18.1395 271Z" fill="#FFB727"/>
<path d="M33.1005 271.001C31.3501 271.001 29.918 269.595 29.918 267.877V156.202C29.918 154.484 31.3501 153.079 33.1005 153.079C34.6917 153.079 36.1239 154.484 36.1239 156.202V267.877C36.1239 269.595 34.6917 271.001 33.1005 271.001Z" fill="#FFB727"/>
<path d="M47.8945 271.001C46.3033 271.001 44.8711 269.595 44.8711 267.877V143.707C44.8711 141.989 46.3033 140.74 47.8945 140.74C49.6449 140.74 51.077 141.989 51.077 143.707V267.877C51.077 269.595 49.6449 271.001 47.8945 271.001Z" fill="#FFB727"/>
<path d="M62.8554 271.001C61.1051 271.001 59.832 269.595 59.832 267.877V137.304C59.832 135.586 61.1051 134.336 62.8554 134.336C64.6058 134.336 66.0379 135.586 66.0379 137.304V267.877C66.0379 269.595 64.6058 271.001 62.8554 271.001Z" fill="#FFB727"/>
<path d="M77.8114 270.999C76.061 270.999 74.6289 269.593 74.6289 267.875V133.865C74.6289 132.147 76.061 130.742 77.8114 130.742C79.5618 130.742 80.9939 132.147 80.9939 133.865V267.875C80.9939 269.593 79.5618 270.999 77.8114 270.999Z" fill="#FFB727"/>
<path d="M92.7684 271C91.0181 271 89.5859 269.594 89.5859 267.876V133.866C89.5859 132.148 91.0181 130.743 92.7684 130.743C94.5188 130.743 95.7919 132.148 95.7919 133.866V267.876C95.7919 269.594 94.5188 271 92.7684 271Z" fill="#FFB727"/>
<path d="M107.57 271C105.979 271 104.547 269.594 104.547 267.876V136.21C104.547 134.492 105.979 133.242 107.57 133.242C109.321 133.242 110.753 134.492 110.753 136.21V267.876C110.753 269.594 109.321 271 107.57 271Z" fill="#FFB727"/>
<path d="M122.523 271.001C120.773 271.001 119.5 269.595 119.5 267.877V143.707C119.5 141.989 120.773 140.74 122.523 140.74C124.274 140.74 125.706 141.989 125.706 143.707V267.877C125.706 269.595 124.274 271.001 122.523 271.001Z" fill="#FFB727"/>
<path d="M137.483 270.999C135.733 270.999 134.301 269.593 134.301 267.875V154.795C134.301 153.077 135.733 151.671 137.483 151.671C139.234 151.671 140.666 153.077 140.666 154.795V267.875C140.666 269.593 139.234 270.999 137.483 270.999Z" fill="#FFB727"/>
<path d="M152.444 271.001C150.694 271.001 149.262 269.595 149.262 267.877V173.696C149.262 171.977 150.694 170.572 152.444 170.572C154.195 170.572 155.468 171.977 155.468 173.696V267.877C155.468 269.595 154.195 271.001 152.444 271.001Z" fill="#FFB727"/>
<path d="M167.397 270.999C165.647 270.999 164.215 269.594 164.215 267.876V198.841C164.215 197.122 165.647 195.717 167.397 195.717C168.989 195.717 170.421 197.122 170.421 198.841V267.876C170.421 269.594 168.989 270.999 167.397 270.999Z" fill="#FFB727"/>
<path d="M182.199 271C180.608 271 179.176 269.594 179.176 267.876V222.894C179.176 221.176 180.608 219.77 182.199 219.77C183.95 219.77 185.382 221.176 185.382 222.894V267.876C185.382 269.594 183.95 271 182.199 271Z" fill="#FFB727"/>
<path d="M197.156 271C195.406 271 194.133 269.594 194.133 267.876V238.2C194.133 236.482 195.406 235.077 197.156 235.077C198.907 235.077 200.339 236.482 200.339 238.2V267.876C200.339 269.594 198.907 271 197.156 271Z" fill="#FFB727"/>
<path d="M212.116 271.001C210.366 271.001 208.934 269.595 208.934 267.877V249.76C208.934 248.042 210.366 246.792 212.116 246.792C213.866 246.792 215.299 248.042 215.299 249.76V267.877C215.299 269.595 213.866 271.001 212.116 271.001Z" fill="#FFB727"/>
<path d="M227.069 271C225.319 271 223.887 269.594 223.887 267.876V254.913C223.887 253.195 225.319 251.789 227.069 251.789C228.82 251.789 230.093 253.195 230.093 254.913V267.876C230.093 269.594 228.82 271 227.069 271Z" fill="#FFB727"/>
<path d="M241.867 271C240.276 271 238.844 269.594 238.844 267.876V257.412C238.844 255.694 240.276 254.288 241.867 254.288C243.618 254.288 245.05 255.694 245.05 257.412V267.876C245.05 269.594 243.618 271 241.867 271Z" fill="#FFB727"/>
<path d="M256.832 270.999C255.082 270.999 253.809 269.594 253.809 267.875V259.754C253.809 258.192 255.082 256.786 256.832 256.786C258.582 256.786 260.015 258.192 260.015 259.754V267.875C260.015 269.594 258.582 270.999 256.832 270.999Z" fill="#FFB727"/>
<path d="M271.788 271C270.038 271 268.605 269.594 268.605 267.876V257.412C268.605 255.694 270.038 254.288 271.788 254.288C273.538 254.288 274.97 255.694 274.97 257.412V267.876C274.97 269.594 273.538 271 271.788 271Z" fill="#FFB727"/>
<path d="M286.741 270.999C284.991 270.999 283.559 269.594 283.559 267.876V251.632C283.559 250.07 284.991 248.665 286.741 248.665C288.491 248.665 289.765 250.07 289.765 251.632V267.876C289.765 269.594 288.491 270.999 286.741 270.999Z" fill="#FFB727"/>
<path d="M301.698 271C299.948 271 298.516 269.594 298.516 267.876V240.074C298.516 238.356 299.948 236.951 301.698 236.951C303.289 236.951 304.722 238.356 304.722 240.074V267.876C304.722 269.594 303.289 271 301.698 271Z" fill="#FFB727"/>
<path d="M316.504 270.999C314.913 270.999 313.48 269.594 313.48 267.876V220.707C313.48 219.145 314.913 217.739 316.504 217.739C318.254 217.739 319.686 219.145 319.686 220.707V267.876C319.686 269.594 318.254 270.999 316.504 270.999Z" fill="#FFB727"/>
<path d="M331.461 270.999C329.71 270.999 328.438 269.594 328.438 267.876V197.122C328.438 195.404 329.71 193.999 331.461 193.999C333.211 193.999 334.643 195.404 334.643 197.122V267.876C334.643 269.594 333.211 270.999 331.461 270.999Z" fill="#FFB727"/>
<path d="M346.413 270.999C344.663 270.999 343.23 269.594 343.23 267.876V160.418C343.23 158.7 344.663 157.451 346.413 157.451C348.163 157.451 349.595 158.7 349.595 160.418V267.876C349.595 269.594 348.163 270.999 346.413 270.999Z" fill="#FFB727"/>
<path d="M361.374 271.001C359.624 271.001 358.191 269.595 358.191 267.877V117.936C358.191 116.218 359.624 114.812 361.374 114.812C363.124 114.812 364.397 116.218 364.397 117.936V267.877C364.397 269.595 363.124 271.001 361.374 271.001Z" fill="#FFB727"/>
<path d="M376.327 271C374.577 271 373.145 269.595 373.145 267.877V86.0736C373.145 84.3555 374.577 83.106 376.327 83.106C377.918 83.106 379.35 84.3555 379.35 86.0736V267.877C379.35 269.595 377.918 271 376.327 271Z" fill="#FFB727"/>
<path d="M391.129 271C389.378 271 388.105 269.595 388.105 267.877V70.1423C388.105 68.4242 389.378 67.0186 391.129 67.0186C392.879 67.0186 394.311 68.4242 394.311 70.1423V267.877C394.311 269.595 392.879 271 391.129 271Z" fill="#FFB727"/>
<path d="M406.085 271C404.334 271 402.902 269.594 402.902 267.876V66.8621C402.902 65.3003 404.334 63.8945 406.085 63.8945C407.835 63.8945 409.267 65.3003 409.267 66.8621V267.876C409.267 269.594 407.835 271 406.085 271Z" fill="#FFB727"/>
<path d="M421.042 270.999C419.292 270.999 417.859 269.594 417.859 267.876V71.5471C417.859 69.829 419.292 68.4233 421.042 68.4233C422.792 68.4233 424.065 69.829 424.065 71.5471V267.876C424.065 269.594 422.792 270.999 421.042 270.999Z" fill="#FFB727"/>
<path d="M436.003 271.001C434.252 271.001 432.82 269.595 432.82 267.877V93.4148C432.82 91.6967 434.252 90.291 436.003 90.291C437.594 90.291 439.026 91.6967 439.026 93.4148V267.877C439.026 269.595 437.594 271.001 436.003 271.001Z" fill="#FFB727"/>
<path d="M450.801 270.999C449.209 270.999 447.777 269.594 447.777 267.875V140.27C447.777 138.552 449.209 137.146 450.801 137.146C452.551 137.146 453.983 138.552 453.983 140.27V267.875C453.983 269.594 452.551 270.999 450.801 270.999Z" fill="#FFB727"/>
<path d="M465.762 271C464.011 271 462.738 269.594 462.738 267.876V200.403C462.738 198.685 464.011 197.279 465.762 197.279C467.512 197.279 468.944 198.685 468.944 200.403V267.876C468.944 269.594 467.512 271 465.762 271Z" fill="#FFB727"/>
<path d="M480.718 271.001C478.967 271.001 477.535 269.596 477.535 267.877V234.141C477.535 232.423 478.967 231.017 480.718 231.017C482.468 231.017 483.9 232.423 483.9 234.141V267.877C483.9 269.596 482.468 271.001 480.718 271.001Z" fill="#FFB727"/>
<path d="M495.675 271.001C493.924 271.001 492.492 269.595 492.492 267.877V249.76C492.492 248.042 493.924 246.792 495.675 246.792C497.425 246.792 498.698 248.042 498.698 249.76V267.877C498.698 269.595 497.425 271.001 495.675 271.001Z" fill="#FFB727"/>
<path d="M510.636 270.999C508.885 270.999 507.453 269.594 507.453 267.876V251.632C507.453 250.07 508.885 248.665 510.636 248.665C512.227 248.665 513.659 250.07 513.659 251.632V267.876C513.659 269.594 512.227 270.999 510.636 270.999Z" fill="#FFB727"/>
<path d="M525.437 271.001C523.687 271.001 522.414 269.595 522.414 267.877V249.76C522.414 248.042 523.687 246.792 525.437 246.792C527.188 246.792 528.62 248.042 528.62 249.76V267.877C528.62 269.595 527.188 271.001 525.437 271.001Z" fill="#FFB727"/>
<path d="M540.386 271C538.635 271 537.203 269.594 537.203 267.876V240.074C537.203 238.356 538.635 236.951 540.386 236.951C542.136 236.951 543.568 238.356 543.568 240.074V267.876C543.568 269.594 542.136 271 540.386 271Z" fill="#FFB727"/>
<path d="M555.347 271.001C553.596 271.001 552.164 269.595 552.164 267.877V218.677C552.164 216.959 553.596 215.554 555.347 215.554C557.097 215.554 558.37 216.959 558.37 218.677V267.877C558.37 269.595 557.097 271.001 555.347 271.001Z" fill="#FFB727"/>
<path d="M570.304 270.999C568.553 270.999 567.121 269.593 567.121 267.875V180.566C567.121 179.004 568.553 177.599 570.304 177.599C571.895 177.599 573.327 179.004 573.327 180.566V267.875C573.327 269.593 571.895 270.999 570.304 270.999Z" fill="#FFB727"/>
<path d="M585.102 271C583.51 271 582.078 269.595 582.078 267.876V156.358C582.078 154.64 583.51 153.234 585.102 153.234C586.852 153.234 588.284 154.64 588.284 156.358V267.876C588.284 269.595 586.852 271 585.102 271Z" fill="#FFB727"/>
<path d="M600.062 271.001C598.312 271.001 597.039 269.595 597.039 267.877V145.894C597.039 144.176 598.312 142.926 600.062 142.926C601.813 142.926 603.245 144.176 603.245 145.894V267.877C603.245 269.595 601.813 271.001 600.062 271.001Z" fill="#FFB727"/>
<path d="M615.018 270.999C613.268 270.999 611.836 269.594 611.836 267.875V140.27C611.836 138.552 613.268 137.146 615.018 137.146C616.769 137.146 618.201 138.552 618.201 140.27V267.875C618.201 269.594 616.769 270.999 615.018 270.999Z" fill="#FFB727"/>
<path d="M629.979 271C628.229 271 626.797 269.594 626.797 267.876V139.021C626.797 137.303 628.229 135.897 629.979 135.897C631.73 135.897 633.003 137.303 633.003 139.021V267.876C633.003 269.594 631.73 271 629.979 271Z" fill="#FFB727"/>
<path d="M15.9102 253.975L72.0813 163.854C84.4931 142.457 107.725 129.181 132.867 129.181H161.191C174.399 129.181 187.288 132.929 198.586 139.801L246.005 169.321C257.144 176.193 270.033 179.942 283.24 179.942H327.795C343.708 179.942 359.143 174.475 371.555 164.635L392.082 148.392C416.746 128.868 451.913 128.087 477.373 146.674C549.934 186.346 604.991 130.118 604.991 130.118" stroke="#EFE3CD" stroke-width="4" stroke-linecap="round" stroke-linejoin="round"/>
<path d="M101.519 142.301C101.519 147.299 97.3817 151.36 92.1306 151.36C87.0386 151.36 82.7422 147.299 82.7422 142.301C82.7422 137.147 87.0386 133.086 92.1306 133.086C97.3817 133.086 101.519 137.147 101.519 142.301Z" fill="#EFE3CD"/>
<path d="M186.968 130.9C186.968 135.898 182.831 140.115 177.58 140.115C172.488 140.115 168.191 135.898 168.191 130.9C168.191 125.746 172.488 121.685 177.58 121.685C182.831 121.685 186.968 125.746 186.968 130.9Z" fill="#EFE3CD"/>
<path d="M272.418 177.132C272.418 182.286 268.281 186.347 263.03 186.347C257.938 186.347 253.801 182.286 253.801 177.132C253.801 172.134 257.938 167.917 263.03 167.917C268.281 167.917 272.418 172.134 272.418 177.132Z" fill="#EFE3CD"/>
<path d="M357.872 177.132C357.872 182.286 353.734 186.347 348.642 186.347C343.391 186.347 339.254 182.286 339.254 177.132C339.254 172.134 343.391 167.917 348.642 167.917C353.734 167.917 357.872 172.134 357.872 177.132Z" fill="#EFE3CD"/>
<path d="M443.48 134.492C443.48 139.646 439.183 143.707 434.091 143.707C428.84 143.707 424.703 139.646 424.703 134.492C424.703 129.494 428.84 125.277 434.091 125.277C439.183 125.277 443.48 129.494 443.48 134.492Z" fill="#EFE3CD"/>
<path d="M528.925 159.794C528.925 164.792 524.629 168.853 519.537 168.853C514.286 168.853 510.148 164.792 510.148 159.794C510.148 154.64 514.286 150.579 519.537 150.579C524.629 150.579 528.925 154.64 528.925 159.794Z" fill="#EFE3CD"/>
<path d="M613.742 133.085C613.742 138.239 609.604 142.3 604.353 142.3C599.261 142.3 594.965 138.239 594.965 133.085C594.965 128.087 599.261 123.87 604.353 123.87C609.604 123.87 613.742 128.087 613.742 133.085Z" fill="#EFE3CD"/>
</svg>
