<svg width="491" height="81" viewBox="0 0 491 81" fill="none" xmlns="http://www.w3.org/2000/svg">
<path d="M243.628 36.2635L48.0861 33.6734C48.0861 31.9468 47.8702 30.2202 47.4386 28.4936L173.051 26.5512L39.6687 16.1915C37.0788 13.1699 33.8413 11.4429 29.9564 11.0113C31.683 10.148 33.4097 9.50055 35.1363 9.06889C39.0212 7.77391 42.9061 6.69476 46.7911 5.83144C50.2443 5.39978 53.4818 4.96805 56.5034 4.53639C59.0934 3.67307 61.4675 3.24173 63.6258 3.24173C68.1582 2.59424 70.1007 1.94667 70.1007 1.94667C70.1007 1.94667 69.6691 1.94667 68.8057 1.94667C67.5108 1.51501 65.7841 1.29894 63.6258 1.29894C61.4675 0.867283 58.8776 0.651611 55.856 0.651611C52.8344 0.651611 49.5969 0.651611 46.1436 0.651611C42.2587 0.651611 38.3737 1.08335 34.4888 1.94667C29.9564 2.59416 25.424 3.88898 20.8916 5.83144C16.3591 7.77391 11.8267 10.3639 7.94177 15.5438C5.78348 18.1337 4.05682 21.1555 2.76184 24.6088C1.46686 28.4937 0.819364 31.7312 0.171875 35.6162C0.171875 36.4795 0.171875 37.5586 0.171875 38.8536C0.171875 39.5011 0.171875 40.1484 0.171875 41.4433C0.171875 43.17 0.387744 45.1126 0.819403 47.2709C1.25106 51.1558 2.33021 54.6089 4.05685 57.6306C6.6468 64.1054 11.1792 67.9906 15.7116 71.2281C20.244 74.4655 24.129 76.408 28.6614 77.703C32.978 78.9979 36.8629 79.861 40.3162 80.2927C44.2011 80.7243 47.6544 80.9404 50.676 80.9404C53.6977 80.9404 56.0718 80.7243 57.7985 80.2927C59.9567 80.2927 61.6833 80.077 62.9783 79.6453C64.2733 79.6453 64.9208 79.6453 64.9208 79.6453C64.9208 79.6453 62.3308 78.9978 58.4459 78.3503C53.9135 77.7028 48.0861 76.408 40.9637 74.4655C37.9421 73.6022 34.9205 72.523 31.8988 71.2281C143.267 70.5806 340.751 51.8033 490.969 40.796L101.18 42.7384L243.628 36.2635Z" fill="#DCD1BD"/>
<path d="M308.378 60.8694C302.551 60.8694 294.133 60.8696 283.773 61.5171C274.061 61.5171 262.406 62.1643 249.457 62.8118C242.982 62.8118 236.507 63.0278 230.032 63.4595C223.557 63.8912 216.866 64.3229 209.96 64.7546C203.053 65.1862 196.362 65.6176 189.888 66.0492C183.413 66.4809 176.938 67.1287 170.463 67.992C158.161 68.6395 146.506 69.9345 136.146 71.2294C125.786 71.8769 118.016 73.1717 111.541 73.8192C105.714 74.4667 102.477 75.1142 102.477 75.1142C102.477 75.1142 105.714 75.1142 112.189 75.1142C118.016 75.1142 126.434 75.1144 136.146 74.4669C146.506 74.4669 158.161 73.8193 170.463 73.1718C176.938 73.1718 183.413 72.9558 189.888 72.5241C196.794 72.0924 203.485 71.6611 209.96 71.2294C216.866 70.7978 223.557 70.366 230.032 69.9344C236.938 69.5027 243.413 69.071 249.457 68.6393C262.406 67.3444 274.061 66.0494 284.421 65.4019C294.133 64.1069 302.551 62.8119 308.378 62.1644C314.205 61.517 317.443 60.8694 317.443 60.8694C317.443 60.8694 314.205 60.8694 308.378 60.8694Z" fill="#DCD1BD"/>
<path d="M140.678 7.77223C149.743 9.0672 160.75 9.71469 171.758 11.0097C177.369 11.4413 183.196 11.8731 189.24 12.3047C195.283 12.7364 201.326 13.1681 207.369 13.5998C213.413 14.0314 219.456 14.4632 225.499 14.8948C231.542 14.8948 237.586 15.1105 243.629 15.5422C254.636 16.1897 265.643 16.1897 274.708 16.8372C283.773 16.8372 291.543 16.8372 296.723 16.8372C301.903 16.8372 305.14 16.8372 305.14 16.8372C305.14 16.8372 301.903 16.1897 296.723 15.5422C291.543 14.8947 283.773 13.5999 274.708 12.9525C265.643 11.6575 254.636 11.01 243.629 9.71501C238.017 9.28335 232.19 8.85161 226.147 8.41995C220.103 7.98829 214.06 7.55656 208.017 7.1249C201.974 6.69324 195.93 6.2615 189.887 5.82984C183.844 5.82984 178.017 5.61417 172.405 5.18251C160.75 4.53502 149.743 4.53494 140.678 3.88745C131.613 3.88745 124.491 3.88745 118.663 3.88745C113.484 3.88745 110.246 3.88745 110.246 3.88745C110.246 3.88745 113.484 4.53502 118.663 5.18251C123.843 5.83 131.613 7.12474 140.678 7.77223Z" fill="#DCD1BD"/>
</svg>
