<svg width="1304" height="1304" viewBox="0 0 1304 1304" fill="none" xmlns="http://www.w3.org/2000/svg">
<circle cx="652" cy="652" r="652" fill="url(#paint0_linear_2689_9480)"/>
<path d="M1234.65 1246.93L66.0938 78.9648L69.6365 75.4219L1238.19 1243.39L1234.65 1246.93Z" fill="#DCD1BD"/>
<path d="M86.7591 96.0891C74.3591 108.489 54.2828 108.489 41.8827 96.0891C38.7335 92.5462 36.3715 88.8065 34.7969 84.87C46.016 89.0034 59.0065 86.051 67.8637 77.1938C77.3114 68.3366 79.6732 55.3461 75.5399 44.127C79.4764 45.3079 83.2163 47.6698 86.7591 51.2127C99.1592 63.6127 99.1592 83.689 86.7591 96.0891Z" fill="#DCD1BD"/>
<path d="M1218.12 1226.26C1230.52 1213.86 1250.59 1213.86 1262.99 1226.26C1266.14 1229.81 1268.5 1233.55 1270.08 1237.48C1258.86 1233.35 1245.87 1235.71 1237.01 1245.16C1227.56 1254.02 1225.2 1267.01 1229.34 1278.23C1225.01 1277.04 1221.27 1274.68 1218.12 1271.14C1205.72 1258.74 1205.72 1238.66 1218.12 1226.26Z" fill="#DCD1BD"/>
<defs>
<linearGradient id="paint0_linear_2689_9480" x1="652" y1="0" x2="652" y2="1304" gradientUnits="userSpaceOnUse">
<stop stop-color="#DCD1BD"/>
<stop offset="1" stop-color="#DCD1BD" stop-opacity="0"/>
</linearGradient>
</defs>
</svg>
