<svg width="1209" height="580" viewBox="0 0 1209 580" fill="none" xmlns="http://www.w3.org/2000/svg">
<path d="M60.0365 364.86C60.0365 364.86 15.2783 268.359 96.5344 177.86C218.513 42.0059 92.2759 -4.14134 64.7773 77.3585C43.3551 140.849 282.277 303.358 411.777 157.858C462.777 88.8584 381.497 43.3109 332.277 71.8584C286.277 95.3584 216.567 240.434 459.277 277.858C679.777 311.858 869.63 194.662 979.777 226.858C1077.28 255.358 1079.63 332.358 1013.28 386.858C946.93 441.358 813.127 441.819 830.777 364.86C843.277 310.358 974.134 262.232 1086.78 364.86C1131.78 405.858 1153.28 471.858 1160.78 532.858" stroke="#2C2C2C"/>
<path fill-rule="evenodd" clip-rule="evenodd" d="M60.427 360.973C59.4438 361.446 58.4001 361.781 57.3253 361.968C54.2816 362.467 51.1641 361.74 48.6545 359.947C46.1449 358.154 44.4475 355.44 43.9335 352.399L41.8443 340.777C41.5849 339.271 41.6247 337.728 41.9614 336.238C42.2981 334.747 42.9252 333.337 43.8068 332.088C44.6884 330.84 45.8072 329.777 47.0994 328.961C48.3917 328.145 49.832 327.592 51.3381 327.332C52.8443 327.073 54.3868 327.113 55.8775 327.45C57.3683 327.786 58.7782 328.413 60.0266 329.295C61.275 330.177 62.3376 331.295 63.1536 332.588C63.9696 333.88 64.5232 335.32 64.7826 336.826L66.7916 348.487C67.2264 350.977 66.8409 353.54 65.6931 355.792C64.5453 358.044 62.6972 359.862 60.427 360.973Z" fill="#2C2C2C"/>
<path d="M74.1225 341.157C69.9569 338.866 63.116 337.915 60.7053 341.307C58.2947 344.698 61.3987 350.874 64.9176 354.035C70.0461 358.631 79.0447 359.7 81.5362 356.19C84.0278 352.68 80.141 344.488 74.1225 341.157Z" fill="#FFB727"/>
<path d="M34.1571 348.196C37.334 344.669 43.4551 341.453 46.8471 343.824C50.2391 346.195 49.3603 353.06 47.0926 357.234C43.8008 363.293 35.6637 367.292 32.1452 364.824C28.6268 362.356 29.6085 353.341 34.1571 348.196Z" fill="#FFB727"/>
<path d="M80.7027 359.032C79.7211 359.493 78.6665 359.778 77.5866 359.875C72.5764 360.236 67.624 358.621 63.7895 355.376C60.042 351.99 56.0241 344.872 59.268 340.303C61.8163 336.706 67.7026 336.793 72.3768 338.461C72.6009 338.539 72.8074 338.661 72.9844 338.819C73.1615 338.977 73.3057 339.168 73.4088 339.382C73.5119 339.596 73.5719 339.828 73.5854 340.065C73.5988 340.302 73.5654 340.539 73.4872 340.763C73.4089 340.987 73.2873 341.194 73.1292 341.371C72.9711 341.548 72.7797 341.692 72.566 341.795C72.3522 341.898 72.1202 341.958 71.8832 341.972C71.6462 341.985 71.4089 341.952 71.1848 341.873C67.8929 340.563 63.5452 340.381 62.1461 342.31C60.5203 344.586 63.0051 349.815 66.1452 352.645C69.2083 355.28 73.1773 356.617 77.2102 356.374C77.7556 356.369 78.2944 356.254 78.7939 356.034C79.2934 355.815 79.7431 355.497 80.1158 355.099C81.2889 353.438 80.0244 348.804 76.4626 345.189C76.1303 344.851 75.9457 344.396 75.9493 343.922C75.9529 343.449 76.1445 342.996 76.4819 342.664C76.8194 342.331 77.275 342.147 77.7485 342.15C78.2221 342.154 78.6748 342.345 79.0071 342.683C83.0326 346.885 85.7106 353.406 83.0251 357.169C82.4186 357.975 81.6202 358.615 80.7027 359.032Z" fill="#2C2C2C"/>
<path d="M40.7235 365.707C39.7363 366.196 38.6983 366.575 37.6283 366.837C36.6226 367.144 35.5634 367.235 34.5201 367.105C33.4767 366.974 32.4728 366.624 31.574 366.079C30.7519 365.421 30.0776 364.597 29.595 363.661C29.1123 362.725 28.8321 361.698 28.7727 360.647C28.3932 355.614 30.0126 350.634 33.28 346.786C36.6188 343.022 43.7135 338.917 48.3151 342.145C52.9167 345.373 51.5073 353.428 49.1093 357.863C47.1601 361.257 44.2394 363.989 40.7235 365.707ZM40.6377 345.623C38.8649 346.48 37.2708 347.666 35.9396 349.117C33.3373 352.201 32.0322 356.173 32.2987 360.199C32.3113 360.747 32.4327 361.286 32.6557 361.786C32.8787 362.287 33.1988 362.738 33.5976 363.113C34.0891 363.362 34.6253 363.51 35.1749 363.549C35.7244 363.588 36.2762 363.516 36.7977 363.339C40.6728 362.225 43.9579 359.638 45.9493 356.132C47.9327 352.473 48.5769 346.673 46.3001 345.047C45.003 344.172 42.832 344.555 40.6377 345.623Z" fill="#2C2C2C"/>
</svg>
