<svg width="1193" height="1194" viewBox="0 0 1193 1194" fill="none" xmlns="http://www.w3.org/2000/svg">
<path d="M596.074 599.236C595.372 599.236 594.846 599.06 594.495 598.71L254.629 251.478C253.577 250.426 253.577 249.374 254.629 248.321C255.681 247.269 256.733 247.269 257.786 248.321L597.652 595.553C598.704 596.079 598.704 597.657 597.652 598.71C597.301 599.06 596.775 599.236 596.074 599.236Z" fill="#DCD1BD"/>
<path d="M596.079 599.236C595.378 599.236 594.851 599.06 594.5 598.709L214.65 140.469C214.124 139.417 214.124 138.365 215.176 137.312C216.229 136.786 217.807 136.786 218.333 137.839L598.183 595.553C598.709 596.605 598.709 598.183 597.657 598.709C597.307 599.06 596.78 599.236 596.079 599.236Z" fill="#DCD1BD"/>
<path d="M596.079 599.237C595.378 599.237 594.851 598.886 594.501 598.185L316.189 199.921C315.663 198.868 315.663 197.29 316.715 196.764C317.768 195.712 319.346 196.238 319.872 197.29L598.183 595.554C598.709 596.606 598.71 598.185 597.657 598.711C597.307 599.062 596.781 599.237 596.079 599.237Z" fill="#DCD1BD"/>
<path d="M596.083 599.239C595.557 599.239 594.505 598.712 593.979 598.186L295.675 84.1784C294.623 83.1262 295.149 81.5479 296.201 81.0218C297.253 79.9696 298.832 80.4957 299.358 81.5479L598.187 596.082C598.714 597.134 598.714 598.186 597.135 599.239C596.784 599.239 596.434 599.239 596.083 599.239Z" fill="#DCD1BD"/>
<path d="M596.087 599.238C595.561 599.238 594.509 598.711 593.983 598.185L385.644 159.411C385.118 157.833 385.644 156.78 386.696 156.254C387.748 155.728 389.327 156.254 389.853 157.306L598.192 596.081C598.718 597.133 598.191 598.711 597.139 599.238C596.789 599.238 596.438 599.238 596.087 599.238Z" fill="#DCD1BD"/>
<path d="M596.081 599.238C595.028 599.238 594.502 598.712 593.976 597.66L384.059 41.563C384.059 39.9846 384.585 38.9324 385.637 38.4063C386.689 37.8802 388.268 38.4063 388.794 39.9846L598.185 596.081C598.711 597.133 598.185 598.712 597.133 599.238C596.782 599.238 596.431 599.238 596.081 599.238Z" fill="#DCD1BD"/>
<path d="M596.084 599.239C595.032 599.239 594.506 598.713 593.98 597.661L460.874 130.476C460.348 129.424 461.4 127.846 462.453 127.846C463.505 127.32 465.083 127.846 465.083 129.424L598.188 596.608C598.715 597.661 598.189 598.713 596.61 599.239C596.61 599.239 596.435 599.239 596.084 599.239Z" fill="#DCD1BD"/>
<path d="M596.08 599.238C595.028 599.238 593.976 598.711 593.976 597.659L478.758 14.205C478.758 12.6267 479.284 11.5745 480.862 11.5745C481.915 11.0484 482.967 12.1006 483.493 13.1528L598.711 596.607C598.711 597.659 598.185 599.238 596.606 599.238C596.606 599.238 596.431 599.238 596.08 599.238Z" fill="#DCD1BD"/>
<path d="M596.075 599.236C595.023 599.236 593.97 598.184 593.97 597.132L539.781 114.69C539.781 113.112 540.307 112.06 541.885 112.06C542.938 112.06 543.99 112.586 544.516 114.164L598.705 596.605C598.705 598.184 597.653 599.236 596.601 599.236C596.25 599.236 596.075 599.236 596.075 599.236Z" fill="#DCD1BD"/>
<path d="M596.083 599.237C595.031 599.237 593.978 598.185 593.978 597.133L581.352 2.63054C581.352 1.57833 582.404 0.526108 583.456 0C585.034 0 586.087 1.05222 586.087 2.63054L598.713 597.133C598.713 598.185 597.661 599.237 596.083 599.237Z" fill="#DCD1BD"/>
<path d="M596.085 599.238C595.033 599.238 593.98 598.185 593.98 596.607L620.286 112.061C620.286 110.483 621.338 109.431 622.39 109.431C623.969 109.957 625.021 111.009 625.021 112.061L598.716 597.133C598.716 598.185 597.663 599.238 596.085 599.238Z" fill="#DCD1BD"/>
<path d="M596.085 599.238C594.507 599.238 593.98 598.186 593.98 596.608L675.001 7.89253C675.527 6.3142 676.58 5.78809 677.632 5.78809C679.21 5.78809 679.736 6.8403 679.736 8.41863L598.716 597.134C598.189 598.712 597.137 599.238 596.085 599.238Z" fill="#DCD1BD"/>
<path d="M596.084 599.237C596.084 599.237 595.909 599.237 595.558 599.237C594.506 598.711 593.454 597.659 593.98 596.607L699.727 122.583C700.254 121.005 701.306 120.479 702.884 120.479C703.937 121.005 704.989 122.057 704.463 123.635L598.715 597.659C598.189 598.711 597.137 599.237 596.084 599.237Z" fill="#DCD1BD"/>
<path d="M596.084 599.238C596.084 599.238 595.909 599.238 595.558 599.238C594.506 598.712 593.454 597.66 593.98 596.082L771.278 28.9368C771.804 27.3584 772.857 26.8323 774.435 27.3584C775.487 27.8845 776.013 28.9367 776.013 29.989L598.189 597.66C598.189 598.712 597.137 599.238 596.084 599.238Z" fill="#DCD1BD"/>
<path d="M596.075 599.238C595.725 599.238 595.549 599.238 595.549 599.238C593.971 598.712 593.445 597.134 593.971 596.082L777.056 146.259C777.583 144.681 778.635 144.155 779.687 144.681C781.265 145.207 781.791 146.785 781.265 147.837L598.18 597.66C598.18 598.712 597.128 599.238 596.075 599.238Z" fill="#DCD1BD"/>
<path d="M596.084 599.239C595.734 599.239 595.383 599.239 595.032 599.239C593.98 598.713 593.454 597.135 593.98 596.082L862.821 65.2391C863.347 64.1869 864.926 63.6608 865.978 64.1869C867.03 65.2391 867.556 66.2913 867.03 67.3435L598.189 598.187C597.663 598.713 597.137 599.239 596.084 599.239Z" fill="#DCD1BD"/>
<path d="M596.078 599.238C595.727 599.238 595.376 599.063 595.026 598.712C593.973 598.186 593.447 596.608 594.499 595.555L849.136 182.034C849.662 180.982 851.24 180.456 852.292 181.508C853.345 182.034 853.345 183.613 852.819 184.665L598.182 598.186C597.831 598.888 597.13 599.238 596.078 599.238Z" fill="#DCD1BD"/>
<path d="M596.078 599.239C595.727 599.239 595.376 599.064 595.026 598.713C593.973 598.187 593.447 596.609 594.499 595.557L946.992 116.798C947.518 115.746 949.097 115.22 950.149 116.272C951.201 116.798 951.201 118.376 950.675 119.428L598.182 598.187C597.481 598.889 596.779 599.239 596.078 599.239Z" fill="#DCD1BD"/>
<path d="M596.077 599.24C595.726 599.24 595.2 599.065 594.498 598.714C593.972 597.662 593.446 596.61 594.498 595.557L913.846 229.386C914.898 228.334 916.477 228.334 917.003 229.386C918.055 229.912 918.055 231.49 917.529 232.543L598.181 598.714C597.479 599.065 596.778 599.24 596.077 599.24Z" fill="#DCD1BD"/>
<path d="M596.083 599.239C595.381 599.239 594.855 599.063 594.504 598.712C593.452 597.66 593.452 596.082 594.504 595.556L1021.7 180.982C1022.23 180.456 1023.81 180.456 1024.86 180.982C1025.91 182.035 1025.39 183.613 1024.86 184.665L597.661 598.712C597.31 599.063 596.784 599.239 596.083 599.239Z" fill="#DCD1BD"/>
<path d="M596.077 599.235C595.375 599.235 594.849 598.884 594.498 598.183C593.446 597.657 593.972 596.078 594.498 595.026L970.14 286.726C971.192 286.2 972.77 286.2 973.823 287.253C974.349 288.305 974.348 289.357 973.296 290.409L597.655 598.709C597.304 599.059 596.778 599.235 596.077 599.235Z" fill="#DCD1BD"/>
<path d="M596.078 599.239C595.376 599.239 594.85 598.888 594.499 598.186C593.447 597.134 593.973 596.082 595.026 595.03L1084.31 256.742C1085.36 256.216 1086.94 256.216 1087.46 257.268C1088.52 258.32 1087.99 259.899 1086.94 260.951L597.656 598.712C597.305 599.063 596.779 599.239 596.078 599.239Z" fill="#DCD1BD"/>
<path d="M596.084 599.238C595.558 599.238 594.506 598.712 593.98 598.186C593.454 597.134 593.98 595.556 595.032 595.029L1016.44 352.493C1017.5 351.967 1019.08 352.494 1019.6 353.546C1020.13 354.598 1019.6 356.176 1018.55 356.702L597.136 599.238C596.786 599.238 596.435 599.238 596.084 599.238Z" fill="#DCD1BD"/>
<path d="M596.084 599.239C595.558 599.239 594.506 598.713 593.98 598.187C593.454 596.609 593.98 595.556 595.032 595.03L1133.77 341.972C1134.82 341.446 1136.4 341.972 1136.92 343.024C1137.45 344.077 1136.92 345.655 1135.87 346.181L597.136 599.239C596.786 599.239 596.435 599.239 596.084 599.239Z" fill="#DCD1BD"/>
<path d="M596.075 599.237C595.023 599.237 594.497 598.711 593.971 597.659C593.445 596.607 593.971 595.028 595.549 595.028L1051.16 425.621C1052.21 425.095 1053.26 425.621 1053.79 426.674C1054.32 427.726 1053.79 429.304 1052.74 429.83L597.127 599.237C596.777 599.237 596.426 599.237 596.075 599.237Z" fill="#DCD1BD"/>
<path d="M596.084 599.237C595.032 599.237 594.506 598.711 593.98 597.659C593.454 596.607 594.506 595.028 595.558 595.028L1168.49 434.039C1169.54 434.039 1171.12 434.565 1171.65 435.617C1171.65 437.196 1171.12 438.248 1169.54 438.774L596.61 599.237C596.61 599.237 596.435 599.237 596.084 599.237Z" fill="#DCD1BD"/>
<path d="M596.084 599.236C595.032 599.236 593.98 598.71 593.98 597.658C593.454 596.079 594.506 595.027 595.558 594.501L1073.26 502.958C1074.32 502.432 1075.37 503.484 1075.89 504.537C1075.89 505.589 1075.37 507.167 1073.79 507.167L596.61 599.236C596.61 599.236 596.435 599.236 596.084 599.236Z" fill="#DCD1BD"/>
<path d="M596.085 599.237C595.033 599.237 593.98 598.185 593.98 597.132C593.98 596.08 594.507 595.028 596.085 594.502L1187.43 530.843C1189.01 530.843 1190.06 531.369 1190.06 532.947C1190.06 533.999 1189.54 535.052 1187.96 535.578L596.611 599.237C596.611 599.237 596.436 599.237 596.085 599.237Z" fill="#DCD1BD"/>
<path d="M596.085 599.239C595.033 599.239 593.98 598.187 593.98 597.134C593.98 595.556 595.033 594.504 596.085 594.504L1082.21 582.403C1083.26 582.403 1084.31 583.456 1084.31 585.034C1084.31 586.086 1083.26 587.138 1082.21 587.138L596.085 599.239Z" fill="#DCD1BD"/>
<path d="M1190.06 633.959L596.085 599.236C595.033 599.236 593.98 598.184 593.98 596.605C593.98 595.553 595.033 594.501 596.611 594.501L1190.59 629.224C1191.64 629.224 1192.69 630.276 1192.69 631.855C1192.69 632.907 1191.64 633.959 1190.06 633.959Z" fill="#DCD1BD"/>
<path d="M1077.47 667.63C1077.47 667.63 1077.3 667.63 1076.95 667.63L596.085 599.236C594.507 599.236 593.98 597.658 593.98 596.605C593.98 595.553 595.033 594.501 596.611 594.501L1078 662.895C1079.05 662.895 1080.1 664.473 1079.58 665.526C1079.58 666.578 1078.53 667.63 1077.47 667.63Z" fill="#DCD1BD"/>
<path d="M1176.38 731.289C1176.38 731.289 1176.21 731.289 1175.86 731.289L595.558 599.236C594.506 598.71 593.454 597.658 593.98 596.605C594.506 595.027 595.558 594.501 596.61 594.501L1176.91 726.554C1177.96 727.08 1179.01 728.133 1178.49 729.711C1178.49 730.763 1177.43 731.289 1176.38 731.289Z" fill="#DCD1BD"/>
<path d="M1059.59 746.02C1059.23 746.02 1059.06 746.02 1059.06 746.02L595.558 599.236C594.506 598.709 593.454 597.657 593.98 596.079C594.506 595.027 595.558 594.501 597.136 595.027L1060.11 741.285C1061.69 741.811 1062.22 742.863 1061.69 744.441C1061.69 745.494 1060.64 746.02 1059.59 746.02Z" fill="#DCD1BD"/>
<path d="M1146.91 824.936C1146.56 824.936 1146.21 824.936 1145.86 824.936L595.549 599.236C593.971 598.709 593.445 597.131 593.971 596.079C594.497 595.027 596.075 594.501 597.127 595.027L1147.44 820.727C1148.49 821.253 1149.54 822.306 1149.02 823.884C1148.49 824.41 1147.44 824.936 1146.91 824.936Z" fill="#DCD1BD"/>
<path d="M1029.07 820.201C1028.72 820.201 1028.37 820.201 1028.02 820.201L595.032 599.236C593.98 598.709 593.454 597.131 593.98 596.079C594.506 595.027 596.084 594.501 597.136 595.027L1030.12 815.992C1031.18 816.518 1031.7 818.097 1031.18 819.149C1030.65 819.675 1030.12 820.201 1029.07 820.201Z" fill="#DCD1BD"/>
<path d="M1101.67 912.797C1101.32 912.797 1100.97 912.621 1100.62 912.271L595.026 598.71C593.973 598.184 593.447 596.606 594.499 595.553C595.025 594.501 596.604 594.501 597.656 595.027L1103.25 908.588C1104.3 909.114 1104.3 910.692 1103.77 911.745C1103.42 912.446 1102.72 912.797 1101.67 912.797Z" fill="#DCD1BD"/>
<path d="M986.45 888.596C986.099 888.596 985.749 888.42 985.398 888.07L595.026 598.71C593.973 598.184 593.447 596.606 594.499 595.553C595.025 594.501 596.604 594.501 597.656 595.027L988.029 884.387C989.081 885.439 989.081 886.491 988.555 887.544C987.853 888.245 987.152 888.596 986.45 888.596Z" fill="#DCD1BD"/>
<path d="M1043.27 991.713C1042.57 991.713 1042.04 991.538 1041.69 991.187L594.498 598.71C593.972 597.658 593.446 596.606 594.498 595.553C595.55 594.501 596.603 594.501 597.655 595.027L1044.85 988.03C1045.37 988.556 1045.9 990.135 1044.85 991.187C1044.5 991.538 1043.97 991.713 1043.27 991.713Z" fill="#DCD1BD"/>
<path d="M933.318 949.099C932.967 949.099 932.441 948.923 931.74 948.573L594.504 598.71C593.452 597.658 593.452 596.08 594.504 595.554C595.556 594.502 597.135 594.502 597.661 595.554L934.896 945.416C935.948 945.942 935.948 947.52 934.896 948.573C934.545 948.923 934.019 949.099 933.318 949.099Z" fill="#DCD1BD"/>
<path d="M972.244 1060.11C971.543 1060.11 970.841 1059.93 970.14 1059.58L594.498 598.71C593.446 597.658 593.972 596.079 594.498 595.027C595.55 594.501 597.129 594.501 598.181 595.553L973.822 1056.42C974.875 1057.48 974.875 1059.05 973.822 1059.58C973.121 1059.93 972.595 1060.11 972.244 1060.11Z" fill="#DCD1BD"/>
<path d="M871.232 1000.13C870.531 1000.13 869.829 999.78 869.128 999.078L594.499 598.184C593.447 597.132 593.973 595.553 595.026 595.027C596.078 594.501 597.13 594.501 598.182 595.553L872.811 996.448C873.863 997.5 873.337 998.552 872.285 999.605C871.934 999.955 871.583 1000.13 871.232 1000.13Z" fill="#DCD1BD"/>
<path d="M890.705 1115.87C890.179 1115.87 889.126 1115.35 889.126 1114.82L593.98 598.184C593.454 597.132 593.98 595.554 595.032 595.028C596.084 594.501 597.663 594.501 598.189 596.08L892.809 1112.19C893.335 1113.24 893.336 1114.82 892.283 1115.35C891.933 1115.7 891.407 1115.87 890.705 1115.87Z" fill="#DCD1BD"/>
<path d="M801.267 1039.59C800.214 1039.59 799.688 1039.06 799.162 1038.54L593.98 598.183C593.454 596.605 593.98 595.553 595.032 595.027C596.61 594.501 597.663 595.027 598.189 596.079L803.371 1036.43C803.897 1037.48 803.371 1039.06 802.319 1039.59C801.968 1039.59 801.617 1039.59 801.267 1039.59Z" fill="#DCD1BD"/>
<path d="M801.784 1157.44C800.731 1157.44 799.679 1156.91 799.153 1155.86L593.971 597.657C593.445 596.605 593.971 595.027 595.549 595.027C596.601 594.501 598.18 595.027 598.18 596.079L803.888 1154.28C804.414 1155.33 803.362 1156.91 802.31 1157.44C801.959 1157.44 801.784 1157.44 801.784 1157.44Z" fill="#DCD1BD"/>
<path d="M725.507 1067.47C724.455 1067.47 723.928 1066.95 723.402 1065.89L593.98 597.658C593.454 596.605 594.506 595.027 595.558 594.501C596.61 594.501 598.189 595.027 598.189 596.605L727.611 1064.32C728.138 1065.89 727.611 1066.95 726.033 1067.47C726.033 1067.47 725.858 1067.47 725.507 1067.47Z" fill="#DCD1BD"/>
<path d="M706.568 1183.74C705.516 1183.74 704.463 1182.69 704.463 1181.64L593.98 597.658C593.98 596.079 594.507 595.027 595.559 594.501C597.137 594.501 598.189 595.553 598.716 596.605L708.672 1180.59C709.198 1182.16 708.146 1183.22 707.094 1183.74C706.743 1183.74 706.568 1183.74 706.568 1183.74Z" fill="#DCD1BD"/>
<path d="M646.591 1082.2C645.539 1082.2 644.487 1081.68 644.487 1080.1L593.98 597.132C593.98 596.079 594.507 595.027 596.085 594.501C597.137 594.501 598.189 595.553 598.716 596.605L648.696 1080.1C649.222 1081.15 648.17 1082.2 646.591 1082.2Z" fill="#DCD1BD"/>
<path d="M608.711 1193.74C607.133 1193.74 606.081 1192.69 606.081 1191.63L593.98 597.132C593.98 595.553 595.033 594.501 596.085 594.501C597.137 594.501 598.716 595.553 598.716 597.132L610.816 1191.63C610.816 1192.69 609.764 1193.74 608.711 1193.74Z" fill="#DCD1BD"/>
<path d="M566.089 1084.31C564.511 1083.78 563.458 1082.73 563.985 1081.68L593.973 596.605C593.973 595.553 595.025 594.501 596.603 594.501C597.656 594.501 598.708 596.079 598.708 597.132L568.193 1081.68C568.193 1083.26 567.141 1084.31 566.089 1084.31Z" fill="#DCD1BD"/>
<path d="M510.322 1187.43C510.322 1187.43 510.147 1187.43 509.796 1187.43C508.744 1187.43 507.692 1186.37 508.218 1184.79L593.974 596.605C593.974 595.553 595.552 594.501 596.604 594.501C597.656 595.027 598.709 596.079 598.709 597.132L512.427 1185.85C512.427 1186.9 511.375 1187.43 510.322 1187.43Z" fill="#DCD1BD"/>
<path d="M486.654 1072.73C486.303 1072.73 486.128 1072.56 486.128 1072.21C484.55 1072.21 484.023 1070.63 484.023 1069.58L593.98 596.605C594.506 595.027 595.559 594.501 596.611 594.501C598.189 595.027 598.715 596.079 598.715 597.658L488.759 1070.63C488.232 1071.68 487.706 1072.73 486.654 1072.73Z" fill="#DCD1BD"/>
<path d="M414.046 1165.33C414.046 1165.33 413.87 1165.33 413.52 1165.33C412.467 1164.8 411.941 1163.75 411.941 1162.17L593.975 596.079C594.501 595.027 595.553 594.501 597.131 595.027C598.184 595.027 598.71 596.605 598.184 597.657L416.676 1163.75C416.15 1164.8 415.098 1165.33 414.046 1165.33Z" fill="#DCD1BD"/>
<path d="M409.842 1048.01C409.491 1048.01 409.141 1047.83 408.79 1047.48C407.738 1047.48 407.212 1045.9 407.738 1044.85L593.98 596.079C594.506 595.027 596.084 594.501 597.137 595.027C598.189 595.553 598.715 596.605 598.189 597.657L411.947 1046.43C411.421 1047.48 410.894 1048.01 409.842 1048.01Z" fill="#DCD1BD"/>
<path d="M323.559 1127.45C322.858 1127.45 322.508 1127.45 322.508 1127.45C320.929 1126.92 320.929 1125.34 321.455 1124.29L593.979 596.079C594.505 595.027 596.084 594.501 597.136 595.027C598.188 595.553 598.714 597.131 598.188 598.183L325.138 1126.4C325.138 1127.45 324.086 1127.45 323.559 1127.45Z" fill="#DCD1BD"/>
<path d="M338.291 1011.18C337.941 1011.18 337.59 1011 337.239 1010.65C336.187 1010.13 335.661 1008.55 336.187 1007.5L594.506 595.553C595.032 594.501 596.611 594.501 597.663 595.027C598.715 595.553 598.715 597.132 598.189 598.184L340.396 1010.13C339.694 1010.83 338.993 1011.18 338.291 1011.18Z" fill="#DCD1BD"/>
<path d="M239.907 1075.36C239.206 1075.36 238.679 1075.19 238.329 1074.84C237.277 1074.31 237.276 1072.73 237.803 1071.68L594.504 595.553C595.03 594.501 596.609 594.501 597.661 595.027C598.713 596.079 598.713 597.132 598.187 598.184L241.485 1074.31C241.135 1075.01 240.609 1075.36 239.907 1075.36Z" fill="#DCD1BD"/>
<path d="M273.576 962.777C273.226 962.777 272.875 962.602 272.524 962.251C271.472 961.199 271.472 960.146 271.998 959.094L594.502 595.553C595.555 594.501 596.607 594.501 597.659 595.027C598.711 596.079 598.711 597.658 598.185 598.71L275.681 962.251C274.979 962.602 274.278 962.777 273.576 962.777Z" fill="#DCD1BD"/>
<path d="M166.251 1010.13C165.549 1010.13 164.848 1009.95 164.146 1009.6C163.62 1008.55 163.62 1006.97 164.672 1005.92L594.503 595.554C595.555 594.502 597.134 594.502 597.66 595.554C598.712 596.08 598.712 597.658 597.66 598.71L167.829 1009.6C167.128 1009.95 166.602 1010.13 166.251 1010.13Z" fill="#DCD1BD"/>
<path d="M218.337 904.905C217.635 904.905 216.934 904.554 216.232 903.853C215.706 902.801 215.706 901.222 216.758 900.696L594.504 595.027C595.556 594.501 597.135 594.501 598.187 595.553C598.713 596.606 598.713 598.184 597.661 598.71L219.389 904.379C219.038 904.73 218.687 904.905 218.337 904.905Z" fill="#DCD1BD"/>
<path d="M104.173 933.315C103.471 933.315 102.77 933.14 102.068 932.789C101.542 931.737 101.542 930.158 102.594 929.106L595.032 595.027C596.084 594.501 597.662 594.501 598.188 595.553C598.714 596.606 598.715 598.184 597.662 598.71L105.225 933.315C104.874 933.666 104.523 933.666 104.173 933.315Z" fill="#DCD1BD"/>
<path d="M173.087 838.09C172.035 838.09 171.509 837.564 170.983 837.037C170.457 835.985 170.456 834.407 172.035 833.881L595.026 595.028C596.078 594.501 597.657 594.501 598.183 596.08C598.709 597.132 598.709 598.184 597.13 599.236L174.139 838.09C173.789 838.09 173.438 838.09 173.087 838.09Z" fill="#DCD1BD"/>
<path d="M55.768 848.085C54.7158 848.085 54.1895 847.559 53.6634 846.506C53.1373 845.454 53.6635 843.876 54.7157 843.35L595.029 595.027C596.607 594.501 597.66 595.027 598.186 596.079C598.712 597.131 598.186 598.709 597.133 599.236L56.8201 847.559C56.4694 847.909 56.1187 848.085 55.768 848.085Z" fill="#DCD1BD"/>
<path d="M139.42 764.96C138.368 764.96 137.316 764.434 137.316 763.381C136.79 762.329 137.316 761.277 138.368 760.751L595.556 595.027C596.608 594.501 598.187 595.027 598.187 596.079C598.713 597.131 598.187 598.709 597.134 599.236L139.946 764.96C139.946 764.96 139.771 764.96 139.42 764.96Z" fill="#DCD1BD"/>
<path d="M22.0986 755.49C21.0463 755.49 19.9942 754.438 19.9942 753.386C19.468 752.334 19.9942 751.282 21.5726 750.755L595.557 595.027C596.609 594.501 598.187 595.027 598.714 596.606C598.714 597.658 598.187 598.71 596.609 599.236L22.6247 755.49C22.274 755.49 22.0986 755.49 22.0986 755.49Z" fill="#DCD1BD"/>
<path d="M118.369 687.622C117.317 687.622 116.264 686.57 115.738 685.518C115.738 684.466 116.264 683.413 117.843 682.887L595.549 594.501C597.127 594.501 598.18 595.553 598.706 596.605C598.706 597.658 597.654 599.236 596.601 599.236L118.369 687.622Z" fill="#DCD1BD"/>
<path d="M4.20476 658.686C3.15254 658.686 2.10033 657.634 1.57422 656.582C1.57422 655.003 2.6264 653.951 3.67862 653.951L596.077 594.501C597.129 594.501 598.181 595.553 598.707 596.605C598.707 598.184 597.655 599.236 596.603 599.236L4.20476 658.686Z" fill="#DCD1BD"/>
<path d="M109.964 607.654C108.912 607.654 107.859 606.601 107.859 605.023C107.859 603.971 108.912 602.919 109.964 602.919L596.088 594.501C597.666 594.501 598.719 595.553 598.719 597.132C598.719 598.184 597.666 599.236 596.088 599.236L109.964 607.654Z" fill="#DCD1BD"/>
<path d="M596.081 599.239L2.1044 560.307C1.05218 559.781 0 558.729 0 557.677C0 556.098 1.57833 555.572 2.63054 555.572L596.607 594.504C597.659 595.03 598.711 596.083 598.711 597.135C598.711 598.187 597.659 599.239 596.081 599.239Z" fill="#DCD1BD"/>
<path d="M596.077 599.236L115.214 527.159C113.635 527.159 113.109 525.581 113.109 524.528C113.635 523.476 114.688 522.424 115.74 522.424L596.603 594.501C597.655 595.027 598.708 596.079 598.708 597.131C598.181 598.71 597.129 599.236 596.077 599.236Z" fill="#DCD1BD"/>
<path d="M596.084 599.237C596.084 599.237 595.909 599.237 595.558 599.237L16.3128 462.448C15.2606 462.448 14.7344 460.87 14.7344 459.818C15.2605 458.766 16.3127 457.713 17.3649 458.24L596.61 594.502C598.189 595.028 598.715 596.08 598.715 597.658C598.189 598.71 597.137 599.237 596.084 599.237Z" fill="#DCD1BD"/>
<path d="M596.085 599.238C596.085 599.238 595.91 599.238 595.559 599.238L133.11 448.771C132.057 448.245 131.531 447.193 131.531 446.141C132.057 444.563 133.636 444.036 134.688 444.563L597.137 595.03C598.189 595.03 598.715 596.608 598.189 597.66C598.189 598.712 597.137 599.238 596.085 599.238Z" fill="#DCD1BD"/>
<path d="M596.085 599.236C595.734 599.236 595.559 599.236 595.559 599.236L46.8276 368.801C45.7754 368.275 44.7232 367.223 45.2493 365.644C45.7754 364.592 47.3536 364.066 48.4058 364.592L597.137 595.028C598.189 595.554 598.715 596.606 598.189 597.658C598.189 598.71 597.137 599.236 596.085 599.236Z" fill="#DCD1BD"/>
<path d="M596.077 599.237C595.726 599.237 595.375 599.237 595.024 599.237L164.141 374.589C163.089 374.063 162.563 372.485 163.089 371.432C163.615 370.38 165.194 369.854 166.246 370.38L597.128 595.029C598.181 595.555 598.707 597.133 598.181 598.185C597.655 598.711 597.129 599.237 596.077 599.237Z" fill="#DCD1BD"/>
<path d="M596.079 599.237C595.728 599.237 595.378 599.061 595.027 598.711L92.0673 281.467C91.015 280.941 90.4889 279.363 91.015 278.311C92.0672 277.258 93.1194 276.732 94.1717 277.784L597.657 595.028C598.71 595.554 598.71 597.132 598.183 598.185C597.833 598.886 597.131 599.237 596.079 599.237Z" fill="#DCD1BD"/>
<path d="M596.083 599.238C595.732 599.238 595.381 599.062 595.03 598.712L206.762 306.195C205.71 305.669 205.71 304.091 206.236 303.039C207.288 301.986 208.341 301.986 209.393 302.513L597.661 595.029C598.713 596.081 598.713 597.133 598.187 598.186C597.485 598.887 596.784 599.238 596.083 599.238Z" fill="#DCD1BD"/>
<path d="M596.077 599.238C595.726 599.238 595.2 599.063 594.498 598.712L150.989 202.552C149.937 202.026 149.937 200.448 150.463 199.396C151.515 198.343 153.093 198.343 154.145 199.396L597.655 595.029C598.707 596.081 598.707 597.66 598.181 598.712C597.479 599.063 596.778 599.238 596.077 599.238Z" fill="#DCD1BD"/>
</svg>
