<svg width="751" height="120" viewBox="0 0 751 120" fill="none" xmlns="http://www.w3.org/2000/svg">
<mask id="path-1-outside-1_2569_18825" maskUnits="userSpaceOnUse" x="-0.0703125" y="-0.533783" width="751" height="121" fill="black">
<rect fill="white" x="-0.0703125" y="-0.533783" width="751" height="121"/>
<path d="M725.372 94.1311C717.687 86.7301 709.859 79.4715 701.888 72.3553C700.465 70.932 698.9 69.5088 697.192 68.0855C695.484 68.6548 693.776 69.3665 692.068 70.2204C689.791 71.0744 687.371 72.0706 684.809 73.2092C683.955 72.0706 683.102 70.932 682.248 69.7934C681.394 68.0855 680.397 66.52 679.259 65.0967C675.843 65.666 672.57 66.093 669.438 66.3777C659.76 67.8009 650.082 69.2242 640.404 70.6474C636.704 68.3702 633.146 65.9506 629.73 63.3888C624.037 59.6883 618.344 56.1302 612.651 52.7144C609.235 50.4372 605.961 48.3023 602.83 46.3098C599.699 47.4484 596.71 48.587 593.864 49.7256C592.725 50.2949 591.444 50.8642 590.021 51.4335C587.174 49.441 584.328 47.5907 581.481 45.8828C577.781 46.7368 574.223 47.733 570.807 48.8716C570.238 49.1563 569.526 49.2986 568.672 49.2986C560.987 44.7442 553.159 40.0475 545.188 35.2084C534.087 28.6615 522.844 22.2568 511.457 15.9945C507.472 14.002 503.63 11.8671 499.929 9.58991C495.659 11.0132 491.532 12.5787 487.547 14.2866C482.992 15.9945 478.438 17.7025 473.884 19.4104C470.468 17.9871 467.194 16.7061 464.063 15.5675C460.078 13.8596 456.093 12.2941 452.108 10.8708C448.407 12.0094 444.707 13.148 441.007 14.2866C424.497 19.4103 408.129 24.8187 391.904 30.5117C373.402 22.8261 354.9 15.4252 336.398 8.30897C332.982 6.88572 329.566 5.60482 326.15 4.46622C321.88 5.60482 317.611 6.88572 313.341 8.30897C307.079 10.3015 300.674 12.294 294.127 14.2866C293.273 13.7173 292.277 13.148 291.138 12.5787C287.153 10.5862 283.168 8.4513 279.183 6.17409C274.913 8.73595 270.643 11.1555 266.374 13.4327C252.995 21.4029 239.759 29.6577 226.665 38.1973C222.68 37.0587 218.695 36.0624 214.71 35.2084C210.724 34.3545 206.739 33.5005 202.754 32.6466C200.192 34.3545 197.63 35.9201 195.069 37.3433C193.076 38.7666 191.084 40.1898 189.091 41.6131C188.806 41.3284 188.522 41.1861 188.237 41.1861C184.821 40.3321 181.548 39.3359 178.417 38.1973C175.57 39.9052 172.724 41.613 169.877 43.3209C161.907 47.8753 154.079 52.7144 146.393 57.8381C135.007 55.2763 123.621 52.7144 112.235 50.1526C109.389 49.8679 106.685 49.4409 104.123 48.8716C102.415 50.0102 100.707 51.2911 98.9992 52.7144C97.5759 53.853 96.1527 54.8493 94.7294 55.7033C93.5908 55.134 92.4523 54.5646 91.3137 53.9953C89.8904 53.426 88.4672 52.7144 87.0439 51.8605C85.0513 52.9991 83.0588 54.28 81.0663 55.7033C74.2347 59.6884 67.5453 63.6734 60.9984 67.6585C54.4514 71.6436 47.9044 75.7711 41.3575 80.0409C34.8105 84.026 28.4059 88.1534 22.1436 92.4231C15.5966 96.6929 9.19199 101.105 2.92969 105.659C10.3306 101.105 17.5892 96.6929 24.7055 92.4231C32.1064 88.1534 39.5073 83.8836 46.9082 79.6139C52.8859 76.1981 59.0058 72.7823 65.2681 69.3665C63.2756 71.359 61.2831 73.3515 59.2905 75.3441C64.9835 71.9283 70.6765 68.6548 76.3695 65.5237C74.377 70.0781 72.5267 74.4902 70.8188 78.7599C76.2271 73.0669 81.7779 67.2316 87.4709 61.2539C87.7556 61.5385 88.0401 61.6809 88.3248 61.6809C90.0327 62.8195 91.7406 63.9581 93.4485 65.0967C95.7257 63.3888 98.1452 61.6809 100.707 59.973C101.561 59.4037 102.415 58.8344 103.269 58.2651C109.247 62.8195 115.082 67.5162 120.775 72.3553C118.782 68.3702 116.932 64.2428 115.224 59.973C119.779 61.1116 124.475 62.2502 129.314 63.3888C127.322 62.2502 125.472 61.1116 123.764 59.973C129.172 61.1116 134.58 62.3925 139.989 63.8158C142.835 64.6697 145.539 65.3814 148.101 65.9507C150.663 64.5274 153.225 63.1042 155.787 61.6809C162.049 57.9804 168.454 54.4223 175.001 51.0065C176.424 52.4298 177.847 53.9954 179.271 55.7033C180.694 53.7107 181.975 51.7181 183.113 49.7256C185.96 50.5795 188.806 51.4335 191.653 52.2875C194.784 50.5796 197.773 48.8717 200.619 47.1638C201.758 46.3098 202.754 45.5982 203.608 45.0289C206.17 48.4447 208.59 51.8605 210.867 55.2763C211.436 51.5758 211.863 47.733 212.148 43.7479C214.71 44.6019 217.271 45.3135 219.833 45.8828C223.818 46.7368 227.946 47.733 232.216 48.8716C235.062 47.1637 237.909 45.4558 240.755 43.7479C247.871 39.4782 255.272 35.2084 262.958 30.9387C260.396 34.0698 257.834 37.3433 255.272 40.7591C260.681 36.774 266.089 32.7889 271.497 28.8038C271.497 32.5043 271.355 36.2047 271.07 39.9051C274.486 34.7814 277.902 29.6578 281.318 24.534C283.026 25.388 284.591 26.2419 286.014 27.0959C290.854 25.388 295.835 23.8224 300.959 22.3992C303.236 21.5452 305.513 20.8336 307.79 20.2643C304.944 21.9722 301.955 23.8224 298.824 25.815C303.663 24.1071 308.502 22.5415 313.341 21.1182C315.333 28.8038 317.468 36.6317 319.746 44.6019C322.877 36.9163 326.15 29.0884 329.566 21.1182C331.558 21.9722 333.551 22.9684 335.544 24.107C343.656 27.5229 353.05 30.5117 353.05 30.5117C353.05 30.5117 346.218 27.0959 341.094 23.2531C340.81 22.9685 340.525 22.6838 340.24 22.3992C353.334 27.5229 366.286 32.9312 379.095 38.6243C383.08 40.0475 387.065 41.613 391.05 43.3209C395.035 41.8977 399.163 40.4744 403.433 39.0512C413.68 35.6354 423.927 32.2196 434.175 28.8038C431.898 30.5117 429.62 32.2196 427.343 33.9275C433.036 31.6503 438.872 29.3731 444.849 27.0959C443.141 34.4968 441.576 41.8977 440.153 49.2986C447.553 41.6131 455.097 33.9275 462.782 26.2419C463.352 26.2419 463.779 26.3843 464.063 26.6689C468.618 28.3768 473.03 30.0847 477.299 31.7926C480.715 30.654 484.131 29.3731 487.547 27.9499C489.255 27.3806 490.963 26.8112 492.671 26.2419C495.517 31.081 498.364 36.0624 501.21 41.1861C503.203 37.4856 505.195 33.7852 507.188 30.0847C517.72 36.347 528.109 42.6093 538.357 48.8716C532.379 44.0326 526.402 39.1936 520.424 34.3545C521.278 34.6391 522.132 35.0661 522.986 35.6354C534.514 42.04 546.042 48.4447 557.571 55.2763C561.271 57.2688 564.829 59.2613 568.245 61.2539C570.807 60.3999 573.369 59.546 575.931 58.6921C576.5 60.6846 577.212 62.5349 578.066 64.2428C579.774 62.5349 581.624 60.8269 583.616 59.119C586.463 60.8269 589.309 62.5349 592.156 64.2428C594.718 62.8195 597.28 61.5386 599.841 60.4C601.549 64.6697 603.115 68.9395 604.538 73.2092C605.961 69.5088 607.385 65.9506 608.808 62.5348C610.231 63.3888 611.654 64.3851 613.078 65.5237C613.078 64.9544 613.22 64.2427 613.505 63.3888C619.198 66.8046 625.033 70.3627 631.011 74.0632C633.288 75.4864 635.565 76.9097 637.842 78.3329C640.689 77.7636 643.393 77.3367 645.955 77.052C652.217 75.6288 658.622 74.4902 665.169 73.6362C662.322 79.3292 659.333 84.8799 656.202 90.2882C662.464 85.4492 668.727 80.4678 674.989 75.3441C675.843 75.9134 676.555 76.625 677.124 77.479C678.832 79.4715 680.682 81.4641 682.674 83.4567C684.667 82.3181 686.802 81.1795 689.079 80.0409C689.648 79.7562 690.218 79.4716 690.787 79.1869C691.072 80.0409 691.214 80.8948 691.214 81.7487C692.922 81.1794 694.488 80.7524 695.911 80.4678C698.473 86.7301 701.035 92.9924 703.596 99.2548C703.881 92.9924 704.166 86.8725 704.45 80.8948C709.859 84.8799 715.125 89.0073 720.249 93.2771C729.215 100.963 739.035 108.648 748.002 116.761C740.743 109.075 733.485 101.39 725.372 94.1311Z"/>
</mask>
<path d="M725.372 94.1311C717.687 86.7301 709.859 79.4715 701.888 72.3553C700.465 70.932 698.9 69.5088 697.192 68.0855C695.484 68.6548 693.776 69.3665 692.068 70.2204C689.791 71.0744 687.371 72.0706 684.809 73.2092C683.955 72.0706 683.102 70.932 682.248 69.7934C681.394 68.0855 680.397 66.52 679.259 65.0967C675.843 65.666 672.57 66.093 669.438 66.3777C659.76 67.8009 650.082 69.2242 640.404 70.6474C636.704 68.3702 633.146 65.9506 629.73 63.3888C624.037 59.6883 618.344 56.1302 612.651 52.7144C609.235 50.4372 605.961 48.3023 602.83 46.3098C599.699 47.4484 596.71 48.587 593.864 49.7256C592.725 50.2949 591.444 50.8642 590.021 51.4335C587.174 49.441 584.328 47.5907 581.481 45.8828C577.781 46.7368 574.223 47.733 570.807 48.8716C570.238 49.1563 569.526 49.2986 568.672 49.2986C560.987 44.7442 553.159 40.0475 545.188 35.2084C534.087 28.6615 522.844 22.2568 511.457 15.9945C507.472 14.002 503.63 11.8671 499.929 9.58991C495.659 11.0132 491.532 12.5787 487.547 14.2866C482.992 15.9945 478.438 17.7025 473.884 19.4104C470.468 17.9871 467.194 16.7061 464.063 15.5675C460.078 13.8596 456.093 12.2941 452.108 10.8708C448.407 12.0094 444.707 13.148 441.007 14.2866C424.497 19.4103 408.129 24.8187 391.904 30.5117C373.402 22.8261 354.9 15.4252 336.398 8.30897C332.982 6.88572 329.566 5.60482 326.15 4.46622C321.88 5.60482 317.611 6.88572 313.341 8.30897C307.079 10.3015 300.674 12.294 294.127 14.2866C293.273 13.7173 292.277 13.148 291.138 12.5787C287.153 10.5862 283.168 8.4513 279.183 6.17409C274.913 8.73595 270.643 11.1555 266.374 13.4327C252.995 21.4029 239.759 29.6577 226.665 38.1973C222.68 37.0587 218.695 36.0624 214.71 35.2084C210.724 34.3545 206.739 33.5005 202.754 32.6466C200.192 34.3545 197.63 35.9201 195.069 37.3433C193.076 38.7666 191.084 40.1898 189.091 41.6131C188.806 41.3284 188.522 41.1861 188.237 41.1861C184.821 40.3321 181.548 39.3359 178.417 38.1973C175.57 39.9052 172.724 41.613 169.877 43.3209C161.907 47.8753 154.079 52.7144 146.393 57.8381C135.007 55.2763 123.621 52.7144 112.235 50.1526C109.389 49.8679 106.685 49.4409 104.123 48.8716C102.415 50.0102 100.707 51.2911 98.9992 52.7144C97.5759 53.853 96.1527 54.8493 94.7294 55.7033C93.5908 55.134 92.4523 54.5646 91.3137 53.9953C89.8904 53.426 88.4672 52.7144 87.0439 51.8605C85.0513 52.9991 83.0588 54.28 81.0663 55.7033C74.2347 59.6884 67.5453 63.6734 60.9984 67.6585C54.4514 71.6436 47.9044 75.7711 41.3575 80.0409C34.8105 84.026 28.4059 88.1534 22.1436 92.4231C15.5966 96.6929 9.19199 101.105 2.92969 105.659C10.3306 101.105 17.5892 96.6929 24.7055 92.4231C32.1064 88.1534 39.5073 83.8836 46.9082 79.6139C52.8859 76.1981 59.0058 72.7823 65.2681 69.3665C63.2756 71.359 61.2831 73.3515 59.2905 75.3441C64.9835 71.9283 70.6765 68.6548 76.3695 65.5237C74.377 70.0781 72.5267 74.4902 70.8188 78.7599C76.2271 73.0669 81.7779 67.2316 87.4709 61.2539C87.7556 61.5385 88.0401 61.6809 88.3248 61.6809C90.0327 62.8195 91.7406 63.9581 93.4485 65.0967C95.7257 63.3888 98.1452 61.6809 100.707 59.973C101.561 59.4037 102.415 58.8344 103.269 58.2651C109.247 62.8195 115.082 67.5162 120.775 72.3553C118.782 68.3702 116.932 64.2428 115.224 59.973C119.779 61.1116 124.475 62.2502 129.314 63.3888C127.322 62.2502 125.472 61.1116 123.764 59.973C129.172 61.1116 134.58 62.3925 139.989 63.8158C142.835 64.6697 145.539 65.3814 148.101 65.9507C150.663 64.5274 153.225 63.1042 155.787 61.6809C162.049 57.9804 168.454 54.4223 175.001 51.0065C176.424 52.4298 177.847 53.9954 179.271 55.7033C180.694 53.7107 181.975 51.7181 183.113 49.7256C185.96 50.5795 188.806 51.4335 191.653 52.2875C194.784 50.5796 197.773 48.8717 200.619 47.1638C201.758 46.3098 202.754 45.5982 203.608 45.0289C206.17 48.4447 208.59 51.8605 210.867 55.2763C211.436 51.5758 211.863 47.733 212.148 43.7479C214.71 44.6019 217.271 45.3135 219.833 45.8828C223.818 46.7368 227.946 47.733 232.216 48.8716C235.062 47.1637 237.909 45.4558 240.755 43.7479C247.871 39.4782 255.272 35.2084 262.958 30.9387C260.396 34.0698 257.834 37.3433 255.272 40.7591C260.681 36.774 266.089 32.7889 271.497 28.8038C271.497 32.5043 271.355 36.2047 271.07 39.9051C274.486 34.7814 277.902 29.6578 281.318 24.534C283.026 25.388 284.591 26.2419 286.014 27.0959C290.854 25.388 295.835 23.8224 300.959 22.3992C303.236 21.5452 305.513 20.8336 307.79 20.2643C304.944 21.9722 301.955 23.8224 298.824 25.815C303.663 24.1071 308.502 22.5415 313.341 21.1182C315.333 28.8038 317.468 36.6317 319.746 44.6019C322.877 36.9163 326.15 29.0884 329.566 21.1182C331.558 21.9722 333.551 22.9684 335.544 24.107C343.656 27.5229 353.05 30.5117 353.05 30.5117C353.05 30.5117 346.218 27.0959 341.094 23.2531C340.81 22.9685 340.525 22.6838 340.24 22.3992C353.334 27.5229 366.286 32.9312 379.095 38.6243C383.08 40.0475 387.065 41.613 391.05 43.3209C395.035 41.8977 399.163 40.4744 403.433 39.0512C413.68 35.6354 423.927 32.2196 434.175 28.8038C431.898 30.5117 429.62 32.2196 427.343 33.9275C433.036 31.6503 438.872 29.3731 444.849 27.0959C443.141 34.4968 441.576 41.8977 440.153 49.2986C447.553 41.6131 455.097 33.9275 462.782 26.2419C463.352 26.2419 463.779 26.3843 464.063 26.6689C468.618 28.3768 473.03 30.0847 477.299 31.7926C480.715 30.654 484.131 29.3731 487.547 27.9499C489.255 27.3806 490.963 26.8112 492.671 26.2419C495.517 31.081 498.364 36.0624 501.21 41.1861C503.203 37.4856 505.195 33.7852 507.188 30.0847C517.72 36.347 528.109 42.6093 538.357 48.8716C532.379 44.0326 526.402 39.1936 520.424 34.3545C521.278 34.6391 522.132 35.0661 522.986 35.6354C534.514 42.04 546.042 48.4447 557.571 55.2763C561.271 57.2688 564.829 59.2613 568.245 61.2539C570.807 60.3999 573.369 59.546 575.931 58.6921C576.5 60.6846 577.212 62.5349 578.066 64.2428C579.774 62.5349 581.624 60.8269 583.616 59.119C586.463 60.8269 589.309 62.5349 592.156 64.2428C594.718 62.8195 597.28 61.5386 599.841 60.4C601.549 64.6697 603.115 68.9395 604.538 73.2092C605.961 69.5088 607.385 65.9506 608.808 62.5348C610.231 63.3888 611.654 64.3851 613.078 65.5237C613.078 64.9544 613.22 64.2427 613.505 63.3888C619.198 66.8046 625.033 70.3627 631.011 74.0632C633.288 75.4864 635.565 76.9097 637.842 78.3329C640.689 77.7636 643.393 77.3367 645.955 77.052C652.217 75.6288 658.622 74.4902 665.169 73.6362C662.322 79.3292 659.333 84.8799 656.202 90.2882C662.464 85.4492 668.727 80.4678 674.989 75.3441C675.843 75.9134 676.555 76.625 677.124 77.479C678.832 79.4715 680.682 81.4641 682.674 83.4567C684.667 82.3181 686.802 81.1795 689.079 80.0409C689.648 79.7562 690.218 79.4716 690.787 79.1869C691.072 80.0409 691.214 80.8948 691.214 81.7487C692.922 81.1794 694.488 80.7524 695.911 80.4678C698.473 86.7301 701.035 92.9924 703.596 99.2548C703.881 92.9924 704.166 86.8725 704.45 80.8948C709.859 84.8799 715.125 89.0073 720.249 93.2771C729.215 100.963 739.035 108.648 748.002 116.761C740.743 109.075 733.485 101.39 725.372 94.1311Z" fill="#EFE3CD"/>
<path d="M725.372 94.1311C717.687 86.7301 709.859 79.4715 701.888 72.3553C700.465 70.932 698.9 69.5088 697.192 68.0855C695.484 68.6548 693.776 69.3665 692.068 70.2204C689.791 71.0744 687.371 72.0706 684.809 73.2092C683.955 72.0706 683.102 70.932 682.248 69.7934C681.394 68.0855 680.397 66.52 679.259 65.0967C675.843 65.666 672.57 66.093 669.438 66.3777C659.76 67.8009 650.082 69.2242 640.404 70.6474C636.704 68.3702 633.146 65.9506 629.73 63.3888C624.037 59.6883 618.344 56.1302 612.651 52.7144C609.235 50.4372 605.961 48.3023 602.83 46.3098C599.699 47.4484 596.71 48.587 593.864 49.7256C592.725 50.2949 591.444 50.8642 590.021 51.4335C587.174 49.441 584.328 47.5907 581.481 45.8828C577.781 46.7368 574.223 47.733 570.807 48.8716C570.238 49.1563 569.526 49.2986 568.672 49.2986C560.987 44.7442 553.159 40.0475 545.188 35.2084C534.087 28.6615 522.844 22.2568 511.457 15.9945C507.472 14.002 503.63 11.8671 499.929 9.58991C495.659 11.0132 491.532 12.5787 487.547 14.2866C482.992 15.9945 478.438 17.7025 473.884 19.4104C470.468 17.9871 467.194 16.7061 464.063 15.5675C460.078 13.8596 456.093 12.2941 452.108 10.8708C448.407 12.0094 444.707 13.148 441.007 14.2866C424.497 19.4103 408.129 24.8187 391.904 30.5117C373.402 22.8261 354.9 15.4252 336.398 8.30897C332.982 6.88572 329.566 5.60482 326.15 4.46622C321.88 5.60482 317.611 6.88572 313.341 8.30897C307.079 10.3015 300.674 12.294 294.127 14.2866C293.273 13.7173 292.277 13.148 291.138 12.5787C287.153 10.5862 283.168 8.4513 279.183 6.17409C274.913 8.73595 270.643 11.1555 266.374 13.4327C252.995 21.4029 239.759 29.6577 226.665 38.1973C222.68 37.0587 218.695 36.0624 214.71 35.2084C210.724 34.3545 206.739 33.5005 202.754 32.6466C200.192 34.3545 197.63 35.9201 195.069 37.3433C193.076 38.7666 191.084 40.1898 189.091 41.6131C188.806 41.3284 188.522 41.1861 188.237 41.1861C184.821 40.3321 181.548 39.3359 178.417 38.1973C175.57 39.9052 172.724 41.613 169.877 43.3209C161.907 47.8753 154.079 52.7144 146.393 57.8381C135.007 55.2763 123.621 52.7144 112.235 50.1526C109.389 49.8679 106.685 49.4409 104.123 48.8716C102.415 50.0102 100.707 51.2911 98.9992 52.7144C97.5759 53.853 96.1527 54.8493 94.7294 55.7033C93.5908 55.134 92.4523 54.5646 91.3137 53.9953C89.8904 53.426 88.4672 52.7144 87.0439 51.8605C85.0513 52.9991 83.0588 54.28 81.0663 55.7033C74.2347 59.6884 67.5453 63.6734 60.9984 67.6585C54.4514 71.6436 47.9044 75.7711 41.3575 80.0409C34.8105 84.026 28.4059 88.1534 22.1436 92.4231C15.5966 96.6929 9.19199 101.105 2.92969 105.659C10.3306 101.105 17.5892 96.6929 24.7055 92.4231C32.1064 88.1534 39.5073 83.8836 46.9082 79.6139C52.8859 76.1981 59.0058 72.7823 65.2681 69.3665C63.2756 71.359 61.2831 73.3515 59.2905 75.3441C64.9835 71.9283 70.6765 68.6548 76.3695 65.5237C74.377 70.0781 72.5267 74.4902 70.8188 78.7599C76.2271 73.0669 81.7779 67.2316 87.4709 61.2539C87.7556 61.5385 88.0401 61.6809 88.3248 61.6809C90.0327 62.8195 91.7406 63.9581 93.4485 65.0967C95.7257 63.3888 98.1452 61.6809 100.707 59.973C101.561 59.4037 102.415 58.8344 103.269 58.2651C109.247 62.8195 115.082 67.5162 120.775 72.3553C118.782 68.3702 116.932 64.2428 115.224 59.973C119.779 61.1116 124.475 62.2502 129.314 63.3888C127.322 62.2502 125.472 61.1116 123.764 59.973C129.172 61.1116 134.58 62.3925 139.989 63.8158C142.835 64.6697 145.539 65.3814 148.101 65.9507C150.663 64.5274 153.225 63.1042 155.787 61.6809C162.049 57.9804 168.454 54.4223 175.001 51.0065C176.424 52.4298 177.847 53.9954 179.271 55.7033C180.694 53.7107 181.975 51.7181 183.113 49.7256C185.96 50.5795 188.806 51.4335 191.653 52.2875C194.784 50.5796 197.773 48.8717 200.619 47.1638C201.758 46.3098 202.754 45.5982 203.608 45.0289C206.17 48.4447 208.59 51.8605 210.867 55.2763C211.436 51.5758 211.863 47.733 212.148 43.7479C214.71 44.6019 217.271 45.3135 219.833 45.8828C223.818 46.7368 227.946 47.733 232.216 48.8716C235.062 47.1637 237.909 45.4558 240.755 43.7479C247.871 39.4782 255.272 35.2084 262.958 30.9387C260.396 34.0698 257.834 37.3433 255.272 40.7591C260.681 36.774 266.089 32.7889 271.497 28.8038C271.497 32.5043 271.355 36.2047 271.07 39.9051C274.486 34.7814 277.902 29.6578 281.318 24.534C283.026 25.388 284.591 26.2419 286.014 27.0959C290.854 25.388 295.835 23.8224 300.959 22.3992C303.236 21.5452 305.513 20.8336 307.79 20.2643C304.944 21.9722 301.955 23.8224 298.824 25.815C303.663 24.1071 308.502 22.5415 313.341 21.1182C315.333 28.8038 317.468 36.6317 319.746 44.6019C322.877 36.9163 326.15 29.0884 329.566 21.1182C331.558 21.9722 333.551 22.9684 335.544 24.107C343.656 27.5229 353.05 30.5117 353.05 30.5117C353.05 30.5117 346.218 27.0959 341.094 23.2531C340.81 22.9685 340.525 22.6838 340.24 22.3992C353.334 27.5229 366.286 32.9312 379.095 38.6243C383.08 40.0475 387.065 41.613 391.05 43.3209C395.035 41.8977 399.163 40.4744 403.433 39.0512C413.68 35.6354 423.927 32.2196 434.175 28.8038C431.898 30.5117 429.62 32.2196 427.343 33.9275C433.036 31.6503 438.872 29.3731 444.849 27.0959C443.141 34.4968 441.576 41.8977 440.153 49.2986C447.553 41.6131 455.097 33.9275 462.782 26.2419C463.352 26.2419 463.779 26.3843 464.063 26.6689C468.618 28.3768 473.03 30.0847 477.299 31.7926C480.715 30.654 484.131 29.3731 487.547 27.9499C489.255 27.3806 490.963 26.8112 492.671 26.2419C495.517 31.081 498.364 36.0624 501.21 41.1861C503.203 37.4856 505.195 33.7852 507.188 30.0847C517.72 36.347 528.109 42.6093 538.357 48.8716C532.379 44.0326 526.402 39.1936 520.424 34.3545C521.278 34.6391 522.132 35.0661 522.986 35.6354C534.514 42.04 546.042 48.4447 557.571 55.2763C561.271 57.2688 564.829 59.2613 568.245 61.2539C570.807 60.3999 573.369 59.546 575.931 58.6921C576.5 60.6846 577.212 62.5349 578.066 64.2428C579.774 62.5349 581.624 60.8269 583.616 59.119C586.463 60.8269 589.309 62.5349 592.156 64.2428C594.718 62.8195 597.28 61.5386 599.841 60.4C601.549 64.6697 603.115 68.9395 604.538 73.2092C605.961 69.5088 607.385 65.9506 608.808 62.5348C610.231 63.3888 611.654 64.3851 613.078 65.5237C613.078 64.9544 613.22 64.2427 613.505 63.3888C619.198 66.8046 625.033 70.3627 631.011 74.0632C633.288 75.4864 635.565 76.9097 637.842 78.3329C640.689 77.7636 643.393 77.3367 645.955 77.052C652.217 75.6288 658.622 74.4902 665.169 73.6362C662.322 79.3292 659.333 84.8799 656.202 90.2882C662.464 85.4492 668.727 80.4678 674.989 75.3441C675.843 75.9134 676.555 76.625 677.124 77.479C678.832 79.4715 680.682 81.4641 682.674 83.4567C684.667 82.3181 686.802 81.1795 689.079 80.0409C689.648 79.7562 690.218 79.4716 690.787 79.1869C691.072 80.0409 691.214 80.8948 691.214 81.7487C692.922 81.1794 694.488 80.7524 695.911 80.4678C698.473 86.7301 701.035 92.9924 703.596 99.2548C703.881 92.9924 704.166 86.8725 704.45 80.8948C709.859 84.8799 715.125 89.0073 720.249 93.2771C729.215 100.963 739.035 108.648 748.002 116.761C740.743 109.075 733.485 101.39 725.372 94.1311Z" stroke="#2C2C2C" stroke-width="8" mask="url(#path-1-outside-1_2569_18825)"/>
<path d="M327.85 47.1634C328.277 46.7364 328.704 45.8824 329.131 45.0285C329.985 44.1745 330.412 43.3205 330.839 42.0396C331.408 40.901 331.978 39.7624 332.547 38.6238C332.832 37.4852 333.116 36.3466 333.401 35.208C333.828 34.3541 333.828 33.5001 333.828 32.6461C333.828 31.7922 333.828 30.9382 333.828 30.5113C333.828 29.942 333.828 29.6573 333.828 29.6573C333.828 29.6573 333.543 29.942 332.974 30.5113C332.974 30.9382 332.12 31.7922 331.693 32.6461C331.266 33.5001 330.412 34.3541 329.985 35.208C329.416 36.3466 328.846 37.4852 328.277 38.6238C327.992 39.7624 327.708 40.901 327.423 42.0396C326.996 43.3205 327.423 44.1745 326.996 45.0285C326.996 45.8824 326.996 46.7364 326.996 47.1634C326.996 47.7327 326.996 48.0173 326.996 48.0173C326.996 48.0173 327.281 47.7327 327.85 47.1634Z" fill="#EFE3CD"/>
<path d="M491.384 35.6358C491.384 36.4898 491.811 37.7708 492.238 38.6247C492.523 39.7633 492.949 40.9019 493.519 42.0405C494.088 43.4637 494.657 44.7447 495.227 45.8833C496.081 46.7372 496.935 48.0182 497.362 48.8721C498.216 49.7261 498.643 50.58 499.07 51.007C499.639 51.5763 499.923 51.8609 499.923 51.8609C499.923 51.8609 499.923 51.5763 499.923 51.007C499.923 50.58 499.924 50.153 499.497 48.8721C499.497 48.0182 499.497 47.1642 499.07 45.8833C498.5 44.7447 497.931 43.6061 497.362 42.4675C496.792 41.3289 496.223 40.1903 495.654 39.0517C494.8 37.7707 493.946 36.4898 493.519 35.6358C493.092 34.7819 492.238 33.9279 491.811 33.501C491.242 32.9317 490.957 32.647 490.957 32.647C490.957 32.647 490.957 32.9317 490.957 33.501C490.957 33.9279 490.957 34.7819 491.384 35.6358Z" fill="#EFE3CD"/>
<path d="M118.205 76.6247C117.778 75.7707 117.351 74.9168 116.924 74.4898C116.07 73.6358 115.359 72.7819 114.79 71.9279C113.651 71.074 112.797 70.3623 112.228 69.793C111.374 68.9391 110.093 68.0851 109.239 67.6581C108.812 67.2312 107.531 66.8042 107.104 66.3773C106.535 66.0926 106.25 65.9503 106.25 65.9503C106.25 65.9503 106.25 66.0926 106.25 66.3773C106.677 66.8042 106.677 67.6582 107.104 68.0851C107.531 68.9391 107.958 69.3661 108.812 70.22C109.381 71.074 110.093 71.928 110.947 72.7819C111.801 73.6359 112.655 74.3475 113.509 74.9168C114.362 75.7707 115.216 76.1977 116.07 77.0517C116.924 77.4786 117.778 77.9056 118.205 78.3325C118.775 78.6172 119.059 78.7595 119.059 78.7595C119.059 78.7595 119.059 78.4749 119.059 77.9056C118.632 77.9056 118.632 77.0516 118.205 76.6247Z" fill="#EFE3CD"/>
<path d="M666.876 90.7161C667.73 89.8621 668.584 89.1505 669.438 88.5812C670.292 87.7272 671.146 86.8733 672 86.0193C672.427 85.5923 672.854 84.7384 673.281 84.3114C673.708 83.4575 674.135 83.0305 674.135 82.6035C674.419 82.3189 674.562 82.1766 674.562 82.1766C674.562 82.1766 674.135 82.3189 673.281 82.6035C672.854 82.6035 672 83.0305 671.146 83.4575C670.292 84.3115 669.438 84.7384 668.584 85.1654C667.73 86.0193 666.734 86.731 665.595 87.3003C665.026 88.1542 664.314 89.0082 663.46 89.8621C662.606 90.2891 662.179 91.143 661.752 91.57C661.325 92.424 661.325 92.8509 660.898 93.2779C660.898 93.5625 660.898 93.7049 660.898 93.7049C660.898 93.7049 661.183 93.5625 661.752 93.2779C662.179 93.2779 663.033 92.8509 663.887 92.424C664.741 91.997 666.022 91.1431 666.876 90.7161Z" fill="#EFE3CD"/>
<path d="M434.605 52.2871C434.605 51.7178 434.747 51.0061 435.032 50.1522C435.032 49.2982 435.174 48.4442 435.459 47.5903C435.459 46.7363 435.459 45.8824 435.459 45.0285C435.459 44.1745 435.459 43.4629 435.459 42.8936C435.459 41.6127 435.032 40.3317 435.032 40.3317C435.032 40.3317 434.605 41.1857 434.178 42.4666C434.178 43.3206 434.036 44.1745 433.751 45.0285C433.751 45.5978 433.609 46.3094 433.324 47.1634C433.324 48.302 433.324 49.1559 433.324 49.7252C433.324 50.5791 433.324 51.4331 433.324 52.2871C433.751 53.568 433.751 54.4219 433.751 54.4219C433.751 54.4219 434.178 53.568 434.605 52.2871Z" fill="#EFE3CD"/>
<path d="M610.945 72.7831C611.229 72.4985 611.514 72.0715 611.799 71.5022C612.083 70.9329 612.226 70.3636 612.226 69.7943C612.51 69.225 612.653 68.798 612.653 68.5134C613.08 67.6594 613.079 67.2324 613.079 67.2324C613.079 67.2324 612.226 67.6594 611.799 68.5134C611.514 68.798 611.087 69.0827 610.518 69.3673C610.233 69.9366 609.948 70.5059 609.664 71.0752C609.379 71.6445 609.094 72.2138 608.81 72.7831C608.81 73.0678 608.667 73.4947 608.383 74.064C608.383 74.918 608.383 75.3449 608.383 75.3449C608.383 75.3449 608.81 74.918 609.664 74.064C609.948 73.7794 610.375 73.3524 610.945 72.7831Z" fill="#EFE3CD"/>
<path d="M710.434 97.9734C710.434 97.1195 710.577 96.4078 710.861 95.8385C710.861 94.9846 710.861 94.1306 710.861 93.2767C710.861 92.7074 711.004 92.1381 711.288 91.5688C710.861 90.2878 710.861 89.4339 710.861 89.4339C710.861 89.4339 710.434 90.2878 710.007 91.1418C709.723 91.7111 709.438 92.2804 709.153 92.8497C709.153 93.7037 709.011 94.4153 708.727 94.9846C708.727 95.8385 708.727 96.6925 708.727 97.5464C708.727 98.1157 708.727 98.685 708.727 99.2543C708.727 100.535 708.727 101.389 708.727 101.389C708.727 101.389 709.154 100.535 709.581 99.6813C709.865 99.112 710.15 98.5427 710.434 97.9734Z" fill="#EFE3CD"/>
<path d="M311.199 32.6458C311.484 33.2151 311.768 33.7844 312.053 34.3537C312.907 35.2077 313.334 36.0616 313.334 36.0616C313.334 36.0616 313.334 35.2077 313.334 34.3537C313.334 33.7844 313.191 33.2151 312.907 32.6458C312.907 32.0765 312.764 31.3648 312.48 30.5109C312.48 29.9416 312.337 29.23 312.053 28.376C311.768 27.8067 311.484 27.2374 311.199 26.6681C310.772 25.8142 309.918 24.9602 309.918 24.9602C310.345 24.9602 309.918 25.8142 309.918 27.0951C309.918 27.3797 310.06 27.9491 310.345 28.803C310.345 29.3723 310.487 29.9416 310.772 30.5109C311.057 31.3648 311.199 32.0765 311.199 32.6458Z" fill="#EFE3CD"/>
<path d="M267.655 47.1642C268.082 48.4451 268.082 49.2991 268.082 49.2991C268.082 49.2991 268.509 48.4451 268.509 47.1642C268.793 46.5949 268.936 46.0256 268.936 45.4563C268.936 44.6023 268.936 43.7484 268.936 42.8944C268.651 42.3251 268.509 41.6135 268.509 40.7596C268.509 40.1903 268.366 39.6209 268.082 39.0516C267.655 37.7707 267.228 36.9167 267.228 36.9167C267.228 36.9167 267.228 37.7707 266.801 39.0516C266.801 39.6209 266.801 40.1903 266.801 40.7596C266.801 41.6135 266.801 42.4674 266.801 43.3214C266.801 43.8907 266.943 44.6023 267.228 45.4563C267.228 46.0256 267.37 46.5949 267.655 47.1642Z" fill="#EFE3CD"/>
<path d="M207.031 56.9838C207.316 57.5531 207.6 57.98 207.885 58.2647C208.17 58.834 208.454 59.261 208.739 59.5456C209.593 60.3996 210.02 60.8266 210.02 60.8266C210.02 60.8266 210.02 59.9726 210.02 59.5456C210.02 58.9763 209.877 58.5493 209.593 58.2647C209.308 57.6954 209.024 57.1261 208.739 56.5568C208.454 56.2722 208.17 55.8452 207.885 55.2759C207.6 54.9912 207.316 54.5642 207.031 53.9949C206.177 53.568 205.75 53.141 205.75 53.141C205.75 53.141 205.75 53.568 205.75 54.4219C205.75 54.7066 205.892 55.1336 206.177 55.7029C206.462 55.9875 206.746 56.4145 207.031 56.9838Z" fill="#EFE3CD"/>
<path d="M160.063 62.534C158.924 63.388 157.643 64.0996 156.22 64.6689C154.797 65.5229 153.516 66.3768 152.377 67.2308C150.954 67.8001 149.815 68.3694 148.962 68.9387C147.254 70.2196 145.973 70.6466 145.973 70.6466C145.973 70.6466 147.681 70.2196 149.815 68.9387C150.954 68.3694 152.235 67.8001 153.658 67.2308C155.082 66.3768 156.505 65.5229 157.928 64.6689C159.067 64.0996 160.348 63.388 161.771 62.534C162.909 61.9647 163.906 61.3955 164.76 60.8262C166.894 59.5452 167.748 59.1182 167.748 59.1182C167.748 59.1182 166.041 59.5452 163.906 60.8262C162.767 61.3955 161.486 61.9647 160.063 62.534Z" fill="#EFE3CD"/>
<path d="M66.5465 83.4559C66.8311 82.8866 66.9735 82.175 66.9735 81.321C67.2582 80.7517 67.4005 80.1824 67.4005 79.6131C67.6852 78.7591 67.8275 78.0475 67.8275 77.4782C67.8275 76.6243 67.8275 76.055 67.8275 75.7703C67.4005 74.4894 67.4005 74.0624 67.4005 74.0624C67.4005 74.0624 66.9735 74.4894 66.5465 75.7703C66.2618 76.3396 66.1196 76.9089 66.1196 77.4782C65.835 78.3322 65.6926 79.0438 65.6926 79.6131C65.6926 80.467 65.5503 81.1787 65.2656 81.748C65.2656 82.3173 65.2656 82.8866 65.2656 83.4559C65.6926 84.7368 65.6926 85.1638 65.6926 85.1638C65.6926 85.1638 66.1195 84.3099 66.5465 83.4559Z" fill="#EFE3CD"/>
</svg>
