<svg width="600" height="600" viewBox="0 0 600 600" fill="none" xmlns="http://www.w3.org/2000/svg">
<g clip-path="url(#clip0_2608_14330)">
<rect width="600" height="600" rx="24" transform="matrix(-1 0 0 1 600 0)" fill="#FFD98E"/>
<path d="M464.632 599.401H49.1011C44.7702 594.491 39.6541 586.351 38.3885 584.654C25.577 567.488 15.2212 548.74 7.11673 529.32C-26.2113 449.461 -20.3979 356.615 14.6543 278.101C40.5917 220.004 85.9488 169.865 149.735 144.862C208.595 121.789 289.743 115.806 339.74 158.611C389.89 201.548 381.51 276.954 431.716 319.723C433.116 320.916 434.557 322.071 436.037 323.181C463.376 343.696 500.995 343.248 533.479 351.677C567.215 360.433 598.168 382.333 609.876 413.488C625.339 454.635 611.353 501.818 587.444 537.785C558.278 581.664 513.782 594.189 464.632 599.401Z" fill="#EFE3CD"/>
<path d="M181.04 129.934H340.13L342.23 151.805H181.04V129.934Z" stroke="#2C2C2C" stroke-miterlimit="10"/>
<path d="M181.04 151.805H340.13L342.23 173.678H181.04V151.805Z" stroke="#2C2C2C" stroke-miterlimit="10"/>
<path d="M181.04 173.678H340.13L342.23 195.549H181.04V173.678Z" stroke="#2C2C2C" stroke-miterlimit="10"/>
<path d="M181.04 195.549H340.13L342.23 217.421H181.04V195.549Z" stroke="#2C2C2C" stroke-miterlimit="10"/>
<path d="M181.04 217.421H340.13L342.23 239.294H181.04V217.421Z" stroke="#2C2C2C" stroke-miterlimit="10"/>
<path d="M181.04 239.294H340.13L342.23 261.165H181.04V239.294Z" stroke="#2C2C2C" stroke-miterlimit="10"/>
<path d="M181.04 261.165H340.13L342.23 283.036H181.04V261.165Z" stroke="#2C2C2C" stroke-miterlimit="10"/>
<path d="M181.04 283.036H340.13L342.23 304.909H181.04V283.036Z" stroke="#2C2C2C" stroke-miterlimit="10"/>
<path d="M181.04 304.909H340.13L342.23 326.781H181.04V304.909Z" stroke="#2C2C2C" stroke-miterlimit="10"/>
<path d="M181.04 326.781H340.13L342.23 348.652H181.04V326.781Z" stroke="#2C2C2C" stroke-miterlimit="10"/>
<path d="M181.04 348.652H340.13L342.23 370.525H181.04V348.652Z" stroke="#2C2C2C" stroke-miterlimit="10"/>
<path d="M181.04 370.525H340.13L342.23 392.396H181.04V370.525Z" stroke="#2C2C2C" stroke-miterlimit="10"/>
<path d="M181.04 392.396H340.13L342.23 414.268H181.04V392.396Z" stroke="#2C2C2C" stroke-miterlimit="10"/>
<path d="M181.04 414.268H340.13L342.23 436.14H181.04V414.268Z" stroke="#2C2C2C" stroke-miterlimit="10"/>
<path d="M181.04 436.14H340.13L342.23 458.012H181.04V436.14Z" stroke="#2C2C2C" stroke-miterlimit="10"/>
<path d="M17.5008 129.934H176.591L178.691 151.805H17.5008V129.934Z" stroke="#2C2C2C" stroke-miterlimit="10"/>
<path d="M17.5008 151.805H176.591L178.691 173.678H17.5008V151.805Z" stroke="#2C2C2C" stroke-miterlimit="10"/>
<path d="M17.5008 173.678H176.591L178.691 195.549H17.5008V173.678Z" stroke="#2C2C2C" stroke-miterlimit="10"/>
<path d="M17.5008 195.549H176.591L178.691 217.421H17.5008V195.549Z" stroke="#2C2C2C" stroke-miterlimit="10"/>
<path d="M17.5008 217.421H176.591L178.691 239.294H17.5008V217.421Z" stroke="#2C2C2C" stroke-miterlimit="10"/>
<path d="M17.5008 239.294H176.591L178.691 261.165H17.5008V239.294Z" stroke="#2C2C2C" stroke-miterlimit="10"/>
<path d="M17.5008 261.165H176.591L178.691 283.036H17.5008V261.165Z" stroke="#2C2C2C" stroke-miterlimit="10"/>
<path d="M17.5008 283.036H176.591L178.691 304.909H17.5008V283.036Z" stroke="#2C2C2C" stroke-miterlimit="10"/>
<path d="M17.5008 304.909H176.591L178.691 326.781H17.5008V304.909Z" stroke="#2C2C2C" stroke-miterlimit="10"/>
<path d="M17.5008 326.781H176.591L178.691 348.652H17.5008V326.781Z" stroke="#2C2C2C" stroke-miterlimit="10"/>
<path d="M17.5008 348.652H176.591L178.691 370.525H17.5008V348.652Z" stroke="#2C2C2C" stroke-miterlimit="10"/>
<path d="M17.5008 370.525H176.591L178.691 392.396H17.5008V370.525Z" stroke="#2C2C2C" stroke-miterlimit="10"/>
<path d="M17.5008 392.396H176.591L178.691 414.268H17.5008V392.396Z" stroke="#2C2C2C" stroke-miterlimit="10"/>
<path d="M17.5008 414.268H176.591L178.691 436.14H17.5008V414.268Z" stroke="#2C2C2C" stroke-miterlimit="10"/>
<path d="M17.5008 436.14H176.591L178.691 458.012H17.5008V436.14Z" stroke="#2C2C2C" stroke-miterlimit="10"/>
<path d="M9.53592 113H345.953V129.5H9.53592V113Z" stroke="#2C2C2C" stroke-miterlimit="10"/>
<path d="M9.53516 129.501V420.085" stroke="#2C2C2C" stroke-miterlimit="10"/>
<path d="M13.1992 129.965V329.334" stroke="#2C2C2C" stroke-miterlimit="10"/>
<path d="M7.15272 419.443H11.6758V426.844H7.15272V419.443Z" fill="#2C2C2C" stroke="#2C2C2C" stroke-miterlimit="10"/>
<path d="M11.2269 327.747H15.75V335.149H11.2269V327.747Z" fill="#2C2C2C" stroke="#2C2C2C" stroke-miterlimit="10"/>
<path d="M404.226 143.661H577.188V359.176H404.226V143.661Z" stroke="#2C2C2C" stroke-miterlimit="10"/>
<path d="M408.632 149.152H572.781V353.686H408.632V149.152Z" stroke="#2C2C2C" stroke-miterlimit="10"/>
<path d="M460.507 213.788H520.906V289.047H460.507V213.788Z" fill="#EFE3CD"/>
<path d="M434.424 566.487C434.424 566.487 433.81 544.392 434.591 525.399C435.372 506.407 433.797 465.653 433.797 465.653" stroke="#2C2C2C" stroke-miterlimit="10"/>
<path d="M434.159 489.614L442.789 482.827" stroke="#2C2C2C" stroke-miterlimit="10"/>
<path d="M434.25 494.294L431.182 489.319" stroke="#2C2C2C" stroke-miterlimit="10"/>
<path d="M434.953 513.941L427.291 507.602" stroke="#2C2C2C" stroke-miterlimit="10"/>
<path d="M433.792 474.008L437.84 470.328" stroke="#2C2C2C" stroke-miterlimit="10"/>
<path d="M435.026 517.394L440.09 511.955" stroke="#2C2C2C" stroke-miterlimit="10"/>
<path d="M434.577 538.72L445.121 529.103" stroke="#2C2C2C" stroke-miterlimit="10"/>
<path d="M434.309 550.566C434.309 550.566 432.405 549.964 426.492 546.918" stroke="#2C2C2C" stroke-miterlimit="10"/>
<path d="M440.125 493.025C444.355 489.749 458.561 490.333 461.3 497.13C464.039 503.926 455.39 514.997 447.014 514.221C443.744 513.918 442.332 513.686 441.05 511.857L452.722 500.452L440.093 510.601C439.75 509.996 439.463 509.311 439.228 508.527C439.079 508.026 438.947 507.487 438.831 506.907C438.022 502.843 436.174 496.085 440.125 493.025Z" fill="#FFB727"/>
<path d="M412.669 485.143C412.686 485.22 412.701 485.3 412.719 485.377C413.862 490.445 419.658 493.316 424.524 492.889C425.217 492.829 425.884 492.7 426.531 492.524C427.862 494.7 429.847 499.24 427.784 504.806C427.57 505.384 427.288 505.918 426.96 506.416C425.53 505.241 410.167 492.143 410.167 492.143L426.111 507.502C421.319 512.647 410.028 511.941 406.108 502.406C402.243 493.006 407.133 486.506 412.669 485.143Z" fill="#FFB727"/>
<path d="M420.482 467.424C428.75 465.608 436.141 469.361 436.002 477.98C435.939 481.864 434.219 485.619 431.405 488.103L422.972 476.411L430.135 489.079C429.468 489.528 428.758 489.919 428.003 490.225C426.982 490.638 425.885 490.91 424.727 491.012C419.86 491.438 414.065 488.567 412.921 483.499C411.646 477.84 412.216 469.24 420.482 467.424Z" fill="#FFB727"/>
<path d="M430.121 437.421C430.121 437.421 430.973 437.672 436.257 440.261C441.54 442.85 445.724 451.214 441.549 458.373C439.175 462.443 436.419 463.987 434.481 464.562L432.364 444.007L433.218 464.834C432.468 464.933 432.011 464.879 432.011 464.879C428.577 464.522 423.139 460.418 422.623 451.988C422.107 443.56 430.121 437.421 430.121 437.421Z" fill="#FFB727"/>
<path d="M454.275 456.112L438.329 468.866C438.038 467.903 438.175 467.073 438.175 467.073C438.907 459.773 446.195 455.545 451.002 454.017C455.808 452.49 459.145 455.214 456.055 462.202C452.965 469.19 444.851 472.521 441.227 471.511C440.174 471.217 439.484 470.717 439.022 470.16L454.275 456.112Z" fill="#FFB727"/>
<path d="M443.296 472.462C446.741 472.577 452.316 470.116 455.562 465.379C458.91 465.313 461.687 466.897 462.585 471.095C464.213 478.708 458.71 486.674 450.773 485.701C447.304 485.275 445.307 484.086 444.159 482.884L458.347 469.94L443.164 481.507C442.645 480.523 442.608 479.759 442.608 479.759C442.608 479.759 441.709 476.023 443.296 472.462Z" fill="#FFB727"/>
<path d="M443.381 514.773C444.462 515.282 445.795 515.595 447.455 515.749C452.641 516.23 457.927 512.168 460.555 507.392C463.738 507.904 466.279 509.613 466.895 513.098C468.47 522.003 460.225 533.737 451.893 531.885C449.264 531.301 447.408 530.19 446.1 528.944L464.294 511.447L445.042 527.766C443.191 525.358 442.992 522.895 442.992 522.895C442.992 522.895 441.424 518.82 443.381 514.773Z" fill="#FFB727"/>
<path d="M406.788 533.049C412.9 525.97 420.185 532.307 420.185 532.307C420.185 532.307 424.652 533.784 426.332 540.105C426.869 542.127 426.763 544.166 426.11 545.93L407.711 535.216L425.662 546.936C423.99 550.112 420.335 552.053 415.334 550.649C407.235 548.374 400.675 540.128 406.788 533.049Z" fill="#FFB727"/>
<path d="M422.033 559.816H447.5V597.526H422.033V559.816Z" fill="#2C2C2C"/>
<path d="M223.595 450.024L224.578 442.386C225.649 435.112 228.426 416.06 228.426 414.225C228.426 411.952 238.938 405.418 238.938 405.418L251.599 423.432L260.285 440.392C260.285 440.392 254.698 445.449 249.734 449.171C244.771 452.894 238.938 454.002 238.938 454.002L213.617 540.873L196.571 506.445L223.595 450.024Z" fill="#EFE3CD" stroke="#2C2C2C" stroke-miterlimit="10" stroke-linecap="round" stroke-linejoin="round"/>
<path d="M243.563 441.633L261.767 442.529C265.525 442.715 268.721 439.818 268.906 436.06L271.328 386.87C271.513 383.112 268.616 379.916 264.858 379.731L246.654 378.834C242.896 378.649 239.699 381.545 239.515 385.304L237.093 434.494C236.907 438.251 239.805 441.448 243.563 441.633Z" fill="#EFE3CD" stroke="#2C2C2C" stroke-miterlimit="10" stroke-linecap="round" stroke-linejoin="round"/>
<path d="M241.571 441.49L259.774 442.386C263.533 442.572 266.73 439.675 266.914 435.917L269.335 386.727C269.521 382.968 266.624 379.771 262.866 379.587L244.662 378.691C240.904 378.506 237.707 381.402 237.523 385.161L235.101 434.35C234.916 438.109 237.812 441.304 241.571 441.49Z" fill="#2C2C2C" stroke="#2C2C2C" stroke-miterlimit="10" stroke-linecap="round" stroke-linejoin="round"/>
<path d="M238.472 387.284C238.631 384.049 241.028 381.464 244.089 380.922L246.272 383.83L258.756 384.61L262.658 382.009L245.506 380.817C245.541 380.819 245.576 380.81 245.613 380.812L261.717 381.605C265.476 381.791 268.372 384.988 268.187 388.745L265.969 433.792C265.783 437.55 262.586 440.447 258.829 440.261L242.724 439.468C238.966 439.282 236.07 436.087 236.255 432.328L238.472 387.284Z" fill="#FFB727" stroke="#2C2C2C" stroke-miterlimit="10" stroke-linecap="round" stroke-linejoin="round"/>
<path d="M229.674 451.561C229.674 451.561 237.948 450.734 239.189 442.047C240.429 433.361 236.293 423.433 236.293 423.433C236.293 423.433 240.429 420.951 244.98 419.296C249.531 417.642 246.221 408.954 244.567 411.436C242.913 413.918 231.33 415.572 228.02 417.64C224.711 419.709 223.884 431.705 223.884 431.705L223.596 450.024" fill="#EFE3CD"/>
<path d="M229.674 451.561C229.674 451.561 237.948 450.734 239.189 442.047C240.429 433.361 236.293 423.433 236.293 423.433C236.293 423.433 240.429 420.951 244.98 419.296C249.531 417.642 246.221 408.954 244.567 411.436C242.913 413.918 231.33 415.572 228.02 417.64C224.711 419.709 223.884 431.705 223.884 431.705L223.596 450.024" stroke="#2C2C2C" stroke-miterlimit="10" stroke-linecap="round" stroke-linejoin="round"/>
<path d="M109.418 599.401L67.8967 490.626C64.4567 481.614 68.7574 471.496 77.6334 467.718C86.6933 463.864 97.1656 468.028 101.103 477.053L154.48 599.401H109.418Z" fill="#2C2C2C" stroke="#2C2C2C" stroke-miterlimit="10" stroke-linecap="round" stroke-linejoin="round"/>
<path d="M213.884 549.983C215.505 551.2 248.342 590.448 255.824 599.401H159.94C154.168 591.367 130.973 558.486 120.998 535.341C109.559 508.802 108.644 477.23 110.932 467.621C113.22 458.012 115.507 451.148 115.507 451.148C115.507 451.148 159.891 458.927 183.227 471.282C183.227 471.282 211.597 493.245 217.088 507.429C222.579 521.614 212.054 548.611 213.884 549.983Z" fill="#FFB727" stroke="#2C2C2C" stroke-miterlimit="10" stroke-linecap="round" stroke-linejoin="round"/>
<path d="M135.287 534.041C134.234 531.313 133.243 528.565 132.336 525.788C128.094 512.819 122.73 497.203 125.571 483.47C128.317 470.2 145.246 471.573 154.855 478.895C164.464 486.216 171.328 503.604 175.446 518.703C179.564 533.803 197.037 568.278 197.037 568.278C197.037 568.278 259.725 555.008 267.045 552.262C274.366 549.517 284.434 544.941 291.297 538.535C298.161 532.129 316.463 522.52 322.869 515.199C329.276 507.878 330.19 510.165 329.733 512.911C329.276 515.656 326.072 518.859 323.785 521.604C321.497 524.349 316.922 528.468 316.922 528.468C316.922 528.468 327.446 526.179 332.478 524.349C337.512 522.52 339.799 519.774 341.172 522.061C342.545 524.349 341.172 527.095 336.597 529.382C332.021 531.67 314.176 536.702 314.176 536.702C314.176 536.702 328.819 536.702 332.478 536.702C336.139 536.702 341.172 538.991 338.885 541.278C336.597 543.566 325.158 542.193 321.955 542.193C318.753 542.193 312.346 542.193 312.346 542.193C312.346 542.193 325.158 546.769 328.819 547.227C332.48 547.684 332.021 551.345 329.276 551.802C326.531 552.259 306.855 548.141 306.855 548.141C306.855 548.141 298.619 554.548 294.958 555.462C291.297 556.377 284.892 556.377 284.892 556.377C284.892 556.377 251.947 578.341 227.237 587.036C210.255 593.011 178.57 609.556 165.086 590.474C155.521 576.943 141.221 549.422 135.287 534.041Z" fill="#EFE3CD" stroke="#2C2C2C" stroke-miterlimit="10" stroke-linecap="round" stroke-linejoin="round"/>
<path d="M147.06 337.517C147.06 337.517 156.859 350.254 157.839 357.113C158.819 363.971 157.349 367.892 160.778 369.851C164.207 371.811 174.495 371.811 175.965 376.709C177.435 381.608 170.576 390.426 170.576 390.426C170.576 390.426 169.596 412.472 167.637 417.371C165.677 422.27 148.04 423.251 148.04 423.251L150.979 444.316L122.074 435.498L114.236 407.083C114.236 407.083 102.969 402.184 99.0482 386.506C95.1291 370.829 101.987 354.662 119.135 344.373C136.282 334.087 147.06 337.517 147.06 337.517Z" fill="#EFE3CD" stroke="#2C2C2C" stroke-miterlimit="10" stroke-linecap="round" stroke-linejoin="round"/>
<path d="M148.04 423.25L133.338 424.773L149.035 433.056L148.04 423.25Z" fill="#2C2C2C" stroke="#2C2C2C" stroke-miterlimit="10" stroke-linecap="round" stroke-linejoin="round"/>
<path d="M163.227 393.367C163.227 393.367 153.918 394.837 149.019 388.468" stroke="#2C2C2C" stroke-miterlimit="10" stroke-linecap="round" stroke-linejoin="round"/>
<path d="M150.41 368.493C151.138 370.313 152.582 371.447 153.636 371.026C154.689 370.604 154.954 368.787 154.225 366.967C153.497 365.146 152.052 364.013 150.999 364.434C149.946 364.857 149.681 366.673 150.41 368.493Z" fill="#2C2C2C"/>
<path d="M151.574 355.028C151.574 355.028 146.158 351.666 142.608 358.39" stroke="#2C2C2C" stroke-miterlimit="10" stroke-linecap="round" stroke-linejoin="round"/>
<path d="M159.982 393.695C159.982 393.695 160.168 401.353 157.367 401.166C154.565 400.98 151.202 390.893 151.202 390.893C151.202 390.893 153.257 393.321 159.982 393.695Z" fill="#2C2C2C" stroke="#2C2C2C" stroke-miterlimit="10" stroke-linecap="round" stroke-linejoin="round"/>
<path d="M116.875 431.93C116.875 431.93 153.481 445.657 164.462 449.318C175.444 452.979 186.426 475.4 186.426 475.4C186.426 475.4 131.974 457.098 121.908 454.352L114.129 453.437C114.129 453.437 111.841 434.676 116.875 431.93Z" fill="#EFE3CD" stroke="#2C2C2C" stroke-miterlimit="10" stroke-linecap="round" stroke-linejoin="round"/>
<path d="M94.8971 315.446C94.8971 315.446 96.1902 316.093 91.663 306.39C87.1344 296.688 109.128 287.631 134.357 295.394C159.585 303.156 156.351 323.855 153.117 333.559C149.882 343.261 131.123 341.322 131.769 347.79C132.416 354.258 136.298 360.728 129.182 366.549C122.066 372.371 127.889 371.078 125.948 374.312C124.007 377.546 117.539 375.605 115.598 376.9C113.657 378.193 108.481 382.721 114.304 391.777C120.126 400.833 126.594 399.54 125.301 409.89C124.008 420.24 121.421 429.943 107.836 433.825C94.2519 437.705 82.6085 438.353 80.6675 427.356C78.7265 416.36 85.8426 413.772 78.08 409.243C70.3173 404.715 48.9702 402.775 46.3827 381.428C43.7951 360.081 48.9703 340.675 63.8477 328.385C78.7252 316.093 94.8971 315.446 94.8971 315.446Z" fill="#2C2C2C" stroke="#2C2C2C" stroke-miterlimit="10" stroke-linecap="round" stroke-linejoin="round"/>
<path d="M106.832 422.211C103.511 428.095 96.8305 430.65 93.1708 429.275C87.6264 427.196 86.9332 416.8 93.864 415.414C100.795 414.027 102.873 418.187 99.4084 421.651" stroke="#EFE3CD" stroke-miterlimit="10" stroke-linecap="round" stroke-linejoin="round"/>
<path d="M133.188 331.098C129.716 336.557 121.281 340.197 106.34 344.725C83.4693 351.656 77.9249 369.675 83.4693 378.684C89.0137 387.693 105.647 396.704 108.42 410.564C108.891 412.918 108.922 415.073 108.621 417.019" stroke="#EFE3CD" stroke-miterlimit="10" stroke-linecap="round" stroke-linejoin="round"/>
<path d="M116.734 317.003C116.734 317.003 108.418 316.31 112.576 309.379C116.734 302.448 132.676 307.992 134.754 320.467C135.115 322.629 135.184 324.564 134.932 326.318" stroke="#EFE3CD" stroke-miterlimit="10" stroke-linecap="round" stroke-linejoin="round"/>
<path d="M82.3589 342.057C75.2166 345.837 66.4615 353.218 65.4471 366.902C64.0606 385.615 72.3779 391.853 86.2381 400.168C100.1 408.486 93.8622 415.415 93.8622 415.415" stroke="#EFE3CD" stroke-miterlimit="10" stroke-linecap="round" stroke-linejoin="round"/>
<path d="M91.7852 338.487C91.7852 338.487 89.4969 338.944 86.2669 340.246" stroke="#EFE3CD" stroke-miterlimit="10" stroke-linecap="round" stroke-linejoin="round"/>
<path d="M241.536 178.411C220.609 184.695 204.033 201.105 197.445 221.979" stroke="#2C2C2C" stroke-miterlimit="10"/>
<path d="M274.368 177.097C269.899 176.141 265.263 175.637 260.51 175.637C257.352 175.637 254.248 175.859 251.207 176.289" stroke="#2C2C2C" stroke-miterlimit="10"/>
<path d="M323.686 261.822C325.615 255.586 326.653 248.957 326.653 242.084C326.653 213.049 308.114 188.363 282.277 179.32" stroke="#2C2C2C" stroke-miterlimit="10"/>
<path d="M317.578 275.701C319.39 272.604 320.959 269.346 322.258 265.954" stroke="#2C2C2C" stroke-miterlimit="10"/>
<path d="M232.824 302.451C241.246 306.353 250.622 308.53 260.505 308.53C278.114 308.53 294.115 301.619 305.968 290.349" stroke="#2C2C2C" stroke-miterlimit="10"/>
<path d="M222.348 296.365C224.294 297.749 226.317 299.028 228.411 300.198" stroke="#2C2C2C" stroke-miterlimit="10"/>
<path d="M195.204 231.468C194.652 234.924 194.363 238.47 194.363 242.084C194.363 262.372 203.415 280.537 217.681 292.725" stroke="#2C2C2C" stroke-miterlimit="10"/>
<path d="M260.509 302.213C293.567 302.213 320.366 275.292 320.366 242.084C320.366 208.876 293.567 181.955 260.509 181.955C227.451 181.955 200.652 208.876 200.652 242.084C200.652 275.292 227.451 302.213 260.509 302.213Z" fill="#EFE3CD" stroke="#2C2C2C" stroke-miterlimit="10"/>
<path d="M297.312 281.974H230.7C228.807 281.974 227.205 280.576 226.937 278.696L215.095 201.223H200.29C198.191 201.223 196.488 199.512 196.488 197.404C196.488 195.295 198.191 193.585 200.29 193.585H218.392C220.285 193.585 221.887 194.982 222.155 196.863L233.997 274.336H297.313C299.412 274.336 301.115 276.046 301.115 278.155C301.112 280.263 299.411 281.974 297.312 281.974Z" fill="#EFE3CD" stroke="#2C2C2C" stroke-miterlimit="10" stroke-linecap="round" stroke-linejoin="round"/>
<path d="M201.779 202.336H195.57C193.046 202.336 191 200.281 191 197.746V197.202C191 194.667 193.046 192.612 195.57 192.612H201.779C204.303 192.612 206.349 194.667 206.349 197.202V197.746C206.349 200.281 204.303 202.336 201.779 202.336Z" fill="#2C2C2C" stroke="#2C2C2C" stroke-miterlimit="10" stroke-linecap="round" stroke-linejoin="round"/>
<path d="M225.005 265.88H232.434L231.577 260.428H224.148L225.005 265.88Z" fill="#2C2C2C" stroke="#2C2C2C" stroke-miterlimit="10" stroke-linecap="round" stroke-linejoin="round"/>
<path d="M295.972 262.137H223.349L216.941 211.95H302.379L295.972 262.137Z" fill="#FFB727" stroke="#2C2C2C" stroke-miterlimit="10" stroke-linecap="round" stroke-linejoin="round"/>
<path d="M241.474 256.675C239.465 256.675 237.836 255.039 237.836 253.021V227.722C237.836 225.704 239.465 224.067 241.474 224.067C243.482 224.067 245.111 225.704 245.111 227.722V253.021C245.111 255.039 243.482 256.675 241.474 256.675Z" fill="#EFE3CD" stroke="#2C2C2C" stroke-miterlimit="10" stroke-linecap="round" stroke-linejoin="round"/>
<path d="M254.349 256.675C252.34 256.675 250.711 255.039 250.711 253.021V227.722C250.711 225.704 252.34 224.067 254.349 224.067C256.357 224.067 257.986 225.704 257.986 227.722V253.021C257.986 255.039 256.357 256.675 254.349 256.675Z" fill="#EFE3CD" stroke="#2C2C2C" stroke-miterlimit="10" stroke-linecap="round" stroke-linejoin="round"/>
<path d="M267.216 256.675C265.207 256.675 263.578 255.039 263.578 253.021V227.722C263.578 225.704 265.207 224.067 267.216 224.067C269.225 224.067 270.853 225.704 270.853 227.722V253.021C270.855 255.039 269.226 256.675 267.216 256.675Z" fill="#EFE3CD" stroke="#2C2C2C" stroke-miterlimit="10" stroke-linecap="round" stroke-linejoin="round"/>
<path d="M280.087 256.675C278.078 256.675 276.449 255.039 276.449 253.021V227.722C276.449 225.704 278.078 224.067 280.087 224.067C282.096 224.067 283.724 225.704 283.724 227.722V253.021C283.724 255.039 282.096 256.675 280.087 256.675Z" fill="#EFE3CD" stroke="#2C2C2C" stroke-miterlimit="10" stroke-linecap="round" stroke-linejoin="round"/>
<path d="M246.392 290.62C251.338 290.62 255.347 286.593 255.347 281.625C255.347 276.657 251.338 272.63 246.392 272.63C241.447 272.63 237.438 276.657 237.438 281.625C237.438 286.593 241.447 290.62 246.392 290.62Z" fill="#2C2C2C" stroke="#2C2C2C" stroke-miterlimit="10" stroke-linecap="round" stroke-linejoin="round"/>
<path d="M246.392 285.48C248.511 285.48 250.229 283.754 250.229 281.625C250.229 279.496 248.511 277.771 246.392 277.771C244.273 277.771 242.555 279.496 242.555 281.625C242.555 283.754 244.273 285.48 246.392 285.48Z" fill="#EFE3CD" stroke="#2C2C2C" stroke-miterlimit="10" stroke-linecap="round" stroke-linejoin="round"/>
<path d="M276.693 290.62C281.639 290.62 285.648 286.593 285.648 281.625C285.648 276.657 281.639 272.63 276.693 272.63C271.747 272.63 267.738 276.657 267.738 281.625C267.738 286.593 271.747 290.62 276.693 290.62Z" fill="#2C2C2C" stroke="#2C2C2C" stroke-miterlimit="10" stroke-linecap="round" stroke-linejoin="round"/>
<path d="M280.53 281.625C280.53 279.496 278.812 277.771 276.693 277.771C274.573 277.771 272.855 279.496 272.855 281.625C272.855 283.754 274.573 285.48 276.693 285.48C278.812 285.48 280.53 283.754 280.53 281.625Z" fill="#EFE3CD" stroke="#2C2C2C" stroke-miterlimit="10" stroke-linecap="round" stroke-linejoin="round"/>
<path d="M292.797 220.132H300.682" stroke="#2C2C2C" stroke-miterlimit="10" stroke-linecap="round" stroke-linejoin="round"/>
<path d="M282.891 220.132H288.503" stroke="#2C2C2C" stroke-miterlimit="10" stroke-linecap="round" stroke-linejoin="round"/>
<path d="M218.969 220.132H278.6" stroke="#2C2C2C" stroke-miterlimit="10" stroke-linecap="round" stroke-linejoin="round"/>
<path d="M260.508 302.212V372.894" stroke="#2C2C2C" stroke-miterlimit="10"/>
<path d="M260.506 376.718C262.609 376.718 264.313 375.006 264.313 372.894C264.313 370.782 262.609 369.07 260.506 369.07C258.404 369.07 256.699 370.782 256.699 372.894C256.699 375.006 258.404 376.718 260.506 376.718Z" fill="#2C2C2C" stroke="#2C2C2C" stroke-miterlimit="10" stroke-linecap="round" stroke-linejoin="round"/>
<path d="M303.316 233.889C312.749 233.889 320.397 226.207 320.397 216.73C320.397 207.254 312.749 199.571 303.316 199.571C293.882 199.571 286.234 207.254 286.234 216.73C286.234 226.207 293.882 233.889 303.316 233.889Z" fill="#FFB727"/>
<path d="M303.315 235.948C292.765 235.948 284.184 227.328 284.184 216.73C284.184 206.133 292.765 197.512 303.315 197.512C313.864 197.512 322.446 206.133 322.446 216.73C322.446 227.328 313.863 235.948 303.315 235.948ZM303.315 201.63C295.027 201.63 288.283 208.405 288.283 216.73C288.283 225.056 295.027 231.83 303.315 231.83C311.602 231.83 318.346 225.056 318.346 216.73C318.346 208.405 311.602 201.63 303.315 201.63Z" fill="#2C2C2C"/>
<path d="M304.44 222.987C304.393 222.987 304.347 222.986 304.299 222.983C303.629 222.936 303.024 222.564 302.68 221.985L296.096 210.924C295.514 209.948 295.832 208.683 296.804 208.099C297.774 207.518 299.034 207.831 299.615 208.81L304.687 217.329L318.804 199.654C319.511 198.767 320.804 198.624 321.685 199.337C322.569 200.048 322.71 201.344 322.002 202.232L306.039 222.216C305.648 222.706 305.059 222.987 304.44 222.987Z" fill="#2C2C2C"/>
<path d="M416.582 395.493C416.582 395.493 406.07 392.489 404.354 391.631C402.638 390.774 394.27 381.763 394.27 380.475C394.27 379.188 397.273 379.832 399.633 381.119C401.993 382.407 409.287 390.344 409.287 390.344L416.582 395.493Z" fill="#EFE3CD" stroke="#2C2C2C" stroke-miterlimit="10" stroke-linecap="round" stroke-linejoin="round"/>
<path d="M423.232 398.067C423.232 398.067 409.287 391.846 407.785 390.772C406.283 389.7 400.062 383.264 399.632 381.118C399.203 378.972 403.924 379.616 405.211 380.26C406.499 380.904 414.222 388.627 415.08 389.485C415.938 390.343 424.734 397.637 424.734 397.637C424.734 397.637 427.523 399.14 423.232 398.067Z" fill="#EFE3CD" stroke="#2C2C2C" stroke-miterlimit="10" stroke-linecap="round" stroke-linejoin="round"/>
<path d="M473.65 401.363C473.65 401.363 459.879 387.081 457.328 385.55C454.778 384.02 424.175 384.02 424.175 384.02C424.175 384.02 409.382 379.939 406.833 379.43C404.283 378.919 404.793 384.02 408.364 386.06C411.934 388.1 422.646 397.791 426.725 400.341C430.806 402.892 456.819 406.462 456.819 406.462L469.57 421.764L482.832 413.603L473.65 401.363Z" fill="#EFE3CD" stroke="#2C2C2C" stroke-miterlimit="10" stroke-linecap="round" stroke-linejoin="round"/>
<path d="M424.178 384.021C424.178 384.021 417.659 383.265 418.302 385.195C418.946 387.125 421.306 391.202 425.811 391.416C430.316 391.63 444.262 392.274 444.262 392.274" fill="#EFE3CD"/>
<path d="M424.178 384.021C424.178 384.021 417.659 383.265 418.302 385.195C418.946 387.125 421.306 391.202 425.811 391.416C430.316 391.63 444.262 392.274 444.262 392.274" stroke="#2C2C2C" stroke-miterlimit="10" stroke-linecap="round" stroke-linejoin="round"/>
<path d="M482.834 413.605C482.834 413.605 494.371 412.712 496.66 414.085C498.947 415.458 527.773 447.946 527.773 447.946L517.367 497.916C517.832 499.938 470.47 450.459 463.713 435.591C460.796 429.171 467.831 421.407 467.831 421.407L482.834 413.605Z" fill="#FFB727" stroke="#2C2C2C" stroke-miterlimit="10" stroke-linecap="round" stroke-linejoin="round"/>
<path d="M479.386 400.51L456.465 416.456L466.178 428.074L488.176 413.118L479.386 400.51Z" fill="#FFB727" stroke="#2C2C2C" stroke-miterlimit="10" stroke-linecap="round" stroke-linejoin="round"/>
<path d="M367.331 319.863L487.984 325.818L485.041 385.46L364.387 379.504L367.331 319.863Z" fill="#EFE3CD" stroke="#2C2C2C" stroke-miterlimit="10" stroke-linecap="round" stroke-linejoin="round"/>
<path d="M460.793 327.865L484.309 329.026L483.716 341.038L460.201 339.877L460.793 327.865Z" fill="#FFB727" stroke="#2C2C2C" stroke-miterlimit="10" stroke-linecap="round" stroke-linejoin="round"/>
<path d="M367.333 319.864L392.012 321.082L389.068 380.723L364.389 379.505L367.333 319.864Z" fill="#FFB727" stroke="#2C2C2C" stroke-miterlimit="10" stroke-linecap="round" stroke-linejoin="round"/>
<path d="M367.34 319.858C367.34 319.858 357.713 326.522 353.919 333.352" stroke="#2C2C2C" stroke-miterlimit="10" stroke-linecap="round" stroke-linejoin="round"/>
<path d="M357.332 328.798L357.711 343.598L346.327 357.258L330.391 343.219L341.774 329.179L357.332 328.798Z" fill="#FFB727" stroke="#2C2C2C" stroke-miterlimit="10" stroke-linecap="round" stroke-linejoin="round"/>
<path d="M426.191 294.659V307.7" stroke="#2C2C2C" stroke-miterlimit="10" stroke-linecap="round" stroke-linejoin="round"/>
<path d="M426.191 409.281V422.321" stroke="#2C2C2C" stroke-miterlimit="10" stroke-linecap="round" stroke-linejoin="round"/>
<path d="M503.75 314.563L494.827 321.427" stroke="#2C2C2C" stroke-miterlimit="10" stroke-linecap="round" stroke-linejoin="round"/>
<path d="M494.141 360.549L508.555 361.236" stroke="#2C2C2C" stroke-miterlimit="10" stroke-linecap="round" stroke-linejoin="round"/>
<path d="M485.218 394.867L494.141 403.79" stroke="#2C2C2C" stroke-miterlimit="10" stroke-linecap="round" stroke-linejoin="round"/>
<path d="M359.617 385.258L348.635 395.553" stroke="#2C2C2C" stroke-miterlimit="10" stroke-linecap="round" stroke-linejoin="round"/>
<path d="M362.359 313.877L353.437 303.582" stroke="#2C2C2C" stroke-miterlimit="10" stroke-linecap="round" stroke-linejoin="round"/>
<path d="M327.023 588.381H463.668V599.401H327.023V588.381Z" fill="#EFE3CD" stroke="#2C2C2C" stroke-miterlimit="10" stroke-linecap="round"/>
<path d="M451.984 584.666H461.438V588.212H451.984V584.666Z" fill="#EFE3CD" stroke="#2C2C2C" stroke-miterlimit="10" stroke-linecap="round"/>
<path d="M439.777 584.666H449.23V588.212H439.777V584.666Z" fill="#EFE3CD" stroke="#2C2C2C" stroke-miterlimit="10" stroke-linecap="round"/>
<path d="M427.566 584.666H437.02V588.212H427.566V584.666Z" fill="#EFE3CD" stroke="#2C2C2C" stroke-miterlimit="10" stroke-linecap="round"/>
<path d="M415.351 584.666H424.805V588.212H415.351V584.666Z" fill="#EFE3CD" stroke="#2C2C2C" stroke-miterlimit="10" stroke-linecap="round"/>
<path d="M403.144 584.666H412.598V588.212H403.144V584.666Z" fill="#EFE3CD" stroke="#2C2C2C" stroke-miterlimit="10" stroke-linecap="round"/>
<path d="M390.933 584.666H400.387V588.212H390.933V584.666Z" fill="#EFE3CD" stroke="#2C2C2C" stroke-miterlimit="10" stroke-linecap="round"/>
<path d="M378.726 584.666H388.18V588.212H378.726V584.666Z" fill="#EFE3CD" stroke="#2C2C2C" stroke-miterlimit="10" stroke-linecap="round"/>
<path d="M366.511 584.666H375.965V588.212H366.511V584.666Z" fill="#EFE3CD" stroke="#2C2C2C" stroke-miterlimit="10" stroke-linecap="round"/>
<path d="M354.3 584.666H363.754V588.212H354.3V584.666Z" fill="#EFE3CD" stroke="#2C2C2C" stroke-miterlimit="10" stroke-linecap="round"/>
<path d="M342.093 584.666H351.547V588.212H342.093V584.666Z" fill="#EFE3CD" stroke="#2C2C2C" stroke-miterlimit="10" stroke-linecap="round"/>
<path d="M329.878 584.666H339.332V588.212H329.878V584.666Z" fill="#EFE3CD" stroke="#2C2C2C" stroke-miterlimit="10" stroke-linecap="round"/>
<path d="M493.425 599.401H553.074C556.754 599.401 560.212 597.776 562.56 594.941C564.909 592.106 565.862 588.408 565.178 584.791L538.549 444.14L532.053 445.372L558.681 586.022C558.997 587.697 558.555 589.41 557.468 590.723C556.38 592.036 554.777 592.789 553.072 592.789H493.424L493.425 599.401Z" fill="#2C2C2C"/>
<path d="M536.036 436.674L545.586 439.613L538.239 478.55L526.485 476.346L536.036 436.674Z" fill="#2C2C2C"/>
<path d="M514.034 558.824L558.438 334.593L555.026 336.709C547.426 341.426 542.124 349.087 540.386 357.861L506.154 530.733C504.156 540.818 507.084 551.25 514.034 558.824Z" fill="#EFE3CD" stroke="#2C2C2C" stroke-miterlimit="10" stroke-linecap="round"/>
<path d="M24.4492 599.401H6.14136" stroke="#2C2C2C" stroke-miterlimit="10" stroke-linecap="round"/>
<path d="M612.629 599.401H38.5542" stroke="#2C2C2C" stroke-miterlimit="10" stroke-linecap="round"/>
</g>
<defs>
<clipPath id="clip0_2608_14330">
<rect width="600" height="600" rx="24" transform="matrix(-1 0 0 1 600 0)" fill="white"/>
</clipPath>
</defs>
</svg>
