<svg width="180" height="180" viewBox="0 0 180 180" fill="none" xmlns="http://www.w3.org/2000/svg">
<rect width="180" height="180" fill="#EFE3CD"/>
<path fill-rule="evenodd" clip-rule="evenodd" d="M8.26031 8.2603C8.1331 8.38715 8.02912 17.2774 8.02912 28.0165V47.5415H27.96H47.8909V27.7853V8.02911H28.1912C17.3561 8.02911 8.38718 8.13309 8.26031 8.2603ZM53.4369 10.7787V13.5456L56.1232 13.6468L58.8095 13.748L58.9049 19.3803L59.0002 25.0125H56.2185H53.4369V39.2231V53.4337H47.7176H41.9983V56.2065V58.9793H39.2253H36.4523V56.2065V53.4337H33.6793H30.9063V56.2065V58.9793H33.6793H36.4523V61.7521V64.5249H27.96H19.4677V61.7521V58.9793H16.6947H13.9217V56.2065V53.4337H10.9609H8L8.10121 56.1199L8.20243 58.806L11.0621 58.9065L13.9217 59.0074V61.766V64.5249H10.9616H8.00104L8.10191 67.3844L8.20243 70.2438L11.0621 70.3443L13.9217 70.4452V67.4849V64.5249H16.6809H19.4396L19.5405 67.3844L19.641 70.2438L22.3274 70.345L25.0137 70.4462V73.2045V75.9627H16.5068H8L8.10121 78.6489L8.20243 81.335H19.4677H30.733L30.8339 78.6631L30.9351 75.9915L33.6069 75.8903L36.279 75.7894L36.3802 73.1033L36.4814 70.4171H42.1862H47.8909V73.1899V75.9627H44.9446H41.9983V78.7355V81.5083H39.2114H36.4242L36.5251 84.3678L36.6256 87.2272L39.3119 87.3284L41.9983 87.4296V90.0146V92.5995H44.9446H47.8909V95.3584V98.117L45.0312 98.2179L42.1716 98.3184L42.0711 101.178L41.9702 104.037H36.4242H30.8782L30.9791 101.178L31.0796 98.3184L33.7802 98.2169L36.4811 98.1153L36.3798 95.4441L36.279 92.7728L33.5926 92.6716L30.9063 92.5704V89.9855V87.4005H27.96H25.0137V92.7728V98.1451H22.2407H19.4677V92.7728V87.4005H13.7484H8.02912V89.9861V92.5714L10.8888 92.6723L13.7484 92.7728L13.8496 95.459L13.9508 98.1451H16.7093H19.4677V101.091V104.037H25.187H30.9063V106.796V109.555L28.0467 109.656L25.187 109.756L25.0861 112.428L24.9849 115.1L22.3131 115.201L19.641 115.302L19.5405 118.153L19.44 121.004L13.8212 121.099L8.20243 121.194L8.10121 123.88L8 126.566H13.7339H19.4677V123.793V121.021H22.2407H25.0137V123.793V126.566H27.96H30.9063V123.793V121.021H33.6793H36.4523V123.793V126.566H44.9446H53.4369V132.285V138.004H56.2099H58.9829V132.285V126.566H61.9378H64.8928L64.7975 120.934L64.7022 115.302L61.8425 115.201L58.9829 115.1V112.342V109.583H61.9292H64.8755V106.81V104.037H66.5628H68.2502L68.8332 101.96C69.4149 99.8878 69.4142 99.8788 68.4804 97.368C67.1885 93.8941 66.9219 87.3731 67.9278 83.8479L68.5951 81.5083H66.7493H64.9035L64.8027 84.3678L64.7022 87.2272L61.8425 87.3277L58.9829 87.4286V95.7328V104.037H56.2185H53.4542L53.3589 98.4051L53.2636 92.7728L50.5772 92.6716L47.8909 92.5704V89.9855V87.4005H44.9446H41.9983V84.4683V81.5364L44.8579 81.4355L47.7176 81.335L47.8184 78.6631L47.9197 75.9915L50.5914 75.8903L53.2636 75.7894L53.3644 73.1175L53.4656 70.4459L56.1374 70.3447L58.8095 70.2438L58.9101 67.3982L59.0106 64.5526L61.8564 64.4521L64.7022 64.3516L64.7975 58.8927L64.8931 53.4337H67.6571H70.4215V58.9939V64.554L73.1078 64.4528L75.7941 64.3516L75.8894 58.8927L75.9851 53.4337H73.2031H70.4215V44.942V36.4503H81.5134H92.6054V39.2231V41.9959H90.0057H87.406V44.7687V47.5415H90.0057H92.6054V44.7687V41.9959H95.5517H98.498V50.4876V58.9793H95.5517H92.6054V56.2065V53.4337H90.0057H87.406V56.2065V58.9793H84.633H81.8601V63.5257V68.0717L82.64 67.8498C83.0691 67.7275 84.1998 67.4443 85.153 67.2204C86.1062 66.9962 87.0008 66.6492 87.1409 66.4489C87.2809 66.2485 87.3977 64.4857 87.4008 62.532L87.406 58.9793H90.0057H92.6054L92.6106 62.532C92.6137 64.4857 92.7305 66.2447 92.8706 66.4409C93.0106 66.6367 93.9832 66.9733 95.0318 67.1885C101.548 68.5264 107.997 73.3303 110.717 78.8728L112.018 81.5225L119.209 81.4286L126.401 81.335L126.494 72.93L126.587 64.5249H123.808H121.029V67.471V70.4171H118.256H115.483V64.6982V58.9793H123.969H132.455L132.548 67.3844L132.64 75.7894H135.24H137.84L137.935 70.1572L138.03 64.5249H152.247H166.464L166.364 67.3844L166.263 70.2438L163.412 70.3443L160.561 70.4448L160.466 75.8899L160.37 81.335L146.405 81.4255L132.439 81.5163L132.54 84.3716L132.64 87.2272L135.327 87.3284L138.013 87.4296V90V92.5704L140.699 92.6716L143.386 92.7728L143.487 95.459L143.588 98.1451H146.505H149.423L149.524 95.459L149.625 92.7728L155.084 92.6775L160.544 92.5818V101.083V109.583H157.785H155.027L154.926 106.897L154.824 104.211L149.192 104.115L143.559 104.02V106.801V109.583H149.278H154.998V112.356V115.129H157.771H160.544V118.061V120.993L163.403 121.093L166.263 121.194L166.355 132.372L166.446 143.55H163.495H160.544V149.269V154.987H154.998H149.452V157.76V160.533H146.505H143.559V163.306V166.079H140.786H138.013V163.306V160.533H135.24H132.467V154.814V149.095H143.732H154.998V146.322V143.55H152.225H149.452V140.777V138.004H154.998H160.544V135.058V132.112H154.998H149.452V129.339V126.566H152.225H154.998V123.793V121.021H149.278H143.559V118.075V115.129H138.013H132.467V118.075V121.021H126.748H121.029V118.075V115.129H123.802H126.575V112.341V109.554L123.888 109.655L121.202 109.756L121.101 112.428L121 115.1L118.328 115.201L115.656 115.302L115.555 118.147L115.455 120.993L112.609 121.093L109.763 121.194L109.662 123.88L109.561 126.566H106.802H104.044V120.847V115.129H106.817H109.59V112.356V109.583H112.536H115.483V106.81V104.037H123.975H132.467V106.81V109.583H135.255H138.042L137.941 106.897L137.84 104.211L135.167 104.11L132.495 104.009L132.394 101.164L132.294 98.3184L123.888 98.2255L115.483 98.1326V95.5598C115.483 92.8445 115.248 92.4092 113.96 92.7326C113.339 92.8882 113.082 93.3218 112.759 94.7581C112.533 95.7633 112.255 96.9362 112.141 97.3653C111.948 98.0994 112.04 98.1451 113.709 98.1451H115.483V101.077V104.009L112.623 104.11L109.763 104.211L109.662 106.883L109.561 109.554L106.889 109.655L104.217 109.756L104.116 112.451L104.015 115.145L98.3965 115.051L92.7787 114.955L92.6702 113.829L92.5614 112.702L90.2439 112.696C88.2182 112.691 85.1464 112.192 82.64 111.462C81.8968 111.246 81.8601 111.327 81.8601 113.182V115.129H76.1408H70.4215V118.083V121.038L76.0541 120.943L81.6867 120.847L81.7876 117.974L81.8885 115.1L84.5606 115.201L87.2327 115.302V120.847V126.393L84.5464 126.494L81.8601 126.595V129.354V132.112H78.9283H75.9966L75.8953 129.426L75.7941 126.74L73.1078 126.638L70.4215 126.537V129.325V132.112H67.6485H64.8755V135.064V138.017L73.2811 137.924L81.6867 137.831L81.7873 134.971L81.8881 132.112H87.2327H92.5773L92.6782 134.971L92.7787 137.831L95.6384 137.931L98.498 138.032V143.578V149.123L95.6384 149.023L92.7787 148.922L92.6775 146.236L92.5763 143.55H87.2182H81.8601V146.308V149.066L84.5464 149.167L87.2327 149.269V152.041V154.814L81.6001 154.91L75.9674 155.005V152.05V149.095H67.4752H58.9829V146.322V143.55H56.2099H53.4369V146.322V149.095H56.2099H58.9829V152.041V154.987H61.9292H64.8755V157.76V160.533H61.9292H58.9829V163.306V166.079H56.2099H53.4369V169.039V172L56.1232 171.899L58.8095 171.798L58.9101 168.938L59.0109 166.079H61.943H64.8755V169.039V172L67.5618 171.899L70.2481 171.798L70.3487 168.938L70.4495 166.079H67.6623H64.8755V163.32V160.562L67.5618 160.461L70.2481 160.36L70.3494 157.674L70.4506 154.987H73.209H75.9674V157.76V160.533H78.9137H81.8601V166.267V172L84.5464 171.899L87.2327 171.798L87.3333 168.952L87.4338 166.107L90.0647 166.006L92.6955 165.905L92.7371 163.306L92.7787 160.706L95.6297 160.606L98.4807 160.505L98.576 166.151L98.6713 171.798L107.077 171.89L115.483 171.983V169.031V166.079H118.242H121L121.101 168.938L121.202 171.798L126.835 171.893L132.467 171.988V169.033V166.079H135.24H138.013V169.025V171.971H143.732H149.452V169.025V166.079H152.225H154.998V163.306V160.533H157.771H160.544V166.266V171.999L163.403 171.898L166.263 171.798L166.364 168.952L166.464 166.107L169.137 166.006L171.809 165.905L171.904 160.446L172 154.987H169.218H166.436V149.269V143.55H169.212H171.988L171.898 123.88L171.809 104.211L169.123 104.109L166.436 104.008V101.077V98.1451H169.209H171.982V89.8267V81.5083H169.209H166.436V78.7501V75.9918L169.123 75.8906L171.809 75.7894L171.901 64.6116L171.992 53.4337H169.229H166.465L166.364 56.1199L166.263 58.806L160.63 58.9013L154.998 58.9966V56.2152V53.4337H140.786H126.575V47.7148V41.9959H123.802H121.029V39.2231V36.4503H123.802H126.575V33.5042V30.5581H123.802H121.029V33.5105V36.4628L112.623 36.3699L104.217 36.277L104.117 33.4176L104.016 30.5581H106.803H109.59V27.7853V25.0125H112.536H115.483V22.2397V19.4669H121.029H126.575V16.5121V13.557L121.115 13.6527L115.656 13.748L115.555 16.6075L115.455 19.4669H112.522H109.59V13.7335V8L106.904 8.10121L104.217 8.20241L104.116 10.8886L104.015 13.5747H101.256H98.498V10.788V8.00104L95.6384 8.1019L92.7787 8.20241V10.8019V13.4014L95.6384 13.5019L98.498 13.6028V16.5347V19.4669H104.044H109.59V22.2252V24.9834L106.904 25.0846L104.217 25.1858L104.116 27.8862L104.014 30.5869L101.343 30.4857L98.6713 30.3848L98.5701 27.6987L98.4689 25.0125H95.5372H92.6054V22.2397V19.4669H90.0057H87.406V22.2397V25.0125H76.147H64.888L64.7951 16.6075L64.7022 8.20241L59.0695 8.1071L53.4369 8.01178V10.7787ZM70.4215 13.7335V19.4669H76.1408H81.8601V16.5354V13.6038L84.5464 13.5026L87.2327 13.4014V10.8019V8.20241L84.5464 8.10121L81.8601 8V10.7874V13.5747H78.9283H75.9966L75.8953 10.8886L75.7941 8.20241L73.1078 8.10121L70.4215 8V13.7335ZM132.467 27.7825V47.5415H152.228H171.988L171.898 27.872L171.809 8.20241L152.138 8.11299L132.467 8.02322V27.7825ZM41.9983 27.7853V41.9959H27.96H13.9217V28.0165C13.9217 20.3275 14.0257 13.9328 14.1529 13.8059C14.2798 13.6787 20.597 13.5747 28.1912 13.5747H41.9983V27.7853ZM166.353 27.872L166.444 41.9959H152.229H138.013V27.7815V13.5671L152.138 13.6576L166.263 13.748L166.353 27.872ZM19.4677 27.9586V36.4503H27.96H36.4523V27.9586V19.4669H27.96H19.4677V27.9586ZM143.559 27.9586V36.4503H152.051H160.544V27.9586V19.4669H152.051H143.559V27.9586ZM92.6054 27.7853V30.5581H90.0057H87.406V27.7853V25.0125H90.0057H92.6054V27.7853ZM64.8755 41.9959V47.5415H61.9292H58.9829V41.9959V36.4503H61.9292H64.8755V41.9959ZM75.9674 44.7687V47.5696L78.8271 47.4687L81.6867 47.3682V44.7687V42.1692L78.8271 42.0687L75.9674 41.9678V44.7687ZM109.59 44.7833V47.5706L106.904 47.4694L104.217 47.3682L104.113 45.1517C104.055 43.9327 104.089 42.7241 104.189 42.4656C104.318 42.128 105.103 41.9959 106.98 41.9959H109.59V44.7833ZM121.029 47.7148V53.4337H118.256H115.483V56.2065V58.9793H112.536H109.59V64.6982V70.4171H112.536H115.483V73.1899V75.9627H112.536H109.59V73.2045V70.4462L106.904 70.345L104.217 70.2438L104.124 61.8388L104.032 53.4337H109.757H115.483V47.7148V41.9959H118.256H121.029V47.7148ZM58.9829 61.7521V64.5249H56.2099H53.4369V67.471V70.4171H50.6639H47.8909V67.471V64.5249H44.9446H41.9983V61.7521V58.9793H50.4906H58.9829V61.7521ZM86.3738 70.0965C85.3298 70.2823 83.1699 71.0659 81.5744 71.8382C71.9951 76.4746 67.8724 87.4071 71.9341 97.4027L72.74 99.3859L71.3851 104.358C70.5327 107.485 70.1514 109.452 70.358 109.658C70.5643 109.864 72.4631 109.515 75.4749 108.715C80.5262 107.375 80.8337 107.368 84.0885 108.517C88.6702 110.133 94.2917 109.735 99.0505 107.457C102.242 105.929 106.552 101.674 108.132 98.4917C111.656 91.3944 110.668 83.2444 105.512 76.8822C103.476 74.3687 99.557 71.7047 96.5129 70.7648C93.8141 69.9312 89.065 69.6182 86.3738 70.0965ZM143.631 73.1033L143.732 75.7894H149.278H154.824L154.926 73.1033L155.027 70.4171H149.278H143.53L143.631 73.1033ZM93.1482 73.9122C106.029 76.2646 110.93 92.1805 101.588 101.321C96.7067 106.097 89.5385 107.319 83.3845 104.424L81.3644 103.474L78.5033 104.17C76.9297 104.554 75.573 104.797 75.4888 104.712C75.4045 104.627 75.6579 103.351 76.0517 101.876L76.7681 99.1953L75.6898 96.8506C74.235 93.6864 73.6828 90.2222 74.182 87.3884C75.3127 80.9707 80.3172 75.6036 86.5859 74.0862C89.1229 73.4724 90.535 73.435 93.1482 73.9122ZM70.4215 76.6982C70.4215 77.3131 70.5071 77.363 70.9414 77.0025C71.2274 76.7651 71.4613 76.4341 71.4613 76.267C71.4613 76.0996 71.2274 75.9627 70.9414 75.9627C70.6426 75.9627 70.4215 76.2753 70.4215 76.6982ZM81.7328 81.8636C79.3124 84.7397 80.3488 88.4715 84.9391 93.4095C89.0664 97.8491 95.2571 100.016 98.1867 98.0463C99.3119 97.29 100.321 95.3169 100.005 94.4926C99.9271 94.2899 98.8172 93.6085 97.5385 92.978L95.2137 91.8318L94.133 93.082C93.5382 93.77 92.7479 94.3325 92.3766 94.3325C91.4054 94.3325 88.8282 92.6016 87.3482 90.9552C85.311 88.6895 85.2306 88.3932 86.2629 86.9426L87.1631 85.6776L86.1357 83.3332C85.1679 81.1246 85.0369 80.9822 83.8767 80.8837C82.8562 80.7967 82.4895 80.9641 81.7328 81.8636ZM121.029 90V92.5995H123.802H126.575V90V87.4005H123.802H121.029V90ZM166.436 90V92.5995H163.49H160.544V90V87.4005H163.49H166.436V90ZM8.26031 104.268C8.1331 104.395 8.02912 105.643 8.02912 107.041V109.583H10.9754H13.9217V106.81V104.037H11.2066C9.71302 104.037 8.38718 104.141 8.26031 104.268ZM53.4369 112.529V121.021H44.9446H36.4523V115.302V109.583H39.2253H41.9983V106.81V104.037H47.7176H53.4369V112.529ZM41.9983 112.342V115.129H44.9591H47.92L47.8188 112.442L47.7176 109.756L44.8579 109.656L41.9983 109.555V112.342ZM166.364 112.442L166.465 115.129H163.505H160.544V112.342V109.555L163.403 109.656L166.263 109.756L166.364 112.442ZM30.9063 118.075V121.021H27.96H25.0137V118.075V115.129H27.96H30.9063V118.075ZM98.498 123.793V126.566H101.271H104.044V129.354V132.141L101.358 132.04L98.6713 131.939L98.5705 129.266L98.4692 126.594L95.6242 126.494L92.7787 126.393L92.6744 124.177C92.6168 122.958 92.6508 121.749 92.7499 121.49C92.881 121.149 93.6914 121.021 95.7143 121.021H98.498V123.793ZM121.029 129.339V132.112H118.256H115.483V129.57C115.483 128.172 115.587 126.924 115.714 126.797C115.841 126.67 117.088 126.566 118.487 126.566H121.029V129.339ZM143.559 135.058V143.55H135.067H126.575V135.058V126.566H135.067H143.559V135.058ZM8.113 151.955L8.20243 171.798L28.0467 171.887L47.8909 171.976V152.044V132.112H27.9572H8.02357L8.113 151.955ZM132.467 135.058V138.004H135.24H138.013V135.058V132.112H135.24H132.467V135.058ZM41.9983 152.045V166.087L28.0467 165.996L14.095 165.905L14.0046 151.955L13.9138 138.004H27.9562H41.9983V152.045ZM109.59 140.777V143.55H112.536H115.483V146.322V149.095H121.029H126.575V154.814V160.533H129.521H132.467V163.306V166.079H129.521H126.575V163.306V160.533H121.029H115.483V163.32V166.107L112.623 166.006L109.763 165.905L109.662 163.233L109.561 160.562L106.889 160.461L104.217 160.36L104.116 157.688L104.015 155.016L101.343 154.915L98.6713 154.814L98.5708 151.955L98.4699 149.095H101.257H104.044V143.781C104.044 140.858 104.148 138.362 104.275 138.235C104.402 138.108 105.65 138.004 107.048 138.004H109.59V140.777ZM19.4677 152.041V160.533H27.96H36.4523V152.041V143.55H27.96H19.4677V152.041Z" fill="#2C2C2C"/>
</svg>
