<svg width="1558" height="1558" viewBox="0 0 1558 1558" fill="none" xmlns="http://www.w3.org/2000/svg">
<path fill-rule="evenodd" clip-rule="evenodd" d="M1558 778.483C1558 1208.56 1208.56 1558 778.483 1558C349.439 1558 0 1208.56 0 778.483C0 349.438 349.439 0 778.483 0C1208.56 0 1558 349.438 1558 778.483ZM1471.16 492.109C1417.4 355.641 1319.18 235.716 1197.19 153.008C1074.16 70.3011 927.356 25.846 778.483 25.846C630.644 25.846 483.838 71.3353 361.845 154.043C238.818 236.75 140.603 354.608 86.843 492.109C31.0155 628.576 17.5754 781.585 48.5907 924.255C78.5721 1066.93 151.975 1200.29 257.427 1300.57C207.802 1247.85 165.415 1188.92 132.332 1124.82C115.79 1092.77 101.317 1059.69 89.9444 1025.57C78.5721 991.455 69.2675 956.304 63.0644 921.153C36.1845 780.55 52.7259 632.711 108.553 501.413C114.067 489.696 119.581 477.979 125.095 466.262C95.1135 537.598 79.606 616.17 79.606 697.843C79.606 788.821 100.283 876.698 136.467 954.236C149.907 950.101 171.618 974.913 186.092 1012.13C189.193 1022.47 192.295 1033.84 194.362 1045.21C196.43 1055.55 197.464 1066.92 196.43 1078.3C196.43 1083.47 195.396 1088.64 193.329 1092.77C191.261 1097.94 188.159 1100.01 184.024 1100.01C175.753 1097.94 167.482 1088.64 161.279 1080.36C148.873 1061.76 139.569 1041.08 133.366 1020.4C130.264 1009.03 128.197 998.691 127.163 987.319C126.474 981.805 126.474 976.292 127.163 970.778C127.163 965.609 129.231 959.406 133.366 955.27C128.197 959.406 126.129 964.575 125.095 970.778C123.716 976.292 123.027 981.805 123.027 987.319C123.027 998.691 125.095 1010.06 127.163 1021.44C132.332 1044.18 141.636 1065.89 155.076 1084.5C158.178 1089.67 162.313 1093.8 166.449 1097.94C170.584 1102.08 175.753 1106.21 182.99 1107.24C187.126 1108.28 191.261 1106.21 194.362 1104.14C196.43 1102.08 198.498 1098.97 199.532 1095.87C202.633 1089.67 202.633 1084.5 202.633 1078.3C202.633 1072.78 202.288 1067.61 201.599 1062.79C216.073 1082.09 231.581 1100.01 248.122 1116.55C253.291 1080.36 291.543 1072.09 341.168 1100.01C359.777 1111.73 376.319 1125.51 390.792 1141.36C406.3 1157.9 419.74 1174.44 430.078 1194.09C440.417 1212.7 448.687 1232.34 450.755 1254.05C451.444 1254.74 451.789 1255.08 451.789 1255.08C451.1 1260.6 449.721 1265.42 447.654 1269.56C443.518 1276.79 436.282 1281.96 428.011 1284.03C410.436 1287.13 390.792 1279.9 374.251 1270.59C357.709 1261.29 342.202 1248.88 327.728 1235.44C314.288 1222 300.848 1207.53 290.51 1190.99C280.171 1174.44 271.901 1155.84 267.765 1136.19C269.833 1155.84 277.07 1175.48 286.374 1193.05C296.713 1210.63 309.119 1226.14 322.559 1241.64C335.999 1256.12 352.54 1268.52 370.116 1278.86C387.691 1288.17 407.334 1297.47 430.078 1293.34C435.592 1292.65 440.417 1290.58 444.552 1287.13C440.417 1293.34 433.18 1298.51 424.909 1299.54C405.266 1303.67 383.556 1295.4 364.946 1285.07C346.337 1274.73 329.796 1261.29 313.254 1246.81C297.747 1231.31 284.307 1214.76 272.935 1196.16C260.528 1177.55 251.224 1157.9 248.122 1136.19C249.156 1157.9 257.427 1178.58 268.799 1198.22C279.137 1217.87 292.577 1235.44 308.085 1251.98C323.593 1268.52 341.168 1281.96 360.811 1293.34C380.454 1303.67 402.165 1312.98 426.977 1309.88C438.349 1306.78 450.755 1298.51 455.924 1288.17C460.06 1278.86 461.094 1269.56 461.094 1260.25C499.69 1276.11 540.01 1287.82 582.053 1295.4C582.053 1271.63 607.899 1257.15 642.016 1261.29C652.354 1264.39 662.693 1267.49 670.964 1272.66C680.268 1277.83 688.539 1285.07 694.742 1293.34C700.945 1301.61 704.047 1310.91 701.979 1320.22C700.945 1329.52 693.708 1336.76 684.404 1340.89C666.828 1349.16 644.084 1347.1 624.441 1339.86C615.136 1335.72 605.832 1330.55 598.595 1324.35C590.324 1317.11 584.121 1307.81 582.053 1297.47C582.053 1308.84 587.222 1319.18 594.459 1327.45C602.73 1335.72 612.035 1341.93 622.373 1346.06C642.016 1355.37 666.828 1358.47 688.539 1349.16C698.877 1343.99 709.216 1334.69 711.283 1322.28C712.317 1315.05 711.283 1308.84 709.216 1303.67C723.689 1302.99 737.819 1301.95 751.603 1300.57C752.637 1304.71 755.739 1307.81 758.84 1309.88C763.665 1311.95 768.145 1313.32 772.28 1314.01C781.585 1315.05 791.923 1314.01 800.194 1308.84C804.329 1306.78 809.499 1302.64 810.532 1296.44C810.532 1295.06 810.188 1293.34 809.498 1291.27C869.461 1278.86 926.322 1258.19 978.015 1229.24C976.981 1236.48 979.048 1243.71 983.184 1249.92C990.421 1259.22 1001.79 1264.39 1013.17 1265.42C1035.91 1267.49 1058.65 1260.25 1077.26 1247.85C1086.57 1240.61 1094.84 1233.37 1101.04 1224.07C1107.24 1214.76 1112.41 1203.39 1111.38 1190.99C1110.35 1179.61 1102.08 1168.24 1091.74 1164.11C1086.91 1162.04 1082.09 1161 1077.26 1161C1086.91 1152.73 1096.56 1144.12 1106.21 1135.16C1108.28 1149.63 1114.48 1163.07 1124.82 1174.44C1138.26 1190.99 1162.04 1198.22 1182.72 1196.16C1204.43 1194.09 1224.07 1183.75 1240.61 1170.31C1257.15 1156.87 1270.59 1141.36 1281.96 1122.75C1291.27 1104.14 1299.54 1084.5 1302.64 1063.82C1305.74 1043.15 1305.74 1020.4 1297.47 1000.76C1294.37 990.421 1288.17 981.116 1280.93 973.879C1273.69 965.609 1264.39 959.405 1254.05 956.304C1248.54 954.236 1242.68 953.202 1236.48 953.202C1272.66 875.664 1292.3 788.821 1292.3 697.843C1292.3 571.715 1254.05 454.891 1188.92 358.743C1198.22 359.777 1208.56 358.743 1217.87 354.608C1225.1 351.506 1232.34 345.303 1234.41 338.066C1237.51 329.796 1237.51 321.525 1235.44 314.288C1226.14 284.307 1202.36 262.596 1177.55 246.054C1188.92 255.359 1200.29 265.697 1209.6 277.07C1218.9 288.442 1227.17 300.848 1230.27 315.322C1232.34 322.559 1232.34 329.796 1229.24 335.999C1227.17 342.202 1222 347.371 1215.8 349.438C1208.56 352.54 1200.29 353.574 1193.05 352.54C1195.81 351.851 1198.57 351.162 1201.32 350.473C1208.56 347.371 1214.76 341.168 1217.87 333.931C1219.93 326.694 1219.93 318.423 1217.87 311.186C1208.56 283.272 1186.85 263.63 1164.11 248.122C1174.44 257.427 1184.78 266.731 1193.05 277.07C1201.32 288.442 1208.56 299.814 1211.66 313.254C1212.7 319.457 1212.7 325.66 1210.63 330.829C1208.56 337.032 1204.43 341.168 1198.22 343.236C1186.85 347.371 1173.41 346.337 1159.97 343.236C1151.7 340.479 1143.43 337.377 1135.16 333.931C1121.72 325.66 1109.31 316.355 1096.91 306.017C1086.57 295.679 1077.26 284.306 1070.03 271.9C1062.79 259.494 1058.65 242.953 1066.93 229.513C1067.61 228.824 1068.3 228.134 1068.99 227.445C1059.34 219.175 1049.35 211.249 1039.01 203.667C1043.15 200.565 1046.25 194.362 1046.25 189.193C1047.28 181.956 1045.21 175.753 1042.11 170.584C1028.67 150.941 1005.93 139.569 984.218 132.332C994.556 137.501 1004.89 142.67 1014.2 148.873C1023.5 156.11 1031.77 163.347 1036.94 173.685C1040.05 177.821 1041.08 182.99 1041.08 188.159C1041.08 193.329 1037.98 197.464 1033.84 201.599C1034.53 200.221 1035.22 198.842 1035.91 197.464C1039.01 190.227 1035.91 181.956 1032.81 175.753C1028.67 168.516 1023.5 163.347 1018.33 159.212C1006.96 150.941 993.522 144.738 980.082 140.602C992.489 146.805 1004.89 154.042 1015.23 163.347C1019.37 167.482 1024.54 172.652 1027.64 177.821C1030.74 184.024 1031.77 190.227 1029.71 195.396C1027.64 200.566 1022.47 204.701 1016.27 206.768C1013.51 207.458 1010.75 208.147 1008 208.836C1006.62 208.836 1004.89 209.181 1002.83 209.87C980.082 209.87 958.372 203.667 937.695 193.329C927.356 188.159 918.052 181.956 910.815 173.685C902.544 166.448 895.307 155.077 899.443 143.704C900.821 139.569 903.578 136.123 907.713 133.366C839.48 105.452 764.009 90.978 685.437 90.978C586.189 90.978 493.143 114.757 410.435 157.144C521.056 92.0121 650.287 56.8613 778.483 56.8613C921.153 56.8613 1062.79 99.249 1180.65 177.821C1299.54 256.393 1393.62 370.115 1449.45 501.413C1505.27 632.711 1521.82 780.55 1494.94 921.153C1488.73 956.304 1479.43 991.455 1468.06 1025.57C1456.68 1059.69 1442.21 1092.77 1425.67 1124.82C1392.59 1188.92 1350.2 1247.85 1300.57 1300.57C1406.03 1200.29 1479.43 1066.93 1509.41 924.255C1540.42 781.585 1526.98 628.576 1471.16 492.109ZM498.312 1461.85C512.786 1470.12 528.293 1476.33 544.835 1479.43C548.97 1480.81 553.45 1481.15 558.275 1480.46C560.342 1480.46 562.755 1480.12 565.512 1479.43C567.579 1478.39 570.681 1476.33 572.749 1473.22C573.783 1469.09 572.749 1465.99 571.715 1463.92C571.026 1461.16 569.992 1459.1 568.613 1457.72C565.167 1454.27 561.721 1451.17 558.275 1448.41C544.835 1439.11 529.327 1431.87 513.82 1427.74C521.056 1431.87 528.293 1436.01 534.496 1440.14C541.733 1444.28 547.936 1449.45 554.139 1454.62C556.896 1457.37 559.309 1460.13 561.376 1462.89C563.444 1465.99 565.512 1469.09 564.478 1470.12C564.478 1470.12 561.376 1471.16 557.241 1471.16C553.795 1471.16 550.349 1470.81 546.903 1470.12C531.395 1468.06 515.887 1461.85 501.413 1455.65C494.521 1452.2 487.629 1448.41 480.737 1444.28C474.533 1439.11 467.297 1434.97 464.195 1426.7C464.195 1430.84 466.263 1434.97 469.365 1438.07C472.121 1441.52 474.878 1444.62 477.635 1447.38C483.838 1452.89 490.73 1457.72 498.312 1461.85ZM850.852 1513.54C862.569 1514.92 874.286 1514.92 886.003 1513.54C909.781 1511.48 933.56 1507.34 955.27 1497C960.439 1494.94 965.609 1491.83 970.778 1487.7C973.535 1486.32 975.947 1484.25 978.015 1481.5C980.082 1478.39 982.15 1474.26 981.116 1469.09C980.082 1464.95 976.981 1461.85 973.879 1459.79C971.122 1458.41 968.021 1457.03 964.575 1455.65C959.061 1454.27 953.202 1453.58 946.999 1453.58C923.221 1452.55 899.443 1455.65 877.732 1462.89C889.104 1460.82 900.477 1459.79 911.849 1459.79C923.221 1458.75 934.593 1458.75 945.965 1460.82C952.168 1461.51 957.682 1462.54 962.507 1463.92C967.676 1465.99 972.845 1469.09 972.845 1471.16C972.845 1473.22 969.744 1477.36 965.609 1480.46C961.473 1483.91 956.648 1486.66 951.135 1488.73C930.458 1498.04 907.713 1503.21 884.969 1506.31C873.941 1508.38 862.569 1509.41 850.852 1509.41C845.338 1509.41 839.824 1509.06 834.311 1508.38C828.108 1507.34 822.938 1505.27 817.769 1502.17C821.904 1506.31 828.107 1508.38 833.277 1510.44C838.791 1511.82 844.649 1512.86 850.852 1513.54ZM1138.26 1404.99C1135.5 1407.75 1132.75 1410.51 1129.99 1413.26C1117.58 1422.57 1103.11 1429.8 1088.64 1436.01C1081.05 1439.45 1073.47 1442.21 1065.89 1444.28C1057.62 1446.35 1049.35 1448.41 1042.11 1445.31C1045.21 1447.38 1049.35 1448.41 1053.49 1448.41C1058.31 1449.1 1062.79 1449.1 1066.93 1448.41C1075.2 1447.03 1083.12 1445.31 1090.7 1443.24C1106.21 1438.07 1121.72 1430.84 1135.16 1420.5C1138.6 1417.74 1141.71 1414.64 1144.46 1411.19C1146.53 1409.13 1147.91 1407.06 1148.6 1404.99C1149.63 1401.89 1150.67 1398.79 1148.6 1394.65C1147.56 1391.55 1144.46 1390.52 1141.36 1389.48C1139.29 1388.79 1136.88 1388.45 1134.12 1388.45C1129.99 1388.45 1125.85 1388.79 1121.72 1389.48C1105.18 1392.59 1089.67 1399.82 1076.23 1409.13C1083.47 1406.02 1091.74 1402.92 1098.97 1401.89C1107.24 1398.79 1114.48 1397.75 1122.75 1396.72C1126.89 1396.03 1130.68 1396.03 1134.12 1396.72C1137.23 1396.72 1141.36 1397.75 1140.33 1398.79C1141.36 1398.79 1140.33 1402.92 1138.26 1404.99ZM1426.7 619.272C1425.67 622.373 1425.67 625.474 1424.63 628.576C1422.57 631.677 1420.5 634.779 1416.36 634.779C1420.5 635.813 1423.6 632.712 1425.67 629.61C1427.74 626.508 1428.77 622.373 1428.77 619.272C1430.84 612.035 1429.8 604.797 1429.8 597.561C1427.74 583.087 1423.6 568.613 1417.4 555.173C1414.3 548.97 1410.16 542.767 1403.96 537.598C1400.86 535.53 1397.75 533.462 1392.59 533.462C1387.42 534.496 1385.35 538.632 1383.28 541.733C1378.11 556.207 1381.21 570.681 1385.35 585.154C1384.31 577.917 1383.28 570.681 1383.28 563.444C1383.28 556.207 1384.31 548.97 1387.42 543.801C1388.45 540.699 1390.52 538.632 1393.62 537.598C1395.69 537.598 1398.79 539.666 1400.86 541.733C1406.03 545.869 1410.16 552.072 1413.26 558.275C1419.47 570.681 1423.6 584.121 1425.67 597.561C1426.7 604.797 1427.74 612.035 1426.7 619.272ZM1482.53 795.025C1482.53 806.742 1481.84 818.114 1480.46 829.141C1479.43 834.311 1478.39 840.513 1477.36 845.683C1476.67 848.44 1475.64 850.852 1474.26 852.92C1472.19 856.021 1470.12 858.089 1467.02 857.055C1470.12 858.089 1473.22 856.021 1475.29 853.953C1476.67 851.886 1478.05 849.474 1479.43 846.717C1481.5 841.203 1483.22 835.689 1484.6 830.175C1487.35 818.458 1489.42 806.742 1490.8 795.025C1492.87 772.28 1492.52 749.191 1489.77 725.757C1487.7 714.385 1486.67 703.013 1482.53 691.641C1481.84 688.884 1480.46 686.126 1478.39 683.369C1477.36 680.268 1475.29 677.166 1470.12 675.099C1467.02 675.099 1463.92 676.133 1462.89 677.167C1460.82 679.234 1459.78 680.268 1458.75 681.302C1457.37 684.748 1456.34 687.849 1455.65 690.606C1449.45 713.351 1448.41 736.095 1450.48 759.874C1451.51 748.502 1452.55 737.129 1454.62 725.757C1456.68 714.385 1458.75 703.013 1461.85 692.674C1463.23 689.917 1464.61 687.505 1465.99 685.437C1467.02 683.369 1469.09 683.369 1468.06 683.369C1468.06 683.369 1470.12 685.437 1471.16 687.505C1472.54 689.573 1473.57 691.985 1474.26 694.742C1477.36 705.08 1479.43 716.452 1480.46 726.791C1482.53 749.535 1483.56 772.28 1482.53 795.025ZM1199.26 327.728C1209.6 314.288 1195.12 285.341 1166.17 262.596C1138.26 239.852 1106.21 232.614 1095.87 246.054C1085.53 258.46 1115.52 250.19 1133.09 282.239C1155.84 326.694 1188.92 341.168 1199.26 327.728ZM978.015 153.008C952.169 139.569 929.424 135.434 925.289 143.704C921.153 151.975 946.999 151.975 967.676 169.55C993.522 191.261 1013.17 199.532 1016.27 191.261C1020.4 182.99 1002.83 165.415 978.015 153.008ZM600.662 1299.54C601.696 1317.11 622.373 1333.66 647.185 1336.76C670.964 1339.86 689.573 1328.49 688.539 1310.91C687.505 1294.37 663.727 1308.84 638.915 1305.74C615.136 1302.64 599.628 1283 600.662 1299.54ZM348.405 1185.82C300.848 1164.11 294.645 1136.19 291.544 1158.94C288.442 1181.68 318.423 1222 357.709 1248.88C396.995 1275.76 432.146 1279.9 435.248 1257.15C438.349 1234.41 424.909 1220.97 348.405 1185.82ZM138.535 974.913C129.231 981.116 133.366 1012.13 146.806 1043.15C160.246 1074.16 178.855 1093.8 188.159 1087.6C197.464 1081.4 180.922 1051.42 160.246 1032.81C134.399 1009.03 147.84 968.71 138.535 974.913Z" fill="#DCD1BD"/>
<path fill-rule="evenodd" clip-rule="evenodd" d="M1471.15 492.105C1526.98 628.572 1540.42 781.582 1509.4 924.252C1479.42 1066.92 1406.02 1200.29 1300.57 1300.57C1350.19 1247.84 1392.58 1188.91 1425.66 1124.82C1442.2 1092.77 1456.68 1059.68 1468.05 1025.57C1479.42 991.451 1488.73 956.3 1494.93 921.15C1521.81 780.547 1505.27 632.708 1449.44 501.41C1393.61 370.112 1299.53 256.39 1180.64 177.818C1062.78 99.2457 921.146 56.858 778.476 56.858C650.279 56.858 521.049 92.0088 410.428 157.141C493.135 114.753 586.181 90.9747 685.43 90.9747C764.002 90.9747 839.473 105.449 907.706 133.363C903.571 136.12 900.814 139.566 899.435 143.701C895.3 155.073 902.537 166.445 910.808 173.682C918.044 181.953 927.349 188.156 937.688 193.325C958.364 203.664 980.075 209.867 1002.82 208.833C1004.89 208.833 1006.61 208.833 1007.99 208.833C1010.75 208.144 1013.5 207.454 1016.26 206.765C1022.46 204.697 1027.63 200.562 1029.7 195.393C1031.77 190.224 1030.73 184.021 1027.63 177.818C1024.53 172.648 1019.36 167.479 1015.23 163.344C1004.89 154.039 992.481 146.802 980.075 140.599C993.515 144.734 1006.95 150.938 1018.33 159.209C1023.5 163.344 1028.67 168.513 1032.8 175.75C1035.9 181.953 1039 190.223 1035.9 197.46C1034.87 199.528 1033.83 200.562 1033.83 200.562C1037.97 197.461 1041.07 193.325 1041.07 188.156C1041.07 182.987 1040.04 177.817 1036.94 173.682C1031.77 163.344 1023.5 156.107 1014.19 148.87C1004.89 142.667 994.549 137.498 984.21 132.328C1005.92 139.565 1028.67 150.938 1042.11 170.581C1045.21 175.75 1047.27 181.953 1046.24 189.19C1046.24 194.359 1043.14 200.562 1039 203.664C1049.34 211.245 1059.34 219.171 1068.99 227.442C1068.3 228.131 1067.61 228.821 1066.92 229.51C1058.65 242.95 1062.78 259.491 1070.02 271.897C1077.26 284.303 1086.56 295.675 1096.9 306.014C1109.31 316.352 1121.71 325.657 1135.15 333.928C1143.42 337.374 1151.69 340.475 1159.96 343.232C1173.4 346.334 1186.84 347.368 1198.22 343.232C1204.42 341.165 1208.55 337.029 1210.62 330.826C1212.69 325.657 1212.69 319.454 1211.66 312.217C1208.55 299.811 1201.32 288.439 1193.05 277.066C1184.78 266.728 1174.44 257.423 1164.1 248.119C1186.84 263.626 1208.55 283.269 1217.86 311.183C1219.93 318.42 1219.93 326.691 1217.86 333.928C1214.76 341.164 1208.55 347.368 1201.32 350.469C1198.56 351.159 1195.8 351.847 1193.05 352.537C1200.28 353.57 1208.55 352.537 1215.79 349.435C1221.99 347.368 1227.16 342.198 1229.23 335.995C1232.33 329.792 1232.33 322.555 1230.26 315.319C1227.16 300.845 1218.89 288.439 1209.59 277.066C1200.28 265.694 1188.91 255.356 1177.54 246.051C1202.35 262.592 1226.13 284.304 1235.43 314.285C1237.5 321.522 1237.5 329.792 1234.4 338.063C1232.33 345.3 1225.1 351.503 1217.86 354.604C1208.55 358.74 1198.22 359.774 1188.91 358.74C1254.04 454.887 1292.3 571.711 1292.3 697.84C1292.3 788.818 1272.65 875.661 1236.47 953.199C1242.67 953.199 1248.53 954.233 1254.04 956.301C1264.38 959.402 1273.69 965.605 1280.92 973.876C1288.16 981.113 1294.36 990.417 1297.46 1000.76C1305.74 1020.4 1305.74 1043.14 1302.63 1063.82C1299.53 1084.5 1291.26 1104.14 1281.96 1122.75C1270.58 1141.36 1257.14 1156.87 1240.6 1170.31C1224.06 1183.75 1204.42 1194.08 1182.71 1196.15C1162.03 1198.22 1138.25 1190.98 1124.81 1174.44C1114.47 1163.07 1108.27 1149.63 1106.2 1135.16C1096.55 1144.12 1086.91 1152.73 1077.26 1161C1082.08 1161 1086.91 1162.03 1091.73 1164.1C1102.07 1168.24 1110.34 1179.61 1111.37 1190.98C1112.41 1203.39 1107.24 1214.76 1101.03 1224.07C1094.83 1233.37 1086.56 1240.61 1077.26 1247.84C1058.65 1260.25 1035.9 1267.49 1013.16 1265.42C1001.79 1264.39 990.413 1259.22 983.176 1249.91C979.041 1243.71 976.973 1236.47 978.007 1229.24C926.315 1258.18 869.454 1278.86 809.491 1291.27C810.18 1293.33 810.525 1295.06 810.525 1296.43C809.491 1302.64 804.322 1306.77 800.187 1308.84C791.916 1314.01 781.577 1315.04 772.273 1314.01C768.137 1313.32 763.658 1311.94 758.833 1309.87C755.731 1307.81 752.63 1304.71 751.596 1300.57C737.811 1301.95 723.682 1302.98 709.208 1303.67C711.276 1308.84 712.31 1315.04 711.276 1322.28C709.208 1334.69 698.87 1343.99 688.531 1349.16C666.821 1358.47 642.009 1355.36 622.366 1346.06C612.027 1341.92 602.723 1335.72 594.452 1327.45C587.215 1319.18 582.046 1308.84 582.046 1297.47C584.114 1307.81 590.317 1317.11 598.587 1324.35C605.824 1330.55 615.129 1335.72 624.433 1339.86C644.076 1347.09 666.821 1349.16 684.396 1340.89C693.701 1336.75 700.938 1329.52 701.972 1320.21C704.039 1310.91 700.938 1301.6 694.735 1293.33C688.532 1285.06 680.261 1277.83 670.956 1272.66C662.686 1267.49 652.347 1264.39 642.009 1261.28C607.892 1257.15 582.046 1271.62 582.046 1295.4C540.003 1287.82 499.683 1276.1 461.086 1260.25C461.086 1269.55 460.052 1278.86 455.917 1288.16C450.748 1298.5 438.342 1306.77 426.97 1309.87C402.157 1312.98 380.447 1303.67 360.804 1293.33C341.161 1281.96 323.585 1268.52 308.078 1251.98C292.57 1235.44 279.13 1217.86 268.792 1198.22C257.419 1178.58 249.149 1157.9 248.115 1136.19C251.216 1157.9 260.521 1177.54 272.927 1196.15C284.299 1214.76 297.739 1231.3 313.247 1246.81C329.788 1261.28 346.33 1274.72 364.939 1285.06C383.548 1295.4 405.259 1303.67 424.902 1299.54C433.173 1298.5 440.409 1293.33 444.545 1287.13C440.409 1290.58 435.585 1292.64 430.071 1293.33C407.326 1297.47 387.684 1288.16 370.108 1278.86C352.533 1268.52 335.991 1256.11 322.551 1241.64C309.112 1226.13 296.705 1210.63 286.367 1193.05C277.062 1175.48 269.826 1155.83 267.758 1136.19C271.893 1155.83 280.164 1174.44 290.502 1190.98C300.841 1207.52 314.281 1222 327.721 1235.44C342.194 1248.88 357.702 1261.28 374.244 1270.59C390.785 1279.89 410.428 1287.13 428.003 1284.03C436.274 1281.96 443.511 1276.79 447.646 1269.55C449.714 1265.42 451.092 1260.59 451.782 1255.08C451.782 1255.08 451.437 1254.74 450.748 1254.05C448.68 1232.34 440.409 1212.69 430.071 1194.08C419.733 1174.44 406.293 1157.9 390.785 1141.36C376.311 1125.51 359.77 1111.72 341.161 1100C291.536 1072.09 253.284 1080.36 248.115 1116.55C231.573 1100 216.066 1082.08 201.592 1062.79C202.281 1067.61 202.626 1072.78 202.626 1078.29C202.626 1084.5 202.626 1089.67 199.524 1095.87C198.491 1098.97 196.423 1102.07 194.355 1104.14C191.254 1106.21 187.118 1108.28 182.983 1107.24C175.746 1106.21 170.577 1102.07 166.441 1097.94C162.306 1093.8 158.17 1089.67 155.069 1084.5C141.629 1065.89 132.325 1044.18 127.155 1021.43C125.088 1010.06 123.02 998.688 123.02 987.316C123.02 981.802 123.709 976.288 125.088 970.775C126.121 964.572 128.189 959.402 133.359 955.267C129.223 959.402 127.155 965.605 127.155 970.775C126.466 976.288 126.466 981.802 127.155 987.316C128.189 998.688 130.257 1009.03 133.359 1020.4C139.562 1041.08 148.866 1061.75 161.272 1080.36C167.475 1088.63 175.746 1097.94 184.017 1100C188.152 1100 191.254 1097.94 193.321 1092.77C195.389 1088.63 196.423 1083.46 196.423 1078.29C197.456 1066.92 196.423 1055.55 194.355 1045.21C192.287 1033.84 189.186 1022.47 186.084 1012.13C171.61 974.91 149.9 950.097 136.46 954.233C100.275 876.695 79.5986 788.818 79.5986 697.84C79.5986 616.167 95.1062 537.594 125.088 466.259C119.574 477.976 114.06 489.693 108.546 501.41C52.7186 632.708 36.1772 780.547 63.0571 921.15C69.2601 956.3 78.5648 991.451 89.937 1025.57C101.309 1059.68 115.783 1092.77 132.325 1124.82C165.408 1188.91 207.795 1247.84 257.42 1300.57C151.968 1200.29 78.5648 1066.92 48.5834 924.252C17.5681 781.582 31.0082 628.572 86.8356 492.105C140.595 354.604 238.81 236.747 361.837 154.039C483.831 71.3321 630.636 25.8428 778.476 25.8428C927.349 25.8428 1074.15 70.2979 1197.18 153.005C1319.18 235.713 1417.39 355.638 1471.15 492.105ZM537.59 1157.9C540.692 1165.14 546.895 1168.24 553.098 1170.31C559.301 1172.37 566.538 1172.37 571.707 1170.31C576.877 1168.24 577.91 1164.1 574.809 1157.9C570.673 1152.73 565.504 1148.6 558.267 1145.49C545.861 1144.46 537.59 1149.63 537.59 1157.9ZM454.883 537.595C453.849 547.933 457.985 558.271 466.255 559.305C473.492 560.339 482.797 556.204 489 550.001C495.203 543.798 500.372 535.527 501.406 527.256C502.44 522.087 501.406 517.951 499.339 514.85C496.237 510.715 492.102 508.647 486.932 508.647C473.492 509.681 459.018 522.087 454.883 537.595ZM256.386 624.438C258.453 629.607 263.622 633.742 268.792 634.776C279.13 636.844 290.502 630.64 299.807 622.37C308.078 614.099 314.281 603.76 315.314 592.388C316.348 586.185 315.315 579.982 312.213 575.847C308.078 570.678 301.875 568.61 295.672 567.576C278.096 569.644 260.521 586.185 254.318 605.828C254.318 612.031 254.318 619.268 256.386 624.438ZM199.524 459.023C194.355 480.734 192.287 504.512 197.457 526.223C200.558 536.561 204.693 547.933 211.93 555.17C220.201 562.407 230.54 566.542 240.878 567.576C250.183 567.576 258.453 565.509 266.724 562.407C263.967 563.096 260.866 563.096 257.42 562.407C246.047 562.407 234.675 557.238 227.438 547.933C219.167 539.662 215.032 529.324 212.964 518.986C211.93 507.613 211.93 497.274 212.964 486.936C213.998 476.598 217.1 466.259 219.167 455.921C216.066 476.598 213.998 498.308 219.167 517.951C221.235 527.256 225.37 536.561 232.607 542.764C238.81 550.001 248.115 553.102 257.42 554.136C277.063 554.136 295.672 543.798 312.213 532.425C322.551 524.155 331.856 514.85 341.161 505.546C343.228 502.1 345.641 498.998 348.398 496.241C375.277 460.056 395.954 418.703 403.191 374.248C404.225 362.875 405.259 351.503 404.225 341.165C404.225 339.786 404.225 338.063 404.225 335.995C402.846 330.482 400.779 325.312 398.022 320.488C392.853 311.183 384.582 304.98 375.277 301.879C365.973 298.777 354.601 299.811 345.296 301.879C354.601 298.777 364.939 296.71 376.311 298.777C382.514 300.845 388.717 303.946 394.92 308.082C388.717 299.811 380.447 292.574 370.108 289.472C358.736 286.371 347.364 287.405 335.991 289.472C280.164 306.014 219.167 382.519 199.524 459.023ZM193.321 731.957C179.881 734.024 169.543 744.363 163.34 755.735C156.103 767.107 151.967 780.548 149.9 792.954C144.731 818.8 145.764 846.713 155.069 871.525C160.238 882.898 168.509 894.27 178.848 898.406C182.983 900.473 187.463 900.818 192.287 899.439C186.084 898.405 181.949 895.304 177.814 891.169C168.509 881.864 163.34 869.458 160.238 858.086C158.17 845.679 158.171 833.273 159.205 821.901C160.238 833.273 162.306 845.679 166.441 856.018C170.577 867.39 175.746 877.728 184.017 884.965C192.287 891.168 202.626 892.202 210.897 885.999C214.343 883.932 217.1 881.519 219.167 878.762C224.337 870.492 228.472 862.221 231.574 852.916C235.709 840.51 238.81 827.07 239.844 813.63C240.878 786.751 234.675 764.006 224.337 749.532C219.167 744.363 212.964 740.227 204.694 740.227C208.829 739.193 212.964 739.194 217.099 741.262C210.896 734.025 202.626 730.923 193.321 731.957ZM160.238 708.178C161.272 682.332 149.9 662.69 135.426 663.723C128.189 665.791 123.02 671.994 119.918 678.197C116.817 683.366 114.749 690.603 113.715 697.84C110.614 711.28 111.648 725.754 116.817 738.16C118.885 744.363 123.02 750.566 128.189 752.634C133.359 754.701 139.561 751.6 144.731 746.431C154.035 737.126 158.17 722.652 160.238 708.178ZM241.912 925.285C242.946 913.913 237.777 904.608 231.574 905.642C228.472 906.676 226.404 909.778 225.37 911.845C224.681 914.602 223.992 917.704 223.303 921.15C223.303 926.319 223.303 932.522 225.37 937.692C226.404 939.759 227.438 941.827 229.506 941.827C230.195 942.516 231.573 942.171 233.641 940.793C237.776 936.658 240.878 931.488 241.912 925.285ZM326.687 978.011C330.822 988.349 337.025 995.587 344.262 1002.82C348.398 1005.92 352.533 1009.03 356.668 1011.09C360.804 1013.16 365.973 1014.2 368.04 1014.2C370.108 1013.16 370.108 1013.16 371.142 1012.13C371.831 1010.75 372.176 1009.03 372.176 1006.96C372.176 1002.82 370.108 997.654 368.04 993.519C363.216 984.559 357.013 976.633 349.431 969.74C334.958 961.47 325.653 965.605 326.687 978.011ZM751.596 1298.5C753.664 1302.64 756.765 1304.71 760.9 1305.74C765.036 1307.12 769.171 1307.81 773.307 1307.81C781.577 1307.81 789.848 1305.74 796.051 1302.64C803.288 1298.5 805.356 1292.3 799.153 1288.16C792.95 1282.99 784.679 1280.93 775.374 1279.89C759.867 1281.96 749.528 1290.23 751.596 1298.5ZM933.552 1184.78C921.146 1186.85 909.774 1195.12 906.672 1204.42C906.672 1208.56 906.672 1211.66 909.774 1213.73C911.841 1215.8 914.943 1216.83 918.045 1216.83C924.248 1216.83 931.484 1213.73 936.654 1210.63C941.823 1206.49 946.992 1201.32 946.992 1196.15C948.026 1189.95 940.789 1185.81 933.552 1184.78ZM991.447 297.743C1013.16 311.183 1035.9 311.183 1042.11 297.743C1044.17 290.506 1042.11 283.27 1037.97 278.1C1034.52 271.897 1030.04 266.728 1024.53 262.593C1013.16 253.288 1000.75 246.051 987.312 245.017C980.075 243.984 973.872 243.983 969.737 248.119C964.567 251.22 964.568 258.457 965.601 264.66C969.737 277.066 980.075 288.439 991.447 297.743ZM1036.94 1053.48C1018.33 1061.75 1004.89 1085.53 1005.92 1106.21C1007.99 1113.44 1011.09 1119.65 1016.26 1123.78C1020.39 1127.92 1026.6 1128.95 1032.8 1127.92C1045.21 1125.85 1055.55 1116.55 1061.75 1105.17C1067.95 1093.8 1071.05 1080.36 1067.95 1067.96C1065.88 1062.79 1062.78 1057.62 1056.58 1054.52C1051.41 1051.41 1044.17 1051.41 1036.94 1053.48ZM1019.36 724.72C1026.6 726.787 1034.87 722.652 1036.94 714.381C1039 706.111 1034.87 697.84 1027.63 695.772C1019.36 693.705 1012.12 698.874 1009.02 706.111C1006.95 714.381 1011.09 722.652 1019.36 724.72ZM980.075 1217.86C978.007 1228.2 979.041 1240.61 986.278 1247.84C993.515 1255.08 1003.85 1258.18 1014.19 1259.22C1034.87 1260.25 1055.55 1251.98 1072.09 1240.61C1081.39 1234.4 1088.63 1227.17 1094.83 1219.93C1101.03 1211.66 1105.17 1201.32 1105.17 1192.02C1105.17 1181.68 1098.97 1172.37 1089.66 1168.24C1081.39 1163.07 1070.02 1161 1058.65 1161C1024.53 1165.14 989.38 1189.95 980.075 1217.86ZM1231.3 543.797C1237.5 557.237 1248.87 565.508 1256.11 561.373C1260.25 558.271 1260.25 554.136 1260.25 550.001C1260.25 545.865 1259.9 541.73 1259.21 537.595C1256.11 529.324 1251.98 522.087 1246.81 516.918C1240.6 511.749 1234.4 510.715 1232.33 518.986C1229.23 526.222 1230.26 534.493 1231.3 543.797ZM1244.74 894.27C1248.87 890.135 1249.91 884.965 1250.94 879.796C1252.32 874.971 1253.01 869.802 1253.01 864.288C1254.04 853.95 1254.04 843.612 1251.98 834.307C1251.29 831.55 1250.6 829.138 1249.91 827.07C1248.87 825.003 1246.81 823.969 1247.84 823.969C1247.84 823.969 1245.77 825.003 1244.74 826.037C1243.36 828.104 1242.33 830.516 1241.64 833.273C1237.5 842.578 1235.43 852.916 1233.37 863.255C1233.37 883.932 1238.54 897.372 1244.74 894.27ZM1194.08 962.503C1139.29 986.282 1098.97 1055.55 1104.14 1116.55C1104.14 1119.3 1104.48 1122.06 1105.17 1124.82C1105.86 1128.95 1106.89 1133.43 1108.27 1138.26C1108.27 1138.95 1108.62 1139.64 1109.31 1140.32C1109.99 1142.39 1110.68 1144.46 1111.37 1146.53C1113.44 1150.66 1115.51 1154.45 1117.58 1157.9C1120.33 1162.04 1123.09 1165.48 1125.85 1168.24C1139.29 1182.71 1158.93 1187.88 1177.54 1184.78C1196.15 1182.71 1213.72 1173.41 1228.2 1162.04C1242.67 1149.63 1255.08 1135.16 1264.38 1118.61C1282.99 1085.53 1292.3 1045.21 1280.92 1009.03C1277.82 1000.76 1273.69 991.451 1267.48 985.248C1261.28 978.011 1254.04 971.808 1244.74 968.707C1236.47 965.605 1226.13 963.537 1216.82 964.571C1207.52 964.571 1198.22 967.673 1188.91 970.775C1198.22 966.639 1207.52 963.537 1216.82 962.503C1226.13 961.47 1236.47 962.504 1245.77 965.605C1255.08 968.707 1264.38 974.91 1270.58 982.147C1277.82 989.384 1282.99 997.654 1286.09 1007.99C1293.33 1026.6 1293.33 1047.28 1290.23 1065.89C1288.16 1084.5 1280.92 1102.07 1272.65 1117.58C1292.3 1083.46 1302.63 1041.08 1290.23 1002.82C1287.13 994.553 1282.99 985.248 1276.79 978.011C1269.55 970.774 1262.31 964.572 1253.01 960.436C1243.7 957.335 1233.37 955.267 1223.03 956.301C1213.72 956.301 1203.38 959.402 1194.08 962.503ZM766.07 631.674C765.38 635.12 764.691 638.222 764.002 640.979C764.691 640.29 765.036 639.6 765.036 638.911C764.347 643.046 763.657 646.837 762.968 650.284C760.901 681.299 770.205 713.348 790.882 737.126C793.639 739.883 796.741 742.295 800.187 744.363C807.768 749.877 816.039 754.702 824.999 758.837C833.959 761.594 843.263 763.317 852.912 764.006C861.872 764.695 871.177 763.661 880.826 760.904C889.786 758.836 898.402 755.39 906.672 750.566C939.755 731.957 960.432 693.705 957.33 655.453C956.297 616.167 929.417 579.982 891.165 566.542C900.814 569.299 910.119 573.09 919.078 577.915C928.038 583.428 935.964 589.976 942.857 597.557C956.297 613.065 964.567 633.742 966.635 654.419C968.703 675.095 964.568 696.806 955.263 715.416C945.958 734.025 930.451 749.532 912.875 760.904C909.429 762.283 905.983 764.006 902.537 766.073C910.118 763.316 917.355 759.87 924.248 755.735C941.823 745.397 957.33 729.889 967.669 710.246C972.493 701.286 975.94 691.292 978.007 680.265C980.075 669.926 981.109 659.588 981.109 648.216C979.041 605.828 949.06 564.474 905.638 551.034C846.709 534.493 784.679 570.677 766.07 631.674ZM748.495 673.028C748.495 689.569 753.664 706.111 760.9 721.618C775.374 751.6 803.288 775.378 836.371 784.683C869.454 793.988 906.672 787.785 934.586 769.175C949.06 760.905 961.466 748.498 970.771 735.058C980.075 721.618 987.312 706.111 991.447 690.603C979.041 720.584 957.33 746.431 930.45 761.938C902.537 777.446 869.454 781.581 839.473 773.31C809.491 765.04 783.645 744.363 768.137 717.483C752.63 689.57 748.494 656.487 755.731 624.438C749.528 639.945 747.461 656.486 748.495 673.028ZM635.805 742.295C630.636 766.074 639.941 790.886 657.516 804.326C668.888 812.596 683.362 816.732 696.802 814.664C701.627 813.286 706.107 811.563 710.242 809.495C727.818 799.156 738.156 778.48 738.156 757.803C737.122 737.126 723.682 716.449 701.972 708.178C713.344 710.246 723.682 716.449 731.953 724.72C740.224 734.024 745.393 745.397 746.427 757.803C747.116 762.627 747.116 767.452 746.427 772.277C748.494 765.385 749.528 758.492 749.528 751.6C748.494 729.889 734.021 707.145 711.276 699.908C679.227 690.603 645.11 710.246 635.805 742.295ZM630.636 795.021C636.839 810.529 651.313 822.935 668.889 827.07C685.43 832.24 704.039 829.138 718.513 818.8C731.953 809.495 742.291 795.021 744.359 778.48C737.122 792.953 726.784 804.326 713.344 811.563C700.938 817.766 685.43 819.834 671.99 815.698C657.516 812.597 646.144 803.292 637.873 790.886C630.636 778.48 627.535 761.938 629.603 746.431C623.4 760.905 623.399 779.514 630.636 795.021ZM457.985 359.774C454.883 373.214 453.85 388.721 459.019 401.127C464.188 414.567 474.526 424.906 486.932 429.041C489.689 429.041 492.102 429.041 494.169 429.041C481.763 424.906 471.425 412.5 468.323 400.094C465.222 386.654 467.289 373.214 471.425 360.808C469.357 374.248 469.357 387.687 474.526 399.059C478.662 410.432 487.966 418.703 499.339 421.804C510.711 424.906 523.117 422.838 533.455 417.669C544.827 412.5 555.166 406.297 564.47 396.992C582.046 380.451 594.452 356.672 597.554 332.894C598.587 320.488 595.486 308.082 588.249 298.777C581.012 288.439 567.572 284.303 555.166 284.303C566.538 282.236 578.944 284.303 589.283 291.54C588.593 290.851 587.904 290.162 587.215 289.472C578.944 278.1 564.471 273.965 549.997 273.965C510.711 277.066 469.357 315.318 457.985 359.774ZM453.85 203.664C448.68 199.528 442.477 199.528 436.274 200.562C430.76 201.252 425.246 202.975 419.733 205.732C409.394 210.901 399.056 219.171 393.887 228.476C390.785 233.645 388.717 238.814 389.751 242.95C390.785 248.119 394.92 250.186 401.124 251.22C412.496 252.254 424.902 249.153 436.274 242.95C453.849 230.543 462.12 212.968 453.85 203.664Z" fill="#EFE3CD"/>
<path fill-rule="evenodd" clip-rule="evenodd" d="M1194.09 962.506C1203.39 959.404 1213.73 956.303 1223.04 956.303C1233.38 955.269 1243.71 957.337 1253.02 960.439C1262.32 964.574 1269.56 970.777 1276.8 978.014C1283 985.25 1287.14 994.555 1290.24 1002.83C1302.64 1041.08 1292.3 1083.47 1272.66 1117.58C1280.93 1102.07 1288.17 1084.5 1290.24 1065.89C1293.34 1047.28 1293.34 1026.6 1286.1 1008C1283 997.657 1277.83 989.386 1270.59 982.149C1264.39 974.912 1255.09 968.709 1245.78 965.608C1236.48 962.506 1226.14 961.472 1216.83 962.506C1207.53 963.54 1198.23 966.642 1188.92 970.777C1198.23 967.676 1207.53 964.574 1216.83 964.574C1226.14 963.54 1236.48 965.608 1244.75 968.709C1254.05 971.811 1261.29 978.014 1267.49 985.251C1273.7 991.454 1277.83 1000.76 1280.93 1009.03C1292.3 1045.21 1283 1085.53 1264.39 1118.62C1255.09 1135.16 1242.68 1149.63 1228.21 1162.04C1213.73 1173.41 1196.16 1182.71 1177.55 1184.78C1158.94 1187.88 1139.3 1182.71 1125.86 1168.24C1123.1 1165.48 1120.34 1162.04 1117.59 1157.9C1115.52 1154.46 1113.45 1150.67 1111.38 1146.53C1110.69 1144.46 1110 1142.39 1109.31 1140.33C1108.63 1139.64 1108.28 1138.95 1108.28 1138.26C1106.9 1133.43 1105.87 1128.61 1105.18 1123.79C1104.49 1121.72 1104.15 1119.31 1104.15 1116.55C1098.98 1055.55 1139.3 986.284 1194.09 962.506ZM1192.02 1072.09C1168.24 1112.41 1131.03 1086.57 1134.13 1127.92C1136.19 1170.31 1169.28 1181.68 1207.53 1153.77C1244.75 1125.85 1273.7 1068.99 1270.59 1027.64C1267.49 985.251 1233.38 997.657 1192.02 1072.09Z" fill="#DCD1BD"/>
<path fill-rule="evenodd" clip-rule="evenodd" d="M335.986 289.477C347.358 287.409 358.731 286.375 370.103 289.477C380.441 292.579 388.712 299.815 394.915 308.086C388.712 303.951 382.509 300.85 376.306 298.782C364.934 296.714 354.595 298.782 345.291 301.883C354.595 299.816 365.968 298.782 375.272 301.883C384.577 304.985 392.847 311.188 398.016 320.492C400.773 325.317 402.841 330.486 404.22 336C404.22 338.068 404.22 339.791 404.22 341.169C405.253 351.508 404.22 362.88 403.186 374.252C395.949 418.707 375.272 460.061 348.392 496.245C345.635 499.002 343.223 502.104 341.155 505.55C331.851 514.855 322.546 524.159 312.208 532.43C295.666 543.802 277.057 554.14 257.414 554.14C248.11 553.106 238.805 550.005 232.602 542.768C225.365 536.565 221.23 527.26 219.162 517.956C213.993 498.313 216.06 476.602 219.162 455.925C217.094 466.264 213.993 476.602 212.959 486.941C211.925 497.279 211.925 507.618 212.959 518.99C215.027 529.328 219.162 539.667 227.433 547.937C234.669 557.242 246.042 562.412 257.414 562.412C260.86 563.101 263.962 563.101 266.719 562.412C258.448 565.513 250.177 567.581 240.873 567.581C230.534 566.547 220.196 562.411 211.925 555.175C204.688 547.938 200.553 536.565 197.451 526.227C192.282 504.516 194.35 480.738 199.519 459.027C219.162 382.523 280.159 306.018 335.986 289.477ZM285.328 418.707C227.433 497.279 232.602 542.768 273.955 530.362C314.275 518.99 359.764 463.162 374.238 406.301C388.712 350.474 367.001 314.289 326.681 326.695C285.328 339.101 319.445 372.184 285.328 418.707Z" fill="#DCD1BD"/>
<path fill-rule="evenodd" clip-rule="evenodd" d="M457.995 359.779C469.367 315.324 510.721 277.072 550.007 273.971C564.48 273.971 578.954 278.106 587.225 289.478C587.914 290.168 588.603 290.857 589.292 291.546C578.954 284.309 566.548 282.241 555.176 284.309C567.582 284.309 581.022 288.445 588.259 298.783C595.496 308.088 598.597 320.494 597.563 332.9C594.462 356.678 582.056 380.457 564.48 396.998C555.176 406.303 544.837 412.506 533.465 417.675C523.127 422.844 510.721 424.911 499.348 421.81C487.976 418.708 478.672 410.438 474.536 399.065C469.367 387.693 469.367 374.254 471.435 360.814C467.299 373.22 465.232 386.66 468.333 400.1C471.435 412.506 481.773 424.912 494.179 429.047C492.112 429.047 489.699 429.047 486.942 429.047C474.536 424.912 464.198 414.573 459.029 401.133C453.859 388.727 454.893 373.219 457.995 359.779ZM521.059 401.133C545.871 399.065 572.751 374.253 579.988 346.34C588.259 318.426 573.785 296.715 548.973 298.783C524.16 300.851 546.905 322.562 527.262 345.306C489.01 390.795 496.247 403.201 521.059 401.133Z" fill="#DCD1BD"/>
<path d="M454.89 537.598C459.026 522.09 473.5 509.684 486.94 508.65C492.109 508.65 496.244 510.718 499.346 514.853C501.414 517.955 502.447 522.09 501.413 527.259C500.38 535.53 495.211 543.801 489.007 550.004C482.804 556.207 473.5 560.342 466.263 559.308C457.992 558.274 453.857 547.936 454.89 537.598Z" fill="#DCD1BD"/>
<path d="M256.404 624.442C254.336 619.273 254.336 612.036 254.336 605.833C260.539 586.19 278.114 569.649 295.69 567.581C301.893 568.615 308.096 570.682 312.231 575.852C315.333 579.987 316.366 586.19 315.333 592.393C314.299 603.765 308.096 614.104 299.825 622.375C290.52 630.645 279.148 636.848 268.81 634.781C263.64 633.747 258.471 629.612 256.404 624.442Z" fill="#DCD1BD"/>
<path d="M1426.71 619.268C1427.74 612.031 1426.71 604.794 1425.67 597.557C1423.61 584.117 1419.47 570.678 1413.27 558.271C1410.17 552.068 1406.03 545.866 1400.86 541.73C1398.79 539.663 1395.69 537.595 1393.62 537.595C1390.52 538.628 1388.46 540.696 1387.42 543.797C1384.32 548.967 1383.29 556.204 1383.29 563.441C1383.29 570.678 1384.32 577.914 1385.35 585.151C1381.22 570.677 1378.12 556.204 1383.29 541.73C1385.35 538.629 1387.42 534.493 1392.59 533.459C1397.76 533.459 1400.86 535.527 1403.96 537.595C1410.17 542.764 1414.3 548.967 1417.4 555.17C1423.61 568.61 1427.74 583.084 1429.81 597.557C1429.81 604.794 1430.84 612.031 1428.77 619.268C1428.77 622.37 1427.74 626.505 1425.67 629.607C1423.61 632.708 1420.5 635.81 1416.37 634.776C1420.5 634.776 1422.57 631.674 1424.64 628.573C1425.67 625.471 1425.67 622.37 1426.71 619.268Z" fill="#EFE3CD"/>
<path fill-rule="evenodd" clip-rule="evenodd" d="M635.801 742.304C645.106 710.255 679.223 690.612 711.272 699.917C734.016 707.153 748.49 729.898 749.524 751.609C749.524 758.501 748.49 765.393 746.422 772.286C747.111 767.461 747.111 762.636 746.422 757.811C745.388 745.405 740.219 734.033 731.949 724.728C723.678 716.458 713.339 710.255 701.967 708.187C723.678 716.458 737.118 737.135 738.152 757.811C738.152 778.488 727.813 799.165 710.238 809.504C706.102 811.571 701.623 813.294 696.798 814.673C683.358 816.74 668.884 812.605 657.512 804.334C639.936 790.894 630.632 766.082 635.801 742.304ZM678.189 803.301C699.899 809.504 723.678 796.064 729.881 773.319C737.118 750.575 724.712 726.796 701.967 720.593C680.256 714.39 689.561 739.203 682.324 761.947C676.121 784.692 655.444 797.098 678.189 803.301Z" fill="#DCD1BD"/>
<path d="M1019.38 724.718C1011.11 722.651 1006.97 714.38 1009.04 706.109C1012.14 698.872 1019.38 693.703 1027.65 695.771C1034.88 697.839 1039.02 706.109 1036.95 714.38C1034.88 722.651 1026.61 726.786 1019.38 724.718Z" fill="#DCD1BD"/>
<path fill-rule="evenodd" clip-rule="evenodd" d="M764.019 640.979C764.708 638.222 765.397 635.12 766.086 631.674C784.696 570.677 846.726 534.493 905.655 551.035C949.077 564.474 979.058 605.828 981.126 648.216C981.126 659.588 980.092 669.926 978.024 680.265C975.956 691.292 972.51 701.286 967.686 710.246C957.347 729.889 941.84 745.397 924.265 755.735C917.372 759.87 910.135 763.317 902.554 766.074C906 764.006 909.446 762.283 912.892 760.904C930.467 749.532 945.975 734.025 955.28 715.416C964.584 696.807 968.719 675.096 966.652 654.419C964.584 633.742 956.313 613.065 942.874 597.557C935.981 589.976 928.055 583.429 919.095 577.915C910.135 573.09 900.831 569.299 891.181 566.542C929.434 579.982 956.313 616.167 957.347 655.453C960.449 693.705 939.772 731.957 906.689 750.566C898.418 755.391 889.803 758.837 880.843 760.904C871.194 763.661 861.889 764.696 852.929 764.006C843.28 763.317 833.976 761.594 825.016 758.837C816.056 754.702 807.785 749.877 800.203 744.363C796.757 742.295 793.656 739.883 790.899 737.126C770.222 713.348 760.917 681.299 762.985 650.284C763.674 646.838 764.363 643.046 765.053 638.911C765.053 639.6 764.708 640.29 764.019 640.979ZM851.896 743.33C886.012 753.668 924.264 726.788 936.67 685.434C948.043 643.046 930.467 600.659 896.351 590.32C862.234 581.016 867.403 617.2 854.997 659.588C842.591 700.942 817.779 734.025 851.896 743.33Z" fill="#DCD1BD"/>
<path d="M160.248 708.18C158.18 722.653 154.045 737.127 144.74 746.432C139.571 751.601 133.368 754.702 128.199 752.635C123.03 750.567 118.894 744.364 116.827 738.161C111.658 725.755 110.623 711.281 113.725 697.841C114.759 690.604 116.827 683.367 119.928 678.198C123.03 671.995 128.199 665.792 135.436 663.725C149.91 662.691 161.282 682.334 160.248 708.18Z" fill="#DCD1BD"/>
<path d="M241.918 925.289C240.884 931.492 237.782 936.661 233.647 940.797C231.579 942.175 230.201 942.52 229.512 941.83C227.444 941.83 226.41 939.763 225.376 937.695C223.309 932.526 223.309 926.323 223.309 921.154C223.998 917.707 224.687 914.606 225.376 911.849C226.41 909.782 228.478 906.68 231.58 905.646C237.783 904.612 242.952 913.917 241.918 925.289Z" fill="#DCD1BD"/>
<path d="M991.453 297.749C980.08 288.445 969.742 277.072 965.607 264.666C964.573 258.463 964.573 251.227 969.742 248.125C973.877 243.99 980.08 243.99 987.317 245.024C1000.76 246.057 1013.16 253.294 1024.54 262.599C1030.05 266.734 1034.53 271.904 1037.98 278.107C1042.11 283.276 1044.18 290.512 1042.11 297.749C1035.91 311.189 1013.16 311.189 991.453 297.749Z" fill="#DCD1BD"/>
<path d="M453.867 203.667C462.138 212.972 453.867 230.547 436.292 242.953C424.92 249.156 412.514 252.257 401.141 251.223C394.938 250.19 390.803 248.122 389.769 242.953C388.735 238.818 390.803 233.648 393.904 228.479C399.073 219.174 409.412 210.904 419.75 205.735C425.264 202.978 430.778 201.255 436.292 200.566C442.495 199.532 448.698 199.532 453.867 203.667Z" fill="#DCD1BD"/>
<path d="M1231.3 543.805C1230.27 534.501 1229.23 526.23 1232.33 518.993C1234.4 510.723 1240.6 511.756 1246.81 516.926C1251.98 522.095 1256.11 529.332 1259.21 537.603C1259.9 541.738 1260.25 545.873 1260.25 550.009C1260.25 554.144 1260.25 558.279 1256.11 561.381C1248.87 565.516 1237.5 557.245 1231.3 543.805Z" fill="#DCD1BD"/>
<path d="M1250.96 879.802C1249.92 884.971 1248.89 890.14 1244.76 894.276C1238.55 897.377 1233.38 883.937 1233.38 863.26C1235.45 852.922 1237.52 842.583 1241.65 833.279C1242.34 830.522 1243.38 828.11 1244.76 826.042C1245.79 825.009 1247.86 823.975 1247.86 823.975C1246.82 823.975 1248.89 825.008 1249.92 827.076C1250.61 829.144 1251.3 831.556 1251.99 834.313C1254.06 843.618 1254.06 853.956 1253.03 864.294C1253.03 869.808 1252.34 874.977 1250.96 879.802Z" fill="#DCD1BD"/>
<path d="M751.599 1298.51C749.531 1290.24 759.869 1281.97 775.377 1279.9C784.682 1280.93 792.952 1283 799.156 1288.17C805.359 1292.3 803.291 1298.51 796.054 1302.64C789.851 1305.74 781.58 1307.81 773.309 1307.81C769.174 1307.81 765.039 1307.12 760.903 1305.74C756.768 1304.71 753.666 1302.64 751.599 1298.51Z" fill="#DCD1BD"/>
<path fill-rule="evenodd" clip-rule="evenodd" d="M193.325 731.955C202.63 730.921 210.9 734.023 217.103 741.259C212.968 739.192 208.833 739.191 204.697 740.225C212.968 740.225 219.171 744.361 224.34 749.53C234.679 764.004 240.882 786.748 239.848 813.628C238.814 827.068 235.713 840.508 231.577 852.914C228.476 862.219 224.34 870.49 219.171 878.76C217.103 881.517 214.347 883.93 210.9 885.997C202.63 892.2 192.291 891.166 184.02 884.963C175.75 877.726 170.58 867.388 166.445 856.016C162.31 845.677 160.242 833.271 159.208 821.899C158.174 833.271 158.174 845.677 160.242 858.083C163.343 869.456 168.513 881.862 177.817 892.2C181.953 895.302 186.088 898.403 192.291 899.437C187.466 900.816 182.987 900.471 178.851 898.404C168.513 894.268 160.242 882.896 155.073 871.523C145.768 846.711 144.734 818.798 149.903 792.952C151.971 780.545 156.107 767.105 163.344 755.733C169.547 744.361 179.885 734.022 193.325 731.955ZM169.547 831.204C175.75 859.118 192.291 877.727 207.799 872.557C223.306 867.388 210.9 847.745 198.494 823.967C186.088 798.121 201.596 766.071 186.088 771.24C170.58 776.41 163.344 803.29 169.547 831.204Z" fill="#DCD1BD"/>
<path d="M537.602 1157.91C537.602 1149.63 545.872 1144.47 558.278 1145.5C565.515 1148.6 570.685 1152.74 574.82 1157.91C577.921 1164.11 576.888 1168.24 571.719 1170.31C566.549 1172.38 559.312 1172.38 553.109 1170.31C546.906 1168.24 540.703 1165.14 537.602 1157.91Z" fill="#DCD1BD"/>
<path d="M850.849 1513.54C844.646 1512.86 838.787 1511.82 833.273 1510.44C828.104 1508.38 821.901 1506.31 817.766 1502.17C822.935 1505.27 828.104 1507.34 834.307 1508.38C839.821 1509.06 845.335 1509.41 850.849 1509.41C862.566 1509.41 873.938 1508.38 884.965 1506.31C907.71 1503.21 930.454 1498.04 951.131 1488.73C956.645 1486.66 961.47 1483.91 965.605 1480.46C969.741 1477.36 972.842 1473.22 972.842 1471.16C972.842 1469.09 967.673 1465.99 962.504 1463.92C957.679 1462.54 952.165 1461.51 945.962 1460.82C934.59 1458.75 923.218 1458.75 911.845 1459.78C900.473 1459.78 889.101 1460.82 877.729 1462.89C899.439 1455.65 923.218 1452.55 946.996 1453.58C953.199 1453.58 959.057 1454.27 964.571 1455.65C968.017 1457.03 971.119 1458.41 973.876 1459.78C976.977 1461.85 980.079 1464.95 981.113 1469.09C982.147 1474.26 980.079 1478.39 978.011 1481.5C975.943 1484.25 973.531 1486.32 970.774 1487.7C965.605 1491.83 960.436 1494.94 955.267 1497C933.556 1507.34 909.778 1511.48 885.999 1513.54C874.282 1514.92 862.566 1514.92 850.849 1513.54Z" fill="#EFE3CD"/>
<path d="M1138.26 1404.99C1140.33 1402.93 1141.36 1398.79 1140.33 1398.79C1141.36 1397.76 1137.23 1396.72 1134.13 1396.72C1130.68 1396.03 1126.89 1396.03 1122.75 1396.72C1114.48 1397.76 1107.25 1398.79 1098.97 1401.89C1091.74 1402.92 1083.47 1406.03 1076.23 1409.13C1089.67 1399.82 1105.18 1392.59 1121.72 1389.49C1125.85 1388.8 1129.99 1388.45 1134.13 1388.45C1136.88 1388.45 1139.29 1388.8 1141.36 1389.49C1144.46 1390.52 1147.57 1391.55 1148.6 1394.65C1150.67 1398.79 1149.63 1401.89 1148.6 1404.99C1147.91 1407.06 1146.53 1409.13 1144.46 1411.2C1141.71 1414.64 1138.61 1417.74 1135.16 1420.5C1121.72 1430.84 1106.21 1438.08 1090.7 1443.24C1083.12 1445.31 1075.2 1447.04 1066.93 1448.41C1062.79 1449.1 1058.31 1449.1 1053.49 1448.41C1049.35 1448.41 1045.21 1447.38 1042.11 1445.31C1049.35 1448.41 1057.62 1446.35 1065.89 1444.28C1073.47 1442.21 1081.05 1439.45 1088.64 1436.01C1103.11 1429.81 1117.58 1422.57 1129.99 1413.26C1132.75 1410.51 1135.5 1407.75 1138.26 1404.99Z" fill="#EFE3CD"/>
<path d="M498.316 1461.85C490.734 1457.71 483.842 1452.89 477.639 1447.38C474.882 1444.62 472.125 1441.52 469.368 1438.07C466.267 1434.97 464.199 1430.83 464.199 1426.7C467.301 1434.97 474.537 1439.1 480.74 1444.27C487.633 1448.41 494.525 1452.2 501.417 1455.65C515.891 1461.85 531.399 1468.05 546.907 1470.12C550.353 1470.81 553.799 1471.15 557.245 1471.15C561.38 1471.15 564.482 1470.12 564.482 1470.12C565.516 1469.09 563.448 1465.98 561.38 1462.88C559.313 1460.13 556.9 1457.37 554.143 1454.61C547.94 1449.44 541.737 1444.27 534.5 1440.14C528.297 1436 521.06 1431.87 513.824 1427.73C529.331 1431.87 544.839 1439.1 558.279 1448.41C561.725 1451.17 565.171 1454.27 568.617 1457.71C569.995 1459.09 571.029 1461.16 571.719 1463.92C572.753 1465.98 573.786 1469.09 572.753 1473.22C570.685 1476.32 567.583 1478.39 565.516 1479.42C562.759 1480.11 560.346 1480.46 558.279 1480.46C553.454 1481.15 548.974 1480.8 544.839 1479.42C528.297 1476.32 512.79 1470.12 498.316 1461.85Z" fill="#EFE3CD"/>
<path d="M1482.52 795.026C1483.55 772.281 1482.52 749.536 1480.45 726.792C1479.42 716.453 1477.35 705.081 1474.25 694.743C1473.56 691.986 1472.53 689.574 1471.15 687.506C1470.11 685.438 1468.05 683.37 1468.05 683.37C1469.08 683.37 1467.01 683.37 1465.98 685.438C1464.6 687.506 1463.22 689.918 1461.84 692.675C1458.74 703.013 1456.67 714.386 1454.61 725.758C1452.54 737.13 1451.51 748.503 1450.47 759.875C1448.4 736.096 1449.44 713.352 1455.64 690.607C1456.33 687.85 1457.36 684.749 1458.74 681.303C1459.78 680.269 1460.81 679.235 1462.88 677.167C1463.91 676.134 1467.01 675.1 1470.11 675.1C1475.28 677.167 1477.35 680.269 1478.39 683.37C1480.45 686.127 1481.83 688.885 1482.52 691.641C1486.66 703.014 1487.69 714.386 1489.76 725.758C1492.51 749.192 1492.86 772.281 1490.79 795.026C1489.41 806.743 1487.35 818.459 1484.59 830.176C1483.21 835.69 1481.49 841.204 1479.42 846.718C1478.04 849.475 1476.66 851.886 1475.28 853.954C1473.22 856.022 1470.11 858.09 1467.01 857.056C1470.11 858.09 1472.18 856.022 1474.25 852.921C1475.63 850.853 1476.66 848.44 1477.35 845.684C1478.39 840.514 1479.42 834.312 1480.45 829.142C1481.83 818.115 1482.52 806.743 1482.52 795.026Z" fill="#EFE3CD"/>
<path fill-rule="evenodd" clip-rule="evenodd" d="M980.077 1217.86C989.382 1189.95 1024.53 1165.14 1058.65 1161C1070.02 1161 1081.39 1163.07 1089.66 1168.24C1098.97 1172.37 1105.17 1181.68 1105.17 1192.02C1105.17 1201.32 1101.04 1211.66 1094.83 1219.93C1088.63 1227.17 1081.39 1234.4 1072.09 1240.61C1055.55 1251.98 1034.87 1260.25 1014.19 1259.21C1003.86 1258.18 993.517 1255.08 986.281 1247.84C979.044 1240.61 978.01 1228.2 980.077 1217.86ZM1041.07 1216.83C1020.4 1229.23 1006.96 1207.52 1001.79 1226.13C995.585 1245.77 1010.06 1257.15 1032.8 1250.94C1055.55 1245.78 1079.33 1225.1 1084.5 1206.49C1090.7 1186.85 1063.82 1203.39 1041.07 1216.83Z" fill="#DCD1BD"/>
<path d="M1036.95 1053.48C1044.18 1051.41 1051.42 1051.41 1056.59 1054.52C1062.79 1057.62 1065.89 1062.79 1067.96 1067.96C1071.06 1080.36 1067.96 1093.8 1061.76 1105.17C1055.56 1116.55 1045.22 1125.85 1032.81 1127.92C1026.61 1128.95 1020.4 1127.92 1016.27 1123.78C1011.1 1119.65 1008 1113.44 1005.93 1106.21C1004.9 1085.53 1018.34 1061.75 1036.95 1053.48Z" fill="#DCD1BD"/>
<path d="M933.56 1184.78C940.797 1185.82 948.033 1189.95 946.999 1196.15C946.999 1201.32 941.83 1206.49 936.661 1210.63C931.492 1213.73 924.255 1216.83 918.052 1216.83C914.95 1216.83 911.849 1215.8 909.781 1213.73C906.68 1211.66 906.68 1208.56 906.68 1204.43C909.781 1195.12 921.154 1186.85 933.56 1184.78Z" fill="#DCD1BD"/>
<path d="M326.699 978.014C325.665 965.608 334.97 961.473 349.444 969.743C357.025 976.636 363.228 984.562 368.053 993.522C370.121 997.657 372.188 1002.83 372.188 1006.96C372.188 1009.03 371.844 1010.75 371.155 1012.13C370.121 1013.17 370.121 1013.16 368.053 1014.2C365.985 1014.2 360.816 1013.16 356.681 1011.1C352.545 1009.03 348.41 1005.93 344.275 1002.83C337.038 995.59 330.835 988.352 326.699 978.014Z" fill="#DCD1BD"/>
<path d="M760.898 721.619C753.661 706.112 748.492 689.57 748.492 673.029C747.458 656.487 749.526 639.946 755.729 624.438C748.492 656.488 752.627 689.571 768.135 717.484C783.643 744.364 809.489 765.041 839.47 773.311C869.452 781.582 902.534 777.447 930.448 761.939C957.328 746.432 979.039 720.585 991.445 690.604C987.31 706.112 980.073 721.619 970.768 735.059C961.464 748.499 949.058 760.906 934.584 769.176C906.67 787.786 869.452 793.989 836.369 784.684C803.286 775.379 775.372 751.601 760.898 721.619Z" fill="#DCD1BD"/>
<path d="M630.642 795.024C623.405 779.517 623.406 760.907 629.609 746.434C627.541 761.941 630.642 778.483 637.879 790.889C646.15 803.295 657.522 812.6 671.996 815.701C685.436 819.837 700.944 817.769 713.35 811.566C726.79 804.329 737.128 792.956 744.365 778.482C742.297 795.024 731.959 809.498 718.519 818.803C704.045 829.141 685.436 832.242 668.895 827.073C651.319 822.938 636.845 810.532 630.642 795.024Z" fill="#DCD1BD"/>
<path d="M854.982 659.59C867.388 617.202 862.219 581.018 896.335 590.322C930.452 600.661 948.027 643.048 936.655 685.436C924.249 726.789 885.997 753.67 851.88 743.331C817.763 734.027 842.576 700.943 854.982 659.59Z" fill="#EFE3CD"/>
<path d="M285.343 418.709C319.46 372.186 285.343 339.103 326.697 326.696C367.017 314.29 388.728 350.475 374.254 406.302C359.78 463.164 314.291 518.991 273.971 530.363C232.617 542.77 227.448 497.281 285.343 418.709Z" fill="#EFE3CD"/>
<path d="M527.268 345.305C546.911 322.56 524.166 300.85 548.978 298.782C573.791 296.714 588.264 318.425 579.994 346.338C572.757 374.252 545.877 399.064 521.065 401.132C496.253 403.199 489.016 390.794 527.268 345.305Z" fill="#EFE3CD"/>
<path d="M1016.28 191.259C1013.18 199.53 993.533 191.259 967.687 169.549C947.01 151.973 921.164 151.973 925.299 143.703C929.435 135.432 952.179 139.567 978.025 153.007C1002.84 165.413 1020.41 182.988 1016.28 191.259Z" fill="#EFE3CD"/>
<path d="M1133.09 282.237C1115.52 250.188 1085.54 258.459 1095.87 246.053C1106.21 232.613 1138.26 239.85 1166.18 262.594C1195.12 285.339 1209.6 314.286 1199.26 327.726C1188.92 341.166 1155.84 326.692 1133.09 282.237Z" fill="#EFE3CD"/>
<path d="M435.241 1257.15C432.139 1279.9 396.989 1275.76 357.703 1248.88C318.417 1222 288.435 1181.68 291.537 1158.94C294.639 1136.19 300.842 1164.11 348.398 1185.82C424.903 1220.97 438.342 1234.41 435.241 1257.15Z" fill="#EFE3CD"/>
<path d="M138.542 974.911C147.846 968.708 134.406 1009.03 160.252 1032.81C180.929 1051.42 197.47 1081.4 188.166 1087.6C178.861 1093.8 160.252 1074.16 146.812 1043.14C133.372 1012.13 129.237 981.114 138.542 974.911Z" fill="#EFE3CD"/>
<path d="M186.089 771.244C201.596 766.075 186.089 798.125 198.495 823.971C210.901 847.749 223.307 867.392 207.799 872.561C192.292 877.731 175.751 859.121 169.547 831.208C163.344 803.294 170.581 776.414 186.089 771.244Z" fill="#EFE3CD"/>
<path d="M682.337 761.941C689.574 739.197 680.27 714.385 701.98 720.588C724.725 726.791 737.131 750.569 729.894 773.313C723.691 796.058 699.913 809.498 678.202 803.295C655.457 797.092 676.134 784.686 682.337 761.941Z" fill="#EFE3CD"/>
<path d="M1270.59 1027.64C1273.7 1068.99 1244.75 1125.85 1207.53 1153.76C1169.28 1181.68 1136.2 1170.31 1134.13 1127.92C1131.03 1086.56 1168.24 1112.41 1192.02 1072.09C1233.38 997.654 1267.49 985.248 1270.59 1027.64Z" fill="#EFE3CD"/>
<path d="M1041.09 1216.83C1063.83 1203.39 1090.71 1186.85 1084.51 1206.49C1079.34 1225.1 1055.56 1245.78 1032.82 1250.95C1010.07 1257.15 995.597 1245.78 1001.8 1226.13C1006.97 1207.53 1020.41 1229.24 1041.09 1216.83Z" fill="#EFE3CD"/>
<path d="M600.658 1299.54C599.624 1283 615.132 1302.64 638.91 1305.74C663.723 1308.85 687.501 1294.37 688.535 1310.91C689.568 1328.49 670.959 1339.86 647.181 1336.76C622.369 1333.66 601.692 1317.12 600.658 1299.54Z" fill="#EFE3CD"/>
</svg>
