<svg width="169" height="48" viewBox="0 0 169 48" fill="none" xmlns="http://www.w3.org/2000/svg">
<g clip-path="url(#clip0_2568_17193)">
<path d="M36.4868 9.09347C36.4541 8.85508 36.2459 8.72282 36.073 8.70843C35.9015 8.69403 32.5409 8.64297 32.5409 8.64297C32.5409 8.64297 29.7303 5.91364 29.4527 5.63599C29.1751 5.35835 28.6329 5.44217 28.422 5.50503C28.4194 5.50634 27.8943 5.66874 27.0103 5.94245C26.8623 5.46312 26.6448 4.87378 26.3344 4.28181C25.3339 2.37234 23.8684 1.3626 22.0977 1.35999C22.0951 1.35999 22.0938 1.35999 22.0912 1.35999C21.968 1.35999 21.8463 1.37178 21.7232 1.38225C21.6708 1.31938 21.6184 1.25784 21.5634 1.19759C20.792 0.372509 19.8033 -0.0295536 18.618 0.00580692C16.3313 0.0712895 14.0539 1.72276 12.2073 4.65638C10.9081 6.72038 9.91929 9.31353 9.63905 11.3212C7.01318 12.1345 5.17705 12.7028 5.13645 12.716C3.81108 13.1324 3.76918 13.173 3.5963 14.4225C3.46796 15.3667 0 42.1831 0 42.1831L29.0625 47.2095L41.6586 44.0781C41.6586 44.0781 36.5196 9.33186 36.4868 9.09347ZM25.5552 6.39297C24.886 6.5999 24.125 6.83564 23.3 7.09102C23.283 5.93329 23.1454 4.32242 22.6059 2.93025C24.3412 3.25898 25.195 5.22215 25.5552 6.39297ZM21.7795 7.56249C20.2564 8.03393 18.5944 8.54863 16.9272 9.06467C17.3961 7.26913 18.2854 5.48146 19.3776 4.30932C19.7836 3.87321 20.3519 3.38732 21.0251 3.10968C21.6577 4.4298 21.7952 6.29868 21.7795 7.56249ZM18.6638 1.52762C19.2008 1.51583 19.6526 1.6337 20.039 1.88777C19.4208 2.20864 18.8236 2.66964 18.2631 3.27077C16.8106 4.82925 15.6975 7.24818 15.2535 9.58197C13.8692 10.0102 12.515 10.4307 11.2682 10.8157C12.0554 7.1421 15.1343 1.62977 18.6638 1.52762Z" fill="#95BF47"/>
<path d="M36.073 8.70986C35.9015 8.69547 32.5409 8.6444 32.5409 8.6444C32.5409 8.6444 29.7305 5.91507 29.4528 5.63743C29.3494 5.53396 29.2092 5.48027 29.0625 5.45801L29.0638 47.2084L41.6588 44.0783C41.6588 44.0783 36.5197 9.3333 36.487 9.09491C36.4542 8.85652 36.2446 8.72426 36.073 8.70986Z" fill="#5E8E3E"/>
<path d="M22.0815 15.186L20.6187 20.6589C20.6187 20.6589 18.9869 19.9164 17.0525 20.0382C14.2158 20.2176 14.1856 22.0066 14.2145 22.4558C14.369 24.9035 20.8085 25.4379 21.1701 31.1715C21.4542 35.682 18.7773 38.7675 14.9204 39.0111C10.2908 39.3031 7.74219 36.5725 7.74219 36.5725L8.72313 32.4C8.72313 32.4 11.2887 34.3357 13.3422 34.206C14.6833 34.1209 15.1626 33.0299 15.1142 32.2585C14.9125 29.0656 9.66867 29.2542 9.33736 24.0077C9.05837 19.5929 11.958 15.1192 18.3556 14.7158C20.8203 14.5573 22.0815 15.186 22.0815 15.186Z" fill="white"/>
<path d="M58.2448 26.6464C56.7964 25.8605 56.052 25.1981 56.052 24.2875C56.052 23.1288 57.086 22.3845 58.7007 22.3845C60.5803 22.3845 62.2585 23.1704 62.2585 23.1704L63.5822 19.115C63.5822 19.115 62.365 18.1628 58.7825 18.1628C53.797 18.1628 50.3418 21.0179 50.3418 25.0318C50.3418 27.3076 51.9551 29.0456 54.1075 30.2861C55.8455 31.2785 56.4664 31.9826 56.4664 33.0166C56.4664 34.0922 55.5975 34.9611 53.9841 34.9611C51.5797 34.9611 49.3091 33.7193 49.3091 33.7193L47.9023 37.7747C47.9023 37.7747 50.0002 39.1815 53.5294 39.1815C58.6604 39.1815 62.343 36.6576 62.343 32.106C62.3417 29.6665 60.4803 27.9285 58.2448 26.6464Z" fill="black"/>
<path d="M78.6891 18.1226C76.165 18.1226 74.1789 19.3229 72.6487 21.1428L72.5655 21.1012L74.7582 9.64038H69.0479L63.5039 38.8101H69.2142L71.1172 28.8392C71.8615 25.0735 73.806 22.7574 75.6272 22.7574C76.9093 22.7574 77.4068 23.6264 77.4068 24.8682C77.4068 25.6541 77.3237 26.6063 77.1587 27.3922L75.0076 38.8114H80.7182L82.9518 27.0193C83.2004 25.7775 83.3664 24.2889 83.3664 23.2952C83.3641 20.0672 81.6678 18.1226 78.6891 18.1226Z" fill="black"/>
<path d="M96.2707 18.1227C89.4014 18.1227 84.8516 24.3292 84.8516 31.2384C84.8516 35.6653 87.5816 39.2232 92.7129 39.2232C99.4571 39.2232 104.008 33.183 104.008 26.1075C104.008 22.0118 101.608 18.1227 96.2707 18.1227ZM93.4572 34.8391C91.5123 34.8391 90.6846 33.1843 90.6846 31.115C90.6846 27.8468 92.3817 22.5094 95.4847 22.5094C97.5122 22.5094 98.1731 24.2473 98.1731 25.9438C98.1731 29.4601 96.4784 34.8391 93.4572 34.8391Z" fill="black"/>
<path d="M118.615 18.1224C114.761 18.1224 112.573 21.5154 112.573 21.5154H112.492L112.823 18.4537H107.775C107.527 20.5229 107.071 23.6665 106.617 26.0254L102.645 46.9194H108.355L109.926 38.4786H110.051C110.051 38.4786 111.223 39.223 113.403 39.223C120.105 39.223 124.491 32.3553 124.491 25.4032C124.491 21.557 122.794 18.1224 118.615 18.1224ZM113.153 34.9207C111.671 34.9207 110.794 34.0933 110.794 34.0933L111.746 28.7559C112.408 25.198 114.27 22.839 116.256 22.839C117.994 22.839 118.532 24.4524 118.532 25.9839C118.532 29.6664 116.339 34.9207 113.153 34.9207Z" fill="black"/>
<path d="M132.639 9.93005C130.82 9.93005 129.371 11.3784 129.371 13.2398C129.371 14.9363 130.447 16.095 132.06 16.095H132.143C133.923 16.095 135.453 14.8947 135.494 12.7852C135.494 11.1303 134.377 9.93005 132.639 9.93005Z" fill="black"/>
<path d="M124.656 38.8097H130.365L134.256 18.5782H128.504L124.656 38.8097Z" fill="black"/>
<path d="M148.779 18.5371H144.807L145.013 17.585C145.344 15.6404 146.503 13.9024 148.406 13.9024C149.422 13.9024 150.226 14.1921 150.226 14.1921L151.343 9.72363C151.343 9.72363 150.351 9.22742 148.24 9.22742C146.212 9.22742 144.186 9.80671 142.654 11.1304C140.71 12.7853 139.799 15.1845 139.345 17.585L139.18 18.5371H136.531L135.703 22.8406H138.352L135.332 38.8115H141.042L144.063 22.8406H147.993L148.779 18.5371Z" fill="black"/>
<path d="M162.513 18.5786C162.513 18.5786 158.943 27.5713 157.341 32.4802H157.257C157.149 30.8993 155.851 18.5786 155.851 18.5786H149.851L153.287 37.1551C153.37 37.5683 153.328 37.8177 153.162 38.1073C152.499 39.3894 151.383 40.6312 150.059 41.5418C148.983 42.3277 147.783 42.8239 146.832 43.1551L148.404 47.9964C149.563 47.7483 151.962 46.7962 153.989 44.8931C156.597 42.4524 158.995 38.6867 161.478 33.5557L168.47 18.5773H162.513V18.5786Z" fill="black"/>
</g>
<defs>
<clipPath id="clip0_2568_17193">
<rect width="168.471" height="47.9926" fill="white" transform="translate(0 0.00366211)"/>
</clipPath>
</defs>
</svg>
