<svg width="103" height="62" viewBox="0 0 103 62" fill="none" xmlns="http://www.w3.org/2000/svg">
<g clip-path="url(#clip0_2568_17192)">
<g clip-path="url(#clip1_2568_17192)">
<path d="M9.96457 0.316162H93.2184C98.487 0.316162 102.752 4.59786 102.752 9.88751V41.7915C102.752 47.0807 98.4874 51.3628 93.2184 51.3628H63.3628L67.4608 61.4375L49.4384 51.3628H10.0069C4.73833 51.3628 0.472961 47.0811 0.472961 41.7915V9.88751C0.431146 4.63997 4.69598 0.316162 9.96457 0.316162Z" fill="#7F54B3"/>
<path d="M6.29735 9.04006C6.87942 8.24701 7.75255 7.82959 8.9167 7.74613C11.0371 7.57917 12.2429 8.58093 12.5339 10.7514C13.8228 19.4752 15.2364 26.863 16.7334 32.9156L25.8386 15.51C26.6702 13.9239 27.7096 13.0891 28.9569 13.0056C30.7863 12.8804 31.9089 14.0491 32.3662 16.5118C33.4056 22.0634 34.7361 26.7798 36.316 30.7868C37.397 20.1846 39.2264 12.5466 41.8044 7.82967C42.428 6.66096 43.3427 6.07661 44.5484 5.9931C45.5047 5.90962 46.3778 6.2018 47.1678 6.8279C47.9577 7.45401 48.3735 8.24705 48.4567 9.20708C48.4983 9.95841 48.3735 10.5845 48.0409 11.2106C46.4194 14.2159 45.0889 19.2666 44.008 26.2786C42.9686 33.0823 42.5944 38.3832 42.8439 42.1816C42.927 43.2251 42.7607 44.1434 42.345 44.9364C41.846 45.8547 41.0976 46.3556 40.1414 46.4391C39.0604 46.5225 37.9378 46.0217 36.8568 44.8947C32.9902 40.9294 29.9134 35.0025 27.6685 27.1133C24.966 32.4559 22.9704 36.4633 21.6815 39.1346C19.2285 43.851 17.1497 46.2721 15.4033 46.3972C14.2807 46.4807 13.3245 45.5206 12.4929 43.5171C10.3725 38.049 8.08572 27.4889 5.63261 11.8366C5.4663 10.7513 5.71576 9.79131 6.29783 9.03998L6.29735 9.04006ZM95.648 15.5932C94.1512 12.9635 91.9476 11.3772 88.9958 10.7511C88.2059 10.5842 87.4575 10.5007 86.7507 10.5007C82.7593 10.5007 79.5164 12.5877 76.9802 16.7618C74.8182 20.3097 73.7372 24.2334 73.7372 28.5324C73.7372 31.7463 74.4024 34.5011 75.7329 36.7969C77.2296 39.4266 79.4332 41.0128 82.385 41.639C83.175 41.8059 83.9234 41.8894 84.6302 41.8894C88.663 41.8894 91.906 39.8024 94.4007 35.6283C96.5627 32.0386 97.6437 28.115 97.6437 23.816C97.6853 20.5603 96.9785 17.8473 95.648 15.5932ZM90.4094 27.1551C89.8273 29.91 88.7879 31.9551 87.2495 33.3328C86.0438 34.4181 84.9212 34.8772 83.8818 34.6685C82.8839 34.4598 82.0524 33.5833 81.4288 31.9554C80.9298 30.6615 80.6804 29.3676 80.6804 28.1571C80.6804 27.1136 80.7635 26.0701 80.9714 25.1101C81.3456 23.3987 82.0524 21.7291 83.175 20.1429C84.547 18.0976 86.0022 17.2628 87.4991 17.555C88.4969 17.7637 89.3285 18.6403 89.9521 20.2681C90.451 21.5621 90.7005 22.856 90.7005 24.0665C90.7005 25.1517 90.6173 26.1951 90.4094 27.1551ZM69.6207 15.5932C68.1239 12.9635 65.8787 11.3772 62.9685 10.7511C62.1786 10.5842 61.4302 10.5007 60.7234 10.5007C56.732 10.5007 53.4891 12.5877 50.9529 16.7618C48.7909 20.3097 47.7099 24.2334 47.7099 28.5324C47.7099 31.7463 48.3751 34.5011 49.7056 36.7969C51.2023 39.4266 53.4059 41.0128 56.3577 41.639C57.1477 41.8059 57.8961 41.8894 58.6029 41.8894C62.6357 41.8894 65.8787 39.8024 68.3734 35.6283C70.5354 32.0386 71.6164 28.115 71.6164 23.816C71.6164 20.5603 70.9512 17.8473 69.6207 15.5932ZM64.3405 27.1551C63.7584 29.91 62.719 31.9551 61.1807 33.3328C59.9749 34.4181 58.8524 34.8772 57.8129 34.6685C56.8151 34.4598 55.9835 33.5833 55.3599 31.9554C54.861 30.6615 54.6115 29.3676 54.6115 28.1571C54.6115 27.1136 54.6946 26.0701 54.9025 25.1101C55.2767 23.3987 55.9836 21.7291 57.1061 20.1429C58.4781 18.0976 59.9333 17.2628 61.4302 17.555C62.4281 17.7637 63.2596 18.6403 63.8832 20.2681C64.3822 21.5621 64.6316 22.856 64.6316 24.0665C64.6732 25.1517 64.5484 26.1951 64.3405 27.1551Z" fill="white"/>
</g>
</g>
<defs>
<clipPath id="clip0_2568_17192">
<rect width="102.279" height="61.3676" fill="white" transform="translate(0.472656 0.316162)"/>
</clipPath>
<clipPath id="clip1_2568_17192">
<rect width="102.279" height="61.3676" fill="white" transform="translate(0.472656 0.316162)"/>
</clipPath>
</defs>
</svg>
