<?xml version="1.0" encoding="utf-8"?>
<!-- Generator: Adobe Illustrator 25.2.1, SVG Export Plug-In . SVG Version: 6.00 Build 0)  -->
<svg version="1.1" id="Layer_1" xmlns="http://www.w3.org/2000/svg" xmlns:xlink="http://www.w3.org/1999/xlink" x="0px" y="0px"
	 viewBox="0 0 178.8 37.2" style="enable-background:new 0 0 178.8 37.2;" xml:space="preserve">
<style type="text/css">
	.st0{fill:#FF7600;}
	.st1{fill:#FFCB00;}
	.st2{fill:#FF0006;}
	.st3{fill:#E57F43;}
</style>
<g id="Layer_2_1_">
	<g id="Layer_1-2">
		<circle class="st0" cx="18.2" cy="19" r="18.2"/>
		<path class="st1" d="M18.2,1.8C9.8,1.7,3,8.5,3,16.9c0,0,0,0,0,0.1c0,0.8,0.1,1.6,0.2,2.4c2-5.1,7.3-8.8,13.7-8.8
			c5-0.1,9.6,2.3,12.5,6.4h0c1.5,0,2.9,0.5,4,1.4c0-0.5,0.1-0.9,0.1-1.4C33.4,8.6,26.6,1.8,18.2,1.8C18.2,1.8,18.2,1.8,18.2,1.8"/>
		<path class="st2" d="M33.4,18.4c-1.1-0.9-2.5-1.4-4-1.4h0c-4.5,0-9.2,3.9-10.5,8.7c-0.7,2.2-0.4,4.6,0.9,6.5
			c-0.5,0-0.9,0.1-1.4,0.1c-7.5,0-13.8-5.4-15-12.8c-0.5,1.4-0.8,2.8-0.8,4.3c0,3.7,1.6,7.1,4.4,9.5c7.9,6.3,19.3,5,25.6-2.9
			c0.9-1.2,1.7-2.4,2.3-3.7c0.1-0.3,0.2-0.6,0.3-0.9C36,22.6,35.2,19.9,33.4,18.4"/>
		<path d="M101,23.8c-2.8,0-4.1-1.5-4.1-4.3V2.1h-8.7v13c-2.9-6.2-10.3-8.9-16.5-6c-2.6,1.2-4.8,3.4-6,6v-7h-8.6v12.2
			c0,2.2-1.1,3.6-3.1,3.6s-3.1-1.5-3.1-3.7V8.2h-8.7v12.3c0,7.5,4.6,12.3,11.8,12.3c5.7,0,9.8-3.2,11.2-8.4
			c2.2,6.5,9.3,9.9,15.8,7.7c3.5-1.2,6.3-4,7.6-7.5c1.3,5.5,5.5,8,11.1,8h2.2v-8.7H101z M76.9,24c-2.1,0-3.7-1.7-3.7-3.7
			s1.7-3.7,3.7-3.7c2.1,0,3.7,1.7,3.7,3.7C80.7,22.3,79,24,76.9,24z"/>
		<path class="st3" d="M114.5,25.8c0-1.2,0.2-2.4,0.7-3.5c0.4-0.9,1.1-1.7,2-2.2c1-0.6,2.1-1,3.2-1.2c1.4-0.2,2.9-0.4,4.3-0.4
			c0.5,0,1.1,0,1.6,0.1l1.5,0.2c0.5,0.1,0.9,0.1,1.3,0.2l1,0.2v-0.7c0-1-0.1-2-0.3-3c-0.2-0.7-0.5-1.4-0.9-2c-0.4-0.5-1-0.9-1.6-1.1
			c-0.7-0.2-1.5-0.3-2.3-0.3c-0.6,0-1.3,0-2,0.1s-1.5,0.1-2.2,0.2s-1.5,0.2-2.3,0.4s-1.5,0.3-2.3,0.5l-0.6-3.5
			c1.3-0.2,2.8-0.5,4.5-0.7c1.8-0.3,3.7-0.4,5.5-0.4c1.4,0,2.7,0.2,4,0.7c1,0.4,1.9,1,2.6,1.8c0.7,0.8,1.2,1.7,1.5,2.7
			c0.3,1.1,0.4,2.3,0.4,3.4v9l0.5,6.3h-3.2l-1-3.3l-3,3c-0.8,0.3-1.5,0.4-2.3,0.5c-0.8,0.1-1.8,0.1-2.9,0.1c-1,0-2.1-0.1-3.1-0.4
			c-0.9-0.2-1.7-0.6-2.4-1.2c-0.7-0.6-1.2-1.3-1.6-2.2C114.8,28.1,114.5,26.9,114.5,25.8z M118.5,25.9c0,0.6,0.1,1.3,0.3,1.8
			c0.2,0.5,0.5,0.9,0.9,1.2c0.4,0.3,0.9,0.5,1.5,0.6c0.7,0.1,1.3,0.2,2,0.2c1.3,0,2.7-0.1,4-0.5c1-0.3,2-0.7,3-1.2v-6.3h-5.6
			c-1,0-1.9,0.1-2.8,0.2c-0.7,0.1-1.3,0.4-1.9,0.7c-0.5,0.3-0.8,0.8-1,1.3C118.7,24.5,118.5,25.2,118.5,25.9L118.5,25.9z"/>
		<path class="st3" d="M137.3,20.8c0-4,0.9-7,2.6-9.1s4.4-3.1,7.9-3.1c0.5,0,1.1,0,1.6,0.1l1.5,0.1c0.5,0.1,0.9,0.1,1.3,0.2l0.9,0.2
			V0h3.8v32.5h-2.6c-0.2-0.6-0.4-1.1-0.6-1.6s-0.3-0.8-0.4-1.1s-0.2-0.5-0.2-0.5v-0.1l-2.5,3c-0.5,0.2-1,0.4-1.6,0.5
			c-0.8,0.1-1.5,0.2-2.3,0.2c-1.4,0-2.8-0.2-4.1-0.5c-1.1-0.4-2.2-1-2.9-2c-0.9-1.1-1.5-2.4-1.8-3.7
			C137.5,24.7,137.3,22.8,137.3,20.8z M141.2,20.8c0,1.4,0.1,2.9,0.3,4.3c0.2,1,0.5,1.9,1.1,2.8c0.4,0.7,1.1,1.2,1.8,1.5
			c0.8,0.3,1.8,0.5,2.7,0.5c0.7,0,1.3,0,2-0.2c0.5-0.1,1.1-0.3,1.6-0.4c0.5-0.2,0.9-0.4,1.3-0.6c0.4-0.2,0.7-0.5,1.1-0.8V11.9h-4.9
			c-1.1,0-2.2,0.1-3.3,0.4c-0.8,0.3-1.6,0.8-2.1,1.5c-0.6,0.8-1,1.7-1.2,2.7C141.3,17.9,141.2,19.3,141.2,20.8L141.2,20.8z"/>
		<path class="st3" d="M170.1,32.8c-0.9,0-1.7,0-2.5-0.1c-0.8,0-1.5-0.1-2.3-0.2s-1.5-0.2-2.2-0.3s-1.5-0.3-2.2-0.5l0.6-3.5
			c0.7,0.2,1.4,0.4,2.1,0.5s1.5,0.3,2.2,0.5s1.5,0.2,2.2,0.3s1.4,0.1,2,0.1c0.8,0,1.6-0.1,2.4-0.2c0.6-0.1,1.1-0.4,1.5-0.7
			c0.4-0.3,0.7-0.6,0.8-1.1c0.4-1,0.3-2.1-0.1-3.1c-0.2-0.5-0.6-0.9-1.1-1.2c-0.6-0.3-1.2-0.6-1.9-0.8c-0.8-0.2-1.7-0.4-2.7-0.6
			c-1.2-0.2-2.4-0.4-3.6-0.8c-0.9-0.2-1.8-0.6-2.5-1.2c-0.7-0.5-1.2-1.2-1.5-2c-0.4-1-0.5-2-0.5-3c0-0.9,0.2-1.8,0.6-2.6
			c0.4-0.8,0.9-1.5,1.6-2c0.8-0.6,1.6-1,2.6-1.3c1.1-0.3,2.3-0.5,3.5-0.5c1.6,0,3.1,0.1,4.7,0.4c1.4,0.2,2.6,0.5,3.8,0.8l-0.8,3.3
			c-1.2-0.4-2.5-0.7-3.8-0.9c-1.3-0.2-2.6-0.3-3.9-0.4c-1.2-0.1-2.4,0.2-3.5,0.8c-0.7,0.4-1.2,1.2-1.1,2.1c0,0.5,0.1,1.1,0.3,1.6
			c0.2,0.4,0.6,0.8,1,1.1c0.6,0.3,1.3,0.6,2,0.8c0.8,0.2,1.9,0.4,3.2,0.7c1.1,0.2,2.2,0.4,3.2,0.7c0.9,0.2,1.7,0.6,2.5,1.2
			c0.7,0.5,1.3,1.2,1.6,2c0.4,1,0.7,2,0.6,3.1c0.1,2-0.7,3.9-2.1,5.2C175.2,32.3,173,32.9,170.1,32.8z"/>
	</g>
</g>
</svg>
