<svg width="82" height="50" viewBox="0 0 82 50" fill="none" xmlns="http://www.w3.org/2000/svg">
<g clip-path="url(#clip0_147_12165)">
<path fill-rule="evenodd" clip-rule="evenodd" d="M81.3686 11.508L0.860509 49.0673C0.399805 49.0673 -0.245182 48.65 0.860509 46.9807C1.9662 45.3114 16.5245 15.6812 23.6654 1.07479C23.7805 0.842942 24.2182 0.727018 25.0475 2.11811C25.8768 3.50919 33.6857 18.9271 37.4865 26.4621L81.0231 10.4646C81.4838 10.4646 82.1979 10.6733 81.3686 11.508ZM35.7589 41.7641L42.3239 38.2864C42.4391 38.1705 42.8076 38.1473 43.3605 38.9819C43.9133 39.8166 45.2033 42.1119 45.7792 43.1552C45.8944 43.387 45.7792 43.8507 44.3971 43.8507H36.1044C35.9576 43.7029 35.8731 43.618 35.8246 43.5157C35.7589 43.3774 35.7589 43.2074 35.7589 42.8074V41.7641ZM16.7548 34.1131L23.6654 17.4201L30.2304 29.2443L16.7548 34.1131Z" fill="#DE4141"/>
</g>
<defs>
<clipPath id="clip0_147_12165">
<rect width="81.5" height="48.1342" fill="white" transform="translate(0.25 0.933105)"/>
</clipPath>
</defs>
</svg>
