<svg width="220" height="212" viewBox="0 0 220 212" fill="none" xmlns="http://www.w3.org/2000/svg">
<path d="M20.7056 118.707C21.8556 119.855 23.3342 121.332 24.8128 122.809C26.2914 124.286 27.77 125.927 29.4129 127.567C30.8915 129.208 32.5344 130.849 34.013 132.49C35.3273 133.967 36.6416 135.444 37.7917 136.756C38.9417 137.905 39.9275 139.054 40.5846 139.874C41.2418 140.53 41.5703 141.022 41.5703 141.022C41.5703 141.022 41.0775 140.53 40.4203 139.874C39.7632 139.218 38.6131 138.233 37.4631 137.084C36.313 135.936 34.8344 134.459 33.3558 132.982C31.8772 131.505 30.2343 129.865 28.7557 128.224C27.1128 126.583 25.6343 124.942 24.1557 123.465C22.677 121.824 21.3627 120.348 20.2127 119.199C19.0626 117.886 18.2412 116.738 17.5841 116.081C16.9269 115.261 16.5983 114.769 16.5983 114.769C16.5983 114.769 16.9269 115.261 17.7483 115.917C18.4055 116.574 19.3912 117.558 20.7056 118.707Z" fill="#EFE3CD"/>
<path d="M34.8339 135.443L36.3125 136.92C35.2172 139.108 34.1767 141.241 33.191 143.32C31.9862 145.836 30.8362 148.242 29.7409 150.539C29.4123 149.664 29.029 148.789 28.5909 147.914C28.7004 147.805 28.8099 147.64 28.9195 147.422C29.9052 145.343 30.9457 143.21 32.041 141.022C33.0267 139.163 33.9577 137.303 34.8339 135.443Z" fill="#EFE3CD"/>
<path d="M45.0195 110.665C44.4719 111.54 43.9243 112.415 43.3766 113.291C42.829 114.384 42.2266 115.478 41.5694 116.572L39.7623 119.854C38.0099 123.136 36.3122 126.363 34.6693 129.535L32.8621 127.73C36.1479 121.385 39.3241 115.533 42.3909 110.173L45.0195 110.665Z" fill="#EFE3CD"/>
<path d="M25.7949 141.678C27.4378 138.506 29.1902 135.115 31.0522 131.505L32.8594 133.31C31.7641 135.498 30.6688 137.686 29.5736 139.873C28.8069 141.514 28.0402 143.155 27.2735 144.796C26.8354 143.811 26.3426 142.772 25.7949 141.678Z" fill="#EFE3CD"/>
<path d="M37.3013 167.604C36.1513 164.979 34.0155 160.22 30.5654 152.344C32.7012 148.078 35.1655 143.319 37.6299 138.233L41.4085 142.171C41.299 142.389 41.2442 142.608 41.2442 142.827C41.2442 144.796 42.8872 146.273 44.6943 146.273C46.6658 146.273 48.1444 144.796 48.1444 142.827C48.1444 140.858 46.6658 139.381 44.6943 139.381C44.5848 139.381 44.4205 139.381 44.2014 139.381L39.437 134.623C40.5323 132.435 41.6276 130.247 42.7228 128.059C44.1467 125.324 45.5705 122.644 46.9944 120.019C48.3087 117.284 49.6778 114.659 51.1016 112.143C51.1016 112.033 51.1564 111.924 51.2659 111.814L68.0234 114.768C65.3948 120.128 62.4376 125.926 59.1518 132.161C51.4302 146.601 44.0372 158.251 37.3013 167.604Z" fill="#EFE3CD"/>
<path d="M15.6138 124.942C16.5996 127.403 18.0782 130.192 19.3925 133.146C20.7068 136.099 22.1854 139.381 23.664 142.663C25.1426 145.945 26.6212 149.062 27.9356 152.18C29.2499 155.134 30.5642 158.087 31.55 160.548C32.5357 163.01 33.3571 164.979 34.0143 166.456C34.6715 167.932 35 168.753 35 168.753C35 168.753 34.5072 167.932 33.85 166.456C33.1928 165.143 32.2071 163.174 31.0571 160.713C29.907 158.251 28.5927 155.462 27.1141 152.508C25.7998 149.391 24.3212 146.273 22.8426 142.991C21.364 139.709 20.0496 136.592 18.571 133.474C17.2567 130.521 16.1067 127.567 14.9567 125.106C13.971 122.644 13.1495 120.675 12.4924 119.199C11.9995 117.722 11.6709 116.901 11.6709 116.901C11.6709 116.901 11.9995 117.722 12.6567 119.199C13.4781 120.511 14.4638 122.48 15.6138 124.942Z" fill="#EFE3CD"/>
<path d="M55.2057 98.851C55.7534 97.9759 56.301 97.1555 56.8486 96.3897L58.9844 96.0615C58.5463 96.7179 58.1082 97.3742 57.6701 98.0306C55.6986 100.82 53.7271 104.266 51.5913 107.876L49.9484 107.548C51.1532 105.688 52.3033 103.828 53.3985 101.969C54.0557 100.875 54.6581 99.8355 55.2057 98.851Z" fill="#EFE3CD"/>
<path d="M60.9544 110.993C58.8186 110.501 56.19 110.173 53.3971 109.681C50.4398 109.188 47.4826 108.696 44.5254 108.204C41.5682 107.548 38.611 107.055 35.6538 106.399C32.8609 105.907 30.3965 105.414 28.0965 104.922C25.7964 104.43 23.9892 104.102 22.6749 103.774C21.3606 103.445 20.7034 103.281 20.7034 103.281C20.7034 103.281 21.3606 103.445 22.6749 103.609C23.9892 103.774 25.9607 103.938 28.2608 104.43C30.3965 104.758 33.0251 105.086 35.818 105.579C38.611 106.071 41.7325 106.727 44.6897 107.219C47.6469 107.712 50.6041 108.368 53.3971 108.86C56.3543 109.353 58.8186 110.009 61.1187 110.337C63.4187 110.829 65.2259 111.322 66.5402 111.486C67.8545 111.814 68.5117 111.978 68.5117 111.978C68.5117 111.978 67.8545 111.978 66.5402 111.814C65.2259 111.486 63.2544 111.322 60.9544 110.993Z" fill="#EFE3CD"/>
<path d="M5.75602 97.8674C5.09886 98.6878 4.27743 100.001 3.62027 101.313C2.79882 102.626 2.14164 103.939 1.64878 104.923C1.53925 105.47 1.4297 105.908 1.32018 106.236C1.32018 106.564 1.32018 106.728 1.32018 106.728C1.32018 106.728 1.15593 106.564 1.15593 106.236C1.15593 105.908 1.15593 105.415 1.15593 104.759C1.26545 104.212 1.4845 103.61 1.81307 102.954C1.97736 102.298 2.47024 101.477 2.79882 100.821C3.23693 100.165 3.67501 99.5629 4.11312 99.016C4.55123 98.3596 4.98931 97.8673 5.42742 97.5392C5.86552 97.1016 6.24888 96.8281 6.57746 96.7187C6.90604 96.5546 7.07031 96.5547 7.07031 96.5547C7.07031 96.5547 6.90605 96.7188 6.74176 96.8829C6.41318 97.1017 6.08459 97.4298 5.75602 97.8674Z" fill="#EFE3CD"/>
<path d="M13.1494 99.6722C11.9994 99.344 10.6851 99.0158 9.86364 98.5236C9.0422 98.1954 8.38505 97.8672 8.38505 97.8672C8.38505 97.8672 9.04221 97.8672 10.0279 98.0313C11.0137 98.1954 12.1637 98.3594 13.3137 98.6876C14.6281 99.0158 15.7781 99.5081 16.5995 99.8363C17.5853 100.164 18.0781 100.493 18.0781 100.493C18.0781 100.493 17.421 100.493 16.4352 100.328C15.6138 100.164 14.2995 100 13.1494 99.6722Z" fill="#EFE3CD"/>
<path d="M78.207 93.1104C75.7974 98.5799 73.0045 104.542 69.8282 110.996L53.235 108.042C53.7826 107.058 54.385 106.018 55.0422 104.925C56.247 102.627 57.4518 100.494 58.6566 98.5252C59.2042 97.6501 59.7518 96.7749 60.2995 95.8997L78.207 93.1104Z" fill="#EFE3CD"/>
<path d="M47.1594 106.728C47.1594 106.837 47.1046 106.947 46.9951 107.056L44.5307 106.564C46.3927 103.282 48.2546 100.219 50.1166 97.3751L53.4023 96.8828C53.1833 97.1016 53.019 97.2657 52.9095 97.3751C52.3619 98.3596 51.7595 99.3988 51.1023 100.493C49.788 102.571 48.4737 104.65 47.1594 106.728Z" fill="#EFE3CD"/>
<path d="M42.3886 121.331L44.1958 117.885C44.7435 116.791 45.3459 115.697 46.003 114.603C46.6602 113.509 47.3174 112.361 47.9745 111.157L49.4531 111.485C48.0293 113.892 46.6054 116.408 45.1816 119.033C43.7577 121.768 42.3887 124.503 41.0743 127.238C40.0886 129.207 39.1029 131.176 38.1172 133.145L36.8028 131.832C38.6648 128.332 40.5267 124.831 42.3886 121.331Z" fill="#EFE3CD"/>
<path d="M38.9347 180.239C39.4823 180.786 40.0847 181.442 40.7418 182.208C41.399 183.083 42.0014 183.958 42.549 184.833C43.2062 185.708 43.8086 186.583 44.3562 187.458C44.7943 188.334 45.2324 189.154 45.6705 189.92C46.3277 191.397 46.6562 192.381 46.6562 192.381C46.6562 192.381 45.8348 191.725 44.6848 190.576C44.1372 189.92 43.5348 189.209 42.8776 188.443C42.2205 187.677 41.5633 186.857 40.9061 185.982C40.3585 184.997 39.8108 184.067 39.2632 183.192C38.7156 182.317 38.2775 181.551 37.9489 180.895C37.2918 179.418 36.7989 178.27 36.7989 178.27C36.7989 178.27 37.7846 178.926 38.9347 180.239Z" fill="#EFE3CD"/>
<path d="M77.2156 138.232C77.9823 138.67 78.7489 139.107 79.5156 139.545C80.2823 139.982 81.049 140.474 81.8157 141.021C82.5823 141.459 83.3491 141.897 84.1158 142.334C84.8824 142.881 85.5943 143.373 86.2515 143.811C87.7301 144.795 89.0444 145.78 90.1944 146.6C92.3302 148.241 93.6445 149.554 93.6445 149.554C93.6445 149.554 92.0016 148.734 89.5373 147.585C88.223 146.929 86.9087 146.108 85.43 145.288C84.6634 144.96 83.8967 144.522 83.13 143.975C82.3633 143.538 81.5966 143.1 80.83 142.662C80.0633 142.115 79.2965 141.623 78.5299 141.186C77.7632 140.639 76.9965 140.146 76.2298 139.709C74.9155 138.724 73.6012 137.74 72.4512 136.919C70.3154 135.278 69.0011 134.13 69.0011 134.13C69.0011 134.13 70.644 134.786 73.1083 136.099C74.2584 136.591 75.737 137.412 77.2156 138.232Z" fill="#EFE3CD"/>
<path d="M12.4904 198.618C14.4619 197.141 16.5977 195.172 19.062 192.711C21.5811 190.304 24.2097 187.515 26.9479 184.342C29.6861 181.17 32.5338 177.669 35.491 173.841C38.2839 169.903 41.2411 165.8 44.1983 161.37C50.1127 152.673 55.6986 142.992 60.9559 132.983C66.2131 123.138 71.3061 113.128 75.9062 103.611C80.342 94.0944 84.285 85.0696 87.4065 77.3575C90.3637 69.4813 92.6638 62.7538 93.6495 57.9952C93.9781 55.5339 94.3066 53.5649 94.1423 52.2522C94.0328 51.5958 93.8685 51.1583 93.6495 50.9395C93.9781 51.1583 94.1971 51.5958 94.3066 52.2522C94.4709 53.5649 94.3067 55.5339 93.9781 57.9952C93.1566 62.9179 91.3494 69.6454 88.3922 77.6857C85.5993 85.5619 81.8206 94.7507 77.3848 104.268C72.949 113.949 68.0203 123.958 62.7631 133.967C57.3415 143.977 51.5913 153.658 45.6769 162.355C39.5982 171.051 33.5195 178.763 27.7693 184.999C22.0192 191.398 16.7619 195.992 12.819 198.946C10.8475 200.423 9.20461 201.571 8.05459 202.064C6.90456 202.884 6.24739 203.048 6.24739 203.048C6.24739 203.048 6.90455 202.72 7.89029 202.064C9.04031 201.407 10.6832 200.259 12.4904 198.618Z" fill="#EFE3CD"/>
<path d="M24.979 149.555C23.5004 152.673 22.1861 155.791 20.8718 158.744C20.1051 160.713 19.3384 162.682 18.5717 164.651C17.7503 166.456 17.0931 168.261 16.436 170.066C15.7788 171.816 15.1764 173.512 14.6288 175.153C14.3002 176.028 14.0264 176.848 13.8073 177.614C13.5883 178.38 13.3692 179.146 13.1502 179.911C12.9311 180.677 12.7121 181.388 12.493 182.044C12.3835 182.701 12.2192 183.357 12.0001 184.013C11.8906 184.67 11.7811 185.326 11.6716 185.983C11.562 186.529 11.4525 187.076 11.343 187.623C11.1787 188.772 11.1787 189.756 11.0144 190.577C11.0144 191.397 11.0144 192.218 11.343 192.71C11.343 193.038 11.5073 193.366 11.5073 193.53C11.6716 193.695 11.8359 193.859 11.8359 194.023C11.8359 193.859 11.6716 193.695 11.6716 193.53C11.5073 193.366 11.5073 193.038 11.343 192.71C11.343 192.218 11.343 191.397 11.343 190.577C11.4525 190.139 11.562 189.702 11.6716 189.264C11.6716 188.827 11.7263 188.334 11.8359 187.787C11.9454 187.24 12.1097 186.694 12.3287 186.147C12.4382 185.49 12.6025 184.889 12.8216 184.342C13.0406 183.685 13.2597 183.029 13.4788 182.373C13.6978 181.607 13.9169 180.896 14.1359 180.239C14.4645 179.474 14.7383 178.708 14.9574 177.942C15.2859 177.286 15.6145 176.52 15.9431 175.645C16.2717 174.879 16.6002 174.059 16.9288 173.184C17.2574 172.418 17.586 171.598 17.9145 170.722C19.3932 167.277 21.2004 163.503 23.0075 159.565C23.8837 157.705 24.8147 155.736 25.8005 153.657C26.0195 153.329 26.1838 152.946 26.2933 152.509C26.7314 153.493 27.1695 154.423 27.6076 155.298C27.279 156.064 26.9505 156.83 26.6219 157.595C25.6362 159.674 24.8147 161.588 24.1576 163.339C23.5004 165.089 22.9528 166.62 22.5147 167.933C22.0766 169.136 21.748 170.121 21.5289 170.886C21.3099 171.543 21.2003 171.871 21.2003 171.871C21.2003 171.871 21.8575 170.394 22.8432 167.933C23.9933 165.472 25.6362 162.19 27.6076 158.088C27.8267 157.65 28.0458 157.213 28.2648 156.775C31.222 163.831 33.6864 169.082 34.5078 171.379C17.586 194.023 5.42856 201.571 5.09998 201.571C4.27853 201.243 -1.47164 197.797 23.5004 146.273C24.048 147.367 24.5409 148.461 24.979 149.555Z" fill="#EFE3CD"/>
<path d="M82.6409 196.812L89.3768 196.976H96.1127L102.849 197.14C105.149 197.14 107.394 197.14 109.584 197.14C111.885 197.249 114.13 197.359 116.32 197.468C114.13 197.468 111.885 197.523 109.584 197.632C107.394 197.632 105.149 197.687 102.849 197.796H96.1127L89.3768 197.96H82.6409C80.4504 197.96 78.2052 197.96 75.9051 197.96C71.6336 197.96 67.1977 197.96 62.9262 197.796L62.7619 203.375C62.6524 205.344 62.5429 207.313 62.4333 209.282C62.3238 207.313 62.269 205.344 62.269 203.375L62.1047 197.468C62.1047 197.14 62.269 196.976 62.4333 196.976C66.8692 196.976 71.4693 196.976 75.9051 196.976C78.2052 196.866 80.4504 196.812 82.6409 196.812Z" fill="#EFE3CD"/>
<path d="M101.369 136.263L98.2475 133.638L101.533 136.099L104.819 138.724L111.226 143.811L111.391 143.975L111.226 144.139L109.912 156.118L108.269 167.932C108.269 170.995 108.214 174.058 108.105 177.121C108.105 178.652 108.05 180.129 107.941 181.551C107.941 183.083 107.941 184.614 107.941 186.146C107.831 184.614 107.776 183.083 107.776 181.551C107.667 180.129 107.612 178.652 107.612 177.121C107.502 174.058 107.448 170.995 107.448 167.932L108.926 155.954L110.405 144.303L104.49 139.053L101.369 136.263Z" fill="#EFE3CD"/>
<path d="M69.0068 91.6319C71.7997 91.3038 74.0998 90.9756 75.7427 90.8115C77.2213 90.6474 78.207 90.6475 78.207 90.6475C78.207 90.6475 77.2213 90.8115 75.7427 90.9756C74.0998 91.3037 71.7997 91.6319 69.1711 92.1242C66.3782 92.6164 63.2567 93.1087 59.8066 93.601C56.5208 94.0933 52.9064 94.5855 49.1277 95.2419C45.5134 95.7341 41.899 96.2263 38.4489 96.7186C35.1631 97.0468 31.8773 97.5391 29.2487 97.8672C26.4558 98.1954 24.1557 98.3595 22.5129 98.5236C21.0342 98.6877 20.0485 98.8518 20.0485 98.8518C20.0485 98.8518 21.0342 98.6876 22.5129 98.3595C24.1557 98.1954 26.4558 97.7032 29.0844 97.2109C31.8774 96.8828 34.9988 96.2264 38.4489 95.7341C41.7347 95.2419 45.5134 94.7496 49.1277 94.2573C52.7421 93.765 56.3565 93.2728 59.8066 92.7806C63.0924 92.2883 66.3782 91.9601 69.0068 91.6319Z" fill="#EFE3CD"/>
<path d="M63.0943 91.467C63.6419 90.5919 64.1348 89.8808 64.5729 89.3338C65.3396 88.2399 65.942 87.3648 66.3801 86.7084C66.8182 86.1615 67.0372 85.888 67.0372 85.888C67.0372 85.888 66.7634 86.1615 66.2158 86.7084C65.7777 87.2554 65.1206 88.0212 64.2443 89.0057C63.6967 89.7714 63.0395 90.6465 62.2729 91.6311L59.6442 91.9592C60.0823 91.3029 60.5204 90.6465 60.9586 89.9902C62.1633 88.1305 63.4229 86.3256 64.7372 84.5753C65.942 82.8251 67.1468 81.1842 68.3516 79.6527C69.5016 78.0119 70.8159 76.5351 71.9659 75.0583C73.116 73.4174 74.4303 72.2688 75.5803 70.9561C76.5661 69.6434 77.7161 68.4948 78.8661 67.3462C80.8376 65.2131 82.9734 63.4081 84.6163 62.0954C85.4925 61.3297 86.2591 60.728 86.9163 60.2905C87.7377 59.7982 88.2306 59.47 88.7235 59.1418C89.2711 58.8137 89.7092 58.5949 90.0378 58.4855C89.7092 58.5949 89.2711 58.7589 88.7235 58.9777C88.2306 59.1418 87.5734 59.6341 86.752 59.9623C85.9853 60.3998 85.1639 60.9468 84.2877 61.6032C82.4805 62.9158 80.3447 64.5567 78.0447 66.5258C75.7446 68.6589 73.2803 71.1202 70.6516 73.9097C69.5016 75.3865 68.1873 76.6992 66.873 78.34C65.5587 79.9809 64.2443 81.6218 62.93 83.2627C61.6157 85.0129 60.3014 86.8179 58.9871 88.6775C58.0013 89.8808 57.1251 91.1388 56.3584 92.4515L52.9084 92.9437C77.3875 55.0396 91.6807 50.9375 91.6807 50.9375C92.5021 52.5784 90.3664 64.5567 80.0162 88.8416L63.0943 91.467Z" fill="#EFE3CD"/>
<path d="M93.4793 158.908C93.6984 157.923 93.9722 156.939 94.3008 155.954C94.1913 156.939 94.027 157.978 93.8079 159.072C93.6984 160.056 93.5889 161.041 93.4793 162.025C93.1508 164.104 92.8222 166.127 92.4936 168.096C92.4936 170.612 92.4389 173.129 92.3293 175.645C92.3293 176.957 92.2746 178.27 92.165 179.583C92.165 180.786 92.1103 182.044 92.0007 183.357C91.8912 182.044 91.7817 180.786 91.6721 179.583C91.5626 178.27 91.5079 176.957 91.5079 175.645C91.5079 173.129 91.5079 170.612 91.5079 168.096C91.946 166.018 92.3841 163.994 92.8222 162.025C93.0412 160.931 93.2603 159.892 93.4793 158.908Z" fill="#EFE3CD"/>
<path d="M94.9579 85.3975C94.0817 85.1787 93.315 84.9052 92.6578 84.577C91.3435 84.0848 90.3578 83.5925 90.3578 83.5925C90.3578 83.5925 91.3435 83.4284 92.8221 83.5925C93.5888 83.5925 94.4651 83.6472 95.4508 83.7566C96.327 83.866 97.2579 84.0301 98.2437 84.2488C99.2294 84.4676 100.16 84.6865 101.037 84.9052C101.913 85.124 102.68 85.3975 103.337 85.7257C104.815 86.2179 105.637 86.7102 105.637 86.7102C105.637 86.7102 104.651 86.8742 103.172 86.8742C102.406 86.7648 101.584 86.6555 100.708 86.5461C99.7223 86.4367 98.7366 86.3273 97.7508 86.2179C96.8746 85.9991 95.9436 85.7257 94.9579 85.3975Z" fill="#EFE3CD"/>
<path fill-rule="evenodd" clip-rule="evenodd" d="M21.5253 141.678C-4.10392 193.694 -0.325261 200.421 0.989056 202.883C1.8105 204.359 3.2891 205.344 4.932 205.508C4.932 205.508 4.98677 205.508 5.0963 205.508C5.42488 205.508 5.75347 205.453 6.08204 205.344L46.4973 195.499C47.0449 195.389 47.5925 195.116 48.1401 194.678L72.2907 173.347V189.099C72.2907 189.592 72.7836 190.084 73.2765 190.084H75.7408V196.155H61.7762C61.4476 196.155 61.1191 196.483 61.1191 196.811V211.087C61.1191 211.415 61.4476 211.743 61.7762 211.743H118.456C118.785 211.743 119.113 211.415 119.113 211.087V196.811C119.113 196.483 118.785 196.155 118.456 196.155H104.984V187.623H109.092C109.584 187.623 110.077 187.13 110.077 186.638V167.44L113.199 142.499C113.199 142.17 113.035 141.842 112.87 141.678L100.549 131.341L107.613 86.7091C107.723 86.0527 107.668 85.4511 107.449 84.9042L95.4556 49.7895C94.9627 48.1486 93.3198 47 91.6769 47C91.3483 47 91.0198 47.0548 90.6912 47.1641C90.034 47.3282 83.6267 49.4613 72.9479 60.4552C64.8977 68.8236 56.3546 79.9815 47.6473 93.7648L17.0894 98.3592L7.39634 95.5698C7.28681 95.5698 7.17727 95.5698 7.06774 95.5698C6.73916 95.5698 4.6034 95.898 2.13905 100.492C-0.48958 104.923 0.331868 106.892 0.496157 107.22C0.496157 107.329 0.550931 107.439 0.660457 107.548L9.20354 115.588C9.42259 115.698 9.69641 115.752 10.025 115.752C13.6394 123.957 17.7466 133.146 21.5253 141.678ZM7.06774 96.5543C7.06774 96.5543 6.90348 96.7184 6.73919 96.8825C6.41061 97.1013 6.08202 97.4294 5.75345 97.867C5.09629 98.6874 4.27486 100 3.6177 101.313C2.79625 102.626 2.13907 103.938 1.6462 104.923C1.53668 105.47 1.42713 105.907 1.31761 106.235C1.31761 106.564 1.31761 106.728 1.31761 106.728C1.31761 106.728 1.15336 106.564 1.15336 106.235C1.15336 105.907 1.15336 105.415 1.15336 104.759C1.26288 104.212 1.48193 103.61 1.8105 102.954C1.97479 102.297 2.46767 101.477 2.79625 100.821C3.23436 100.164 3.67244 99.5626 4.11055 99.0156C4.54865 98.3592 4.98674 97.8669 5.42485 97.5388C5.86295 97.1012 6.24631 96.8277 6.57489 96.7183C6.90347 96.5542 7.06774 96.5543 7.06774 96.5543ZM6.24629 203.047C6.24629 203.047 6.90345 202.719 7.88919 202.062C9.03922 201.406 10.6821 200.257 12.4893 198.616C14.4608 197.14 16.5966 195.171 19.0609 192.709C21.58 190.303 24.2086 187.513 26.9468 184.341C29.685 181.168 32.5327 177.668 35.4899 173.839C38.2828 169.901 41.24 165.799 44.1972 161.369C50.1116 152.672 55.6975 142.991 60.9548 132.982C66.212 123.136 71.305 113.127 75.9051 103.61C80.341 94.093 84.2839 85.0682 87.4054 77.3561C90.3626 69.4799 92.6627 62.7524 93.6484 57.9938C93.977 55.5325 94.3055 53.5635 94.1412 52.2508C94.0317 51.5945 93.8674 51.1569 93.6484 50.9381C93.977 51.1569 94.196 51.5945 94.3055 52.2508C94.4698 53.5635 94.3056 55.5325 93.977 57.9938C93.1555 62.9165 91.3483 69.644 88.3911 77.6843C85.5982 85.5605 81.8195 94.7494 77.3837 104.266C72.9479 113.948 68.0192 123.957 62.762 133.966C57.3404 143.975 51.5902 153.657 45.6758 162.353C39.5971 171.05 33.5184 178.762 27.7682 184.997C22.0181 191.397 16.7608 195.991 12.8179 198.945C10.8464 200.421 9.20352 201.57 8.05349 202.062C6.90346 202.883 6.24629 203.047 6.24629 203.047ZM53.3974 101.969C54.0546 100.875 54.657 99.8361 55.2046 98.8515C55.7523 97.9764 56.2999 97.156 56.8475 96.3902L58.9833 96.062C58.5452 96.7184 58.1071 97.3748 57.669 98.0311C55.6975 100.821 53.726 104.266 51.5902 107.876L49.9473 107.548C51.1521 105.688 52.3022 103.829 53.3974 101.969ZM52.9046 97.3747C52.357 98.3592 51.7545 99.3985 51.0974 100.492C49.7831 102.571 48.4688 104.649 47.1544 106.728C47.1544 106.837 47.0997 106.947 46.9901 107.056L44.5258 106.564C46.3878 103.282 48.2497 100.219 50.1116 97.3747L53.3974 96.8825C53.1784 97.1013 53.0141 97.2653 52.9046 97.3747ZM60.2976 95.8979L78.2052 93.1085C75.7956 98.5781 73.0027 104.54 69.8264 110.994L53.2331 108.04C53.7808 107.056 54.3832 106.017 55.0403 104.923C56.2451 102.625 57.4499 100.492 58.6547 98.5234C59.2024 97.6482 59.75 96.773 60.2976 95.8979ZM68.5121 111.979C68.5121 111.979 67.8549 111.978 66.5406 111.814C65.2263 111.486 63.2548 111.322 60.9548 110.994C58.819 110.502 56.1904 110.174 53.3974 109.681C50.4402 109.189 47.483 108.697 44.5258 108.204C41.5686 107.548 38.6114 107.056 35.6542 106.4C32.8613 105.907 30.3969 105.415 28.0968 104.923C25.7968 104.43 23.9896 104.102 22.6753 103.774C21.3609 103.446 20.7038 103.282 20.7038 103.282C20.7038 103.282 21.3609 103.446 22.6753 103.61C23.9896 103.774 25.9611 103.938 28.2611 104.43C30.3969 104.759 33.0255 105.087 35.8184 105.579C38.6113 106.071 41.7329 106.728 44.6901 107.22C47.6473 107.712 50.6045 108.369 53.3974 108.861C56.3546 109.353 58.819 110.009 61.1191 110.338C63.4191 110.83 65.2263 111.322 66.5406 111.486C67.8549 111.814 68.5121 111.979 68.5121 111.979ZM11.6679 116.901C11.6679 116.901 11.9965 117.721 12.6536 119.198C13.4751 120.511 14.4608 122.48 15.6108 124.941C16.5966 127.403 18.0751 130.192 19.3895 133.146C20.7038 136.099 22.1824 139.381 23.661 142.663C25.1396 145.944 26.6182 149.062 27.9325 152.18C29.2469 155.133 30.5612 158.087 31.5469 160.548C32.5327 163.01 33.3541 164.979 34.0113 166.455C34.6684 167.932 34.997 168.753 34.997 168.753C34.997 168.753 34.5041 167.932 33.847 166.455C33.1898 165.143 32.2041 163.174 31.054 160.712C29.904 158.251 28.5897 155.461 27.1111 152.508C25.7968 149.39 24.3182 146.273 22.8396 142.991C21.3609 139.709 20.0466 136.592 18.568 133.474C17.2537 130.52 16.1037 127.567 14.9537 125.105C13.9679 122.644 13.1465 120.675 12.4893 119.198C11.9965 117.721 11.6679 116.901 11.6679 116.901ZM28.9183 147.421C29.904 145.343 30.9445 143.21 32.0398 141.022C33.0255 139.162 33.9565 137.303 34.8327 135.443L36.3113 136.92C35.2161 139.107 34.1756 141.241 33.1898 143.319C31.985 145.835 30.835 148.242 29.7397 150.539C29.4112 149.664 29.0278 148.789 28.5897 147.913C28.6992 147.804 28.8088 147.64 28.9183 147.421ZM23.8253 137.084C20.8681 130.684 17.418 122.972 13.3108 113.947C13.4203 113.838 13.5846 113.729 13.8036 113.619L28.0968 128.387C26.5635 131.45 25.1396 134.349 23.8253 137.084ZM16.5966 114.768C16.5966 114.768 16.9251 115.26 17.7466 115.917C18.4037 116.573 19.3895 117.557 20.7038 118.706C21.8538 119.855 23.3324 121.331 24.8111 122.808C26.2897 124.285 27.7682 125.926 29.4111 127.567C30.8897 129.208 32.5327 130.849 34.0113 132.489C35.3256 133.966 36.6399 135.443 37.7899 136.756C38.9399 137.904 39.9257 139.053 40.5829 139.873C41.24 140.53 41.5686 141.022 41.5686 141.022C41.5686 141.022 41.0757 140.53 40.4186 139.873C39.7614 139.217 38.6113 138.232 37.4613 137.084C36.3113 135.935 34.8327 134.458 33.3541 132.982C31.8755 131.505 30.2326 129.864 28.754 128.223C27.1111 126.582 25.6325 124.941 24.1539 123.465C22.6753 121.824 21.3609 120.347 20.2109 119.198C19.0609 117.886 18.2395 116.737 17.5823 116.081C16.9252 115.26 16.5966 114.768 16.5966 114.768ZM36.8042 131.833C38.6661 128.332 40.5281 124.832 42.39 121.331L44.1972 117.886C44.7448 116.792 45.3472 115.698 46.0044 114.604C46.6616 113.51 47.3187 112.361 47.9759 111.158L49.4545 111.486C48.0307 113.893 46.6068 116.409 45.183 119.034C43.7591 121.769 42.39 124.504 41.0757 127.239C40.09 129.208 39.1043 131.177 38.1185 133.146L36.8042 131.833ZM32.8612 127.731C36.147 121.386 39.3233 115.534 42.39 110.173L44.8544 110.666C44.4162 111.541 43.9234 112.416 43.3758 113.291C42.8281 114.385 42.2257 115.479 41.5686 116.573L39.7614 119.855C38.009 123.136 36.3113 126.418 34.6684 129.7L32.8612 127.731ZM68.0192 114.604C65.281 120.073 62.2691 125.871 58.9833 131.997C51.4259 146.437 44.0329 158.251 37.1328 167.604C35.9827 164.814 34.0113 160.22 30.5612 152.18C32.697 147.914 35.1613 143.155 37.6256 138.232L41.24 142.006C41.24 142.225 41.24 142.444 41.24 142.663C41.24 144.632 42.7186 146.109 44.6901 146.109C46.6616 146.109 48.1401 144.632 48.1401 142.663C48.1401 140.858 46.6616 139.217 44.6901 139.217C44.4711 139.217 44.3067 139.272 44.1972 139.381L39.4328 134.458C40.5281 132.271 41.6233 130.137 42.7186 128.059C44.1425 125.324 45.5115 122.589 46.8258 119.855C48.2497 117.229 49.6188 114.659 50.9331 112.143C51.0426 111.924 51.1522 111.76 51.2617 111.65L68.0192 114.604ZM18.0752 100.328C18.0752 100.328 17.418 100.328 16.4323 100.328C15.6108 100.164 14.2965 99.836 13.1465 99.5078C11.8322 99.1797 10.6821 98.8515 9.86069 98.5234C8.87495 98.1952 8.38209 97.867 8.38209 97.867C8.38209 97.867 9.03925 97.867 10.025 97.867C10.8464 98.0311 12.1608 98.3592 13.3108 98.6874C14.6251 99.0156 15.7751 99.3438 16.5966 99.672C17.418 100 18.0752 100.328 18.0752 100.328ZM18.8966 105.907L38.2828 109.353C35.5446 114.166 32.7517 119.253 29.904 124.613L16.4323 110.666C16.7608 110.228 17.0894 109.736 17.418 109.189C18.0752 108.095 18.568 107.001 18.8966 105.907ZM19.5538 101.969L44.8544 98.0311C43.321 100.547 41.8424 103.118 40.4186 105.743L19.5538 102.133C19.5538 102.024 19.5538 101.969 19.5538 101.969ZM48.9616 94.093C52.576 93.6007 56.3546 93.1084 59.6404 92.6162C63.0905 92.1239 66.3763 91.7958 69.0049 91.4676C71.7979 91.1395 74.0979 90.9753 75.5765 90.8112C77.2194 90.6472 78.2052 90.4831 78.2052 90.4831C78.2052 90.4831 77.2194 90.6471 75.7408 90.9753C74.0979 91.1394 71.7979 91.6317 69.1692 91.9599C66.3763 92.4521 63.2548 92.9443 59.8047 93.4366C56.3546 94.0929 52.7403 94.5852 49.1259 95.0775C45.5115 95.5697 41.8972 96.062 38.4471 96.5543C34.997 97.0466 31.8755 97.3747 29.0826 97.7029C26.454 98.0311 24.1539 98.3593 22.511 98.5234C20.8681 98.6874 20.0467 98.6874 20.0467 98.6874C20.0467 98.6874 20.8681 98.5233 22.511 98.3592C24.1539 98.031 26.2897 97.5389 29.0826 97.2107C31.7112 96.7184 34.997 96.2261 38.2828 95.7339C41.7329 95.2416 45.3472 94.5852 48.9616 94.093ZM80.0124 88.8422L63.0905 91.3035C63.6381 90.5377 64.131 89.8267 64.5691 89.1704C65.3358 88.0765 65.9382 87.256 66.3763 86.7091C66.7049 86.0527 66.9239 85.7246 67.0335 85.7246C66.9239 85.7246 66.6501 85.9981 66.212 86.545C65.7739 87.092 65.1168 87.9124 64.2406 89.0063C63.5834 89.6627 62.9262 90.4831 62.2691 91.4676L59.6404 91.7957C60.0785 91.2488 60.4619 90.6472 60.7905 89.9908C62.1048 88.1312 63.3643 86.3262 64.5691 84.576C65.8834 82.8257 67.143 81.1301 68.3478 79.4892C69.4978 77.8483 70.8121 76.3716 71.9621 74.8948C73.1122 73.418 74.4265 72.1053 75.4122 70.7926C76.5623 69.4799 77.7123 68.3313 78.698 67.1827C80.8338 65.0495 82.8053 63.2447 84.6125 61.932C85.4887 61.2756 86.2553 60.6739 86.9125 60.127C87.5697 59.7988 88.2268 59.3065 88.7197 58.9783C89.2673 58.7595 89.6507 58.5955 89.8697 58.4861C90.1983 58.2673 90.3626 58.1579 90.3626 58.1579C90.3626 58.1579 90.1983 58.2127 89.8697 58.322C89.6507 58.4314 89.2673 58.5955 88.7197 58.8143C88.0625 59.1425 87.5697 59.4707 86.7482 59.9629C85.9815 60.2911 85.1601 60.7833 84.2839 61.4396C82.4767 62.7523 80.3409 64.3933 78.0409 66.5264C75.7408 68.4954 73.2765 70.9567 70.6478 73.7462C69.4978 75.2229 68.0192 76.6997 66.8692 78.1765C65.5549 79.8174 64.2405 81.513 62.9262 83.2633C61.6119 85.0135 60.2428 86.7637 58.819 88.514C57.9428 89.8267 57.0666 91.1394 56.1904 92.4521L52.7403 92.9444C77.3837 54.8762 91.6769 50.9381 91.6769 50.9381C92.4983 52.4149 90.1983 64.5573 80.0124 88.8422ZM97.7556 86.0527C96.7699 85.8339 95.8389 85.6152 94.9627 85.3964C94.0865 85.0682 93.3198 84.7947 92.6626 84.576C91.184 84.0837 90.3626 83.5914 90.3626 83.5914C90.3626 83.5914 91.3483 83.4273 92.8269 83.4273C93.5936 83.4273 94.4151 83.482 95.2913 83.5914C96.277 83.7008 97.2627 83.8649 98.2485 84.0837C99.1247 84.3025 100.001 84.5212 100.877 84.74C101.863 85.0682 102.684 85.3417 103.341 85.5604C104.656 86.2168 105.642 86.7091 105.642 86.7091C105.642 86.7091 104.656 86.7091 103.177 86.7091C102.41 86.7091 101.534 86.6544 100.549 86.545C99.6724 86.4356 98.7414 86.2715 97.7556 86.0527ZM90.1983 164.979C89.2126 163.83 87.8983 162.353 86.584 160.876L92.1698 155.954C91.3483 159.564 90.5269 162.845 90.1983 164.979ZM92.8269 161.861C93.046 160.876 93.265 159.892 93.4841 158.907C93.7031 157.923 93.9222 156.884 94.1412 155.79C94.0317 156.884 93.9222 157.923 93.8127 158.907C93.7032 159.892 93.5388 160.931 93.3198 162.025C92.9912 163.994 92.6627 166.018 92.3341 168.096C92.4436 170.612 92.4436 173.128 92.3341 175.644C92.3341 176.848 92.2793 178.106 92.1698 179.418C92.1698 180.731 92.115 181.989 92.0055 183.192C91.7864 181.989 91.6769 180.731 91.6769 179.418C91.5674 178.106 91.5126 176.848 91.5126 175.644C91.4031 173.128 91.4031 170.558 91.5126 167.932C91.9508 165.854 92.3888 163.83 92.8269 161.861ZM110.406 144.304L104.327 139.053L101.37 136.263L98.2485 133.474L101.534 136.099L104.656 138.561L111.063 143.811H111.227V144.14L109.749 155.954L108.27 167.932C108.27 170.886 108.215 173.894 108.106 176.957C108.106 178.488 108.051 180.02 107.942 181.551C107.942 183.083 107.887 184.614 107.777 186.146C107.777 184.614 107.723 183.083 107.613 181.551C107.613 180.02 107.613 178.488 107.613 176.957C107.503 173.894 107.449 170.886 107.449 167.932V167.768L108.927 155.954L110.406 144.304ZM75.7408 196.811C78.0409 196.811 80.2862 196.811 82.4767 196.811H95.9484L102.684 196.976C104.984 196.976 107.23 197.03 109.42 197.14C111.72 197.14 113.966 197.194 116.156 197.304C113.966 197.413 111.72 197.468 109.42 197.468C107.23 197.577 104.984 197.632 102.684 197.632L95.9484 197.796H82.4767C80.2862 197.796 78.0409 197.796 75.7408 197.796C71.4693 197.796 67.0335 197.796 62.762 197.796L62.5977 203.211C62.4881 205.289 62.3786 207.313 62.2691 209.282C62.2691 207.313 62.2143 205.289 62.1048 203.211L61.9405 197.304C61.9405 197.14 62.1048 196.976 62.2691 196.976C66.8692 196.811 71.305 196.811 75.7408 196.811ZM68.8406 133.966C68.8406 133.966 70.4835 134.622 72.9479 135.935C74.2622 136.592 75.5765 137.248 77.0551 138.232C77.8218 138.561 78.5885 138.998 79.3552 139.545C80.1219 139.983 80.8886 140.42 81.6553 140.858C82.422 141.405 83.1886 141.897 83.9553 142.335C84.722 142.882 85.4887 143.374 86.2554 143.811C87.5697 144.796 88.884 145.616 90.034 146.601C92.1698 148.242 93.4841 149.39 93.4841 149.39C93.4841 149.39 91.8412 148.734 89.3769 147.421C88.2268 146.929 86.7482 146.109 85.2696 145.288C84.5029 144.851 83.7363 144.413 82.9696 143.975C82.2029 143.538 81.4362 143.046 80.6695 142.499C79.9028 142.061 79.1362 141.569 78.3695 141.022C77.6028 140.584 76.8908 140.092 76.2337 139.545C74.7551 138.725 73.4408 137.74 72.2907 136.92C70.155 135.279 68.8406 133.966 68.8406 133.966ZM36.8042 178.27C36.8042 178.27 37.6256 178.926 38.7757 180.075C39.3233 180.731 39.9257 181.442 40.5829 182.208C41.24 182.973 41.8972 183.794 42.5543 184.669C43.1019 185.654 43.6496 186.583 44.1972 187.459C44.7448 188.334 45.183 189.099 45.5116 189.756C46.1687 191.232 46.6615 192.381 46.6615 192.381C46.6615 192.381 45.6758 191.725 44.5258 190.412C43.9782 189.865 43.3758 189.209 42.7186 188.443C42.0615 187.568 41.459 186.693 40.9114 185.818C40.2543 184.943 39.6518 184.067 39.1042 183.192C38.6661 182.317 38.228 181.497 37.7899 180.731C37.1328 179.254 36.8042 178.27 36.8042 178.27ZM27.1111 144.796C26.673 143.811 26.1801 142.772 25.6325 141.678C27.2754 138.396 29.0278 134.951 30.8897 131.341L32.6969 133.31C31.6017 135.388 30.5064 137.521 29.4111 139.709C28.6445 141.459 27.8778 143.155 27.1111 144.796ZM23.4967 146.273C23.9348 147.367 24.3729 148.46 24.8111 149.554C23.4967 152.672 22.1824 155.79 20.8681 158.743C19.9919 160.712 19.1705 162.627 18.4038 164.486C17.5823 166.455 16.9251 168.26 16.268 170.065C15.6108 171.816 15.0084 173.511 14.4608 175.152C14.1322 175.918 13.8584 176.683 13.6393 177.449C13.4203 178.324 13.2012 179.09 12.9822 179.746C12.7631 180.512 12.5441 181.223 12.325 181.88C12.2155 182.645 12.0512 183.356 11.8322 184.013C11.7227 184.669 11.6131 185.271 11.5036 185.818C11.3941 186.474 11.2845 187.076 11.175 187.623C11.0107 188.607 11.0107 189.756 10.8464 190.576C11.0107 191.397 11.0107 192.053 11.175 192.709C11.175 193.037 11.3393 193.201 11.3393 193.53C11.5036 193.694 11.6679 193.858 11.6679 193.858C11.9965 194.186 12.1607 194.186 12.1607 194.186C12.1607 194.186 11.9965 194.186 11.8322 193.858C11.6679 193.694 11.5036 193.694 11.5036 193.366C11.3393 193.202 11.3393 193.037 11.3393 192.709C11.175 192.053 11.175 191.397 11.3393 190.576C11.3393 190.139 11.3941 189.701 11.5036 189.263C11.5036 188.716 11.6131 188.17 11.8322 187.623C11.9417 187.185 12.0512 186.638 12.1607 185.982C12.2703 185.435 12.4346 184.833 12.6536 184.177C12.8727 183.52 13.0917 182.864 13.3108 182.208C13.5298 181.551 13.7489 180.84 13.9679 180.075C14.2965 179.418 14.5703 178.707 14.7894 177.941C15.118 177.176 15.4465 176.41 15.7751 175.644C16.1037 174.878 16.4323 174.058 16.7609 173.183C17.0894 172.308 17.4728 171.433 17.9109 170.557C19.2252 167.112 21.0324 163.502 22.8396 159.564C23.7158 157.595 24.6468 155.626 25.6325 153.657C25.8516 153.219 26.0158 152.836 26.1253 152.508C26.5635 153.492 27.0016 154.422 27.4397 155.297C27.1111 156.063 26.7825 156.774 26.4539 157.431C25.5777 159.618 24.8111 161.587 24.1539 163.338C23.3872 164.979 22.7848 166.455 22.3467 167.768C21.9086 169.081 21.58 170.065 21.361 170.722C21.2514 171.487 21.1967 171.87 21.1967 171.87C21.1967 171.87 21.6895 170.393 22.6753 167.932C23.8253 165.471 25.4682 162.025 27.4397 157.923C27.6587 157.595 27.8778 157.212 28.0968 156.774C31.2183 163.666 33.5184 169.081 34.5041 171.214C17.418 193.858 5.42488 201.57 5.0963 201.406C4.98677 201.406 4.932 201.406 4.932 201.406C4.27484 201.242 -1.63961 197.632 23.4967 146.273Z" fill="#DCD1BD"/>
<path d="M92.6124 92.1642C94.0905 93.6405 95.9909 95.5386 97.8914 97.4367C99.7918 99.3348 101.692 101.444 103.804 103.553C105.704 105.662 107.816 107.771 109.716 109.88C111.406 111.778 113.095 113.676 114.573 115.363C116.051 116.839 117.318 118.316 118.163 119.37C119.007 120.214 119.43 120.846 119.43 120.846C119.43 120.846 118.796 120.214 117.952 119.37C117.107 118.527 115.629 117.261 114.151 115.785C112.673 114.309 110.772 112.411 108.872 110.512C106.971 108.614 104.86 106.505 102.959 104.396C100.848 102.287 98.9472 100.178 97.0468 98.2803C95.1463 96.1713 93.457 94.2732 91.9789 92.7969C90.5007 91.1097 89.445 89.6334 88.6004 88.7898C87.7557 87.7353 87.3334 87.1025 87.3334 87.1025C87.3334 87.1025 87.7557 87.7353 88.8115 88.5789C89.6561 89.4225 90.9231 90.6879 92.6124 92.1642Z" fill="#EFE3CD"/>
<path d="M110.771 113.676L112.672 115.574C111.264 118.386 109.927 121.128 108.66 123.799C107.111 127.033 105.633 130.126 104.225 133.079C103.803 131.954 103.31 130.829 102.747 129.704C102.888 129.564 103.029 129.353 103.17 129.071C104.437 126.4 105.774 123.658 107.182 120.846C108.449 118.456 109.645 116.066 110.771 113.676Z" fill="#EFE3CD"/>
<path d="M123.863 81.829C123.159 82.9538 122.456 84.0786 121.752 85.2034C121.048 86.6094 120.274 88.0154 119.429 89.4214L117.106 93.6394C114.854 97.8574 112.672 102.005 110.56 106.082L108.237 103.763C112.461 95.6078 116.543 88.0857 120.485 81.1963L123.863 81.829Z" fill="#EFE3CD"/>
<path d="M99.1545 121.689C101.266 117.612 103.518 113.253 105.912 108.613L108.234 110.933C106.827 113.745 105.419 116.557 104.011 119.369C103.026 121.478 102.04 123.587 101.055 125.696C100.492 124.431 99.8584 123.095 99.1545 121.689Z" fill="#EFE3CD"/>
<path d="M113.943 155.012C112.465 151.637 109.72 145.521 105.285 135.398C108.03 129.915 111.198 123.798 114.365 117.261L119.222 122.322C119.081 122.603 119.011 122.885 119.011 123.166C119.011 125.697 121.122 127.595 123.445 127.595C125.979 127.595 127.879 125.697 127.879 123.166C127.879 120.635 125.979 118.737 123.445 118.737C123.304 118.737 123.093 118.737 122.811 118.737L116.688 112.621C118.096 109.809 119.503 106.997 120.911 104.185C122.741 100.67 124.571 97.225 126.401 93.8506C128.09 90.3357 129.85 86.9613 131.68 83.7275C131.68 83.5869 131.751 83.4463 131.891 83.3057L153.43 87.1018C150.051 93.9912 146.25 101.443 142.027 109.457C132.103 128.016 122.6 142.99 113.943 155.012Z" fill="#EFE3CD"/>
<path d="M86.0675 100.177C87.3345 103.34 89.2349 106.926 90.9242 110.722C92.6134 114.518 94.5139 118.736 96.4143 122.954C98.3148 127.172 100.215 131.179 101.905 135.186C103.594 138.982 105.283 142.779 106.55 145.942C107.817 149.106 108.873 151.636 109.717 153.534C110.562 155.432 110.984 156.487 110.984 156.487C110.984 156.487 110.351 155.432 109.506 153.534C108.662 151.847 107.395 149.316 105.917 146.153C104.438 142.989 102.749 139.404 100.849 135.608C99.1594 131.601 97.259 127.594 95.3585 123.376C93.4581 119.158 91.7688 115.151 89.8684 111.144C88.1791 107.347 86.701 103.551 85.2229 100.388C83.9559 97.2243 82.9001 94.6934 82.0555 92.7953C81.422 90.8972 80.9997 89.8428 80.9997 89.8428C80.9997 89.8428 81.422 90.8972 82.2666 92.7953C83.3224 94.4825 84.5894 97.0133 86.0675 100.177Z" fill="#EFE3CD"/>
<path d="M136.952 66.6439C137.656 65.5191 138.36 64.4646 139.064 63.4804L141.809 63.0586C141.245 63.9022 140.682 64.7458 140.119 65.5894C137.585 69.1747 135.051 73.6036 132.306 78.2434L130.195 77.8216C131.743 75.4314 133.221 73.0411 134.629 70.6509C135.474 69.2449 136.248 67.9093 136.952 66.6439Z" fill="#EFE3CD"/>
<path d="M144.345 82.2502C141.6 81.6175 138.222 81.1957 134.632 80.563C130.831 79.9303 127.03 79.2976 123.229 78.6649C119.428 77.8213 115.627 77.1886 111.827 76.345C108.237 75.7123 105.069 75.0796 102.113 74.4469C99.1569 73.8142 96.8341 73.3925 95.1448 72.9707C93.4556 72.5489 92.611 72.3379 92.611 72.3379C92.611 72.3379 93.4556 72.5488 95.1448 72.7597C96.8341 72.9706 99.3681 73.1815 102.324 73.8142C105.069 74.236 108.448 74.6578 112.038 75.2905C115.627 75.9232 119.639 76.7668 123.44 77.3995C127.241 78.0322 131.042 78.8758 134.632 79.5085C138.433 80.1412 141.6 80.9849 144.556 81.4067C147.513 82.0394 149.835 82.672 151.525 82.8829C153.214 83.3047 154.059 83.5157 154.059 83.5157C154.059 83.5157 153.214 83.5156 151.525 83.3047C149.835 82.8829 147.301 82.672 144.345 82.2502Z" fill="#EFE3CD"/>
<path d="M73.3967 65.3786C72.552 66.4331 71.4963 68.1204 70.6516 69.8076C69.5958 71.4947 68.7512 73.1818 68.1177 74.4472C67.9769 75.1502 67.8361 75.7127 67.6953 76.1345C67.6953 76.5563 67.6953 76.7672 67.6953 76.7672C67.6953 76.7672 67.4842 76.5563 67.4842 76.1345C67.4842 75.7127 67.4842 75.08 67.4842 74.2364C67.625 73.5334 67.9065 72.7601 68.3289 71.9165C68.54 71.0729 69.1735 70.0183 69.5958 69.1747C70.1589 68.3311 70.722 67.5579 71.2851 66.8549C71.8482 66.0113 72.4112 65.3786 72.9743 64.9568C73.5374 64.3944 74.0302 64.0429 74.4525 63.9023C74.8748 63.6914 75.0859 63.6914 75.0859 63.6914C75.0859 63.6914 74.8748 63.9023 74.6637 64.1132C74.2413 64.3944 73.819 64.8162 73.3967 65.3786Z" fill="#EFE3CD"/>
<path d="M82.9035 67.6999C81.4254 67.2781 79.7361 66.8562 78.6803 66.2235C77.6245 65.8017 76.7798 65.3799 76.7798 65.3799C76.7798 65.3799 77.6245 65.38 78.8914 65.5909C80.1584 65.8018 81.6365 66.0126 83.1146 66.4344C84.8039 66.8562 86.2821 67.4889 87.3379 67.9107C88.6048 68.3325 89.2383 68.7544 89.2383 68.7544C89.2383 68.7544 88.3936 68.7543 87.1267 68.5434C86.0709 68.3325 84.3816 68.1217 82.9035 67.6999Z" fill="#EFE3CD"/>
<path d="M166.52 59.2646C163.423 66.2946 159.833 73.9573 155.75 82.2526L134.423 78.4565C135.127 77.1911 135.901 75.8553 136.746 74.4493C138.294 71.4967 139.843 68.7551 141.391 66.2243C142.095 65.0995 142.799 63.9746 143.503 62.8498L166.52 59.2646Z" fill="#EFE3CD"/>
<path d="M126.617 76.7673C126.617 76.9079 126.546 77.0485 126.405 77.1891L123.238 76.5563C125.631 72.3383 128.024 68.4016 130.417 64.746L134.641 64.1133C134.359 64.3945 134.148 64.6054 134.007 64.746C133.303 66.0114 132.529 67.3471 131.684 68.7531C129.995 71.4245 128.306 74.0959 126.617 76.7673Z" fill="#EFE3CD"/>
<path d="M120.483 95.5356L122.805 91.1068C123.509 89.7008 124.283 88.2948 125.128 86.8888C125.973 85.4828 126.817 84.0066 127.662 82.46L129.562 82.8817C127.732 85.9749 125.902 89.2087 124.072 92.5831C122.242 96.0981 120.483 99.6131 118.793 103.128C117.526 105.659 116.259 108.19 114.992 110.72L113.303 109.033C115.696 104.534 118.089 100.035 120.483 95.5356Z" fill="#EFE3CD"/>
<path d="M116.044 171.251C116.748 171.954 117.522 172.797 118.367 173.781C119.212 174.906 119.986 176.031 120.69 177.156C121.534 178.281 122.309 179.405 123.013 180.53C123.576 181.655 124.139 182.709 124.702 183.694C125.546 185.592 125.969 186.857 125.969 186.857C125.969 186.857 124.913 186.014 123.435 184.537C122.731 183.694 121.957 182.78 121.112 181.796C120.267 180.811 119.423 179.757 118.578 178.632C117.874 177.367 117.17 176.172 116.467 175.047C115.763 173.922 115.2 172.938 114.777 172.094C113.933 170.196 113.299 168.72 113.299 168.72C113.299 168.72 114.566 169.563 116.044 171.251Z" fill="#EFE3CD"/>
<path d="M165.247 117.26C166.233 117.822 167.218 118.385 168.203 118.947C169.189 119.509 170.174 120.142 171.16 120.845C172.145 121.407 173.131 121.97 174.116 122.532C175.101 123.235 176.016 123.868 176.861 124.43C178.762 125.696 180.451 126.961 181.929 128.016C184.674 130.125 186.363 131.812 186.363 131.812C186.363 131.812 184.252 130.757 181.084 129.281C179.395 128.437 177.706 127.383 175.805 126.328C174.82 125.907 173.834 125.344 172.849 124.641C171.864 124.079 170.878 123.516 169.893 122.954C168.907 122.251 167.922 121.618 166.937 121.056C165.951 120.353 164.966 119.72 163.98 119.158C162.291 117.892 160.602 116.627 159.124 115.572C156.379 113.464 154.689 111.987 154.689 111.987C154.689 111.987 156.801 112.831 159.968 114.518C161.446 115.151 163.347 116.205 165.247 117.26Z" fill="#EFE3CD"/>
<path d="M82.0563 194.873C84.5902 192.975 87.3353 190.444 90.5027 187.281C93.7405 184.188 97.119 180.602 100.638 176.525C104.158 172.447 107.818 167.948 111.619 163.027C115.208 157.966 119.009 152.693 122.81 146.999C130.412 135.821 137.591 123.378 144.349 110.513C151.106 97.8593 157.652 84.9944 163.564 72.7622C169.265 60.53 174.333 48.9305 178.345 39.0182C182.146 28.895 185.102 20.2482 186.369 14.1321C186.792 10.9686 187.214 8.4378 187.003 6.7506C186.862 5.907 186.651 5.34463 186.369 5.06343C186.792 5.34463 187.073 5.907 187.214 6.7506C187.425 8.4378 187.214 10.9686 186.792 14.1321C185.736 20.4591 183.413 29.106 179.612 39.4401C176.023 49.5632 171.166 61.3736 165.465 73.6058C159.763 86.0489 153.428 98.9137 146.671 111.779C139.703 124.644 132.312 137.087 124.711 148.264C116.898 159.442 109.085 169.354 101.694 177.369C94.3036 185.594 87.5464 191.499 82.4786 195.295C79.9447 197.193 77.8331 198.669 76.3549 199.302C74.8768 200.357 74.0322 200.567 74.0322 200.567C74.0322 200.567 74.8768 200.146 76.1438 199.302C77.6219 198.458 79.7335 196.982 82.0563 194.873Z" fill="#EFE3CD"/>
<path d="M98.1043 131.813C96.2039 135.82 94.5146 139.827 92.8253 143.623C91.8399 146.154 90.8544 148.685 89.869 151.216C88.8132 153.535 87.9686 155.855 87.1239 158.175C86.2793 160.425 85.505 162.604 84.8012 164.713C84.3788 165.838 84.0269 166.892 83.7454 167.877C83.4638 168.861 83.1823 169.845 82.9007 170.829C82.6192 171.813 82.3377 172.727 82.0561 173.571C81.9153 174.414 81.7041 175.258 81.4226 176.102C81.2818 176.945 81.1411 177.789 81.0003 178.632C80.8595 179.335 80.7187 180.038 80.578 180.741C80.3668 182.218 80.3668 183.483 80.1557 184.538C80.1557 185.592 80.1556 186.647 80.578 187.279C80.578 187.701 80.7891 188.123 80.7891 188.334C81.0003 188.545 81.2115 188.756 81.2115 188.967C81.2115 188.756 81.0003 188.545 81.0003 188.334C80.7891 188.123 80.7891 187.701 80.578 187.279C80.578 186.647 80.578 185.592 80.578 184.538C80.7187 183.975 80.8595 183.413 81.0003 182.85C81.0003 182.288 81.0707 181.655 81.2115 180.952C81.3523 180.249 81.5634 179.546 81.8449 178.843C81.9857 178 82.1968 177.226 82.4784 176.523C82.7599 175.68 83.0415 174.836 83.3231 173.993C83.6046 173.008 83.8862 172.095 84.1677 171.251C84.59 170.267 84.942 169.283 85.2235 168.298C85.6458 167.455 86.0682 166.471 86.4905 165.346C86.9128 164.362 87.3351 163.307 87.7574 162.182C88.1797 161.198 88.6021 160.144 89.0244 159.019C90.9248 154.59 93.2476 149.739 95.5703 144.678C96.6965 142.287 97.8931 139.757 99.1601 137.085C99.4416 136.663 99.6528 136.171 99.7936 135.609C100.357 136.874 100.92 138.069 101.483 139.194C101.06 140.178 100.638 141.163 100.216 142.147C98.9489 144.818 97.8931 147.279 97.0485 149.528C96.2039 151.778 95.5 153.746 94.9369 155.434C94.3738 156.98 93.9515 158.245 93.6699 159.23C93.3884 160.073 93.2476 160.495 93.2476 160.495C93.2476 160.495 94.0922 158.597 95.3592 155.434C96.8373 152.27 98.9489 148.052 101.483 142.78C101.764 142.217 102.046 141.655 102.328 141.092C106.128 150.161 109.296 156.91 110.352 159.862C88.6021 188.967 72.9762 198.668 72.5539 198.668C71.4981 198.246 64.1075 193.817 96.2038 127.595C96.9077 129.001 97.5412 130.407 98.1043 131.813Z" fill="#EFE3CD"/>
<path d="M172.22 192.552L180.878 192.763H189.535L198.193 192.974C201.149 192.974 204.035 192.974 206.85 192.974C209.807 193.114 212.692 193.255 215.508 193.395C212.692 193.395 209.807 193.466 206.85 193.606C204.035 193.606 201.149 193.677 198.193 193.817H189.535L180.878 194.028H172.22C169.405 194.028 166.519 194.028 163.562 194.028C158.072 194.028 152.371 194.028 146.881 193.817L146.67 200.988C146.529 203.519 146.388 206.049 146.247 208.58C146.107 206.049 146.036 203.519 146.036 200.988L145.825 193.395C145.825 192.974 146.036 192.763 146.247 192.763C151.949 192.763 157.861 192.763 163.562 192.763C166.519 192.622 169.405 192.552 172.22 192.552Z" fill="#EFE3CD"/>
<path d="M196.291 114.73L192.279 111.355L196.502 114.519L200.725 117.893L208.961 124.431L209.172 124.642L208.961 124.853L207.271 140.249L205.16 155.434C205.16 159.37 205.089 163.307 204.949 167.244C204.949 169.212 204.878 171.11 204.738 172.938C204.738 174.907 204.738 176.875 204.738 178.843C204.597 176.875 204.526 174.907 204.526 172.938C204.386 171.11 204.315 169.212 204.315 167.244C204.174 163.307 204.104 159.37 204.104 155.434L206.004 140.038L207.905 125.064L200.303 118.315L196.291 114.73Z" fill="#EFE3CD"/>
<path d="M154.695 57.365C158.284 56.9432 161.241 56.5214 163.352 56.3105C165.253 56.0996 166.52 56.0996 166.52 56.0996C166.52 56.0996 165.253 56.3104 163.352 56.5213C161.241 56.9431 158.284 57.3649 154.906 57.9976C151.316 58.6303 147.304 59.2631 142.87 59.8958C138.646 60.5285 134.001 61.1612 129.144 62.0048C124.499 62.6375 119.853 63.2701 115.419 63.9028C111.196 64.3246 106.972 64.9573 103.594 65.3791C100.004 65.8009 97.0478 66.0119 94.9362 66.2228C93.0358 66.4337 91.7688 66.6446 91.7688 66.6446C91.7688 66.6446 93.0358 66.4336 94.9362 66.0118C97.0478 65.8009 100.004 65.1683 103.383 64.5356C106.972 64.1138 110.984 63.2701 115.419 62.6374C119.642 62.0048 124.499 61.372 129.144 60.7393C133.79 60.1066 138.435 59.474 142.87 58.8413C147.093 58.2086 151.316 57.7868 154.695 57.365Z" fill="#EFE3CD"/>
<path d="M147.097 57.1538C147.8 56.029 148.434 55.115 148.997 54.412C149.982 53.006 150.757 51.8812 151.32 51.0376C151.883 50.3346 152.164 49.9831 152.164 49.9831C152.164 49.9831 151.812 50.3346 151.109 51.0376C150.545 51.7406 149.701 52.7249 148.575 53.9903C147.871 54.9745 147.026 56.0992 146.041 57.3646L142.662 57.7865C143.225 56.9429 143.788 56.0992 144.351 55.2556C145.9 52.8654 147.519 50.5456 149.208 48.296C150.757 46.0464 152.305 43.9374 153.854 41.969C155.332 39.86 157.021 37.9619 158.499 36.0638C159.977 33.9548 161.667 32.4785 163.145 30.7913C164.412 29.1041 165.89 27.6278 167.368 26.1515C169.902 23.4098 172.647 21.0899 174.759 19.4027C175.885 18.4185 176.87 17.6452 177.715 17.0828C178.771 16.4501 179.404 16.0283 180.038 15.6065C180.741 15.1847 181.304 14.9035 181.727 14.7629C181.304 14.9035 180.741 15.1143 180.038 15.3955C179.404 15.6064 178.559 16.2392 177.504 16.661C176.518 17.2234 175.462 17.9264 174.336 18.77C172.013 20.4572 169.268 22.5662 166.312 25.097C163.356 27.8387 160.188 31.0022 156.81 34.5875C155.332 36.4856 153.643 38.1728 151.953 40.2818C150.264 42.3908 148.575 44.4998 146.885 46.6088C145.196 48.8584 143.507 51.1783 141.818 53.5685C140.551 55.1151 139.424 56.7319 138.439 58.4191L134.005 59.0518C165.468 10.334 183.838 5.06152 183.838 5.06152C184.894 7.17052 182.149 22.5661 168.846 53.7793L147.097 57.1538Z" fill="#EFE3CD"/>
<path d="M186.151 143.834C186.433 142.569 186.785 141.303 187.207 140.038C187.066 141.303 186.855 142.639 186.574 144.045C186.433 145.311 186.292 146.576 186.151 147.841C185.729 150.513 185.307 153.114 184.884 155.645C184.884 158.878 184.814 162.112 184.673 165.346C184.673 167.033 184.603 168.72 184.462 170.408C184.462 171.954 184.392 173.571 184.251 175.258C184.11 173.571 183.969 171.954 183.828 170.408C183.688 168.72 183.617 167.033 183.617 165.346C183.617 162.112 183.617 158.878 183.617 155.645C184.18 152.973 184.744 150.372 185.307 147.841C185.588 146.435 185.87 145.1 186.151 143.834Z" fill="#EFE3CD"/>
<path d="M188.052 49.3522C186.926 49.071 185.94 48.7195 185.096 48.2977C183.406 47.665 182.139 47.0322 182.139 47.0322C182.139 47.0322 183.406 46.8213 185.307 47.0322C186.292 47.0322 187.418 47.1026 188.685 47.2432C189.812 47.3838 191.008 47.5947 192.275 47.8759C193.542 48.1571 194.739 48.4383 195.865 48.7195C196.991 49.0007 197.976 49.3522 198.821 49.774C200.722 50.4067 201.777 51.0394 201.777 51.0394C201.777 51.0394 200.51 51.2502 198.61 51.2502C197.625 51.1096 196.569 50.9691 195.443 50.8285C194.176 50.6879 192.909 50.5473 191.642 50.4067C190.515 50.1255 189.319 49.774 188.052 49.3522Z" fill="#EFE3CD"/>
<path fill-rule="evenodd" clip-rule="evenodd" d="M93.6685 121.689C60.7275 188.544 65.5842 197.191 67.2735 200.355C68.3293 202.253 70.2297 203.518 72.3413 203.729C72.3413 203.729 72.4117 203.729 72.5525 203.729C72.9748 203.729 73.3972 203.659 73.8195 203.518L125.765 190.864C126.469 190.724 127.173 190.372 127.876 189.81L158.917 162.393V182.639C158.917 183.272 159.551 183.905 160.184 183.905H163.351V191.708H145.403C144.98 191.708 144.558 192.13 144.558 192.551V210.9C144.558 211.322 144.98 211.743 145.403 211.743H218.253C218.675 211.743 219.098 211.322 219.098 210.9V192.551C219.098 192.13 218.675 191.708 218.253 191.708H200.938V180.741H206.217C206.85 180.741 207.484 180.108 207.484 179.476V154.8L211.496 122.744C211.496 122.322 211.285 121.9 211.074 121.689L195.237 108.403L204.316 51.0378C204.457 50.1942 204.387 49.4209 204.105 48.7179L188.691 3.58532C188.057 1.47632 185.945 0 183.834 0C183.412 0 182.989 0.0703771 182.567 0.210977C181.722 0.421877 173.487 3.16352 159.762 17.2938C149.415 28.0497 138.434 42.3908 127.243 60.1064L87.9672 66.0116L75.5087 62.4264C75.368 62.4264 75.2272 62.4264 75.0864 62.4264C74.6641 62.4264 71.919 62.8482 68.7516 68.7534C65.373 74.4477 66.4288 76.9784 66.64 77.4002C66.64 77.5408 66.7104 77.6815 66.8512 77.8221L77.8315 88.1561C78.1131 88.2967 78.465 88.367 78.8873 88.367C83.5328 98.912 88.8119 110.722 93.6685 121.689ZM75.0864 63.6917C75.0864 63.6917 74.8753 63.9027 74.6641 64.1136C74.2418 64.3948 73.8195 64.8165 73.3971 65.3789C72.5525 66.4334 71.4967 68.1207 70.6521 69.8079C69.5963 71.4951 68.7516 73.1822 68.1181 74.4476C67.9774 75.1506 67.8366 75.7131 67.6958 76.1349C67.6958 76.5567 67.6958 76.7676 67.6958 76.7676C67.6958 76.7676 67.4847 76.5567 67.4847 76.1349C67.4847 75.7131 67.4847 75.0803 67.4847 74.2367C67.6255 73.5337 67.907 72.7605 68.3293 71.9169C68.5405 71.0733 69.174 70.0187 69.5963 69.1751C70.1594 68.3315 70.7225 67.5582 71.2855 66.8552C71.8486 66.0116 72.4117 65.3789 72.9748 64.9571C73.5379 64.3947 74.0306 64.0432 74.4529 63.9026C74.8753 63.6917 75.0864 63.6917 75.0864 63.6917ZM74.0306 200.566C74.0306 200.566 74.8752 200.144 76.1422 199.3C77.6203 198.457 79.732 196.98 82.0547 194.871C84.5886 192.973 87.3337 190.442 90.5011 187.279C93.7389 184.186 97.1175 180.6 100.637 176.523C104.156 172.446 107.816 167.946 111.617 163.025C115.207 157.964 119.008 152.691 122.809 146.997C130.41 135.819 137.59 123.376 144.347 110.512C151.104 97.8575 157.65 84.9926 163.563 72.7604C169.264 60.5282 174.332 48.9287 178.344 39.0165C182.145 28.8933 185.101 20.2464 186.368 14.1303C186.79 10.9668 187.212 8.43602 187.001 6.74882C186.861 5.90522 186.649 5.34284 186.368 5.06165C186.79 5.34284 187.072 5.90522 187.212 6.74882C187.424 8.43602 187.212 10.9668 186.79 14.1303C185.734 20.4573 183.412 29.1042 179.611 39.4383C176.021 49.5615 171.164 61.3719 165.463 73.6041C159.762 86.0471 153.427 98.912 146.67 111.777C139.701 124.642 132.311 137.085 124.709 148.262C116.896 159.44 109.083 169.353 101.693 177.367C94.302 185.592 87.5449 191.497 82.477 195.293C79.9431 197.191 77.8315 198.668 76.3534 199.3C74.8753 200.355 74.0306 200.566 74.0306 200.566ZM134.634 70.6514C135.478 69.2454 136.253 67.9098 136.956 66.6444C137.66 65.5196 138.364 64.4651 139.068 63.4809L141.813 63.0591C141.25 63.9027 140.687 64.7463 140.124 65.5899C137.59 69.1752 135.056 73.6041 132.311 78.2439L130.199 77.8221C131.748 75.4319 133.226 73.0416 134.634 70.6514ZM134 64.7462C133.296 66.0116 132.522 67.3474 131.677 68.7534C129.988 71.4248 128.299 74.0962 126.61 76.7676C126.61 76.9082 126.539 77.0488 126.398 77.1894L123.231 76.5566C125.624 72.3386 128.017 68.4018 130.41 64.7462L134.634 64.1136C134.352 64.3948 134.141 64.6056 134 64.7462ZM143.502 62.8481L166.519 59.2629C163.422 66.2929 159.832 73.9555 155.75 82.2509L134.422 78.4547C135.126 77.1893 135.901 75.8536 136.745 74.4476C138.294 71.495 139.842 68.7534 141.391 66.2226C142.095 65.0978 142.798 63.9729 143.502 62.8481ZM154.06 83.5164C154.06 83.5164 153.216 83.5163 151.526 83.3054C149.837 82.8836 147.303 82.6727 144.347 82.2509C141.602 81.6182 138.223 81.1964 134.634 80.5637C130.833 79.931 127.032 79.2983 123.231 78.6656C119.43 77.822 115.629 77.1893 111.828 76.3457C108.239 75.713 105.071 75.0803 102.115 74.4476C99.1587 73.8149 96.8359 73.3932 95.1466 72.9714C93.4573 72.5496 92.6127 72.3386 92.6127 72.3386C92.6127 72.3386 93.4573 72.5495 95.1466 72.7604C96.8359 72.9713 99.3699 73.1822 102.326 73.8149C105.071 74.2367 108.45 74.6585 112.039 75.2912C115.629 75.9239 119.641 76.7675 123.442 77.4002C127.243 78.0329 131.044 78.8765 134.634 79.5092C138.434 80.1419 141.602 80.9856 144.558 81.4074C147.514 82.0401 149.837 82.6727 151.526 82.8836C153.216 83.3054 154.06 83.5164 154.06 83.5164ZM80.9989 89.8434C80.9989 89.8434 81.4213 90.8978 82.2659 92.7959C83.3217 94.4831 84.5886 97.0139 86.0668 100.177C87.3337 103.341 89.2341 106.926 90.9234 110.722C92.6127 114.519 94.5131 118.737 96.4136 122.955C98.314 127.173 100.214 131.18 101.904 135.187C103.593 138.983 105.282 142.779 106.549 145.943C107.816 149.106 108.872 151.637 109.717 153.535C110.561 155.433 110.984 156.488 110.984 156.488C110.984 156.488 110.35 155.433 109.506 153.535C108.661 151.848 107.394 149.317 105.916 146.153C104.438 142.99 102.748 139.405 100.848 135.609C99.1587 131.601 97.2582 127.594 95.3578 123.376C93.4573 119.158 91.7681 115.151 89.8676 111.144C88.1783 107.348 86.7002 103.552 85.2221 100.388C83.9552 97.2249 82.8994 94.694 82.0547 92.7959C81.4212 90.8978 80.9989 89.8434 80.9989 89.8434ZM103.171 129.071C104.438 126.399 105.775 123.658 107.183 120.846C108.45 118.455 109.646 116.065 110.773 113.675L112.673 115.573C111.265 118.385 109.928 121.127 108.661 123.798C107.112 127.032 105.634 130.125 104.227 133.078C103.804 131.953 103.311 130.828 102.748 129.703C102.889 129.563 103.03 129.352 103.171 129.071ZM96.6248 115.784C92.8239 107.559 88.3895 97.6466 83.1105 86.0471C83.2513 85.9065 83.4624 85.766 83.744 85.6254L102.115 104.606C100.144 108.543 98.314 112.269 96.6248 115.784ZM87.3337 87.1016C87.3337 87.1016 87.756 87.7343 88.8118 88.5779C89.6565 89.4215 90.9235 90.6869 92.6127 92.1632C94.0909 93.6395 95.9913 95.5376 97.8917 97.4357C99.7922 99.3338 101.693 101.443 103.804 103.552C105.705 105.661 107.816 107.77 109.717 109.879C111.406 111.777 113.095 113.675 114.573 115.362C116.051 116.838 117.318 118.315 118.163 119.369C119.008 120.213 119.43 120.846 119.43 120.846C119.43 120.846 118.797 120.213 117.952 119.369C117.107 118.526 115.629 117.26 114.151 115.784C112.673 114.308 110.772 112.41 108.872 110.512C106.972 108.613 104.86 106.504 102.96 104.395C100.848 102.286 98.9476 100.177 97.0471 98.2794C95.1467 96.1704 93.4573 94.2722 91.9792 92.7959C90.5011 91.1087 89.4453 89.6325 88.6007 88.7889C87.7561 87.7344 87.3337 87.1016 87.3337 87.1016ZM113.306 109.035C115.7 104.536 118.093 100.037 120.486 95.5376L122.809 91.1087C123.512 89.7027 124.287 88.2967 125.131 86.8907C125.976 85.4847 126.821 84.0085 127.665 82.4619L129.566 82.8836C127.736 85.9768 125.906 89.2106 124.076 92.585C122.246 96.1 120.486 99.615 118.797 103.13C117.53 105.661 116.263 108.192 114.996 110.722L113.306 109.035ZM108.239 103.763C112.462 95.6079 116.544 88.0858 120.486 81.1964L123.653 81.8291C123.09 82.9539 122.457 84.0787 121.753 85.2035C121.049 86.6095 120.275 88.0155 119.43 89.4215L117.107 93.6395C114.855 97.8575 112.673 102.076 110.561 106.294L108.239 103.763ZM153.427 86.8907C149.907 93.9207 146.036 101.372 141.813 109.246C132.1 127.805 122.597 142.99 113.729 155.011C112.251 151.426 109.717 145.521 105.282 135.187C108.027 129.703 111.195 123.587 114.362 117.26L119.008 122.111C119.008 122.392 119.008 122.673 119.008 122.955C119.008 125.485 120.908 127.383 123.442 127.383C125.976 127.383 127.876 125.485 127.876 122.955C127.876 120.635 125.976 118.526 123.442 118.526C123.161 118.526 122.949 118.596 122.809 118.737L116.685 112.41C118.093 109.598 119.5 106.856 120.908 104.185C122.738 100.67 124.498 97.1545 126.187 93.6395C128.017 90.2651 129.777 86.961 131.466 83.7272C131.607 83.446 131.748 83.2351 131.889 83.0945L153.427 86.8907ZM89.2342 68.5424C89.2342 68.5424 88.3895 68.5424 87.1226 68.5424C86.0668 68.3315 84.3775 67.9097 82.8994 67.4879C81.2101 67.0661 79.732 66.6444 78.6762 66.2226C77.4092 65.8008 76.7757 65.3789 76.7757 65.3789C76.7757 65.3789 77.6204 65.3789 78.8873 65.3789C79.9431 65.5898 81.6324 66.0116 83.1105 66.4334C84.7998 66.8552 86.2779 67.2771 87.3337 67.6989C88.3895 68.1207 89.2342 68.5424 89.2342 68.5424ZM90.29 75.7131L115.207 80.1419C111.687 86.3283 108.098 92.8662 104.438 99.7555L87.1226 81.8291C87.5449 81.2667 87.9672 80.634 88.3895 79.9311C89.2342 78.5251 89.8676 77.1191 90.29 75.7131ZM91.1346 70.6514L123.653 65.5899C121.682 68.8237 119.782 72.1277 117.952 75.5021L91.1346 70.8624C91.1346 70.7218 91.1346 70.6514 91.1346 70.6514ZM128.932 60.5282C133.578 59.8956 138.434 59.2628 142.658 58.6301C147.092 57.9974 151.315 57.5757 154.694 57.1539C158.284 56.7321 161.24 56.5212 163.14 56.3103C165.252 56.0994 166.519 55.8884 166.519 55.8884C166.519 55.8884 165.252 56.0993 163.351 56.5211C161.24 56.732 158.284 57.3648 154.905 57.7866C151.315 58.4193 147.303 59.0519 142.869 59.6846C138.434 60.5282 133.789 61.1609 129.143 61.7936C124.498 62.4263 119.852 63.059 115.418 63.6917C110.984 64.3244 106.972 64.7463 103.382 65.1681C100.003 65.5899 97.0471 66.0117 94.9355 66.2226C92.8239 66.4335 91.7681 66.4334 91.7681 66.4334C91.7681 66.4334 92.8239 66.2225 94.9355 66.0116C97.0471 65.5898 99.7922 64.9572 103.382 64.5354C106.76 63.9027 110.984 63.2699 115.207 62.6372C119.641 62.0045 124.287 61.1609 128.932 60.5282ZM168.842 53.7794L147.092 56.9429C147.796 55.9587 148.429 55.0449 148.992 54.2013C149.978 52.7953 150.752 51.7408 151.315 51.0378C151.738 50.1942 152.019 49.7724 152.16 49.7724C152.019 49.7724 151.667 50.1239 151.104 50.8269C150.541 51.5299 149.696 52.5844 148.57 53.9904C147.726 54.834 146.881 55.8885 146.036 57.1539L142.658 57.5756C143.221 56.8726 143.713 56.0994 144.136 55.2558C145.825 52.8656 147.444 50.5457 148.992 48.2961C150.682 46.0465 152.301 43.8671 153.849 41.7581C155.327 39.6491 157.017 37.7511 158.495 35.853C159.973 33.9549 161.662 32.2677 162.929 30.5805C164.407 28.8933 165.885 27.4169 167.152 25.9406C169.897 23.1989 172.431 20.8792 174.754 19.192C175.88 18.3484 176.866 17.575 177.71 16.872C178.555 16.4502 179.4 15.8175 180.033 15.3957C180.737 15.1145 181.23 14.9036 181.511 14.763C181.933 14.4818 182.145 14.3412 182.145 14.3412C182.145 14.3412 181.933 14.4115 181.511 14.5521C181.23 14.6927 180.737 14.9036 180.033 15.1848C179.188 15.6066 178.555 16.0284 177.499 16.6611C176.514 17.0829 175.458 17.7156 174.332 18.5592C172.009 20.2463 169.264 22.3554 166.308 25.0971C163.351 27.6279 160.184 30.7913 156.805 34.3766C155.327 36.2747 153.427 38.1729 151.949 40.0709C150.259 42.1799 148.57 44.3593 146.881 46.6089C145.192 48.8585 143.432 51.108 141.602 53.3576C140.476 55.0448 139.35 56.7321 138.223 58.4193L133.789 59.0519C165.463 10.1232 183.834 5.06165 183.834 5.06165C184.89 6.95974 181.933 22.5663 168.842 53.7794ZM191.647 50.1941C190.38 49.9129 189.183 49.6318 188.057 49.3506C186.931 48.9288 185.945 48.5773 185.101 48.2961C183.2 47.6634 182.145 47.0306 182.145 47.0306C182.145 47.0306 183.412 46.8198 185.312 46.8198C186.297 46.8198 187.353 46.89 188.479 47.0306C189.746 47.1712 191.013 47.3822 192.28 47.6634C193.406 47.9446 194.533 48.2257 195.659 48.5069C196.926 48.9287 197.982 49.2802 198.826 49.5614C200.516 50.405 201.782 51.0378 201.782 51.0378C201.782 51.0378 200.516 51.0378 198.615 51.0378C197.63 51.0378 196.504 50.9675 195.237 50.8269C194.11 50.6863 192.914 50.4753 191.647 50.1941ZM181.933 151.637C180.666 150.161 178.977 148.263 177.288 146.364L184.467 140.037C183.412 144.677 182.356 148.895 181.933 151.637ZM185.312 147.63C185.594 146.364 185.875 145.099 186.157 143.834C186.438 142.568 186.72 141.232 187.001 139.826C186.861 141.232 186.72 142.568 186.579 143.834C186.438 145.099 186.227 146.435 185.945 147.841C185.523 150.372 185.101 152.973 184.679 155.644C184.819 158.878 184.819 162.112 184.679 165.345C184.679 166.892 184.608 168.509 184.467 170.196C184.467 171.883 184.397 173.5 184.256 175.047C183.975 173.5 183.834 171.883 183.834 170.196C183.693 168.509 183.623 166.892 183.623 165.345C183.482 162.112 183.482 158.808 183.623 155.433C184.186 152.762 184.749 150.161 185.312 147.63ZM207.906 125.064L200.093 118.315L196.292 114.73L192.28 111.144L196.503 114.519L200.516 117.682L208.751 124.431H208.962V124.853L207.062 140.037L205.161 155.433C205.161 159.229 205.091 163.096 204.95 167.033C204.95 169.001 204.88 170.969 204.739 172.938C204.739 174.906 204.668 176.875 204.528 178.843C204.528 176.875 204.457 174.906 204.316 172.938C204.316 170.969 204.316 169.001 204.316 167.033C204.176 163.096 204.105 159.229 204.105 155.433V155.222L206.006 140.037L207.906 125.064ZM163.351 192.551C166.308 192.551 169.193 192.551 172.009 192.551H189.324L197.982 192.762C200.938 192.762 203.824 192.833 206.639 192.973C209.595 192.973 212.481 193.044 215.297 193.184C212.481 193.325 209.595 193.395 206.639 193.395C203.824 193.536 200.938 193.606 197.982 193.606L189.324 193.817H172.009C169.193 193.817 166.308 193.817 163.351 193.817C157.861 193.817 152.16 193.817 146.67 193.817L146.459 200.777C146.318 203.448 146.177 206.049 146.036 208.58C146.036 206.049 145.966 203.448 145.825 200.777L145.614 193.184C145.614 192.973 145.825 192.762 146.036 192.762C151.949 192.552 157.65 192.551 163.351 192.551ZM154.483 111.777C154.483 111.777 156.594 112.62 159.762 114.308C161.451 115.151 163.14 115.995 165.041 117.26C166.026 117.682 167.011 118.245 167.997 118.948C168.982 119.51 169.968 120.072 170.953 120.635C171.939 121.338 172.924 121.97 173.909 122.533C174.895 123.236 175.88 123.868 176.866 124.431C178.555 125.696 180.244 126.751 181.722 128.016C184.467 130.125 186.157 131.601 186.157 131.601C186.157 131.601 184.045 130.758 180.878 129.071C179.4 128.438 177.499 127.383 175.599 126.329C174.613 125.767 173.628 125.204 172.642 124.642C171.657 124.079 170.672 123.447 169.686 122.744C168.701 122.181 167.715 121.549 166.73 120.846C165.745 120.283 164.829 119.651 163.985 118.948C162.084 117.893 160.395 116.628 158.917 115.573C156.172 113.464 154.483 111.777 154.483 111.777ZM113.306 168.72C113.306 168.72 114.362 169.563 115.84 171.04C116.544 171.883 117.318 172.797 118.163 173.781C119.008 174.766 119.852 175.82 120.697 176.945C121.401 178.21 122.105 179.405 122.809 180.53C123.512 181.655 124.076 182.639 124.498 183.483C125.343 185.381 125.976 186.857 125.976 186.857C125.976 186.857 124.709 186.014 123.231 184.326C122.527 183.623 121.753 182.78 120.908 181.796C120.064 180.671 119.289 179.546 118.585 178.421C117.741 177.296 116.967 176.172 116.263 175.047C115.7 173.922 115.136 172.867 114.573 171.883C113.729 169.985 113.306 168.72 113.306 168.72ZM100.848 125.696C100.285 124.431 99.6514 123.095 98.9475 121.689C101.059 117.471 103.311 113.042 105.705 108.403L108.027 110.933C106.62 113.605 105.212 116.346 103.804 119.158C102.819 121.408 101.833 123.587 100.848 125.696ZM96.2024 127.594C96.7655 129 97.3286 130.406 97.8917 131.812C96.2025 135.819 94.5132 139.827 92.8239 143.623C91.6977 146.154 90.6419 148.614 89.6565 151.004C88.6007 153.535 87.756 155.855 86.9114 158.175C86.0667 160.424 85.2925 162.604 84.5886 164.713C84.1663 165.697 83.8144 166.681 83.5328 167.665C83.2513 168.79 82.9697 169.774 82.6882 170.618C82.4066 171.602 82.1251 172.516 81.8436 173.36C81.7028 174.344 81.4916 175.258 81.2101 176.101C81.0693 176.945 80.9285 177.718 80.7878 178.421C80.647 179.265 80.5062 180.038 80.3654 180.741C80.1542 182.006 80.1543 183.483 79.9431 184.537C80.1543 185.592 80.1542 186.435 80.3654 187.279C80.3654 187.701 80.5766 187.912 80.5766 188.333C80.7877 188.544 80.9989 188.755 80.9989 188.755C81.4212 189.177 81.6324 189.177 81.6324 189.177C81.6324 189.177 81.4213 189.177 81.2101 188.755C80.9989 188.544 80.7878 188.544 80.7878 188.123C80.5766 187.912 80.5766 187.701 80.5766 187.279C80.3654 186.435 80.3654 185.592 80.5766 184.537C80.5766 183.975 80.647 183.412 80.7878 182.85C80.7878 182.147 80.9286 181.444 81.2101 180.741C81.3509 180.179 81.4916 179.476 81.6324 178.632C81.7732 177.929 81.9844 177.156 82.2659 176.312C82.5474 175.469 82.829 174.625 83.1105 173.781C83.3921 172.938 83.6736 172.024 83.9552 171.04C84.3775 170.196 84.7294 169.282 85.011 168.298C85.4333 167.314 85.8556 166.33 86.2779 165.345C86.7002 164.361 87.1226 163.307 87.5449 162.182C87.9672 161.057 88.4599 159.932 89.023 158.807C90.7123 154.379 93.035 149.739 95.3578 144.677C96.484 142.146 97.6806 139.616 98.9475 137.085C99.2291 136.522 99.4402 136.03 99.581 135.609C100.144 136.874 100.707 138.069 101.27 139.194C100.848 140.178 100.426 141.092 100.003 141.935C98.8772 144.747 97.8918 147.278 97.0471 149.528C96.0617 151.637 95.2874 153.535 94.7243 155.222C94.1612 156.909 93.7389 158.175 93.4574 159.018C93.3166 160.003 93.2462 160.495 93.2462 160.495C93.2462 160.495 93.8797 158.597 95.1466 155.433C96.6247 152.27 98.7364 147.841 101.27 142.568C101.552 142.146 101.833 141.654 102.115 141.092C106.127 149.95 109.083 156.909 110.35 159.651C88.3895 188.755 72.9748 198.668 72.5525 198.457C72.4117 198.457 72.3413 198.457 72.3413 198.457C71.4967 198.246 63.8949 193.606 96.2024 127.594Z" fill="#DCD1BD"/>
</svg>
