<svg width="1419" height="1419" viewBox="0 0 1419 1419" fill="none" xmlns="http://www.w3.org/2000/svg">
<path d="M1419 711.333H1412.63C1412.63 523.206 1339.07 345.728 1206.79 212.974C1073.8 79.5103 896.955 6.38923 709.5 6.38923C521.337 6.38923 345.2 79.5103 212.213 212.974C79.2263 345.728 6.36636 523.206 6.36636 711.333H0C0 521.076 74.2746 342.888 207.969 208.005C341.664 73.831 519.923 0 709.5 0C899.077 0 1076.63 73.831 1211.03 208.005C1344.73 342.888 1419 521.076 1419 711.333Z" fill="#DCD1BD"/>
<path d="M709.5 1419C519.923 1419 341.664 1345.55 207.969 1211.36C74.2746 1077.88 0 900.609 0 711.333H6.36636C6.36636 898.49 79.2263 1075.05 212.213 1207.12C345.2 1339.9 521.337 1412.64 709.5 1412.64C896.955 1412.64 1073.8 1339.9 1206.79 1207.12C1339.07 1075.05 1412.63 898.49 1412.63 711.333H1419C1419 900.609 1344.73 1077.88 1211.03 1211.36C1076.63 1345.55 899.077 1419 709.5 1419Z" fill="#DCD1BD"/>
<path d="M1255.48 315.677C1245.48 301.897 1248.05 282.494 1262.41 272.074C1275.77 261.496 1295.59 264.642 1306.01 278.996C1316.59 292.359 1313.44 312.179 1299.09 322.599C1285.31 332.603 1265.9 330.031 1255.48 315.677Z" fill="#EFE3CD"/>
<path fill-rule="evenodd" clip-rule="evenodd" d="M1301.17 325.466C1293.71 330.885 1284.73 333.016 1275.4 331.026C1266.48 329.61 1258.03 325.222 1252.61 317.758C1247.19 310.294 1245.06 301.319 1246.48 292.401C1248.05 282.491 1252.86 274.618 1260.32 269.199C1267.79 263.781 1276.76 261.649 1285.68 263.065C1295.17 264.064 1303.46 269.444 1308.88 276.908C1320.13 292.41 1316.26 313.638 1301.17 325.466ZM1264.07 274.367C1257.76 278.952 1253.68 285.417 1253 292.928C1251.32 300.281 1253.19 307.69 1257.78 314.006C1262.36 320.322 1268.83 324.396 1276.34 325.08C1283.69 326.756 1291.1 324.884 1297.42 320.299C1310.05 311.129 1312.88 293.291 1303.71 280.66C1299.13 274.344 1292.66 270.27 1285.15 269.586C1277.8 267.91 1270.39 269.782 1264.07 274.367Z" fill="#DCD1BD"/>
<path d="M163.443 1108.48C153.439 1094.7 133.62 1091.56 119.84 1101.56C105.07 1111.41 101.923 1131.23 112.344 1145.58C122.348 1159.36 142.167 1162.51 155.947 1152.5C170.301 1142.08 173.864 1122.84 163.443 1108.48Z" fill="#EFE3CD"/>
<path fill-rule="evenodd" clip-rule="evenodd" d="M158.604 1154.95C158.604 1154.95 158.412 1155.09 158.029 1155.37C150.566 1160.79 141.175 1162.34 132.256 1160.93C123.337 1159.51 115.464 1154.7 110.046 1147.24C104.627 1139.78 102.079 1130.23 103.495 1121.31C105.485 1111.97 110.291 1104.1 117.755 1098.68C125.219 1093.26 134.193 1091.13 143.528 1093.12C152.447 1094.54 160.32 1099.34 165.738 1106.81C171.157 1114.27 173.288 1123.25 171.872 1132.17C170.873 1141.66 166.068 1149.53 158.604 1154.95ZM121.506 1103.85C115.19 1108.44 111.116 1114.9 110.432 1122.41C108.756 1129.76 110.628 1137.17 115.213 1143.49C119.381 1149.23 125.846 1153.31 133.2 1154.98C141.128 1156.24 148.536 1154.37 154.278 1150.2C154.661 1149.92 154.852 1149.78 154.852 1149.78C160.594 1145.61 164.668 1139.15 165.927 1131.22C167.028 1124.28 165.73 1116.46 161.145 1110.14C156.56 1103.83 150.095 1099.75 142.584 1099.07C135.231 1097.39 127.822 1099.27 121.506 1103.85Z" fill="#DCD1BD"/>
</svg>
