<svg width="600" height="600" viewBox="0 0 600 600" fill="none" xmlns="http://www.w3.org/2000/svg">
<g clip-path="url(#clip0_2608_14132)">
<rect width="600" height="600" rx="24" fill="#FFD98E"/>
<path d="M103.931 515.926C-18.4992 468.596 13.8637 402.233 -8.65059 314.459C-31.1638 226.686 -28.7209 193.124 26.169 131.775C81.0588 70.4262 175.608 47.7175 243.127 120.247C310.648 192.777 373.14 185.863 411.732 239.743C450.325 293.624 443.131 357.439 373.381 402.46C303.631 447.48 254.893 574.286 103.931 515.926Z" fill="#EFE3CD"/>
<path d="M235.984 99.8285C236.22 99.8285 236.454 99.7147 236.597 99.5049L277.025 39.8621C277.044 39.834 277.049 39.8015 277.064 39.7705C277.078 39.7424 277.089 39.7158 277.099 39.6863C277.142 39.5637 277.164 39.4366 277.139 39.308L275.372 30.1027L273.393 19.798L271.743 11.2058C271.718 11.0772 271.65 10.9664 271.566 10.8689C271.545 10.8438 271.524 10.8246 271.501 10.8024C271.475 10.7802 271.459 10.7507 271.431 10.733L223.282 -21.9025C222.946 -22.1286 222.486 -22.0429 222.256 -21.706L170.475 54.6853C170.246 55.0236 170.335 55.4832 170.671 55.7122L235.567 99.7014C235.696 99.7871 235.84 99.8285 235.984 99.8285ZM260.691 27.8981L270.629 13.2375L275.351 37.8349L260.691 27.8981ZM259.052 27.6794C258.823 28.0178 258.912 28.4758 259.248 28.7063L269.899 35.9258L252.156 62.1013L199.445 26.3718L225.069 -11.4323L266.518 16.664L259.052 27.6794ZM223.065 -20.2639L269.99 11.5442L267.349 15.442L225.288 -13.068C224.951 -13.2956 224.49 -13.2099 224.261 -12.8715L197.807 26.156C197.698 26.3186 197.657 26.518 197.694 26.7101C197.731 26.9022 197.843 27.0721 198.004 27.1829L251.939 63.7414C252.066 63.8271 252.211 63.8685 252.353 63.8685C252.589 63.8685 252.822 63.7547 252.964 63.5449L271.122 36.7577L275.385 39.6479L235.786 98.0672L172.112 54.9069L223.065 -20.2639Z" fill="#2C2C2C"/>
<path d="M219.407 15.8794L222.583 32.4151C222.651 32.7682 222.961 33.015 223.308 33.015C223.354 33.015 223.401 33.0105 223.449 33.0017C223.849 32.9248 224.112 32.5377 224.035 32.1373L220.999 16.3271L236.809 13.2906C237.209 13.2138 237.472 12.8267 237.396 12.4263C237.319 12.0258 236.927 11.7599 236.531 11.8397L219.996 15.015C219.594 15.0903 219.332 15.479 219.407 15.8794Z" fill="#2C2C2C"/>
<path d="M237.698 41.3973C237.297 41.4741 237.034 41.8612 237.111 42.2617C237.179 42.6148 237.489 42.8616 237.837 42.8616C237.882 42.8616 237.93 42.8571 237.977 42.8483L254.513 39.6744C254.913 39.5976 255.176 39.2104 255.099 38.81L251.925 22.2743C251.848 21.8739 251.457 21.6079 251.061 21.6877C250.66 21.7646 250.397 22.1517 250.474 22.5521L253.509 38.3623L237.698 41.3973Z" fill="#2C2C2C"/>
<path d="M227.654 36.1223C227.8 36.2819 228 36.3632 228.199 36.3632C228.378 36.3632 228.557 36.2996 228.697 36.1696L246.807 19.6103C247.108 19.334 247.129 18.8671 246.854 18.5657C246.578 18.2642 246.109 18.245 245.809 18.5184L227.701 35.0777C227.4 35.354 227.379 35.8209 227.654 36.1223Z" fill="#2C2C2C"/>
<path d="M208.839 44.0304L204.554 50.3515L201.92 48.5666L206.205 42.2455L203.888 40.6733L193.891 55.4241L196.207 56.9933L200.492 50.6736L203.126 52.46L198.842 58.7797L201.202 60.3784L211.199 45.6306L208.839 44.0304Z" fill="#2C2C2C"/>
<path d="M217.943 53.2772L219.372 51.1701L212.207 46.3133L210.78 48.4218L213.203 50.0649L204.633 62.7056L206.951 64.2778L215.521 51.6341L217.943 53.2772Z" fill="#2C2C2C"/>
<path d="M226.867 56.2515L218.21 65.6667L218.168 65.6386L223.581 54.0248L220.357 51.8394L210.359 66.5887L212.382 67.9599L219.452 57.5311L219.495 57.5592L214.109 69.1316L216.301 70.6151L225.032 61.095L225.073 61.1231L217.904 71.7011L220.095 73.1861L230.091 58.4383L226.867 56.2515Z" fill="#2C2C2C"/>
<path d="M231.779 59.5776L221.781 74.3269L227.912 78.4833L229.341 76.3763L225.527 73.7905L234.095 61.1497L231.779 59.5776Z" fill="#2C2C2C"/>
<path d="M22.0843 265.332L18.4656 278.433C18.1007 279.757 17.3249 279.887 16.465 279.651C16.171 279.568 15.8267 279.474 15.54 279.369L14.8633 281.823C15.2903 281.993 15.6582 282.096 16.1488 282.231C18.1864 282.792 20.2698 282.417 21.2184 278.983L24.7823 266.078L22.0843 265.332Z" fill="#2C2C2C"/>
<path d="M33.4523 273.039C34.2118 270.29 33.3001 268.429 30.6006 267.682L26.6259 266.586L21.8828 283.76L24.5824 284.506L26.3643 278.052L27.6395 278.405C30.3391 279.15 32.0767 278.02 32.8362 275.271L33.4523 273.039ZM30.8015 272.121L30.0908 274.698C29.7524 275.924 29.1777 276.189 28.3192 275.952L27.0425 275.599L28.6487 269.784L29.9253 270.135C30.7838 270.372 31.1414 270.893 30.8015 272.121Z" fill="#2C2C2C"/>
<path d="M39.7262 269.992C37.0754 269.26 35.2683 270.451 34.5103 273.2L32.0427 282.13C31.2847 284.879 32.2245 286.827 34.8753 287.56C37.5246 288.292 39.3332 287.101 40.0912 284.352L41.5968 278.906L37.8172 277.863L37.1389 280.317L38.3653 280.656L37.4921 283.822C37.1537 285.048 36.4903 285.341 35.6318 285.105C34.7733 284.867 34.3552 284.277 34.6935 283.049L37.2542 273.774C37.5926 272.547 38.2619 272.232 39.1219 272.468C39.9803 272.705 40.3911 273.319 40.0527 274.546L39.543 276.387L42.0962 277.092L42.5573 275.423C43.3167 272.674 42.3755 270.723 39.7262 269.992Z" fill="#2C2C2C"/>
<path d="M81.5275 238.286C81.529 238.157 81.5083 238.029 81.4448 237.915L76.8288 229.776C76.8259 229.772 76.8258 229.766 76.8229 229.76L71.6469 220.635C71.644 220.629 71.638 220.626 71.6351 220.62L67.3279 213.027C67.2629 212.911 67.161 212.827 67.0487 212.762C67.0221 212.747 66.9984 212.734 66.9703 212.722C66.9408 212.709 66.9157 212.687 66.8832 212.678L10.8146 197.193C10.624 197.139 10.4231 197.165 10.2532 197.262C10.0832 197.358 9.95764 197.519 9.90593 197.708L-14.6604 286.665C-14.7698 287.06 -14.5378 287.466 -14.1448 287.574L61.4264 308.445C61.4929 308.462 61.5579 308.471 61.6244 308.471C61.948 308.471 62.245 308.257 62.3351 307.929L81.5157 238.476C81.5246 238.444 81.5187 238.411 81.5231 238.379C81.5261 238.346 81.5275 238.318 81.5275 238.286ZM70.6348 247.426L64.8175 238.632C64.6151 238.327 64.2191 238.212 63.8896 238.37L38.8001 250.078L26.8864 232.69C26.6898 232.404 26.3175 232.293 25.9969 232.424L6.51338 240.397L15.865 206.535L64.1319 219.865L60.5886 232.695C60.4793 233.089 60.7113 233.494 61.1043 233.603L73.5087 237.03L70.6348 247.426ZM6.01544 242.199L26.0042 234.019L37.9343 251.432C38.1397 251.729 38.5283 251.838 38.8563 251.683L63.9369 239.979L70.1132 249.315L65.0894 267.51L3.70745 250.559L6.01544 242.199ZM62.2081 232.377L66.9216 215.305L79.2786 237.092L62.2081 232.377ZM61.1058 306.822L-13.041 286.346L11.1308 198.814L65.7765 213.906L64.5235 218.442L15.5444 204.916C15.1499 204.811 14.7435 205.039 14.6357 205.432L2.08506 250.878C2.03334 251.067 2.05699 251.269 2.15451 251.439C2.25055 251.609 2.4116 251.735 2.60074 251.787L65.4071 269.132C65.4721 269.15 65.5386 269.159 65.6036 269.159L65.6065 269.157C65.7321 269.157 65.8562 269.125 65.9671 269.063C65.9863 269.052 65.9981 269.033 66.0158 269.021C66.038 269.006 66.0542 268.989 66.0749 268.969C66.1858 268.875 66.2759 268.758 66.3158 268.616L74.9301 237.424L79.8918 238.796L61.1058 306.822Z" fill="#2C2C2C"/>
<path d="M35.9751 216.562C34.0557 216.033 32.0462 216.283 30.3174 217.264C28.5872 218.245 27.3416 219.843 26.8126 221.761C25.7192 225.719 28.0508 229.83 32.0093 230.925C32.6683 231.106 33.3391 231.196 34.004 231.196C35.2762 231.196 36.5322 230.867 37.6669 230.223C39.3972 229.242 40.6428 227.644 41.1718 225.728C41.7008 223.81 41.4525 221.8 40.4714 220.07C39.4888 218.337 37.893 217.091 35.9751 216.562ZM39.7474 225.332C39.3233 226.869 38.3259 228.15 36.9385 228.936C35.5525 229.723 33.9405 229.923 32.4038 229.497C29.2299 228.621 27.3608 225.324 28.237 222.152C28.661 220.614 29.6584 219.334 31.0459 218.548C31.9561 218.031 32.9638 217.768 33.9833 217.768C34.5167 217.768 35.0531 217.841 35.5821 217.985C38.7559 218.863 40.6236 222.158 39.7474 225.332Z" fill="#2C2C2C"/>
<path d="M552.323 114.888L521.304 49.8536C521.29 49.824 521.265 49.8019 521.245 49.7753C521.228 49.7487 521.211 49.7265 521.191 49.7029C521.106 49.6039 521.007 49.5211 520.883 49.4768L493.911 39.9242C493.787 39.8799 493.657 39.8828 493.532 39.9065C493.498 39.9124 493.47 39.9198 493.439 39.9301C493.409 39.9404 493.377 39.9404 493.347 39.9537L440.847 64.9959C440.478 65.1717 440.322 65.612 440.498 65.98L480.229 149.276C480.313 149.453 480.464 149.589 480.649 149.654C480.73 149.684 480.811 149.697 480.895 149.697C481.005 149.697 481.113 149.673 481.213 149.625L551.976 115.872C552.344 115.696 552.501 115.256 552.323 114.888ZM502.725 57.8976L495.099 41.913L518.71 50.2732L502.725 57.8976ZM501.71 59.2008C501.837 59.4668 502.102 59.6219 502.377 59.6219C502.483 59.6219 502.592 59.5983 502.694 59.5495L514.307 54.01L527.921 82.5541L470.447 109.969L450.785 68.749L495.982 47.191L501.71 59.2008ZM481.244 147.974L442.15 66.011L493.316 41.6042L495.343 45.8552L449.48 67.7324C449.303 67.8166 449.167 67.9673 449.101 68.152C449.036 68.3367 449.046 68.5406 449.132 68.7165L469.429 111.271C469.556 111.537 469.821 111.692 470.096 111.692C470.202 111.692 470.31 111.668 470.413 111.62L529.223 83.5692C529.592 83.3933 529.747 82.953 529.572 82.5851L515.639 53.3747L520.289 51.1568L550.673 114.859L481.244 147.974Z" fill="#2C2C2C"/>
<path d="M478.896 91.9456C479.66 91.9456 480.455 91.7623 481.243 91.3856C486.175 89.0347 486.748 83.6799 487.092 77.8686C487.132 77.8568 487.172 77.8597 487.211 77.842L491.305 75.8886C492.891 81.2877 494.334 86.1977 494.736 87.5291C495.302 89.4085 496.437 89.3435 496.896 89.2253C498.431 88.8397 499.888 85.9672 499.593 84.5074C499.51 84.107 499.113 83.8558 498.721 83.9297C498.321 84.0109 498.064 84.401 498.143 84.8014C498.242 85.289 497.786 86.5568 497.11 87.337C496.774 87.7241 496.552 87.798 496.515 87.798C496.512 87.7965 496.329 87.6975 496.15 87.102C495.744 85.7545 494.266 80.7292 492.656 75.2429L497.066 73.1388C497.436 72.963 497.591 72.5227 497.415 72.1533C497.239 71.7854 496.796 71.6273 496.431 71.8046L492.234 73.8067C490.025 66.2813 487.723 58.4206 487.682 58.2787C487.582 57.93 487.248 57.7099 486.875 57.7542C486.513 57.803 486.24 58.1088 486.234 58.4738C486.231 58.6186 486.232 58.923 486.234 59.3648C486.24 61.723 486.258 67.9835 485.822 74.3327C485.767 75.1454 485.721 75.9477 485.675 76.7382C485.322 82.9929 485.042 87.9354 480.606 90.0498C479.051 90.7901 477.538 90.5271 476.556 89.3435C475.452 88.0152 475.071 85.4752 476.844 83.0357C480.018 78.6724 482.875 80.481 483.007 80.5681C483.342 80.7957 483.799 80.7129 484.031 80.376C484.261 80.0406 484.177 79.5796 483.842 79.3491C483.802 79.321 479.7 76.5964 475.649 82.1669C473.41 85.2432 473.96 88.5338 475.42 90.2877C476.327 91.3796 477.561 91.9456 478.896 91.9456ZM487.698 63.5892C488.576 66.5842 489.745 70.5723 490.884 74.4524L487.19 76.2152C487.224 75.6256 487.256 75.0375 487.298 74.4362C487.568 70.4807 487.666 66.565 487.698 63.5892Z" fill="#2C2C2C"/>
<path d="M496.982 77.811C497.14 79.3831 497.874 80.614 499.049 81.2744C499.588 81.5773 500.181 81.731 500.761 81.731C501.23 81.731 501.694 81.6305 502.116 81.4281C504.331 80.3731 505.488 78.8955 505.934 76.8446C506.298 77.7696 506.682 78.4183 507.077 78.6222C507.356 78.7655 507.679 78.7744 507.96 78.6414C510.159 77.5938 510.138 75.2429 510.137 75.1425C510.128 74.7376 509.806 74.4702 509.389 74.4214C508.983 74.4258 508.658 74.7598 508.659 75.1661C508.659 75.2222 508.653 76.4324 507.643 77.1254C507.087 76.1738 506.251 72.8758 505.636 69.7049C505.569 69.3267 505.497 68.9396 505.422 68.5421C505.343 68.1446 504.962 67.886 504.56 67.957C504.272 68.0116 504.052 68.2273 503.981 68.4933C503.848 68.4327 503.694 68.4121 503.533 68.4431C503.461 68.4564 496.193 70.0093 496.982 77.811ZM503.827 69.8896C503.946 69.866 504.051 69.8143 504.139 69.7448C504.163 69.8704 504.186 69.996 504.21 70.1231C505.28 76.2979 504.593 78.6104 501.481 80.0953C500.976 80.3347 500.323 80.2933 499.774 79.986C499.031 79.5678 498.561 78.7433 498.451 77.6632C497.8 71.2106 503.581 69.9413 503.827 69.8896Z" fill="#2C2C2C"/>
<path d="M500.849 110.556C499.623 107.983 497.565 107.159 495.085 108.344C492.603 109.527 491.95 111.645 493.176 114.217L497.166 122.58C498.393 125.153 500.449 125.977 502.93 124.794C505.412 123.61 506.067 121.493 504.839 118.92L500.849 110.556ZM501.835 122.496C501.031 122.879 500.317 122.685 499.769 121.536L495.626 112.851C495.078 111.702 495.375 111.024 496.179 110.64C496.984 110.256 497.696 110.451 498.244 111.6L502.386 120.286C502.936 121.435 502.637 122.112 501.835 122.496Z" fill="#2C2C2C"/>
<path d="M508.812 104.842L507.717 102.544L499.906 106.271L501.001 108.568L503.643 107.308L510.218 121.094L512.745 119.888L506.171 106.102L508.812 104.842Z" fill="#2C2C2C"/>
<path d="M518.012 106.405L514.748 107.961L512.436 103.112L516.595 101.129L515.499 98.8311L508.812 102.02L516.484 118.103L519.012 116.898L515.844 110.257L519.107 108.701L518.012 106.405Z" fill="#2C2C2C"/>
<path d="M356.022 489.554C356.01 489.523 355.987 489.501 355.972 489.472C355.957 489.442 355.942 489.417 355.923 489.39C355.849 489.285 355.759 489.192 355.639 489.138L347.145 485.182L347.142 485.179L337.631 480.751H337.629L329.7 477.058C329.581 477.002 329.451 476.992 329.322 477.005C329.291 477.008 329.265 477.013 329.235 477.018C329.202 477.026 329.168 477.023 329.136 477.033L274.486 496.954C274.303 497.021 274.152 497.159 274.069 497.337C273.987 497.514 273.978 497.718 274.044 497.901L305.653 584.608C305.721 584.792 305.858 584.943 306.035 585.024C306.133 585.07 306.241 585.094 306.347 585.094C306.433 585.094 306.519 585.079 306.6 585.049L380.258 558.196C380.642 558.055 380.838 557.631 380.699 557.248L356.022 489.554ZM336.76 495.79L330.695 479.151L353.399 489.723L336.76 495.79ZM341.472 495.643C341.36 495.988 341.115 496.286 340.748 496.419C340.442 496.534 340.111 496.517 339.816 496.379C339.77 496.357 339.738 496.317 339.696 496.291L341.472 495.643ZM335.626 496.988C335.735 497.288 336.019 497.474 336.32 497.474C336.404 497.474 336.49 497.459 336.573 497.43L338.158 496.852C338.424 497.22 338.77 497.523 339.192 497.719C339.54 497.881 339.911 497.96 340.283 497.966C341.307 503.051 341.873 514.765 327.725 521.111L327.641 521.142L327.338 520.313C327.271 520.129 327.132 519.978 326.955 519.897C326.776 519.814 326.575 519.803 326.391 519.871L323.156 521.052C322.773 521.192 322.575 521.616 322.716 521.999L323.019 522.828L322.937 522.858C308.023 527.106 300.916 517.775 298.427 513.224C298.708 512.979 298.94 512.68 299.103 512.333C299.407 511.68 299.438 510.945 299.191 510.269C298.681 508.872 297.133 508.147 295.734 508.658C294.337 509.168 293.613 510.719 294.123 512.117C294.522 513.209 295.559 513.889 296.66 513.889C296.806 513.889 296.956 513.875 297.103 513.85C298.111 515.68 299.831 518.253 302.467 520.526C305.344 523.007 309.701 525.404 315.795 525.404C315.851 525.404 315.915 525.396 315.971 525.395L305.805 529.1L305.503 528.272C305.437 528.087 305.298 527.936 305.121 527.855C304.943 527.772 304.741 527.762 304.556 527.83L301.322 529.01C300.939 529.151 300.741 529.575 300.882 529.957L302.061 533.192C302.17 533.492 302.454 533.678 302.755 533.678C302.839 533.678 302.925 533.663 303.008 533.634L306.242 532.455C306.425 532.388 306.576 532.249 306.659 532.072C306.742 531.895 306.751 531.691 306.684 531.507L306.313 530.489L323.422 524.253C323.456 524.242 323.493 524.229 323.529 524.219L323.898 525.232C323.964 525.417 324.103 525.568 324.281 525.649C324.38 525.695 324.486 525.718 324.592 525.718C324.678 525.718 324.764 525.703 324.845 525.674L328.079 524.493C328.462 524.353 328.66 523.929 328.52 523.546L328.153 522.54C328.196 522.521 328.236 522.5 328.279 522.481L345.361 516.253L345.732 517.271C345.842 517.571 346.125 517.757 346.427 517.757C346.511 517.757 346.597 517.742 346.679 517.713L349.914 516.534C350.296 516.393 350.494 515.969 350.354 515.586L349.175 512.352C349.036 511.969 348.615 511.768 348.228 511.91L344.993 513.089C344.611 513.23 344.413 513.654 344.553 514.036L344.856 514.865L334.693 518.57C343.071 511.622 342.542 502.115 341.679 497.6C342.573 497.083 343.081 496.097 343.009 495.08L348.659 493.021L359.492 522.731L299.663 544.546L284.021 501.638L331.067 484.488L335.626 496.988ZM326.878 523.36L325.031 524.034L324.357 522.188L326.204 521.515L326.878 523.36ZM295.513 511.612C295.283 510.979 295.61 510.279 296.242 510.047C296.379 509.998 296.52 509.973 296.659 509.973C297.157 509.973 297.625 510.28 297.805 510.774C297.917 511.081 297.903 511.414 297.765 511.708C297.628 512.003 297.384 512.226 297.078 512.339C296.444 512.571 295.744 512.243 295.513 511.612ZM305.042 531.32L303.195 531.994L302.522 530.148L304.369 529.474L305.042 531.32ZM346.195 514.227L348.04 513.553L348.713 515.4L346.867 516.074L346.195 514.227ZM306.79 583.408L275.689 498.09L328.95 478.675L330.562 483.097L282.821 500.502C282.438 500.642 282.24 501.066 282.381 501.449L298.529 545.745C298.596 545.93 298.735 546.081 298.912 546.162C299.009 546.208 299.117 546.232 299.224 546.232C299.309 546.232 299.395 546.217 299.476 546.187L360.691 523.87C361.075 523.729 361.273 523.305 361.133 522.923L350.05 492.518L354.889 490.754L379.062 557.061L306.79 583.408Z" fill="#2C2C2C"/>
<path d="M328.224 560.337L326.436 555.434L330.049 554.116L329.177 551.725L325.566 553.043L323.865 548.379L328.409 546.722L327.538 544.33L320.363 546.947L326.466 563.686L333.639 561.071L332.769 558.68L328.224 560.337Z" fill="#2C2C2C"/>
<path d="M338.465 545.035C337.488 542.354 335.664 541.367 333.034 542.326L329.16 543.739L335.263 560.48L337.893 559.521L335.599 553.232L336.844 552.777C339.474 551.82 340.235 549.889 339.258 547.21L338.465 545.035ZM335.973 550.387L334.729 550.84L332.664 545.172L333.908 544.719C334.744 544.413 335.339 544.63 335.775 545.827L336.69 548.337C337.124 549.532 336.81 550.081 335.973 550.387Z" fill="#2C2C2C"/>
<path d="M345.445 546.28C343.173 545.403 342.316 544.686 341.871 543.465C341.435 542.269 341.748 541.642 342.585 541.338C343.421 541.032 344.065 541.311 344.501 542.508L344.754 543.202L347.242 542.297L347.05 541.771C346.073 539.092 344.2 538.041 341.642 538.972C339.083 539.906 338.325 541.915 339.302 544.594C339.999 546.508 341.197 547.643 344.104 548.777C346.376 549.657 347.233 550.372 347.678 551.592C348.114 552.788 347.745 553.41 346.908 553.714C346.072 554.02 345.389 553.78 344.953 552.585L344.517 551.388L342.029 552.296L342.405 553.322C343.38 556.001 345.277 557.043 347.861 556.102C350.443 555.159 351.224 553.141 350.248 550.463C349.55 548.55 348.35 547.417 345.445 546.28Z" fill="#2C2C2C"/>
<path d="M600.379 113.585L558.652 469.029C558.379 471.356 557.11 473.324 555.308 474.542C553.813 475.566 551.96 476.077 550.019 475.848L278.586 443.984L322.126 73.0872L593.559 104.951C597.829 105.452 600.88 109.315 600.379 113.585Z" fill="#EFE3CD"/>
<mask id="mask0_2608_14132" style="mask-type:luminance" maskUnits="userSpaceOnUse" x="278" y="73" width="323" height="403">
<path d="M600.375 113.585L558.648 469.029C558.375 471.356 557.106 473.324 555.305 474.542C553.809 475.566 551.956 476.077 550.015 475.848L278.582 443.984L322.122 73.0872L593.555 104.951C597.825 105.452 600.876 109.315 600.375 113.585Z" fill="white"/>
</mask>
<g mask="url(#mask0_2608_14132)">
<path d="M429.036 219.599L427.437 233.215L390.211 299.556L419.25 302.964L417.619 316.858L372.879 311.607L374.478 297.989L411.704 231.649L384.054 228.402L385.685 214.509L429.036 219.599Z" fill="#2C2C2C"/>
<path d="M438.063 220.658L453.347 222.452L441.929 319.713L426.645 317.919L438.063 220.658Z" fill="#2C2C2C"/>
<path d="M506.938 253.112L505.453 265.756C503.627 281.318 495.126 288.912 479.843 287.119L472.617 286.271L468.327 322.813L453.043 321.017L464.462 223.757L486.971 226.399C502.254 228.194 508.764 237.552 506.938 253.112ZM478.115 239.446L474.249 272.377L481.476 273.225C486.339 273.795 489.239 271.882 490.055 264.934L491.768 250.346C492.583 243.398 490.204 240.866 485.342 240.294L478.115 239.446Z" fill="#2C2C2C"/>
</g>
<path d="M600.379 113.585L558.652 469.029C558.379 471.356 557.11 473.324 555.308 474.542C553.813 475.566 551.96 476.077 550.019 475.848L278.586 443.984L322.126 73.0872L593.559 104.951C597.829 105.452 600.88 109.315 600.379 113.585Z" stroke="#2C2C2C" stroke-miterlimit="10"/>
<path d="M96.8612 609.249C105.814 579.87 119.796 535.115 124.01 527.945C130.358 517.126 134.602 519.16 142.114 512.278C149.626 505.395 156.842 468.303 152.117 452.945C151.139 449.771 150.136 446.946 149.144 444.402L149.131 444.389C148.314 442.313 147.497 440.412 146.694 438.684C146.4 438.041 146.118 437.425 145.824 436.822C143.213 431.412 140.856 427.662 139.37 424.462C136.719 418.744 137.254 402.622 129.782 379.926C122.31 357.242 118.28 337.184 101.997 343.022C95.3556 345.405 92.2231 349.315 91.6867 366.134C91.1651 382.952 90.6287 400.507 93.8159 405.797C94.8207 407.471 95.7707 409.091 96.6011 410.537C96.8819 411.019 97.136 411.474 97.3784 411.902C98.3152 413.495 99.0126 414.754 99.3731 415.397C99.4396 415.491 99.4795 415.585 99.5209 415.651C99.5741 415.757 99.6154 415.825 99.6287 415.852C99.6154 415.839 99.5888 415.825 99.549 415.812C99.4958 415.772 99.4145 415.732 99.3081 415.664C99.1204 415.545 98.853 415.37 98.5176 415.156C98.2501 414.968 97.9147 414.754 97.5527 414.487C97.003 414.098 96.3603 413.63 95.6511 413.067C95.2891 412.799 94.9152 412.49 94.5133 412.157C94.3124 411.995 94.1114 411.836 93.8972 411.648C93.482 411.313 93.0535 410.939 92.5984 410.537C92.13 410.122 91.6483 409.68 91.1385 409.212C90.5623 408.675 89.9742 408.114 89.358 407.498C87.9381 406.091 86.4383 404.498 84.8721 402.691C84.5913 402.37 84.2958 402.035 84.0151 401.686C83.56 401.137 83.1049 400.588 82.6365 400.012C82.2213 399.491 81.8061 398.954 81.3909 398.419C80.788 397.655 80.1985 396.853 79.6104 396.023C79.303 395.608 78.9942 395.192 78.7135 394.764C78.1106 393.907 77.5078 393.023 76.9064 392.113C76.3035 391.203 75.7007 390.251 75.0993 389.261C74.792 388.78 74.4965 388.283 74.2024 387.775C73.5996 386.77 73.0115 385.725 72.4219 384.654C72.1279 384.118 71.8324 383.57 71.5383 383.021C71.1896 382.379 70.8557 381.723 70.507 381.053C70.2661 380.585 70.0253 380.09 69.7977 379.607C69.5037 379.017 69.2215 378.428 68.9407 377.826C68.7132 377.358 68.4856 376.876 68.2714 376.393C67.9906 375.777 67.7084 375.147 67.4277 374.505C67.1469 373.862 66.8647 373.206 66.5973 372.55C66.3165 371.894 66.0491 371.224 65.7802 370.555C64.146 366.498 62.6329 362.133 61.2676 357.419C61.1066 356.884 60.947 356.335 60.7992 355.785C60.5052 354.727 60.2097 353.669 59.9422 352.585C59.728 351.768 59.5137 350.937 59.3128 350.093C58.308 345.875 57.4111 341.43 56.662 336.717C56.662 336.717 42.9633 350.562 42.9633 368.184C42.9633 396.45 39.4289 428.963 39.7894 449.235C39.9771 460.295 42.9633 491.615 42.9633 493.356C42.9633 493.369 42.95 493.382 42.9367 493.422C42.9367 493.449 42.9234 493.476 42.8968 493.515C42.8968 493.529 42.8968 493.555 42.8835 493.569C42.3072 494.761 38.9339 500.478 36.2284 507.855C36.2151 507.869 36.2151 507.882 36.2018 507.895C34.5809 512.328 33.2023 517.349 32.827 522.343C32.5596 525.878 28.2746 535.587 22.2357 547.758C12.7008 566.957 -1.21364 592.277 -10.6953 609.244H96.8612V609.249Z" fill="#EFE3CD"/>
<path opacity="0.4" d="M131.539 519.335C129.143 520.969 126.773 523.231 124.014 527.945C121.041 533.02 113.168 556.895 105.642 580.836C103.848 573.097 103.192 563.215 106.004 551.859C111.855 528.225 121.335 524.784 131.539 519.335Z" fill="#EFE3CD"/>
<path opacity="0.4" d="M149.128 444.389C134.64 427.772 113.765 420.554 110.684 427.717C107.015 436.287 101.82 459.238 100.521 465.129C100.254 464.688 99.958 464.206 99.6374 463.683C92.2997 451.779 91.2949 434.933 91.2949 434.933L85.4703 438.441C79.3368 442.137 75.1729 448.363 74.1017 455.434C71.8661 470.27 67.915 494.306 66.2409 490.944C64.6614 487.771 39.4198 523.095 22.2266 547.759C28.2655 535.587 32.5505 525.879 32.8179 522.345C33.1932 517.35 34.5718 512.328 36.1927 507.897C36.206 507.883 36.206 507.87 36.2193 507.857C39.8217 500.21 42.3927 494.721 42.8744 493.57C42.8877 493.557 42.8877 493.53 42.8877 493.517C42.9143 493.477 42.9276 493.45 42.9276 493.424C42.9409 493.384 42.9542 493.371 42.9542 493.357C42.9542 491.617 39.9679 460.296 39.7803 449.237C39.4183 428.964 42.9542 396.451 42.9542 368.185C42.9542 350.563 56.6529 336.718 56.6529 336.718C57.402 341.432 58.3004 345.878 59.3037 350.095C59.5046 350.939 59.7189 351.769 59.9331 352.586C60.2005 353.671 60.4961 354.729 60.7901 355.787C60.9379 356.335 61.0975 356.884 61.2585 357.421C62.6238 362.134 64.1368 366.499 65.7711 370.556C66.0252 371.226 66.3059 371.895 66.5882 372.551C66.8556 373.207 67.1378 373.863 67.4186 374.506C67.6993 375.149 67.9815 375.778 68.2623 376.394C68.4765 376.876 68.7041 377.358 68.9316 377.828C69.2124 378.431 69.4946 379.019 69.7886 379.608C70.0162 380.103 70.257 380.572 70.4979 381.055C70.8466 381.724 71.1805 382.38 71.5292 383.023C71.8233 383.571 72.1188 384.121 72.4128 384.656C73.0024 385.727 73.5919 386.772 74.1933 387.776C74.5006 388.285 74.7962 388.781 75.0902 389.263C75.6931 390.239 76.2959 391.191 76.8973 392.114C77.5001 393.025 78.103 393.908 78.7044 394.765C78.9984 395.194 79.2939 395.622 79.6013 396.024C80.1908 396.855 80.7922 397.658 81.3818 398.421C81.797 398.956 82.2122 399.492 82.6274 400.014C83.0958 400.59 83.5509 401.138 84.006 401.688C84.2867 402.023 84.5822 402.357 84.863 402.693C86.4292 404.5 87.929 406.094 89.3489 407.499C89.9651 408.102 90.5546 408.677 91.1294 409.213C91.6377 409.682 92.1209 410.123 92.5893 410.539C93.0444 410.94 93.4729 411.302 93.8881 411.65C94.1023 411.837 94.3033 411.998 94.5042 412.158C94.9061 412.493 95.2814 412.787 95.642 413.068C96.3512 413.631 96.994 414.099 97.5436 414.488C97.9056 414.742 98.2263 414.97 98.5085 415.157C98.8439 415.372 99.1113 415.546 99.299 415.666C99.4054 415.719 99.4866 415.774 99.5398 415.814C99.5797 415.827 99.6063 415.84 99.6196 415.853C99.6063 415.827 99.5664 415.76 99.5118 415.652C99.4719 415.586 99.432 415.491 99.364 415.398C99.002 414.756 98.3061 413.497 97.3693 411.904C97.1284 411.475 96.8743 411.02 96.5921 410.539C95.7616 409.092 94.8116 407.473 93.8068 405.798C90.6196 400.509 91.156 382.955 91.6776 366.136C92.214 349.318 95.3464 345.408 101.988 343.023C118.271 337.185 122.302 357.243 129.773 379.927C137.245 402.625 136.709 418.747 139.361 424.463C140.847 427.664 143.204 431.412 145.815 436.823C146.109 437.413 146.404 438.042 146.685 438.685C147.495 440.412 148.312 442.313 149.128 444.389Z" fill="#FFD98E"/>
<path opacity="0.4" d="M100.215 466.523C100.215 466.523 100.321 466.028 100.522 465.131C106.402 474.799 100.215 466.523 100.215 466.523Z" fill="#EFE3CD"/>
<path d="M101.222 595.012C109.823 567.164 120.429 534.028 124.003 527.948C130.36 517.132 134.598 519.163 142.114 512.276C149.631 505.389 156.847 468.309 152.112 452.947C147.376 437.584 142.014 430.168 139.366 424.46C136.717 418.752 137.247 402.623 129.773 379.935C122.301 357.246 118.27 337.191 101.993 343.029C95.3456 345.412 92.219 349.319 91.6901 366.139C91.1596 382.956 90.6306 400.506 93.8089 405.803C96.9872 411.1 99.6365 415.874 99.6365 415.874C99.6365 415.874 66.2416 396.965 56.6535 336.72C56.6535 336.72 42.9548 350.568 42.9548 368.192C42.9548 396.453 39.4145 428.966 39.7765 449.241C39.973 460.296 42.9548 491.62 42.9548 493.356C42.9548 493.869 33.875 508.25 32.8156 522.343C32.3856 528.067 21.4781 549.878 9.58203 572.187" stroke="#2C2C2C" stroke-miterlimit="10" stroke-linecap="round" stroke-linejoin="round"/>
<path d="M99.6367 415.871C101.756 421.162 101.175 430.102 101.995 443.642C102.815 457.183 105.993 462.032 105.993 462.032" stroke="#2C2C2C" stroke-miterlimit="10" stroke-linecap="round" stroke-linejoin="round"/>
<path d="M102.815 451.33C102.815 451.33 100.166 464.07 99.6367 472.017" stroke="#2C2C2C" stroke-miterlimit="10" stroke-linecap="round" stroke-linejoin="round"/>
<path d="M62.0234 430.963C62.0234 430.963 66.2183 465.131 66.2405 476.785" stroke="#2C2C2C" stroke-miterlimit="10" stroke-linecap="round" stroke-linejoin="round"/>
<path d="M128.045 522.34C116.058 529.756 109.701 532.405 105.992 546.707" stroke="#2C2C2C" stroke-miterlimit="10" stroke-linecap="round" stroke-linejoin="round"/>
<path d="M42.957 493.353C47.1948 483.67 49.0432 462.032 49.0432 462.032" stroke="#2C2C2C" stroke-miterlimit="10" stroke-linecap="round" stroke-linejoin="round"/>
<path d="M53.3698 437.765L122.441 416.221V42.2056L53.3698 20.6624C49.2489 19.3769 45.8711 21.7189 45.8711 25.9064V432.521C45.8726 436.708 49.2503 439.049 53.3698 437.765Z" fill="#EFE3CD" stroke="#2C2C2C" stroke-miterlimit="10"/>
<path d="M402.733 49.9896V407.873C402.733 410.217 401.702 412.319 400.054 413.738C398.689 414.93 396.907 415.653 394.952 415.653H121.656V42.2086H394.954C399.251 42.2086 402.733 45.6913 402.733 49.9896Z" fill="#EFE3CD"/>
<path d="M402.733 49.9896V407.873C402.733 410.217 401.702 412.319 400.054 413.738C398.689 414.93 396.907 415.653 394.952 415.653H121.656V42.2086H394.954C399.251 42.2086 402.733 45.6913 402.733 49.9896Z" stroke="#2C2C2C" stroke-miterlimit="10"/>
<path d="M396.163 289.208V384.226C396.163 387.627 393.592 390.505 390.191 390.867L387.03 391.216L359.434 394.242V279.193L390.191 282.568C393.592 282.928 396.163 285.793 396.163 289.208Z" fill="#FFB727"/>
<path d="M396.163 289.208V384.226C396.163 387.627 393.592 390.505 390.191 390.867L387.03 391.216L359.434 394.242V279.193L390.191 282.568C393.592 282.928 396.163 285.793 396.163 289.208Z" stroke="#2C2C2C" stroke-miterlimit="10" stroke-linecap="round" stroke-linejoin="round"/>
<path d="M396.162 182.084V277.102C396.162 280.504 393.591 283.382 390.189 283.744L383.936 284.426V402.959C383.936 406.627 381.285 409.667 377.789 410.256C377.374 410.336 376.946 410.377 376.517 410.377L121.738 410.163V48.5962L376.517 48.8104C376.946 48.8104 377.374 48.8503 377.789 48.9316C381.284 49.5212 383.936 52.5606 383.936 56.2294V174.761L390.189 175.444C393.591 175.805 396.162 178.67 396.162 182.084Z" fill="#EFE3CD"/>
<path d="M396.161 182.084V277.102C396.161 280.503 393.59 283.382 390.189 283.744L383.936 284.426V402.959C383.936 406.627 381.285 409.667 377.789 410.256V48.9316C381.284 49.5211 383.936 52.5605 383.936 56.2294V174.761L390.189 175.444C393.59 175.805 396.161 178.67 396.161 182.084Z" fill="#FFD98E"/>
<path d="M234.229 98.1691V170.222H155.828V77.9365H213.996L227.6 91.5407L234.229 98.1691Z" fill="#FFB727" stroke="#2C2C2C" stroke-miterlimit="10" stroke-linecap="round" stroke-linejoin="round"/>
<path opacity="0.5" d="M227.604 91.5392V131.269H162.445V84.1202H220.185L227.604 91.5392Z" fill="#EFE3CD"/>
<path d="M227.604 91.5392V131.269H162.445V84.1202H220.185L227.604 91.5392Z" stroke="#2C2C2C" stroke-miterlimit="10" stroke-linecap="round" stroke-linejoin="round"/>
<path d="M182.263 155.149C182.569 155.174 182.925 155.174 183.23 155.174C184.121 155.174 184.833 154.844 184.833 153.469V139.877H187.633V153.265C187.633 156.829 185.724 157.745 183.611 157.745C183.101 157.745 182.72 157.745 182.262 157.694V155.149H182.263Z" fill="#2C2C2C"/>
<path d="M197.841 144.28V146.596C197.841 149.447 196.467 150.999 193.667 150.999H192.343V157.694H189.543V139.875H193.667C196.467 139.877 197.841 141.428 197.841 144.28ZM192.343 142.421V148.454H193.667C194.558 148.454 195.041 148.047 195.041 146.774V144.101C195.041 142.829 194.558 142.421 193.667 142.421H192.343Z" fill="#2C2C2C"/>
<path d="M203.338 147.767H207.259V153.419C207.259 156.269 205.833 157.899 203.084 157.899C200.335 157.899 198.91 156.269 198.91 153.419V144.153C198.91 141.303 200.335 139.673 203.084 139.673C205.833 139.673 207.259 141.303 207.259 144.153V145.885H204.611V143.976C204.611 142.704 204.051 142.22 203.16 142.22C202.269 142.22 201.709 142.704 201.709 143.976V153.598C201.709 154.87 202.269 155.328 203.16 155.328C204.051 155.328 204.611 154.87 204.611 153.598V150.313H203.338V147.767Z" fill="#2C2C2C"/>
<path d="M234.233 98.1691H214V77.9365L227.604 91.5407L234.233 98.1691Z" fill="#EFE3CD" stroke="#2C2C2C" stroke-miterlimit="10" stroke-linecap="round" stroke-linejoin="round"/>
<path d="M227.604 111.317V131.269H162.445V121.493L180.295 107.701L196.886 121.694L218.431 103.323L227.604 111.317Z" fill="#EFE3CD" stroke="#2C2C2C" stroke-miterlimit="10" stroke-linecap="round" stroke-linejoin="round"/>
<path d="M185.237 103.327C188.943 103.327 191.947 100.323 191.947 96.6177C191.947 92.912 188.943 89.908 185.237 89.908C181.531 89.908 178.527 92.912 178.527 96.6177C178.527 100.323 181.531 103.327 185.237 103.327Z" fill="#EFE3CD" stroke="#2C2C2C" stroke-miterlimit="10" stroke-linecap="round" stroke-linejoin="round"/>
<path d="M343.151 98.1691V170.222H264.75V77.9365H322.918L336.522 91.5407L343.151 98.1691Z" fill="#FFB727" stroke="#2C2C2C" stroke-miterlimit="10" stroke-linecap="round" stroke-linejoin="round"/>
<path opacity="0.5" d="M336.52 91.5407V131.27H271.363V84.1232H329.101L336.52 91.5407Z" fill="#EFE3CD"/>
<path d="M336.52 91.5407V131.27H271.363V84.1232H329.101L336.52 91.5407Z" stroke="#2C2C2C" stroke-miterlimit="10" stroke-linecap="round" stroke-linejoin="round"/>
<path d="M281.566 118.867H326.328" stroke="#2C2C2C" stroke-miterlimit="10" stroke-linecap="round" stroke-linejoin="round"/>
<path d="M280.703 98.1693C280.703 98.1693 280.703 118.968 303.946 118.968C327.188 118.968 327.188 98.1693 327.188 98.1693" stroke="#2C2C2C" stroke-miterlimit="10" stroke-linecap="round" stroke-linejoin="round"/>
<path d="M282.662 98.1692C282.662 99.2508 281.785 100.127 280.704 100.127C279.622 100.127 278.746 99.2508 278.746 98.1692C278.746 97.0876 279.622 96.2114 280.704 96.2114C281.785 96.2114 282.662 97.0876 282.662 98.1692Z" fill="#EFE3CD" stroke="#2C2C2C" stroke-miterlimit="10" stroke-linecap="round" stroke-linejoin="round"/>
<path d="M329.15 98.1692C329.15 99.2508 328.274 100.127 327.192 100.127C326.111 100.127 325.234 99.2508 325.234 98.1692C325.234 97.0876 326.111 96.2114 327.192 96.2114C328.272 96.2114 329.15 97.0876 329.15 98.1692Z" fill="#EFE3CD" stroke="#2C2C2C" stroke-miterlimit="10" stroke-linecap="round" stroke-linejoin="round"/>
<path d="M282.427 117.245H278.984V120.688H282.427V117.245Z" fill="#EFE3CD" stroke="#2C2C2C" stroke-miterlimit="10" stroke-linecap="round" stroke-linejoin="round"/>
<path d="M305.669 117.245H302.227V120.688H305.669V117.245Z" fill="#EFE3CD" stroke="#2C2C2C" stroke-miterlimit="10" stroke-linecap="round" stroke-linejoin="round"/>
<path d="M328.912 117.245H325.469V120.688H328.912V117.245Z" fill="#EFE3CD" stroke="#2C2C2C" stroke-miterlimit="10" stroke-linecap="round" stroke-linejoin="round"/>
<path d="M343.155 98.1691H322.922V77.9365L336.526 91.5407L343.155 98.1691Z" fill="#EFE3CD" stroke="#2C2C2C" stroke-miterlimit="10" stroke-linecap="round" stroke-linejoin="round"/>
<path d="M293.53 147.386H297.375V149.932H293.53V155.151H298.368V157.697H290.73V139.878H298.368V142.424H293.53V147.386Z" fill="#2C2C2C"/>
<path d="M308.392 144.28V146.596C308.392 149.447 307.016 150.999 304.218 150.999H302.894V157.694H300.094V139.875H304.218C307.016 139.877 308.392 141.428 308.392 144.28ZM302.892 142.421V148.454H304.216C305.109 148.454 305.59 148.047 305.59 146.774V144.101C305.59 142.829 305.109 142.421 304.216 142.421H302.892Z" fill="#2C2C2C"/>
<path d="M313.459 139.673C316.182 139.673 317.581 141.303 317.581 144.153V144.713H314.933V143.974C314.933 142.702 314.425 142.219 313.534 142.219C312.643 142.219 312.135 142.702 312.135 143.974C312.135 145.273 312.695 146.239 314.527 147.844C316.87 149.907 317.608 151.383 317.608 153.419C317.608 156.269 316.182 157.899 313.433 157.899C310.684 157.899 309.258 156.269 309.258 153.419V152.324H311.907V153.596C311.907 154.869 312.467 155.327 313.358 155.327C314.249 155.327 314.808 154.869 314.808 153.596C314.808 152.298 314.248 151.331 312.415 149.727C310.073 147.665 309.336 146.188 309.336 144.152C309.333 141.301 310.734 139.673 313.459 139.673Z" fill="#2C2C2C"/>
<path d="M343.151 206.386V278.441H264.75V186.154H322.918L336.522 199.759L343.151 206.386Z" fill="#FFB727" stroke="#2C2C2C" stroke-miterlimit="10" stroke-linecap="round" stroke-linejoin="round"/>
<path opacity="0.5" d="M336.52 199.759V239.487H271.363V192.34H329.101L336.52 199.759Z" fill="#EFE3CD"/>
<path d="M336.52 199.759V239.487H271.363V192.34H329.101L336.52 199.759Z" stroke="#2C2C2C" stroke-miterlimit="10" stroke-linecap="round" stroke-linejoin="round"/>
<path d="M343.155 206.386H322.922V186.154L336.526 199.759L343.155 206.386Z" fill="#EFE3CD" stroke="#2C2C2C" stroke-miterlimit="10" stroke-linecap="round" stroke-linejoin="round"/>
<path d="M306.196 231.226C310.498 231.226 313.986 228.94 313.986 226.119C313.986 223.299 310.498 221.013 306.196 221.013C301.894 221.013 298.406 223.299 298.406 226.119C298.406 228.94 301.894 231.226 306.196 231.226Z" fill="#2C2C2C"/>
<path d="M305.251 198.948L299.9 226.119H298.41L302.323 206.25L303.341 201.092C304.547 200.074 305.173 199.076 305.247 198.957L305.251 198.948Z" fill="#2C2C2C"/>
<path d="M305.245 198.958L303.924 205.526C303.924 205.526 303.348 205.894 302.321 206.251C301.139 206.668 299.357 207.07 297.159 206.887C293.172 206.554 291.335 209.826 291.23 210.019C291.304 209.721 292.84 203.923 298.236 203.332C300.485 203.088 302.178 202.08 303.339 201.093C304.545 200.075 305.172 199.078 305.245 198.958Z" fill="#2C2C2C"/>
<path d="M294.257 256.417H294.206L293.213 265.912H289.369L287.383 248.094H290.106L291.584 262.144H291.634L292.958 248.094H295.656L297.03 262.248H297.08L298.506 248.094H300.95L298.964 265.912H295.248L294.257 256.417Z" fill="#2C2C2C"/>
<path d="M311.024 265.912H308.199L307.718 262.679H304.281L303.798 265.912H301.227L304.078 248.094H308.176L311.024 265.912ZM304.637 260.262H307.335L306.011 251.25H305.959L304.637 260.262Z" fill="#2C2C2C"/>
<path d="M315.886 262.629H315.936L318.051 248.094H320.62L317.872 265.912H313.696L310.949 248.094H313.774L315.886 262.629Z" fill="#2C2C2C"/>
<path d="M234.229 314.605V386.658H155.828V294.371H213.996L227.6 307.976L234.229 314.605Z" fill="#FFB727" stroke="#2C2C2C" stroke-miterlimit="10" stroke-linecap="round" stroke-linejoin="round"/>
<path opacity="0.5" d="M227.599 307.976V347.706H162.441V300.557H220.181L227.599 307.976Z" fill="#EFE3CD"/>
<path d="M227.599 307.976V347.706H162.441V300.557H220.181L227.599 307.976Z" stroke="#2C2C2C" stroke-miterlimit="10" stroke-linecap="round" stroke-linejoin="round"/>
<path d="M234.233 314.605H214V294.371L227.604 307.976L234.233 314.605Z" fill="#EFE3CD" stroke="#2C2C2C" stroke-miterlimit="10" stroke-linecap="round" stroke-linejoin="round"/>
<path d="M186.246 314.65L174.34 326.557L186.246 338.462" stroke="#2C2C2C" stroke-miterlimit="10" stroke-linecap="round" stroke-linejoin="round"/>
<path d="M203.801 338.462L215.707 326.557L203.801 314.65" stroke="#2C2C2C" stroke-miterlimit="10" stroke-linecap="round" stroke-linejoin="round"/>
<path d="M197.875 314.622L192.176 338.49" stroke="#2C2C2C" stroke-miterlimit="10" stroke-linecap="round" stroke-linejoin="round"/>
<path d="M177.687 374.129H174.887V356.311H177.687V363.947H180.868V356.311H183.72V374.129H180.868V366.493H177.687V374.129Z" fill="#2C2C2C"/>
<path d="M184.941 356.312H193.596V358.858H190.669V374.131H187.868V358.858H184.941V356.312Z" fill="#2C2C2C"/>
<path d="M200.718 368.962H200.769L202.653 356.312H206.548V374.131H203.9V361.353H203.849L201.965 374.131H199.317L197.281 361.531H197.229V374.131H194.785V356.312H198.68L200.718 368.962Z" fill="#2C2C2C"/>
<path d="M208.574 356.312H211.374V371.585H215.981V374.131H208.574V356.312Z" fill="#2C2C2C"/>
<path d="M234.229 206.386V278.441H155.828V186.154H213.996L227.6 199.759L234.229 206.386Z" fill="#FFB727" stroke="#2C2C2C" stroke-miterlimit="10" stroke-linecap="round" stroke-linejoin="round"/>
<path opacity="0.5" d="M227.599 199.759V239.487H162.441V192.34H220.181L227.599 199.759Z" fill="#EFE3CD"/>
<path d="M227.599 199.759V239.487H162.441V192.34H220.181L227.599 199.759Z" stroke="#2C2C2C" stroke-miterlimit="10" stroke-linecap="round" stroke-linejoin="round"/>
<path d="M234.233 206.386H214V186.154L227.604 199.759L234.233 206.386Z" fill="#EFE3CD" stroke="#2C2C2C" stroke-miterlimit="10" stroke-linecap="round" stroke-linejoin="round"/>
<path d="M187.814 217.252C187.814 217.252 185.695 213.57 180.198 216.55C175.129 219.299 175.805 225.887 180.927 225.887C186.952 225.887 189.488 219.879 193.044 213.572C196.762 206.977 199.856 200.213 200.262 199.402C200.262 199.402 196.025 225.623 195.494 229.067C194.964 232.51 199.334 229.729 199.732 228.141" stroke="#2C2C2C" stroke-miterlimit="10" stroke-linecap="round" stroke-linejoin="round"/>
<path d="M210.745 216.231C210.745 216.231 204.124 214.565 201.674 221.4C200.724 224.049 202.403 225.887 204.058 225.887C208.295 225.887 210.017 223.393 211.871 216.231C211.871 216.231 209.207 225.887 210.532 225.887C212.518 225.887 213.328 224.099 213.328 224.099" stroke="#2C2C2C" stroke-miterlimit="10" stroke-linecap="round" stroke-linejoin="round"/>
<path d="M192.145 216.231H203.064" stroke="#2C2C2C" stroke-miterlimit="10" stroke-linecap="round" stroke-linejoin="round"/>
<path d="M181.867 252.37C181.867 249.52 183.368 247.89 186.118 247.89C188.867 247.89 190.369 249.52 190.369 252.37V261.636C190.369 264.486 188.867 266.116 186.118 266.116C183.368 266.116 181.867 264.488 181.867 261.636V252.37ZM184.667 261.813C184.667 263.086 185.227 263.57 186.118 263.57C187.009 263.57 187.569 263.087 187.569 261.813V252.191C187.569 250.919 187.009 250.434 186.118 250.434C185.227 250.434 184.667 250.918 184.667 252.191V261.813Z" fill="#2C2C2C"/>
<path d="M191.355 248.094H200.01V250.64H197.083V265.912H194.283V250.64H191.355V248.094Z" fill="#2C2C2C"/>
<path d="M204.03 256.011H207.645V258.557H204.03V265.914H201.23V248.095H208.638V250.641H204.03V256.011Z" fill="#2C2C2C"/>
<path d="M396.162 182.084V277.102C396.162 280.504 393.591 283.382 390.189 283.744L383.936 284.426V402.959C383.936 406.627 381.285 409.667 377.789 410.256C377.374 410.336 376.946 410.377 376.517 410.377L121.738 410.163V48.5962L376.517 48.8104C376.946 48.8104 377.374 48.8503 377.789 48.9316C381.284 49.5212 383.936 52.5606 383.936 56.2294V174.761L390.189 175.444C393.591 175.805 396.162 178.67 396.162 182.084Z" stroke="#2C2C2C" stroke-miterlimit="10"/>
<path d="M121.735 48.5962V410.59L74.3322 424.918C74.1446 424.972 73.9569 425.026 73.784 425.066C69.7665 425.976 66.5527 423.432 66.5527 419.148V173.114L63.9418 171.494C63.1646 171.026 62.5898 167.812 62.5898 164.062V59.5628C62.5898 55.8142 63.1661 52.8147 63.9418 52.6137L66.5527 51.9311V40.1074C66.5527 35.8357 69.7665 33.278 73.784 34.1882C73.9717 34.2281 74.1461 34.2813 74.3322 34.336L121.735 48.5962Z" fill="#FFD98E"/>
<path d="M73.784 34.1882V425.066C69.7665 425.976 66.5527 423.432 66.5527 419.148V173.114L63.9418 171.494C63.1646 171.026 62.5898 167.812 62.5898 164.062V59.5628C62.5898 55.8142 63.1661 52.8147 63.9418 52.6137L66.5527 51.9311V40.1074C66.5527 35.8357 69.7665 33.278 73.784 34.1882Z" fill="#2C2C2C"/>
<path d="M121.735 48.5962V410.59L74.3322 424.918C74.1446 424.972 73.9569 425.026 73.784 425.066C69.7665 425.976 66.5527 423.432 66.5527 419.148V173.114L63.9418 171.494C63.1646 171.026 62.5898 167.812 62.5898 164.062V59.5628C62.5898 55.8142 63.1661 52.8147 63.9418 52.6137L66.5527 51.9311V40.1074C66.5527 35.8357 69.7665 33.278 73.784 34.1882C73.9717 34.2281 74.1461 34.2813 74.3322 34.336L121.735 48.5962Z" stroke="#2C2C2C" stroke-miterlimit="10"/>
<path d="M105.997 462.032C105.997 462.032 102.818 457.183 101.998 443.642C101.178 430.102 101.759 421.161 99.6402 415.871C99.6402 415.871 96.9909 411.097 93.8126 405.8C90.6343 400.503 91.1633 382.955 91.6937 366.136C92.2227 349.318 95.3507 345.411 101.997 343.026C118.276 337.188 122.305 357.243 129.777 379.932C137.249 402.62 136.72 418.749 139.368 424.457C142.016 430.165 147.378 437.583 152.114 452.944" fill="#EFE3CD"/>
<path opacity="0.4" d="M147.109 439.569C138.888 430.369 130.773 424.183 129.755 421.344C128.176 416.898 133.678 393.961 125.523 386.355C117.369 378.75 106.978 387.117 101.635 385.244C96.2922 383.369 96.9084 373.875 96.9084 355.69C96.9084 346.826 102.786 343.345 108.827 342.113C119.632 343.573 123.475 360.819 129.782 379.927C137.254 402.625 136.718 418.747 139.37 424.463C141.097 428.187 143.99 432.645 147.109 439.569Z" fill="#FFD98E"/>
<path d="M105.997 462.032C105.997 462.032 102.818 457.183 101.998 443.642C101.178 430.102 101.759 421.161 99.6402 415.871C99.6402 415.871 96.9909 411.097 93.8126 405.8C90.6343 400.503 91.1633 382.955 91.6937 366.136C92.2227 349.318 95.3507 345.411 101.997 343.026C118.276 337.188 122.305 357.243 129.777 379.932C137.249 402.62 136.72 418.749 139.368 424.457C142.016 430.165 147.378 437.583 152.114 452.944" stroke="#2C2C2C" stroke-miterlimit="10" stroke-linecap="round" stroke-linejoin="round"/>
<path d="M361.124 393.749C361.124 393.749 364.524 408.099 363.985 411.982C363.447 415.855 367.49 415.871 367.512 415.871C368.837 430.391 369.316 444.505 368.212 450.297C366.094 461.422 376.686 473.184 385.957 493.789C395.229 514.394 401.585 518.19 411.649 527.946C421.714 537.703 420.287 547.099 426.562 558.557C430.193 565.187 436.334 595.1 440.864 619.135H547.986C532.291 588.962 508.237 542.725 505.411 537.323C501.173 529.226 503.292 525.049 496.405 509.921C496.405 509.921 488.668 398.891 482.207 391.221C475.745 383.55 454.737 374.016 448.819 368.189C442.901 362.362 417.972 329.519 409.248 327.401C400.524 325.282 380.129 341.173 380.129 341.173C380.129 341.173 372.802 330.402 362.259 335.31C355.272 338.564 355.575 350.099 357.841 362.288C357.741 362.45 354.144 368.235 352.318 371.369C350.465 374.548 346.758 392.558 346.758 394.412C346.759 395.995 355.072 401.039 361.124 393.749Z" fill="#EFE3CD"/>
<path opacity="0.4" d="M415.883 427.156C415.883 427.156 423.221 437.574 419.07 437.787C414.933 438.001 402.814 432.311 396.159 415.559C394.606 411.663 392.797 407.579 390.911 403.588C386.559 394.375 373.101 395.54 370.397 405.368L367.519 415.867C367.492 415.867 363.448 415.853 363.984 411.984C364.466 408.542 361.855 396.88 361.252 394.269L362.35 392.047L347.781 388.364C348.329 385.686 349.027 382.487 349.749 379.567C349.857 379.152 349.95 378.75 350.057 378.361C350.07 378.295 350.083 378.227 350.11 378.16C350.19 377.825 350.271 377.504 350.364 377.197C351.073 374.505 351.784 372.296 352.319 371.372C354.141 368.238 357.742 362.455 357.85 362.294C355.573 350.095 355.279 338.567 362.269 335.312C372.807 330.397 380.132 341.176 380.132 341.176C380.132 341.176 380.426 340.949 380.949 340.547C381.07 340.467 381.203 340.372 381.351 340.266C383.065 338.98 386.453 336.544 390.402 334.119C390.979 333.757 391.567 333.41 392.169 333.061C394.875 331.467 397.753 329.954 400.485 328.869C401.462 328.494 402.427 328.16 403.35 327.891C403.658 327.811 403.967 327.717 404.274 327.65C405.853 334.198 407.461 344.563 406.323 357.016L415.883 371.598C415.883 371.598 417.516 379.298 422.057 386.582C426.582 393.854 429.06 401.567 429.06 401.567C429.06 401.567 430.828 400.093 433.292 402.625C433.292 402.625 426.034 411.597 423.839 417.728C421.641 423.874 415.883 427.156 415.883 427.156Z" fill="#FFD98E"/>
<path opacity="0.4" d="M486.88 469.215C485.568 433.409 479.918 414.006 479.918 414.006C479.918 414.006 481.325 442.97 477.44 450.897C477.44 450.897 474.253 425.028 476.02 408.208C477.787 391.39 439.597 368.373 438.031 355.69C442.853 361.409 446.869 366.255 448.824 368.183C454.743 374.021 475.751 383.556 482.205 391.215C488.566 398.767 496.171 506.465 496.412 509.84C492.358 502.248 487.604 489.22 486.88 469.215Z" fill="#EFE3CD"/>
<path opacity="0.4" d="M433.947 584.92C431.188 572.427 428.524 562.117 426.569 558.554C420.798 548.029 421.533 539.245 413.875 530.315C415.388 531.506 416.66 532.404 417.597 532.872C424.118 536.179 431.523 550.306 433.291 560.188C434.187 565.236 434.174 575.789 433.947 584.92Z" fill="#EFE3CD"/>
<path d="M357.852 362.273C357.852 362.273 354.171 368.191 352.318 371.369C350.465 374.548 346.758 392.558 346.758 394.412C346.758 396.267 358.168 402.885 363.984 388.848" stroke="#2C2C2C" stroke-miterlimit="10" stroke-linecap="round" stroke-linejoin="round"/>
<path d="M436.581 598.984C432.155 578.07 427.644 557.331 418.208 537.412C412.852 525.36 400.801 518.665 392.767 507.953C383.394 493.223 378.039 477.156 370.004 462.425C367.325 442.339 368.665 422.254 365.986 400.829C363.307 386.099 359.291 371.371 356.612 356.641C356.612 348.607 353.933 340.572 361.969 335.216C368.664 332.537 375.358 336.554 380.127 341.172M380.127 341.172C379.542 340.363 387.169 335.758 380.127 341.172ZM380.127 341.172C387.41 335.216 395.443 327.18 404.817 328.519C426.242 329.858 434.276 355.3 449.006 368.69C453.023 372.708 458.38 374.047 462.396 378.064C470.429 383.42 481.142 386.098 483.821 395.472C493.195 434.304 491.854 470.458 497.211 509.29C498.549 515.985 499.888 524.02 502.567 530.715C509.262 545.444 516.626 559.838 524.143 574.079" stroke="#2C2C2C" stroke-miterlimit="10" stroke-linecap="round" stroke-linejoin="round"/>
<path d="M380.129 341.173C386.485 347.794 394.432 367.659 398.405 381.697C402.378 395.735 401.319 413.216 401.319 413.216C401.319 413.216 407.147 422.222 412.444 431.226C417.741 440.232 423.833 438.378 423.833 438.378" stroke="#2C2C2C" stroke-miterlimit="10" stroke-linecap="round" stroke-linejoin="round"/>
<path d="M406.312 421.121C406.312 421.121 412.176 422.752 416.944 417.191C421.712 411.629 418.534 405.271 434.954 402.623" stroke="#2C2C2C" stroke-miterlimit="10" stroke-linecap="round" stroke-linejoin="round"/>
<path d="M422.05 408.205C422.05 408.205 421.184 399.421 416.416 391.222C411.648 383.023 412.442 376.931 412.442 376.931C412.442 376.931 400.524 366.775 399.465 362.273" stroke="#2C2C2C" stroke-miterlimit="10" stroke-linecap="round" stroke-linejoin="round"/>
<path d="M401.983 343.028C401.983 343.028 401.34 350.34 400.791 354.417C399.731 362.273 398.063 364.348 393.203 366.137" stroke="#2C2C2C" stroke-miterlimit="10" stroke-linecap="round" stroke-linejoin="round"/>
<path d="M398.406 381.698C398.406 381.698 402.115 384.724 408.206 385.814C408.206 385.814 407.146 395.216 409.265 397.595C411.384 399.974 415.357 401.828 415.886 405.801" stroke="#2C2C2C" stroke-miterlimit="10" stroke-linecap="round" stroke-linejoin="round"/>
<path d="M400.941 396.301C400.941 396.301 402.911 397.865 407.149 397.595" stroke="#2C2C2C" stroke-miterlimit="10" stroke-linecap="round" stroke-linejoin="round"/>
<path d="M412.709 414.011C412.709 414.011 408.092 418.851 404.043 417.491" stroke="#2C2C2C" stroke-miterlimit="10" stroke-linecap="round" stroke-linejoin="round"/>
<path d="M361.125 393.749C361.125 393.749 364.525 408.1 363.986 411.982C363.446 415.865 367.514 415.871 367.514 415.871" stroke="#2C2C2C" stroke-miterlimit="10" stroke-linecap="round" stroke-linejoin="round"/>
<path d="M412.445 376.931C412.445 376.931 415.423 371.103 417.906 369.779" stroke="#2C2C2C" stroke-miterlimit="10" stroke-linecap="round" stroke-linejoin="round"/>
<path d="M408.375 424.459C408.375 424.459 415.586 425.4 420.636 430.962" stroke="#2C2C2C" stroke-miterlimit="10" stroke-linecap="round" stroke-linejoin="round"/>
<path d="M448.824 368.189C459.328 380.902 468.863 388.054 473.631 393.749C478.4 399.443 473.478 411.982 476.027 434.935" stroke="#2C2C2C" stroke-miterlimit="10" stroke-linecap="round" stroke-linejoin="round"/>
<path d="M458.98 396.301C458.98 396.301 457.181 406.33 462.224 414.012" stroke="#2C2C2C" stroke-miterlimit="10" stroke-linecap="round" stroke-linejoin="round"/>
<path d="M411.648 527.946C425.951 539.291 426.48 542.469 429.659 549.356" stroke="#2C2C2C" stroke-miterlimit="10" stroke-linecap="round" stroke-linejoin="round"/>
<path d="M496.402 509.923C488.456 497.444 486.867 476.785 486.867 476.785" stroke="#2C2C2C" stroke-miterlimit="10" stroke-linecap="round" stroke-linejoin="round"/>
<path d="M396.646 311.438L381.249 381.828L304.66 365.075L324.38 274.92L381.204 287.349L391.587 303.546L396.646 311.438Z" fill="#FFB727" stroke="#2C2C2C" stroke-miterlimit="10" stroke-linecap="round" stroke-linejoin="round"/>
<path d="M391.587 303.546L383.098 342.358L319.445 328.436L329.519 282.377L385.926 294.715L391.587 303.546Z" fill="#FFDB93"/>
<path d="M391.587 303.546L383.098 342.358L319.445 328.436L329.519 282.377L385.926 294.715L391.587 303.546Z" stroke="#2C2C2C" stroke-miterlimit="10" stroke-linecap="round" stroke-linejoin="round"/>
<path d="M343.723 293.353L380.924 301.49" stroke="#2C2C2C" stroke-miterlimit="10" stroke-linecap="round" stroke-linejoin="round"/>
<path d="M337.582 296.348L380.015 305.63" stroke="#2C2C2C" stroke-miterlimit="10" stroke-linecap="round" stroke-linejoin="round"/>
<path d="M336.676 300.488L379.111 309.77" stroke="#2C2C2C" stroke-miterlimit="10" stroke-linecap="round" stroke-linejoin="round"/>
<path d="M335.77 304.628L378.204 313.91" stroke="#2C2C2C" stroke-miterlimit="10" stroke-linecap="round" stroke-linejoin="round"/>
<path d="M334.867 308.768L377.302 318.049" stroke="#2C2C2C" stroke-miterlimit="10" stroke-linecap="round" stroke-linejoin="round"/>
<path d="M333.957 312.909L376.392 322.189" stroke="#2C2C2C" stroke-miterlimit="10" stroke-linecap="round" stroke-linejoin="round"/>
<path d="M333.051 317.047L375.484 326.329" stroke="#2C2C2C" stroke-miterlimit="10" stroke-linecap="round" stroke-linejoin="round"/>
<path d="M332.148 321.187L369.35 329.324" stroke="#2C2C2C" stroke-miterlimit="10" stroke-linecap="round" stroke-linejoin="round"/>
<path d="M331.053 337.905L331.341 336.59L340.517 338.598L340.23 339.912L336.382 339.07L333.993 349.992L332.512 349.668L334.901 338.746L331.053 337.905ZM343.521 339.255L345.562 345.035L345.658 345.056L349.926 340.656L351.67 341.037L346.484 346.314L348.993 353.273L347.249 352.891L345.187 347.207L345.091 347.186L340.844 351.49L339.1 351.109L344.381 345.854L341.776 338.873L343.521 339.255ZM352.642 342.627L352.929 341.313L362.106 343.32L361.818 344.635L357.971 343.793L355.582 354.714L354.1 354.39L356.489 343.469L352.642 342.627Z" fill="#2C2C2C"/>
<path d="M396.645 311.438L376.879 307.115L381.202 287.349L391.585 303.547L396.645 311.438Z" fill="#EFE3CD" stroke="#2C2C2C" stroke-miterlimit="10" stroke-linecap="round" stroke-linejoin="round"/>
<path d="M385.956 493.79C376.684 473.185 366.093 461.422 368.212 450.299C370.331 439.174 366.622 397.326 362.261 380.904C357.901 364.482 351.608 340.27 362.261 335.312C372.804 330.403 380.131 341.175 380.131 341.175C386.488 347.796 394.434 367.66 398.408 381.699C402.381 395.736 401.322 413.217 401.322 413.217C401.322 413.217 407.149 422.223 412.446 431.228C417.743 440.234 423.836 438.379 423.836 438.379" fill="#EFE3CD"/>
<path opacity="0.4" d="M385.089 411.982C385.089 411.982 367.513 413.909 368.775 436.742C368.4 419.509 365.508 393.143 362.268 380.904C359.215 369.429 355.224 354.149 356.737 344.295C361.531 340.96 367.169 338.886 372.672 341.176C386.41 346.879 383.932 361.261 383.932 361.261C383.932 361.261 367.945 363.98 367.516 373.352C367.075 382.726 378.555 382.723 385.089 411.982Z" fill="#FFD98E"/>
<path d="M385.956 493.79C376.684 473.185 366.093 461.422 368.212 450.299C370.331 439.174 366.622 397.326 362.261 380.904C357.901 364.482 351.608 340.27 362.261 335.312C372.804 330.403 380.131 341.175 380.131 341.175C386.488 347.796 394.434 367.66 398.408 381.699C402.381 395.736 401.322 413.217 401.322 413.217C401.322 413.217 407.149 422.223 412.446 431.228C417.743 440.234 423.836 438.379 423.836 438.379" stroke="#2C2C2C" stroke-miterlimit="10" stroke-linecap="round" stroke-linejoin="round"/>
</g>
<defs>
<clipPath id="clip0_2608_14132">
<rect width="600" height="600" rx="24" fill="white"/>
</clipPath>
</defs>
</svg>
