<svg width="180" height="180" viewBox="0 0 180 180" fill="none" xmlns="http://www.w3.org/2000/svg">
<rect width="180.006" height="180.006" fill="#EFE3CD"/>
<path fill-rule="evenodd" clip-rule="evenodd" d="M5.27344 18.4528V31.6332H18.4538H31.6341V18.4528V5.27246H18.4538H5.27344V18.4528ZM46.6974 7.15537C46.6974 8.9961 46.5716 9.03827 41.0487 9.03827C35.5257 9.03827 35.3999 9.08045 35.3999 10.9212C35.3999 12.7619 35.5257 12.8041 41.0487 12.8041C46.5716 12.8041 46.6974 12.8463 46.6974 14.687C46.6974 16.5277 46.5716 16.5699 41.0487 16.5699C35.5257 16.5699 35.3999 16.6121 35.3999 18.4528C35.3999 19.9591 35.7765 20.3357 37.2828 20.3357C38.7892 20.3357 39.1658 20.7123 39.1658 22.2186C39.1658 23.7249 38.7892 24.1015 37.2828 24.1015C35.5257 24.1015 35.3999 24.3523 35.3999 27.8673C35.3999 31.3823 35.5257 31.6332 37.2828 31.6332C38.7892 31.6332 39.1658 32.0097 39.1658 33.5161C39.1658 35.3568 39.04 35.399 33.517 35.399C27.9941 35.399 27.8683 35.4411 27.8683 37.2819C27.8683 39.039 28.1191 39.1648 31.6341 39.1648C35.1491 39.1648 35.3999 39.2906 35.3999 41.0477C35.3999 42.8048 35.6507 42.9306 39.1658 42.9306H42.9316V46.6964V50.4622H35.3999H27.8683V52.3451C27.8683 53.8514 27.4917 54.228 25.9854 54.228C24.4791 54.228 24.1025 54.6046 24.1025 56.1109C24.1025 57.8681 23.8517 57.9938 20.3367 57.9938C16.8217 57.9938 16.5709 57.8681 16.5709 56.1109C16.5709 54.6046 16.9475 54.228 18.4538 54.228C19.9601 54.228 20.3367 53.8514 20.3367 52.3451C20.3367 50.588 20.0859 50.4622 16.5709 50.4622H12.8051V54.228C12.8051 57.743 12.9308 57.9938 14.688 57.9938C16.1943 57.9938 16.5709 58.3704 16.5709 59.8767C16.5709 61.6339 16.8217 61.7597 20.3367 61.7597C23.8517 61.7597 24.1025 61.6339 24.1025 59.8767C24.1025 58.3704 24.4791 57.9938 25.9854 57.9938C27.4917 57.9938 27.8683 58.3704 27.8683 59.8767C27.8683 61.3831 28.2449 61.7597 29.7512 61.7597C31.2575 61.7597 31.6341 62.1362 31.6341 63.6426C31.6341 65.3997 31.3833 65.5255 27.8683 65.5255C24.3533 65.5255 24.1025 65.6512 24.1025 67.4084C24.1025 69.2491 24.2283 69.2913 29.7512 69.2913C35.2742 69.2913 35.3999 69.3335 35.3999 71.1742C35.3999 73.0149 35.2742 73.0571 29.7512 73.0571H24.1025V76.8229C24.1025 80.3379 23.9767 80.5887 22.2196 80.5887C20.4625 80.5887 20.3367 80.8395 20.3367 84.3545C20.3367 87.8695 20.2109 88.1203 18.4538 88.1203C16.6967 88.1203 16.5709 88.3711 16.5709 91.8862C16.5709 95.4012 16.4451 95.652 14.688 95.652C13.1816 95.652 12.8051 95.2754 12.8051 93.7691C12.8051 92.2627 12.4285 91.8862 10.9222 91.8862C9.41583 91.8862 9.03925 92.2627 9.03925 93.7691C9.03925 95.2754 8.66267 95.652 7.15634 95.652C5.65002 95.652 5.27344 96.0285 5.27344 97.5349V99.4178H20.3367H35.3999V101.301C35.3999 103.058 35.6507 103.184 39.1658 103.184C42.6808 103.184 42.9316 103.309 42.9316 105.067C42.9316 106.824 42.6808 106.949 39.1658 106.949H35.3999V110.715C35.3999 114.23 35.2742 114.481 33.517 114.481C32.0107 114.481 31.6341 114.104 31.6341 112.598C31.6341 110.841 31.3833 110.715 27.8683 110.715C24.3533 110.715 24.1025 110.589 24.1025 108.832C24.1025 107.075 24.3533 106.949 27.8683 106.949C31.3833 106.949 31.6341 106.824 31.6341 105.067V103.184H22.2196H12.8051V105.067C12.8051 106.824 12.5543 106.949 9.03925 106.949H5.27344V112.598C5.27344 118.121 5.31561 118.247 7.15634 118.247C8.91347 118.247 9.03925 117.996 9.03925 114.481C9.03925 110.966 9.16503 110.715 10.9222 110.715C12.4285 110.715 12.8051 110.339 12.8051 108.832C12.8051 107.075 13.0559 106.949 16.5709 106.949C20.0859 106.949 20.3367 107.075 20.3367 108.832C20.3367 110.339 19.9601 110.715 18.4538 110.715C16.6967 110.715 16.5709 110.966 16.5709 114.481C16.5709 117.996 16.4451 118.247 14.688 118.247C13.1816 118.247 12.8051 118.623 12.8051 120.13C12.8051 121.887 13.0559 122.013 16.5709 122.013C20.0859 122.013 20.3367 122.138 20.3367 123.896C20.3367 125.402 20.7133 125.778 22.2196 125.778C23.7259 125.778 24.1025 125.402 24.1025 123.896C24.1025 122.138 24.3533 122.013 27.8683 122.013C31.3833 122.013 31.6341 121.887 31.6341 120.13C31.6341 118.623 32.0107 118.247 33.517 118.247C35.0234 118.247 35.3999 118.623 35.3999 120.13C35.3999 121.636 35.7765 122.013 37.2828 122.013C38.7892 122.013 39.1658 121.636 39.1658 120.13C39.1658 118.623 38.7892 118.247 37.2828 118.247C35.7765 118.247 35.3999 117.87 35.3999 116.364C35.3999 114.523 35.5257 114.481 41.0487 114.481C46.5716 114.481 46.6974 114.523 46.6974 116.364C46.6974 118.205 46.8232 118.247 52.3461 118.247C57.869 118.247 57.9948 118.205 57.9948 116.364C57.9948 114.858 57.6182 114.481 56.1119 114.481C54.3548 114.481 54.229 114.23 54.229 110.715C54.229 107.2 54.3548 106.949 56.1119 106.949C57.6182 106.949 57.9948 107.326 57.9948 108.832C57.9948 110.339 58.3714 110.715 59.8777 110.715C61.384 110.715 61.7606 110.339 61.7606 108.832C61.7606 107.326 62.1372 106.949 63.6435 106.949C65.1499 106.949 65.5264 107.326 65.5264 108.832C65.5264 110.339 65.903 110.715 67.4093 110.715C69.1665 110.715 69.2923 110.966 69.2923 114.481V118.247H65.5264H61.7606V127.661V137.076H59.8777C58.1206 137.076 57.9948 136.825 57.9948 133.31C57.9948 129.795 57.869 129.544 56.1119 129.544C54.6056 129.544 54.229 129.168 54.229 127.661C54.229 126.155 54.6056 125.778 56.1119 125.778C57.6182 125.778 57.9948 125.402 57.9948 123.896C57.9948 122.138 57.744 122.013 54.229 122.013H50.4632V125.778C50.4632 129.293 50.3374 129.544 48.5803 129.544C47.074 129.544 46.6974 129.168 46.6974 127.661C46.6974 126.155 46.3208 125.778 44.8145 125.778H42.9316V135.193V144.608H41.0487C39.5423 144.608 39.1658 144.231 39.1658 142.725C39.1658 141.218 38.7892 140.842 37.2828 140.842C35.4421 140.842 35.3999 140.968 35.3999 146.49V152.139H39.1658C42.6808 152.139 42.9316 152.265 42.9316 154.022C42.9316 155.528 43.3081 155.905 44.8145 155.905C46.3208 155.905 46.6974 156.282 46.6974 157.788C46.6974 159.545 46.4466 159.671 42.9316 159.671C39.4166 159.671 39.1658 159.545 39.1658 157.788C39.1658 156.282 38.7892 155.905 37.2828 155.905H35.3999V165.32V174.734H37.2828C38.7892 174.734 39.1658 174.357 39.1658 172.851C39.1658 171.094 39.4166 170.968 42.9316 170.968C46.4466 170.968 46.6974 171.094 46.6974 172.851C46.6974 174.608 46.9482 174.734 50.4632 174.734H54.229V170.968C54.229 167.453 54.3548 167.202 56.1119 167.202C57.869 167.202 57.9948 167.453 57.9948 170.968C57.9948 174.483 58.1206 174.734 59.8777 174.734C61.6349 174.734 61.7606 174.483 61.7606 170.968V167.202H65.5264C69.0415 167.202 69.2923 167.328 69.2923 169.085C69.2923 170.592 69.6688 170.968 71.1752 170.968C72.6815 170.968 73.0581 171.345 73.0581 172.851C73.0581 174.357 73.4346 174.734 74.941 174.734C76.4473 174.734 76.8239 174.357 76.8239 172.851C76.8239 171.345 76.4473 170.968 74.941 170.968C73.4346 170.968 73.0581 170.592 73.0581 169.085C73.0581 167.328 73.3089 167.202 76.8239 167.202C80.3389 167.202 80.5897 167.077 80.5897 165.32C80.5897 163.562 80.8405 163.437 84.3555 163.437C87.8705 163.437 88.1213 163.562 88.1213 165.32C88.1213 166.826 88.4979 167.202 90.0042 167.202C91.5106 167.202 91.8871 167.579 91.8871 169.085C91.8871 170.592 91.5106 170.968 90.0042 170.968C88.4979 170.968 88.1213 171.345 88.1213 172.851C88.1213 174.608 88.3721 174.734 91.8871 174.734H95.6529V170.968C95.6529 167.453 95.7787 167.202 97.5359 167.202C99.0422 167.202 99.4188 167.579 99.4188 169.085C99.4188 170.592 99.7953 170.968 101.302 170.968C102.808 170.968 103.185 171.345 103.185 172.851C103.185 174.357 103.561 174.734 105.067 174.734C106.574 174.734 106.95 174.357 106.95 172.851C106.95 171.345 106.574 170.968 105.067 170.968C103.31 170.968 103.185 170.717 103.185 167.202V163.437H99.4188C95.9037 163.437 95.6529 163.311 95.6529 161.554C95.6529 159.713 95.7787 159.671 101.302 159.671C106.825 159.671 106.95 159.713 106.95 161.554C106.95 163.311 107.201 163.437 110.716 163.437C114.231 163.437 114.482 163.562 114.482 165.32C114.482 166.826 114.859 167.202 116.365 167.202C117.871 167.202 118.248 167.579 118.248 169.085C118.248 170.592 118.624 170.968 120.131 170.968C121.637 170.968 122.014 171.345 122.014 172.851C122.014 174.357 122.39 174.734 123.897 174.734C125.737 174.734 125.779 174.608 125.779 169.085V163.437H129.545C133.06 163.437 133.311 163.562 133.311 165.32C133.311 166.826 132.934 167.202 131.428 167.202C129.671 167.202 129.545 167.453 129.545 170.968V174.734H142.726H155.906V172.851C155.906 171.345 156.283 170.968 157.789 170.968C159.295 170.968 159.672 171.345 159.672 172.851C159.672 174.692 159.798 174.734 165.32 174.734C170.843 174.734 170.969 174.692 170.969 172.851C170.969 171.345 171.346 170.968 172.852 170.968C174.358 170.968 174.735 170.592 174.735 169.085C174.735 167.245 174.609 167.202 169.086 167.202C163.563 167.202 163.438 167.245 163.438 169.085C163.438 170.592 163.061 170.968 161.555 170.968C159.798 170.968 159.672 170.717 159.672 167.202V163.437H165.32C170.843 163.437 170.969 163.394 170.969 161.554C170.969 159.713 170.843 159.671 165.32 159.671H159.672V155.905C159.672 152.39 159.798 152.139 161.555 152.139C163.061 152.139 163.438 151.763 163.438 150.256C163.438 148.75 163.814 148.373 165.32 148.373C167.078 148.373 167.203 148.123 167.203 144.608C167.203 141.093 167.078 140.842 165.32 140.842C163.814 140.842 163.438 140.465 163.438 138.959C163.438 137.452 163.061 137.076 161.555 137.076C160.048 137.076 159.672 136.699 159.672 135.193C159.672 133.436 159.923 133.31 163.438 133.31C166.953 133.31 167.203 133.436 167.203 135.193C167.203 136.699 167.58 137.076 169.086 137.076C170.927 137.076 170.969 137.202 170.969 142.725C170.969 148.248 171.011 148.373 172.852 148.373C174.693 148.373 174.735 148.248 174.735 142.725C174.735 137.202 174.693 137.076 172.852 137.076C171.346 137.076 170.969 136.699 170.969 135.193C170.969 133.687 170.593 133.31 169.086 133.31C167.58 133.31 167.203 132.934 167.203 131.427C167.203 129.921 166.827 129.544 165.32 129.544C163.814 129.544 163.438 129.168 163.438 127.661C163.438 125.821 163.563 125.778 169.086 125.778C174.609 125.778 174.735 125.736 174.735 123.896C174.735 122.055 174.609 122.013 169.086 122.013C163.563 122.013 163.438 121.97 163.438 120.13C163.438 118.623 163.814 118.247 165.32 118.247C167.161 118.247 167.203 118.121 167.203 112.598V106.949H170.969C174.484 106.949 174.735 106.824 174.735 105.067C174.735 103.309 174.484 103.184 170.969 103.184C167.454 103.184 167.203 103.058 167.203 101.301C167.203 99.7944 167.58 99.4178 169.086 99.4178C170.593 99.4178 170.969 99.0412 170.969 97.5349C170.969 96.0285 171.346 95.652 172.852 95.652C174.358 95.652 174.735 95.2754 174.735 93.7691C174.735 92.2627 174.358 91.8862 172.852 91.8862C171.346 91.8862 170.969 91.5096 170.969 90.0032C170.969 88.4969 170.593 88.1203 169.086 88.1203C167.58 88.1203 167.203 87.7438 167.203 86.2374C167.203 84.7311 167.58 84.3545 169.086 84.3545C170.593 84.3545 170.969 83.9779 170.969 82.4716C170.969 80.9653 171.346 80.5887 172.852 80.5887C174.609 80.5887 174.735 80.3379 174.735 76.8229C174.735 73.3079 174.609 73.0571 172.852 73.0571C171.095 73.0571 170.969 73.3079 170.969 76.8229C170.969 80.3379 170.843 80.5887 169.086 80.5887C167.58 80.5887 167.203 80.2121 167.203 78.7058C167.203 77.1995 166.827 76.8229 165.32 76.8229C163.814 76.8229 163.438 76.4463 163.438 74.94C163.438 73.4337 163.814 73.0571 165.32 73.0571C166.827 73.0571 167.203 72.6805 167.203 71.1742C167.203 69.6679 167.58 69.2913 169.086 69.2913C170.593 69.2913 170.969 68.9147 170.969 67.4084C170.969 65.902 171.346 65.5255 172.852 65.5255C174.358 65.5255 174.735 65.1489 174.735 63.6426C174.735 62.1362 174.358 61.7597 172.852 61.7597C171.011 61.7597 170.969 61.6339 170.969 56.1109C170.969 50.588 171.011 50.4622 172.852 50.4622C174.358 50.4622 174.735 50.0856 174.735 48.5793C174.735 47.073 174.358 46.6964 172.852 46.6964C171.346 46.6964 170.969 46.3198 170.969 44.8135C170.969 43.3072 170.593 42.9306 169.086 42.9306C167.58 42.9306 167.203 42.554 167.203 41.0477C167.203 39.5414 167.58 39.1648 169.086 39.1648C170.593 39.1648 170.969 38.7882 170.969 37.2819C170.969 35.7755 170.593 35.399 169.086 35.399C167.58 35.399 167.203 35.7755 167.203 37.2819C167.203 38.7882 166.827 39.1648 165.32 39.1648C163.814 39.1648 163.438 38.7882 163.438 37.2819C163.438 35.7755 163.061 35.399 161.555 35.399C160.048 35.399 159.672 35.7755 159.672 37.2819C159.672 38.7882 159.295 39.1648 157.789 39.1648C156.283 39.1648 155.906 38.7882 155.906 37.2819C155.906 35.7755 155.529 35.399 154.023 35.399C152.517 35.399 152.14 35.7755 152.14 37.2819C152.14 38.7882 152.517 39.1648 154.023 39.1648C155.529 39.1648 155.906 39.5414 155.906 41.0477C155.906 42.554 156.283 42.9306 157.789 42.9306C159.295 42.9306 159.672 42.554 159.672 41.0477C159.672 39.5414 160.048 39.1648 161.555 39.1648C163.061 39.1648 163.438 39.5414 163.438 41.0477C163.438 42.554 163.814 42.9306 165.32 42.9306C166.827 42.9306 167.203 43.3072 167.203 44.8135C167.203 46.5706 166.953 46.6964 163.438 46.6964H159.672V50.4622V54.228H155.906C152.391 54.228 152.14 54.1022 152.14 52.3451C152.14 50.588 151.889 50.4622 148.374 50.4622C144.859 50.4622 144.609 50.3364 144.609 48.5793C144.609 47.073 144.232 46.6964 142.726 46.6964C141.219 46.6964 140.843 46.3198 140.843 44.8135C140.843 43.3072 141.219 42.9306 142.726 42.9306C144.232 42.9306 144.609 42.554 144.609 41.0477C144.609 39.5414 144.985 39.1648 146.491 39.1648C147.998 39.1648 148.374 38.7882 148.374 37.2819C148.374 35.7755 147.998 35.399 146.491 35.399C144.734 35.399 144.609 35.1482 144.609 31.6332C144.609 28.1181 144.483 27.8673 142.726 27.8673C141.219 27.8673 140.843 28.2439 140.843 29.7502C140.843 31.2566 140.466 31.6332 138.96 31.6332C137.453 31.6332 137.077 31.2566 137.077 29.7502C137.077 28.2439 136.7 27.8673 135.194 27.8673C133.688 27.8673 133.311 28.2439 133.311 29.7502C133.311 31.2566 133.688 31.6332 135.194 31.6332C136.7 31.6332 137.077 32.0097 137.077 33.5161C137.077 35.2732 136.826 35.399 133.311 35.399C129.796 35.399 129.545 35.5247 129.545 37.2819C129.545 38.7882 129.169 39.1648 127.662 39.1648C125.905 39.1648 125.779 38.914 125.779 35.399C125.779 31.884 125.905 31.6332 127.662 31.6332C129.169 31.6332 129.545 31.2566 129.545 29.7502C129.545 28.2439 129.169 27.8673 127.662 27.8673C126.156 27.8673 125.779 28.2439 125.779 29.7502C125.779 31.2566 125.403 31.6332 123.897 31.6332C122.139 31.6332 122.014 31.3823 122.014 27.8673V24.1015H133.311H144.609V20.3357C144.609 16.8207 144.483 16.5699 142.726 16.5699C140.968 16.5699 140.843 16.3191 140.843 12.8041C140.843 9.28908 140.968 9.03827 142.726 9.03827C144.232 9.03827 144.609 8.66169 144.609 7.15537C144.609 5.64904 144.232 5.27246 142.726 5.27246C141.219 5.27246 140.843 5.64904 140.843 7.15537C140.843 8.66169 140.466 9.03827 138.96 9.03827C137.119 9.03827 137.077 9.16405 137.077 14.687V20.3357H123.897H110.716V18.4528C110.716 16.9465 111.093 16.5699 112.599 16.5699C114.105 16.5699 114.482 16.1933 114.482 14.687C114.482 13.1807 114.105 12.8041 112.599 12.8041C111.093 12.8041 110.716 12.4275 110.716 10.9212C110.716 9.16405 110.967 9.03827 114.482 9.03827C117.997 9.03827 118.248 8.9125 118.248 7.15537C118.248 5.39824 117.997 5.27246 114.482 5.27246C110.967 5.27246 110.716 5.39824 110.716 7.15537C110.716 8.66169 110.34 9.03827 108.833 9.03827C107.327 9.03827 106.95 8.66169 106.95 7.15537C106.95 5.64904 106.574 5.27246 105.067 5.27246C103.561 5.27246 103.185 5.64904 103.185 7.15537C103.185 8.66169 103.561 9.03827 105.067 9.03827C106.825 9.03827 106.95 9.28908 106.95 12.8041C106.95 16.3191 106.825 16.5699 105.067 16.5699C103.561 16.5699 103.185 16.1933 103.185 14.687C103.185 13.1807 102.808 12.8041 101.302 12.8041C99.7953 12.8041 99.4188 12.4275 99.4188 10.9212V9.03827H90.0042H80.5897V7.15537C80.5897 5.31464 80.4639 5.27246 74.941 5.27246C69.418 5.27246 69.2923 5.31464 69.2923 7.15537C69.2923 8.66169 69.6688 9.03827 71.1752 9.03827C72.6815 9.03827 73.0581 9.41486 73.0581 10.9212C73.0581 12.4275 73.4346 12.8041 74.941 12.8041C76.4473 12.8041 76.8239 12.4275 76.8239 10.9212C76.8239 9.41486 77.2005 9.03827 78.7068 9.03827C80.2131 9.03827 80.5897 9.41486 80.5897 10.9212C80.5897 12.4275 80.9663 12.8041 82.4726 12.8041C83.9789 12.8041 84.3555 13.1807 84.3555 14.687C84.3555 16.1933 84.7321 16.5699 86.2384 16.5699C87.7447 16.5699 88.1213 16.9465 88.1213 18.4528C88.1213 20.2935 87.9955 20.3357 82.4726 20.3357C76.9497 20.3357 76.8239 20.2935 76.8239 18.4528C76.8239 16.6121 76.6981 16.5699 71.1752 16.5699C65.6522 16.5699 65.5264 16.5277 65.5264 14.687C65.5264 12.9299 65.2756 12.8041 61.7606 12.8041H57.9948V9.03827V5.27246H52.3461C46.8232 5.27246 46.6974 5.31464 46.6974 7.15537ZM61.7606 7.15537C61.7606 8.66169 62.1372 9.03827 63.6435 9.03827C65.1499 9.03827 65.5264 8.66169 65.5264 7.15537C65.5264 5.64904 65.1499 5.27246 63.6435 5.27246C62.1372 5.27246 61.7606 5.64904 61.7606 7.15537ZM125.779 7.15537C125.779 8.66169 125.403 9.03827 123.897 9.03827C122.39 9.03827 122.014 9.41486 122.014 10.9212C122.014 12.4275 121.637 12.8041 120.131 12.8041C118.624 12.8041 118.248 13.1807 118.248 14.687C118.248 16.5277 118.374 16.5699 123.897 16.5699C129.419 16.5699 129.545 16.5277 129.545 14.687C129.545 13.1807 129.922 12.8041 131.428 12.8041C132.934 12.8041 133.311 12.4275 133.311 10.9212C133.311 9.41486 132.934 9.03827 131.428 9.03827C129.922 9.03827 129.545 8.66169 129.545 7.15537C129.545 5.64904 129.169 5.27246 127.662 5.27246C126.156 5.27246 125.779 5.64904 125.779 7.15537ZM148.374 18.4528V31.6332H161.555H174.735V18.4528V5.27246H161.555H148.374V18.4528ZM27.8683 18.4528V27.8673H18.4538H9.03925V18.4528V9.03827H18.4538H27.8683V18.4528ZM129.545 10.9212C129.545 12.4275 129.169 12.8041 127.662 12.8041C126.156 12.8041 125.779 12.4275 125.779 10.9212C125.779 9.41486 126.156 9.03827 127.662 9.03827C129.169 9.03827 129.545 9.41486 129.545 10.9212ZM170.969 18.4528V27.8673H161.555H152.14V18.4528V9.03827H161.555H170.969V18.4528ZM12.8051 18.4528V24.1015H18.4538H24.1025V18.4528V12.8041H18.4538H12.8051V18.4528ZM57.9948 14.687C57.9948 16.1933 57.6182 16.5699 56.1119 16.5699C54.3548 16.5699 54.229 16.8207 54.229 20.3357C54.229 23.8507 54.1032 24.1015 52.3461 24.1015C50.589 24.1015 50.4632 24.3523 50.4632 27.8673C50.4632 31.3823 50.589 31.6332 52.3461 31.6332C53.8524 31.6332 54.229 31.2566 54.229 29.7502C54.229 28.2439 54.6056 27.8673 56.1119 27.8673C57.869 27.8673 57.9948 28.1181 57.9948 31.6332C57.9948 35.1482 57.869 35.399 56.1119 35.399C54.6056 35.399 54.229 35.7755 54.229 37.2819C54.229 39.1226 54.3548 39.1648 59.8777 39.1648C65.4007 39.1648 65.5264 39.1226 65.5264 37.2819C65.5264 35.7755 65.1499 35.399 63.6435 35.399C61.8864 35.399 61.7606 35.1482 61.7606 31.6332C61.7606 28.1181 61.8864 27.8673 63.6435 27.8673C65.1499 27.8673 65.5264 28.2439 65.5264 29.7502C65.5264 31.2566 65.903 31.6332 67.4093 31.6332C69.1665 31.6332 69.2923 31.3823 69.2923 27.8673V24.1015H65.5264H61.7606V20.3357C61.7606 16.8207 61.8864 16.5699 63.6435 16.5699C65.1499 16.5699 65.5264 16.9465 65.5264 18.4528C65.5264 19.9591 65.903 20.3357 67.4093 20.3357C68.9157 20.3357 69.2923 20.7123 69.2923 22.2186C69.2923 23.7249 69.6688 24.1015 71.1752 24.1015C72.9323 24.1015 73.0581 24.3523 73.0581 27.8673C73.0581 31.3823 73.1838 31.6332 74.941 31.6332C76.4473 31.6332 76.8239 31.2566 76.8239 29.7502C76.8239 28.2439 77.2005 27.8673 78.7068 27.8673C80.4639 27.8673 80.5897 28.1181 80.5897 31.6332V35.399H76.8239C73.3089 35.399 73.0581 35.5247 73.0581 37.2819C73.0581 38.7882 73.4346 39.1648 74.941 39.1648C76.4473 39.1648 76.8239 39.5414 76.8239 41.0477C76.8239 42.554 77.2005 42.9306 78.7068 42.9306C80.2131 42.9306 80.5897 42.554 80.5897 41.0477C80.5897 39.5414 80.9663 39.1648 82.4726 39.1648C84.2297 39.1648 84.3555 39.4156 84.3555 42.9306V46.6964H88.1213C91.6363 46.6964 91.8871 46.5706 91.8871 44.8135C91.8871 43.3072 91.5106 42.9306 90.0042 42.9306C88.4979 42.9306 88.1213 42.554 88.1213 41.0477C88.1213 39.2906 88.3721 39.1648 91.8871 39.1648H95.6529V42.9306C95.6529 46.4456 95.7787 46.6964 97.5359 46.6964C99.293 46.6964 99.4188 46.4456 99.4188 42.9306V39.1648H103.185C106.7 39.1648 106.95 39.039 106.95 37.2819C106.95 35.5247 106.7 35.399 103.185 35.399H99.4188V27.8673V20.3357H103.185C106.7 20.3357 106.95 20.4615 106.95 22.2186C106.95 23.9757 107.201 24.1015 110.716 24.1015C114.231 24.1015 114.482 24.2273 114.482 25.9844C114.482 27.4908 114.859 27.8673 116.365 27.8673C117.871 27.8673 118.248 28.2439 118.248 29.7502C118.248 31.2566 117.871 31.6332 116.365 31.6332C114.859 31.6332 114.482 32.0097 114.482 33.5161C114.482 35.2732 114.733 35.399 118.248 35.399C121.763 35.399 122.014 35.5247 122.014 37.2819C122.014 38.7882 122.39 39.1648 123.897 39.1648C125.403 39.1648 125.779 39.5414 125.779 41.0477C125.779 42.8048 126.03 42.9306 129.545 42.9306C133.06 42.9306 133.311 42.8048 133.311 41.0477C133.311 39.2906 133.562 39.1648 137.077 39.1648C140.592 39.1648 140.843 39.039 140.843 37.2819C140.843 35.7755 141.219 35.399 142.726 35.399C144.232 35.399 144.609 35.7755 144.609 37.2819C144.609 38.7882 144.232 39.1648 142.726 39.1648C141.219 39.1648 140.843 39.5414 140.843 41.0477C140.843 42.554 140.466 42.9306 138.96 42.9306C137.203 42.9306 137.077 43.1814 137.077 46.6964V50.4622H140.843C144.358 50.4622 144.609 50.588 144.609 52.3451C144.609 54.1022 144.859 54.228 148.374 54.228C151.889 54.228 152.14 54.3538 152.14 56.1109C152.14 57.6173 151.764 57.9938 150.257 57.9938C148.751 57.9938 148.374 58.3704 148.374 59.8767C148.374 61.6339 148.625 61.7597 152.14 61.7597C155.655 61.7597 155.906 61.6339 155.906 59.8767C155.906 58.3704 156.283 57.9938 157.789 57.9938C159.546 57.9938 159.672 58.2446 159.672 61.7597C159.672 65.2747 159.798 65.5255 161.555 65.5255C163.312 65.5255 163.438 65.7763 163.438 69.2913C163.438 72.8063 163.312 73.0571 161.555 73.0571C160.048 73.0571 159.672 73.4337 159.672 74.94C159.672 76.4463 160.048 76.8229 161.555 76.8229C163.061 76.8229 163.438 77.1995 163.438 78.7058C163.438 80.2121 163.814 80.5887 165.32 80.5887C166.827 80.5887 167.203 80.9653 167.203 82.4716C167.203 84.2288 166.953 84.3545 163.438 84.3545H159.672V80.5887C159.672 77.0737 159.546 76.8229 157.789 76.8229C156.283 76.8229 155.906 77.1995 155.906 78.7058C155.906 80.5465 155.78 80.5887 150.257 80.5887C144.734 80.5887 144.609 80.5465 144.609 78.7058C144.609 77.1995 144.232 76.8229 142.726 76.8229C141.219 76.8229 140.843 76.4463 140.843 74.94C140.843 73.4337 141.219 73.0571 142.726 73.0571C144.483 73.0571 144.609 72.8063 144.609 69.2913C144.609 65.7763 144.734 65.5255 146.491 65.5255C147.998 65.5255 148.374 65.1489 148.374 63.6426C148.374 61.8854 148.124 61.7597 144.609 61.7597C141.094 61.7597 140.843 61.6339 140.843 59.8767C140.843 58.3704 140.466 57.9938 138.96 57.9938C137.203 57.9938 137.077 58.2446 137.077 61.7597C137.077 65.2747 137.203 65.5255 138.96 65.5255C140.466 65.5255 140.843 65.902 140.843 67.4084C140.843 68.9147 140.466 69.2913 138.96 69.2913C137.119 69.2913 137.077 69.4171 137.077 74.94C137.077 80.4629 137.035 80.5887 135.194 80.5887C133.353 80.5887 133.311 80.4629 133.311 74.94V69.2913H127.662H122.014V73.0571C122.014 76.5721 121.888 76.8229 120.131 76.8229C118.624 76.8229 118.248 77.1995 118.248 78.7058C118.248 80.2121 118.624 80.5887 120.131 80.5887C121.637 80.5887 122.014 80.9653 122.014 82.4716C122.014 83.9779 122.39 84.3545 123.897 84.3545C125.737 84.3545 125.779 84.2288 125.779 78.7058C125.779 73.1829 125.822 73.0571 127.662 73.0571C129.503 73.0571 129.545 73.1829 129.545 78.7058V84.3545H133.311H137.077V90.0032C137.077 95.5262 137.119 95.652 138.96 95.652C140.466 95.652 140.843 96.0285 140.843 97.5349C140.843 99.0412 141.219 99.4178 142.726 99.4178C144.232 99.4178 144.609 99.7944 144.609 101.301C144.609 103.141 144.734 103.184 150.257 103.184C155.78 103.184 155.906 103.141 155.906 101.301C155.906 99.7944 156.283 99.4178 157.789 99.4178C159.546 99.4178 159.672 99.167 159.672 95.652C159.672 92.137 159.798 91.8862 161.555 91.8862C163.061 91.8862 163.438 91.5096 163.438 90.0032C163.438 88.4969 163.814 88.1203 165.32 88.1203C166.827 88.1203 167.203 88.4969 167.203 90.0032C167.203 91.5096 167.58 91.8862 169.086 91.8862C170.593 91.8862 170.969 92.2627 170.969 93.7691C170.969 95.2754 170.593 95.652 169.086 95.652C167.58 95.652 167.203 95.2754 167.203 93.7691C167.203 92.2627 166.827 91.8862 165.32 91.8862C163.48 91.8862 163.438 92.0119 163.438 97.5349C163.438 103.058 163.48 103.184 165.32 103.184C166.827 103.184 167.203 103.56 167.203 105.067C167.203 106.573 166.827 106.949 165.32 106.949C163.563 106.949 163.438 107.2 163.438 110.715C163.438 114.23 163.312 114.481 161.555 114.481C160.048 114.481 159.672 114.104 159.672 112.598C159.672 111.092 159.295 110.715 157.789 110.715C156.032 110.715 155.906 110.966 155.906 114.481C155.906 117.996 155.78 118.247 154.023 118.247C152.517 118.247 152.14 117.87 152.14 116.364C152.14 114.858 151.764 114.481 150.257 114.481C148.751 114.481 148.374 114.858 148.374 116.364C148.374 118.121 148.124 118.247 144.609 118.247C141.094 118.247 140.843 118.373 140.843 120.13C140.843 121.887 141.094 122.013 144.609 122.013C148.124 122.013 148.374 122.138 148.374 123.896C148.374 125.653 148.625 125.778 152.14 125.778C155.655 125.778 155.906 125.653 155.906 123.896C155.906 122.138 156.157 122.013 159.672 122.013C163.187 122.013 163.438 122.138 163.438 123.896C163.438 125.402 163.061 125.778 161.555 125.778C160.048 125.778 159.672 126.155 159.672 127.661C159.672 129.502 159.546 129.544 154.023 129.544H148.374V133.31V137.076H154.023C159.546 137.076 159.672 137.118 159.672 138.959C159.672 140.8 159.546 140.842 154.023 140.842C148.5 140.842 148.374 140.8 148.374 138.959C148.374 137.452 147.998 137.076 146.491 137.076C144.985 137.076 144.609 136.699 144.609 135.193C144.609 133.687 144.232 133.31 142.726 133.31C140.968 133.31 140.843 133.561 140.843 137.076V140.842H137.077C133.562 140.842 133.311 140.968 133.311 142.725C133.311 144.482 133.562 144.608 137.077 144.608C140.592 144.608 140.843 144.733 140.843 146.49C140.843 148.248 140.592 148.373 137.077 148.373C133.562 148.373 133.311 148.499 133.311 150.256C133.311 151.763 133.688 152.139 135.194 152.139C136.7 152.139 137.077 152.516 137.077 154.022C137.077 155.528 137.453 155.905 138.96 155.905C140.466 155.905 140.843 156.282 140.843 157.788C140.843 159.294 141.219 159.671 142.726 159.671C144.566 159.671 144.609 159.797 144.609 165.32V170.968H138.96C133.437 170.968 133.311 170.926 133.311 169.085C133.311 167.328 133.562 167.202 137.077 167.202C140.592 167.202 140.843 167.077 140.843 165.32C140.843 163.562 140.592 163.437 137.077 163.437C133.562 163.437 133.311 163.311 133.311 161.554C133.311 160.047 133.688 159.671 135.194 159.671C136.7 159.671 137.077 159.294 137.077 157.788C137.077 156.031 136.826 155.905 133.311 155.905C129.796 155.905 129.545 155.779 129.545 154.022C129.545 152.516 129.169 152.139 127.662 152.139C126.156 152.139 125.779 151.763 125.779 150.256C125.779 148.75 125.403 148.373 123.897 148.373C122.39 148.373 122.014 148.75 122.014 150.256C122.014 151.763 121.637 152.139 120.131 152.139C118.624 152.139 118.248 151.763 118.248 150.256C118.248 148.75 117.871 148.373 116.365 148.373C114.859 148.373 114.482 148.75 114.482 150.256C114.482 151.763 114.105 152.139 112.599 152.139C111.093 152.139 110.716 151.763 110.716 150.256C110.716 148.75 110.34 148.373 108.833 148.373C107.076 148.373 106.95 148.624 106.95 152.139C106.95 155.654 107.076 155.905 108.833 155.905C110.34 155.905 110.716 156.282 110.716 157.788C110.716 159.294 110.34 159.671 108.833 159.671C107.327 159.671 106.95 159.294 106.95 157.788C106.95 156.031 106.7 155.905 103.185 155.905H99.4188V150.256V144.608H105.067C110.59 144.608 110.716 144.565 110.716 142.725C110.716 141.218 111.093 140.842 112.599 140.842C114.105 140.842 114.482 141.218 114.482 142.725C114.482 144.231 114.859 144.608 116.365 144.608C117.871 144.608 118.248 144.231 118.248 142.725C118.248 140.968 118.499 140.842 122.014 140.842H125.779V137.076V133.31H122.014C118.499 133.31 118.248 133.436 118.248 135.193C118.248 137.034 118.122 137.076 112.599 137.076C107.076 137.076 106.95 137.118 106.95 138.959V140.842H99.4188H91.8871V138.959C91.8871 137.202 91.6363 137.076 88.1213 137.076H84.3555V133.31C84.3555 129.795 84.2297 129.544 82.4726 129.544C80.7155 129.544 80.5897 129.795 80.5897 133.31C80.5897 136.825 80.4639 137.076 78.7068 137.076C76.8661 137.076 76.8239 136.95 76.8239 131.427V125.778H73.0581H69.2923V131.427C69.2923 136.95 69.3344 137.076 71.1752 137.076C72.9323 137.076 73.0581 137.327 73.0581 140.842V144.608H69.2923C65.7772 144.608 65.5264 144.733 65.5264 146.49C65.5264 147.997 65.1499 148.373 63.6435 148.373C62.1372 148.373 61.7606 147.997 61.7606 146.49C61.7606 144.984 61.384 144.608 59.8777 144.608C58.3714 144.608 57.9948 144.984 57.9948 146.49C57.9948 147.997 57.6182 148.373 56.1119 148.373C54.6056 148.373 54.229 148.75 54.229 150.256C54.229 151.763 54.6056 152.139 56.1119 152.139C57.6182 152.139 57.9948 152.516 57.9948 154.022C57.9948 155.528 57.6182 155.905 56.1119 155.905C54.6056 155.905 54.229 155.528 54.229 154.022C54.229 152.265 53.9782 152.139 50.4632 152.139C46.9482 152.139 46.6974 152.013 46.6974 150.256C46.6974 148.75 46.3208 148.373 44.8145 148.373C43.3081 148.373 42.9316 147.997 42.9316 146.49C42.9316 144.733 43.1824 144.608 46.6974 144.608C50.2124 144.608 50.4632 144.733 50.4632 146.49C50.4632 147.997 50.8398 148.373 52.3461 148.373C54.1032 148.373 54.229 148.123 54.229 144.608C54.229 141.093 54.1032 140.842 52.3461 140.842C50.8398 140.842 50.4632 140.465 50.4632 138.959C50.4632 137.452 50.0866 137.076 48.5803 137.076C47.074 137.076 46.6974 136.699 46.6974 135.193C46.6974 133.687 47.074 133.31 48.5803 133.31C50.0866 133.31 50.4632 132.934 50.4632 131.427C50.4632 129.921 50.8398 129.544 52.3461 129.544C54.1868 129.544 54.229 129.67 54.229 135.193V140.842H57.9948C61.5098 140.842 61.7606 140.968 61.7606 142.725C61.7606 144.231 62.1372 144.608 63.6435 144.608H65.5264V133.31V122.013H71.1752C76.6981 122.013 76.8239 122.055 76.8239 123.896V125.778H88.1213H99.4188V120.13C99.4188 114.607 99.3766 114.481 97.5359 114.481C96.0295 114.481 95.6529 114.858 95.6529 116.364C95.6529 117.87 95.2764 118.247 93.77 118.247C92.2637 118.247 91.8871 118.623 91.8871 120.13C91.8871 121.97 91.7614 122.013 86.2384 122.013C80.7155 122.013 80.5897 121.97 80.5897 120.13C80.5897 118.623 80.9663 118.247 82.4726 118.247C84.2297 118.247 84.3555 117.996 84.3555 114.481C84.3555 110.966 84.2297 110.715 82.4726 110.715C80.9663 110.715 80.5897 111.092 80.5897 112.598C80.5897 114.104 80.2131 114.481 78.7068 114.481C77.2005 114.481 76.8239 114.104 76.8239 112.598C76.8239 110.841 76.5731 110.715 73.0581 110.715H69.2923V105.067C69.2923 99.5436 69.2501 99.4178 67.4093 99.4178C65.903 99.4178 65.5264 99.7944 65.5264 101.301C65.5264 102.807 65.1499 103.184 63.6435 103.184C62.1372 103.184 61.7606 103.56 61.7606 105.067C61.7606 106.573 61.384 106.949 59.8777 106.949C58.3714 106.949 57.9948 106.573 57.9948 105.067C57.9948 103.56 57.6182 103.184 56.1119 103.184C54.6056 103.184 54.229 102.807 54.229 101.301C54.229 99.46 54.3548 99.4178 59.8777 99.4178H65.5264V95.652C65.5264 92.137 65.4007 91.8862 63.6435 91.8862C62.1372 91.8862 61.7606 91.5096 61.7606 90.0032C61.7606 88.2461 61.5098 88.1203 57.9948 88.1203C54.4798 88.1203 54.229 87.9946 54.229 86.2374C54.229 84.7311 54.6056 84.3545 56.1119 84.3545C57.6182 84.3545 57.9948 83.9779 57.9948 82.4716C57.9948 80.9653 58.3714 80.5887 59.8777 80.5887C61.6349 80.5887 61.7606 80.8395 61.7606 84.3545C61.7606 87.8695 61.8864 88.1203 63.6435 88.1203C65.1499 88.1203 65.5264 87.7438 65.5264 86.2374C65.5264 84.7311 65.903 84.3545 67.4093 84.3545C68.9157 84.3545 69.2923 83.9779 69.2923 82.4716C69.2923 80.9653 68.9157 80.5887 67.4093 80.5887C65.903 80.5887 65.5264 80.2121 65.5264 78.7058C65.5264 76.9487 65.2756 76.8229 61.7606 76.8229H57.9948V73.0571C57.9948 69.5421 57.869 69.2913 56.1119 69.2913C54.6056 69.2913 54.229 68.9147 54.229 67.4084C54.229 65.902 53.8524 65.5255 52.3461 65.5255C50.589 65.5255 50.4632 65.7763 50.4632 69.2913C50.4632 72.8063 50.589 73.0571 52.3461 73.0571C53.8524 73.0571 54.229 73.4337 54.229 74.94C54.229 76.4463 53.8524 76.8229 52.3461 76.8229C50.8398 76.8229 50.4632 76.4463 50.4632 74.94C50.4632 73.1829 50.2124 73.0571 46.6974 73.0571C43.1824 73.0571 42.9316 73.1829 42.9316 74.94C42.9316 76.4463 43.3081 76.8229 44.8145 76.8229C46.3208 76.8229 46.6974 77.1995 46.6974 78.7058C46.6974 80.2121 47.074 80.5887 48.5803 80.5887C50.3374 80.5887 50.4632 80.8395 50.4632 84.3545V88.1203H46.6974H42.9316V91.8862C42.9316 95.4012 43.0573 95.652 44.8145 95.652C46.3208 95.652 46.6974 95.2754 46.6974 93.7691C46.6974 91.9283 46.8232 91.8862 52.3461 91.8862C57.869 91.8862 57.9948 91.9283 57.9948 93.7691C57.9948 95.6098 57.869 95.652 52.3461 95.652C46.8232 95.652 46.6974 95.6941 46.6974 97.5349C46.6974 99.0412 47.074 99.4178 48.5803 99.4178C50.0866 99.4178 50.4632 99.7944 50.4632 101.301C50.4632 103.058 50.2124 103.184 46.6974 103.184H42.9316V99.4178C42.9316 95.9028 42.8058 95.652 41.0487 95.652C39.2915 95.652 39.1658 95.4012 39.1658 91.8862C39.1658 88.3711 39.2915 88.1203 41.0487 88.1203C42.555 88.1203 42.9316 87.7438 42.9316 86.2374C42.9316 84.7311 42.555 84.3545 41.0487 84.3545C39.5423 84.3545 39.1658 83.9779 39.1658 82.4716C39.1658 80.6309 39.04 80.5887 33.517 80.5887C27.9941 80.5887 27.8683 80.5465 27.8683 78.7058C27.8683 76.9487 28.1191 76.8229 31.6341 76.8229C35.1491 76.8229 35.3999 76.6971 35.3999 74.94C35.3999 73.1829 35.6507 73.0571 39.1658 73.0571H42.9316V69.2913C42.9316 65.7763 42.8058 65.5255 41.0487 65.5255C39.5423 65.5255 39.1658 65.902 39.1658 67.4084C39.1658 68.9147 38.7892 69.2913 37.2828 69.2913C35.5257 69.2913 35.3999 69.0405 35.3999 65.5255C35.3999 62.0105 35.2742 61.7597 33.517 61.7597C32.0107 61.7597 31.6341 61.3831 31.6341 59.8767C31.6341 58.3704 31.2575 57.9938 29.7512 57.9938C28.2449 57.9938 27.8683 57.6173 27.8683 56.1109C27.8683 54.3538 28.1191 54.228 31.6341 54.228H35.3999V57.9938V61.7597H39.1658C42.6808 61.7597 42.9316 61.6339 42.9316 59.8767C42.9316 58.1196 43.1824 57.9938 46.6974 57.9938C50.2124 57.9938 50.4632 57.8681 50.4632 56.1109C50.4632 54.6046 50.0866 54.228 48.5803 54.228C47.074 54.228 46.6974 53.8514 46.6974 52.3451C46.6974 50.8388 47.074 50.4622 48.5803 50.4622C50.0866 50.4622 50.4632 50.0856 50.4632 48.5793C50.4632 47.073 50.8398 46.6964 52.3461 46.6964C53.8524 46.6964 54.229 47.073 54.229 48.5793C54.229 50.3364 54.4798 50.4622 57.9948 50.4622C61.5098 50.4622 61.7606 50.3364 61.7606 48.5793C61.7606 47.073 61.384 46.6964 59.8777 46.6964C58.3714 46.6964 57.9948 46.3198 57.9948 44.8135C57.9948 43.0564 57.744 42.9306 54.229 42.9306C50.714 42.9306 50.4632 42.8048 50.4632 41.0477C50.4632 39.5414 50.0866 39.1648 48.5803 39.1648C47.074 39.1648 46.6974 39.5414 46.6974 41.0477C46.6974 42.554 46.3208 42.9306 44.8145 42.9306C43.3081 42.9306 42.9316 42.554 42.9316 41.0477C42.9316 39.5414 43.3081 39.1648 44.8145 39.1648C46.6552 39.1648 46.6974 39.039 46.6974 33.5161C46.6974 27.9931 46.6552 27.8673 44.8145 27.8673C43.3081 27.8673 42.9316 28.2439 42.9316 29.7502C42.9316 31.2566 42.555 31.6332 41.0487 31.6332C39.5423 31.6332 39.1658 31.2566 39.1658 29.7502C39.1658 28.2439 39.5423 27.8673 41.0487 27.8673C42.555 27.8673 42.9316 27.4908 42.9316 25.9844C42.9316 24.2273 43.1824 24.1015 46.6974 24.1015H50.4632V18.4528V12.8041H54.229C57.744 12.8041 57.9948 12.9299 57.9948 14.687ZM91.8871 14.687C91.8871 16.1933 92.2637 16.5699 93.77 16.5699C95.2764 16.5699 95.6529 16.1933 95.6529 14.687C95.6529 13.1807 96.0295 12.8041 97.5359 12.8041C99.0422 12.8041 99.4188 13.1807 99.4188 14.687C99.4188 16.1933 99.0422 16.5699 97.5359 16.5699C96.0295 16.5699 95.6529 16.9465 95.6529 18.4528C95.6529 19.9591 95.2764 20.3357 93.77 20.3357C92.2637 20.3357 91.8871 19.9591 91.8871 18.4528C91.8871 16.9465 91.5106 16.5699 90.0042 16.5699C88.4979 16.5699 88.1213 16.1933 88.1213 14.687C88.1213 13.1807 88.4979 12.8041 90.0042 12.8041C91.5106 12.8041 91.8871 13.1807 91.8871 14.687ZM155.906 18.4528V24.1015H161.555H167.203V18.4528V12.8041H161.555H155.906V18.4528ZM95.6529 29.7502V35.399H90.0042H84.3555V29.7502V24.1015H90.0042H95.6529V29.7502ZM103.185 27.8673C103.185 31.3823 103.31 31.6332 105.067 31.6332C106.825 31.6332 106.95 31.3823 106.95 27.8673C106.95 24.3523 106.825 24.1015 105.067 24.1015C103.31 24.1015 103.185 24.3523 103.185 27.8673ZM88.1213 29.7502C88.1213 31.2566 88.4979 31.6332 90.0042 31.6332C91.5106 31.6332 91.8871 31.2566 91.8871 29.7502C91.8871 28.2439 91.5106 27.8673 90.0042 27.8673C88.4979 27.8673 88.1213 28.2439 88.1213 29.7502ZM110.716 29.7502C110.716 31.2566 111.093 31.6332 112.599 31.6332C114.105 31.6332 114.482 31.2566 114.482 29.7502C114.482 28.2439 114.105 27.8673 112.599 27.8673C111.093 27.8673 110.716 28.2439 110.716 29.7502ZM69.2923 33.5161C69.2923 35.0224 69.6688 35.399 71.1752 35.399C72.6815 35.399 73.0581 35.0224 73.0581 33.5161C73.0581 32.0097 72.6815 31.6332 71.1752 31.6332C69.6688 31.6332 69.2923 32.0097 69.2923 33.5161ZM5.27344 46.6964V57.9938H7.15634H9.03925V50.4622V42.9306H10.9222C12.4285 42.9306 12.8051 43.3072 12.8051 44.8135C12.8051 46.3198 13.1816 46.6964 14.688 46.6964C16.1943 46.6964 16.5709 46.3198 16.5709 44.8135C16.5709 43.3072 16.1943 42.9306 14.688 42.9306C13.1816 42.9306 12.8051 42.554 12.8051 41.0477C12.8051 39.207 12.9308 39.1648 18.4538 39.1648C23.9767 39.1648 24.1025 39.1226 24.1025 37.2819V35.399H14.688H5.27344V46.6964ZM65.5264 41.0477C65.5264 42.554 65.1499 42.9306 63.6435 42.9306C62.1372 42.9306 61.7606 43.3072 61.7606 44.8135C61.7606 46.3198 62.1372 46.6964 63.6435 46.6964C65.1499 46.6964 65.5264 47.073 65.5264 48.5793C65.5264 50.0856 65.1499 50.4622 63.6435 50.4622C62.1372 50.4622 61.7606 50.8388 61.7606 52.3451C61.7606 54.1022 61.5098 54.228 57.9948 54.228C54.4798 54.228 54.229 54.3538 54.229 56.1109C54.229 57.6173 53.8524 57.9938 52.3461 57.9938C50.8398 57.9938 50.4632 58.3704 50.4632 59.8767C50.4632 61.3831 50.8398 61.7597 52.3461 61.7597C53.8524 61.7597 54.229 62.1362 54.229 63.6426C54.229 65.1489 54.6056 65.5255 56.1119 65.5255C57.6182 65.5255 57.9948 65.1489 57.9948 63.6426C57.9948 62.1362 57.6182 61.7597 56.1119 61.7597C54.6056 61.7597 54.229 61.3831 54.229 59.8767C54.229 58.036 54.3548 57.9938 59.8777 57.9938C65.4007 57.9938 65.5264 58.036 65.5264 59.8767C65.5264 61.3831 65.1499 61.7597 63.6435 61.7597C62.1372 61.7597 61.7606 62.1362 61.7606 63.6426C61.7606 65.1489 62.1372 65.5255 63.6435 65.5255C65.1499 65.5255 65.5264 65.1489 65.5264 63.6426C65.5264 62.1362 65.903 61.7597 67.4093 61.7597C68.9157 61.7597 69.2923 62.1362 69.2923 63.6426C69.2923 65.1489 69.6688 65.5255 71.1752 65.5255C73.0159 65.5255 73.0581 65.6512 73.0581 71.1742C73.0581 76.6971 73.0159 76.8229 71.1752 76.8229C69.6688 76.8229 69.2923 77.1995 69.2923 78.7058C69.2923 80.2121 69.6688 80.5887 71.1752 80.5887C72.6815 80.5887 73.0581 80.9653 73.0581 82.4716C73.0581 83.9779 72.6815 84.3545 71.1752 84.3545C69.6688 84.3545 69.2923 84.7311 69.2923 86.2374C69.2923 87.7438 68.9157 88.1203 67.4093 88.1203C65.903 88.1203 65.5264 88.4969 65.5264 90.0032C65.5264 91.5096 65.903 91.8862 67.4093 91.8862C69.1665 91.8862 69.2923 92.137 69.2923 95.652V99.4178H74.941C80.4639 99.4178 80.5897 99.46 80.5897 101.301C80.5897 103.058 80.3389 103.184 76.8239 103.184C73.3089 103.184 73.0581 103.309 73.0581 105.067C73.0581 106.573 73.4346 106.949 74.941 106.949C76.4473 106.949 76.8239 107.326 76.8239 108.832C76.8239 110.339 77.2005 110.715 78.7068 110.715C80.2131 110.715 80.5897 110.339 80.5897 108.832C80.5897 107.326 80.9663 106.949 82.4726 106.949C83.9789 106.949 84.3555 107.326 84.3555 108.832C84.3555 110.589 84.6063 110.715 88.1213 110.715C91.6363 110.715 91.8871 110.841 91.8871 112.598C91.8871 114.104 92.2637 114.481 93.77 114.481C95.2764 114.481 95.6529 114.104 95.6529 112.598C95.6529 111.092 96.0295 110.715 97.5359 110.715C99.0422 110.715 99.4188 111.092 99.4188 112.598C99.4188 114.439 99.5445 114.481 105.067 114.481C110.59 114.481 110.716 114.523 110.716 116.364C110.716 118.121 110.465 118.247 106.95 118.247C103.435 118.247 103.185 118.373 103.185 120.13C103.185 121.887 103.435 122.013 106.95 122.013C110.465 122.013 110.716 121.887 110.716 120.13C110.716 118.623 111.093 118.247 112.599 118.247C114.356 118.247 114.482 118.498 114.482 122.013V125.778H118.248C121.763 125.778 122.014 125.904 122.014 127.661C122.014 129.168 122.39 129.544 123.897 129.544C125.403 129.544 125.779 129.921 125.779 131.427C125.779 132.934 126.156 133.31 127.662 133.31C129.419 133.31 129.545 133.561 129.545 137.076C129.545 140.591 129.671 140.842 131.428 140.842C132.934 140.842 133.311 140.465 133.311 138.959C133.311 137.452 133.688 137.076 135.194 137.076C136.7 137.076 137.077 136.699 137.077 135.193C137.077 133.687 137.453 133.31 138.96 133.31C140.466 133.31 140.843 132.934 140.843 131.427C140.843 129.67 141.094 129.544 144.609 129.544C148.124 129.544 148.374 129.419 148.374 127.661C148.374 125.904 148.124 125.778 144.609 125.778C141.094 125.778 140.843 125.653 140.843 123.896C140.843 122.389 140.466 122.013 138.96 122.013C137.453 122.013 137.077 121.636 137.077 120.13C137.077 118.623 137.453 118.247 138.96 118.247C140.466 118.247 140.843 117.87 140.843 116.364C140.843 114.858 141.219 114.481 142.726 114.481C144.483 114.481 144.609 114.23 144.609 110.715C144.609 107.2 144.483 106.949 142.726 106.949C140.968 106.949 140.843 107.2 140.843 110.715C140.843 114.23 140.717 114.481 138.96 114.481C137.453 114.481 137.077 114.858 137.077 116.364C137.077 117.87 136.7 118.247 135.194 118.247C133.437 118.247 133.311 117.996 133.311 114.481C133.311 110.966 133.185 110.715 131.428 110.715C129.922 110.715 129.545 110.339 129.545 108.832C129.545 107.326 129.922 106.949 131.428 106.949C133.185 106.949 133.311 106.699 133.311 103.184C133.311 99.6686 133.437 99.4178 135.194 99.4178C136.7 99.4178 137.077 99.7944 137.077 101.301C137.077 102.807 137.453 103.184 138.96 103.184C140.466 103.184 140.843 102.807 140.843 101.301C140.843 99.7944 140.466 99.4178 138.96 99.4178C137.453 99.4178 137.077 99.0412 137.077 97.5349C137.077 96.0285 136.7 95.652 135.194 95.652C133.688 95.652 133.311 96.0285 133.311 97.5349C133.311 99.0412 132.934 99.4178 131.428 99.4178C129.671 99.4178 129.545 99.167 129.545 95.652V91.8862H125.779H122.014V88.1203C122.014 84.6053 121.888 84.3545 120.131 84.3545C118.624 84.3545 118.248 83.9779 118.248 82.4716C118.248 80.9653 117.871 80.5887 116.365 80.5887C114.859 80.5887 114.482 80.2121 114.482 78.7058C114.482 77.1995 114.859 76.8229 116.365 76.8229C118.206 76.8229 118.248 76.6971 118.248 71.1742V65.5255H123.897C129.419 65.5255 129.545 65.4833 129.545 63.6426C129.545 62.1362 129.169 61.7597 127.662 61.7597C126.156 61.7597 125.779 61.3831 125.779 59.8767C125.779 58.3704 125.403 57.9938 123.897 57.9938C122.139 57.9938 122.014 57.743 122.014 54.228V50.4622H125.779H129.545V54.228C129.545 57.743 129.671 57.9938 131.428 57.9938C132.934 57.9938 133.311 57.6173 133.311 56.1109C133.311 54.6046 133.688 54.228 135.194 54.228C136.7 54.228 137.077 53.8514 137.077 52.3451C137.077 50.588 136.826 50.4622 133.311 50.4622C129.796 50.4622 129.545 50.3364 129.545 48.5793C129.545 47.073 129.169 46.6964 127.662 46.6964C126.156 46.6964 125.779 46.3198 125.779 44.8135C125.779 43.3072 125.403 42.9306 123.897 42.9306C122.39 42.9306 122.014 42.554 122.014 41.0477C122.014 39.207 121.888 39.1648 116.365 39.1648C110.842 39.1648 110.716 39.207 110.716 41.0477C110.716 42.554 110.34 42.9306 108.833 42.9306C107.327 42.9306 106.95 43.3072 106.95 44.8135C106.95 46.3198 107.327 46.6964 108.833 46.6964C110.59 46.6964 110.716 46.9472 110.716 50.4622C110.716 53.9772 110.59 54.228 108.833 54.228C107.327 54.228 106.95 53.8514 106.95 52.3451C106.95 50.8388 106.574 50.4622 105.067 50.4622C103.561 50.4622 103.185 50.0856 103.185 48.5793C103.185 47.073 102.808 46.6964 101.302 46.6964C99.7953 46.6964 99.4188 47.073 99.4188 48.5793C99.4188 50.0856 99.0422 50.4622 97.5359 50.4622C96.0295 50.4622 95.6529 50.0856 95.6529 48.5793C95.6529 47.073 95.2764 46.6964 93.77 46.6964C92.2637 46.6964 91.8871 47.073 91.8871 48.5793C91.8871 50.42 91.7614 50.4622 86.2384 50.4622C80.7155 50.4622 80.5897 50.42 80.5897 48.5793C80.5897 47.073 80.2131 46.6964 78.7068 46.6964C77.2005 46.6964 76.8239 46.3198 76.8239 44.8135C76.8239 43.0564 76.5731 42.9306 73.0581 42.9306C69.5431 42.9306 69.2923 42.8048 69.2923 41.0477C69.2923 39.5414 68.9157 39.1648 67.4093 39.1648C65.903 39.1648 65.5264 39.5414 65.5264 41.0477ZM27.8683 44.8135C27.8683 46.3198 28.2449 46.6964 29.7512 46.6964C31.2575 46.6964 31.6341 46.3198 31.6341 44.8135C31.6341 43.3072 31.2575 42.9306 29.7512 42.9306C28.2449 42.9306 27.8683 43.3072 27.8683 44.8135ZM118.248 44.8135C118.248 46.5706 117.997 46.6964 114.482 46.6964C110.967 46.6964 110.716 46.5706 110.716 44.8135C110.716 43.0564 110.967 42.9306 114.482 42.9306C117.997 42.9306 118.248 43.0564 118.248 44.8135ZM73.0581 50.4622C73.0581 53.9772 73.1838 54.228 74.941 54.228C76.4473 54.228 76.8239 54.6046 76.8239 56.1109C76.8239 57.6173 76.4473 57.9938 74.941 57.9938C73.4346 57.9938 73.0581 58.3704 73.0581 59.8767C73.0581 61.3831 73.4346 61.7597 74.941 61.7597C76.4473 61.7597 76.8239 62.1362 76.8239 63.6426C76.8239 65.3997 77.0747 65.5255 80.5897 65.5255C84.1047 65.5255 84.3555 65.6512 84.3555 67.4084C84.3555 68.9147 84.7321 69.2913 86.2384 69.2913C87.7447 69.2913 88.1213 68.9147 88.1213 67.4084C88.1213 65.6512 88.3721 65.5255 91.8871 65.5255C95.4021 65.5255 95.6529 65.3997 95.6529 63.6426C95.6529 61.8854 95.9037 61.7597 99.4188 61.7597H103.185V57.9938C103.185 54.4788 103.059 54.228 101.302 54.228C99.7953 54.228 99.4188 53.8514 99.4188 52.3451C99.4188 50.8388 99.7953 50.4622 101.302 50.4622C102.808 50.4622 103.185 50.8388 103.185 52.3451C103.185 53.8514 103.561 54.228 105.067 54.228C106.574 54.228 106.95 54.6046 106.95 56.1109C106.95 57.8681 107.201 57.9938 110.716 57.9938H114.482V54.228C114.482 50.713 114.608 50.4622 116.365 50.4622C118.122 50.4622 118.248 50.713 118.248 54.228C118.248 57.743 118.374 57.9938 120.131 57.9938C121.637 57.9938 122.014 58.3704 122.014 59.8767C122.014 61.3831 121.637 61.7597 120.131 61.7597C118.624 61.7597 118.248 62.1362 118.248 63.6426C118.248 65.1489 117.871 65.5255 116.365 65.5255C114.859 65.5255 114.482 65.902 114.482 67.4084C114.482 68.9147 114.105 69.2913 112.599 69.2913C111.093 69.2913 110.716 69.6679 110.716 71.1742C110.716 72.6805 111.093 73.0571 112.599 73.0571C114.105 73.0571 114.482 73.4337 114.482 74.94C114.482 76.4463 114.105 76.8229 112.599 76.8229C111.093 76.8229 110.716 77.1995 110.716 78.7058C110.716 80.2121 111.093 80.5887 112.599 80.5887C114.105 80.5887 114.482 80.9653 114.482 82.4716C114.482 83.9779 114.105 84.3545 112.599 84.3545C111.093 84.3545 110.716 84.7311 110.716 86.2374C110.716 87.7438 111.093 88.1203 112.599 88.1203C114.356 88.1203 114.482 88.3711 114.482 91.8862C114.482 95.4012 114.356 95.652 112.599 95.652C110.842 95.652 110.716 95.9028 110.716 99.4178C110.716 102.933 110.842 103.184 112.599 103.184C114.105 103.184 114.482 102.807 114.482 101.301C114.482 99.7944 114.859 99.4178 116.365 99.4178C117.871 99.4178 118.248 99.0412 118.248 97.5349C118.248 96.0285 118.624 95.652 120.131 95.652C121.637 95.652 122.014 96.0285 122.014 97.5349C122.014 99.0412 122.39 99.4178 123.897 99.4178C125.403 99.4178 125.779 99.7944 125.779 101.301C125.779 102.807 126.156 103.184 127.662 103.184C129.169 103.184 129.545 103.56 129.545 105.067C129.545 106.824 129.294 106.949 125.779 106.949H122.014V103.184C122.014 99.6686 121.888 99.4178 120.131 99.4178C118.374 99.4178 118.248 99.6686 118.248 103.184C118.248 106.699 118.122 106.949 116.365 106.949C114.859 106.949 114.482 107.326 114.482 108.832C114.482 110.589 114.733 110.715 118.248 110.715C121.763 110.715 122.014 110.841 122.014 112.598C122.014 114.439 121.888 114.481 116.365 114.481H110.716V108.832C110.716 103.309 110.674 103.184 108.833 103.184C107.076 103.184 106.95 103.434 106.95 106.949V110.715H103.185C99.6696 110.715 99.4188 110.589 99.4188 108.832C99.4188 107.326 99.0422 106.949 97.5359 106.949C96.0295 106.949 95.6529 106.573 95.6529 105.067C95.6529 103.56 95.2764 103.184 93.77 103.184C92.2637 103.184 91.8871 103.56 91.8871 105.067C91.8871 106.824 91.6363 106.949 88.1213 106.949C84.6063 106.949 84.3555 106.824 84.3555 105.067C84.3555 103.56 84.7321 103.184 86.2384 103.184C87.7447 103.184 88.1213 102.807 88.1213 101.301C88.1213 99.5436 88.3721 99.4178 91.8871 99.4178C95.4021 99.4178 95.6529 99.5436 95.6529 101.301C95.6529 102.807 96.0295 103.184 97.5359 103.184C99.0422 103.184 99.4188 103.56 99.4188 105.067C99.4188 106.573 99.7953 106.949 101.302 106.949C103.059 106.949 103.185 106.699 103.185 103.184C103.185 99.6686 103.31 99.4178 105.067 99.4178C106.574 99.4178 106.95 99.0412 106.95 97.5349C106.95 95.7777 106.7 95.652 103.185 95.652C99.6696 95.652 99.4188 95.5262 99.4188 93.7691C99.4188 92.2627 99.7953 91.8862 101.302 91.8862C103.059 91.8862 103.185 91.6354 103.185 88.1203C103.185 84.6053 103.059 84.3545 101.302 84.3545C99.7953 84.3545 99.4188 83.9779 99.4188 82.4716C99.4188 80.9653 99.0422 80.5887 97.5359 80.5887C96.0295 80.5887 95.6529 80.2121 95.6529 78.7058C95.6529 77.1995 95.2764 76.8229 93.77 76.8229C92.2637 76.8229 91.8871 77.1995 91.8871 78.7058C91.8871 80.5465 91.7614 80.5887 86.2384 80.5887H80.5897V74.94C80.5897 69.4171 80.5475 69.2913 78.7068 69.2913C77.2005 69.2913 76.8239 68.9147 76.8239 67.4084C76.8239 65.902 76.4473 65.5255 74.941 65.5255C73.4346 65.5255 73.0581 65.1489 73.0581 63.6426C73.0581 62.1362 72.6815 61.7597 71.1752 61.7597C69.6688 61.7597 69.2923 61.3831 69.2923 59.8767C69.2923 58.3704 68.9157 57.9938 67.4093 57.9938C65.6522 57.9938 65.5264 57.743 65.5264 54.228C65.5264 50.713 65.6522 50.4622 67.4093 50.4622C68.9157 50.4622 69.2923 50.0856 69.2923 48.5793C69.2923 47.073 69.6688 46.6964 71.1752 46.6964C72.9323 46.6964 73.0581 46.9472 73.0581 50.4622ZM95.6529 54.228V57.9938H88.1213H80.5897V56.1109C80.5897 54.2702 80.7155 54.228 86.2384 54.228C91.7614 54.228 91.8871 54.1859 91.8871 52.3451C91.8871 50.8388 92.2637 50.4622 93.77 50.4622C95.5272 50.4622 95.6529 50.713 95.6529 54.228ZM69.2923 56.1109C69.2923 57.6173 69.6688 57.9938 71.1752 57.9938C72.6815 57.9938 73.0581 57.6173 73.0581 56.1109C73.0581 54.6046 72.6815 54.228 71.1752 54.228C69.6688 54.228 69.2923 54.6046 69.2923 56.1109ZM140.843 56.1109C140.843 57.6173 141.219 57.9938 142.726 57.9938C144.232 57.9938 144.609 57.6173 144.609 56.1109C144.609 54.6046 144.232 54.228 142.726 54.228C141.219 54.228 140.843 54.6046 140.843 56.1109ZM167.203 59.8767C167.203 61.3831 167.58 61.7597 169.086 61.7597C170.593 61.7597 170.969 62.1362 170.969 63.6426C170.969 65.1489 170.593 65.5255 169.086 65.5255C167.58 65.5255 167.203 65.1489 167.203 63.6426C167.203 62.1362 166.827 61.7597 165.32 61.7597C163.814 61.7597 163.438 61.3831 163.438 59.8767C163.438 58.3704 163.814 57.9938 165.32 57.9938C166.827 57.9938 167.203 58.3704 167.203 59.8767ZM9.03925 67.4084C9.03925 72.9313 9.08143 73.0571 10.9222 73.0571C12.4285 73.0571 12.8051 72.6805 12.8051 71.1742C12.8051 69.6679 13.1816 69.2913 14.688 69.2913C16.1943 69.2913 16.5709 68.9147 16.5709 67.4084C16.5709 65.902 16.1943 65.5255 14.688 65.5255C13.1816 65.5255 12.8051 65.1489 12.8051 63.6426C12.8051 62.1362 12.4285 61.7597 10.9222 61.7597C9.08143 61.7597 9.03925 61.8854 9.03925 67.4084ZM95.6529 67.4084C95.6529 69.2491 95.7787 69.2913 101.302 69.2913C106.825 69.2913 106.95 69.2491 106.95 67.4084C106.95 65.5676 106.825 65.5255 101.302 65.5255C95.7787 65.5255 95.6529 65.5676 95.6529 67.4084ZM133.311 67.4084C133.311 68.9147 133.688 69.2913 135.194 69.2913C136.7 69.2913 137.077 68.9147 137.077 67.4084C137.077 65.902 136.7 65.5255 135.194 65.5255C133.688 65.5255 133.311 65.902 133.311 67.4084ZM148.374 69.2913C148.374 72.8063 148.249 73.0571 146.491 73.0571C144.985 73.0571 144.609 73.4337 144.609 74.94C144.609 76.4463 144.985 76.8229 146.491 76.8229C147.998 76.8229 148.374 76.4463 148.374 74.94C148.374 73.0993 148.5 73.0571 154.023 73.0571C159.546 73.0571 159.672 73.0149 159.672 71.1742C159.672 69.6679 159.295 69.2913 157.789 69.2913C156.283 69.2913 155.906 68.9147 155.906 67.4084C155.906 65.6512 155.655 65.5255 152.14 65.5255H148.374V69.2913ZM61.7606 71.1742C61.7606 72.6805 62.1372 73.0571 63.6435 73.0571C65.1499 73.0571 65.5264 72.6805 65.5264 71.1742C65.5264 69.6679 65.1499 69.2913 63.6435 69.2913C62.1372 69.2913 61.7606 69.6679 61.7606 71.1742ZM88.1213 74.94C88.1213 76.4463 88.4979 76.8229 90.0042 76.8229C91.5106 76.8229 91.8871 76.4463 91.8871 74.94C91.8871 73.4337 91.5106 73.0571 90.0042 73.0571C88.4979 73.0571 88.1213 73.4337 88.1213 74.94ZM95.6529 74.94C95.6529 76.4463 96.0295 76.8229 97.5359 76.8229C99.0422 76.8229 99.4188 76.4463 99.4188 74.94C99.4188 73.4337 99.0422 73.0571 97.5359 73.0571C96.0295 73.0571 95.6529 73.4337 95.6529 74.94ZM106.95 74.94C106.95 76.4463 107.327 76.8229 108.833 76.8229C110.34 76.8229 110.716 76.4463 110.716 74.94C110.716 73.4337 110.34 73.0571 108.833 73.0571C107.327 73.0571 106.95 73.4337 106.95 74.94ZM5.27344 82.4716V88.1203H9.03925C12.5543 88.1203 12.8051 87.9946 12.8051 86.2374C12.8051 84.7311 12.4285 84.3545 10.9222 84.3545C9.16503 84.3545 9.03925 84.1037 9.03925 80.5887C9.03925 77.0737 8.91347 76.8229 7.15634 76.8229C5.31561 76.8229 5.27344 76.9487 5.27344 82.4716ZM12.8051 78.7058C12.8051 80.2121 13.1816 80.5887 14.688 80.5887C16.1943 80.5887 16.5709 80.2121 16.5709 78.7058C16.5709 77.1995 16.1943 76.8229 14.688 76.8229C13.1816 76.8229 12.8051 77.1995 12.8051 78.7058ZM76.8239 78.7058C76.8239 80.2121 76.4473 80.5887 74.941 80.5887C73.4346 80.5887 73.0581 80.2121 73.0581 78.7058C73.0581 77.1995 73.4346 76.8229 74.941 76.8229C76.4473 76.8229 76.8239 77.1995 76.8239 78.7058ZM42.9316 82.4716C42.9316 83.9779 43.3081 84.3545 44.8145 84.3545C46.3208 84.3545 46.6974 83.9779 46.6974 82.4716C46.6974 80.9653 46.3208 80.5887 44.8145 80.5887C43.3081 80.5887 42.9316 80.9653 42.9316 82.4716ZM103.185 82.4716C103.185 84.2288 103.435 84.3545 106.95 84.3545C110.465 84.3545 110.716 84.2288 110.716 82.4716C110.716 80.7145 110.465 80.5887 106.95 80.5887C103.435 80.5887 103.185 80.7145 103.185 82.4716ZM35.3999 90.0032V95.652H29.7512H24.1025V90.0032V84.3545H29.7512H35.3999V90.0032ZM76.8239 86.2374C76.8239 87.7438 76.4473 88.1203 74.941 88.1203C73.4346 88.1203 73.0581 87.7438 73.0581 86.2374C73.0581 84.7311 73.4346 84.3545 74.941 84.3545C76.4473 84.3545 76.8239 84.7311 76.8239 86.2374ZM95.6529 90.0032V95.652H90.0042H84.3555V90.0032V84.3545H90.0042H95.6529V90.0032ZM125.779 86.2374C125.779 87.7438 126.156 88.1203 127.662 88.1203C129.169 88.1203 129.545 87.7438 129.545 86.2374C129.545 84.7311 129.169 84.3545 127.662 84.3545C126.156 84.3545 125.779 84.7311 125.779 86.2374ZM155.906 90.0032V95.652H150.257H144.609V90.0032V84.3545H150.257H155.906V90.0032ZM27.8683 90.0032C27.8683 91.5096 28.2449 91.8862 29.7512 91.8862C31.2575 91.8862 31.6341 91.5096 31.6341 90.0032C31.6341 88.4969 31.2575 88.1203 29.7512 88.1203C28.2449 88.1203 27.8683 88.4969 27.8683 90.0032ZM88.1213 90.0032C88.1213 91.5096 88.4979 91.8862 90.0042 91.8862C91.5106 91.8862 91.8871 91.5096 91.8871 90.0032C91.8871 88.4969 91.5106 88.1203 90.0042 88.1203C88.4979 88.1203 88.1213 88.4969 88.1213 90.0032ZM148.374 90.0032C148.374 91.5096 148.751 91.8862 150.257 91.8862C151.764 91.8862 152.14 91.5096 152.14 90.0032C152.14 88.4969 151.764 88.1203 150.257 88.1203C148.751 88.1203 148.374 88.4969 148.374 90.0032ZM80.5897 93.7691C80.5897 95.2754 80.2131 95.652 78.7068 95.652C77.2005 95.652 76.8239 95.2754 76.8239 93.7691C76.8239 92.2627 77.2005 91.8862 78.7068 91.8862C80.2131 91.8862 80.5897 92.2627 80.5897 93.7691ZM155.906 105.067C155.906 106.824 156.157 106.949 159.672 106.949C163.187 106.949 163.438 106.824 163.438 105.067C163.438 103.309 163.187 103.184 159.672 103.184C156.157 103.184 155.906 103.309 155.906 105.067ZM50.4632 108.832C50.4632 110.339 50.0866 110.715 48.5803 110.715C47.074 110.715 46.6974 110.339 46.6974 108.832C46.6974 107.326 47.074 106.949 48.5803 106.949C50.0866 106.949 50.4632 107.326 50.4632 108.832ZM24.1025 112.598C24.1025 114.104 23.7259 114.481 22.2196 114.481C20.7133 114.481 20.3367 114.104 20.3367 112.598C20.3367 111.092 20.7133 110.715 22.2196 110.715C23.7259 110.715 24.1025 111.092 24.1025 112.598ZM129.545 112.598C129.545 114.104 129.169 114.481 127.662 114.481C126.156 114.481 125.779 114.104 125.779 112.598C125.779 111.092 126.156 110.715 127.662 110.715C129.169 110.715 129.545 111.092 129.545 112.598ZM170.969 112.598C170.969 114.104 171.346 114.481 172.852 114.481C174.358 114.481 174.735 114.104 174.735 112.598C174.735 111.092 174.358 110.715 172.852 110.715C171.346 110.715 170.969 111.092 170.969 112.598ZM31.6341 116.364C31.6341 117.87 31.2575 118.247 29.7512 118.247C28.2449 118.247 27.8683 117.87 27.8683 116.364C27.8683 114.858 28.2449 114.481 29.7512 114.481C31.2575 114.481 31.6341 114.858 31.6341 116.364ZM24.1025 120.13C24.1025 121.636 23.7259 122.013 22.2196 122.013C20.7133 122.013 20.3367 121.636 20.3367 120.13C20.3367 118.623 20.7133 118.247 22.2196 118.247C23.7259 118.247 24.1025 118.623 24.1025 120.13ZM133.311 120.13C133.311 121.636 133.688 122.013 135.194 122.013C136.7 122.013 137.077 122.389 137.077 123.896C137.077 125.402 137.453 125.778 138.96 125.778C140.466 125.778 140.843 126.155 140.843 127.661C140.843 129.168 140.466 129.544 138.96 129.544C137.453 129.544 137.077 129.168 137.077 127.661C137.077 126.155 136.7 125.778 135.194 125.778C133.688 125.778 133.311 125.402 133.311 123.896C133.311 122.389 132.934 122.013 131.428 122.013C129.922 122.013 129.545 122.389 129.545 123.896C129.545 125.402 129.169 125.778 127.662 125.778C126.156 125.778 125.779 125.402 125.779 123.896C125.779 122.389 125.403 122.013 123.897 122.013C122.39 122.013 122.014 121.636 122.014 120.13C122.014 118.289 122.139 118.247 127.662 118.247C133.185 118.247 133.311 118.289 133.311 120.13ZM5.27344 127.661C5.27344 133.184 5.31561 133.31 7.15634 133.31C8.66267 133.31 9.03925 132.934 9.03925 131.427C9.03925 129.921 9.41583 129.544 10.9222 129.544C12.4285 129.544 12.8051 129.921 12.8051 131.427C12.8051 133.184 13.0559 133.31 16.5709 133.31C20.0859 133.31 20.3367 133.436 20.3367 135.193C20.3367 137.034 20.2109 137.076 14.688 137.076C9.16503 137.076 9.03925 137.118 9.03925 138.959C9.03925 140.465 8.66267 140.842 7.15634 140.842C5.65002 140.842 5.27344 141.218 5.27344 142.725C5.27344 144.231 5.65002 144.608 7.15634 144.608C8.66267 144.608 9.03925 144.231 9.03925 142.725C9.03925 140.968 9.29005 140.842 12.8051 140.842C16.3201 140.842 16.5709 140.968 16.5709 142.725C16.5709 144.482 16.8217 144.608 20.3367 144.608H24.1025V138.959C24.1025 133.436 24.1447 133.31 25.9854 133.31C27.4917 133.31 27.8683 133.687 27.8683 135.193C27.8683 136.95 28.1191 137.076 31.6341 137.076C35.1491 137.076 35.3999 136.95 35.3999 135.193C35.3999 133.436 35.1491 133.31 31.6341 133.31C28.1191 133.31 27.8683 133.184 27.8683 131.427C27.8683 129.921 28.2449 129.544 29.7512 129.544C31.2575 129.544 31.6341 129.168 31.6341 127.661C31.6341 126.155 31.2575 125.778 29.7512 125.778C28.2449 125.778 27.8683 126.155 27.8683 127.661C27.8683 129.168 27.4917 129.544 25.9854 129.544C24.4791 129.544 24.1025 129.921 24.1025 131.427C24.1025 132.934 23.7259 133.31 22.2196 133.31C20.7133 133.31 20.3367 132.934 20.3367 131.427C20.3367 129.921 19.9601 129.544 18.4538 129.544C16.9475 129.544 16.5709 129.168 16.5709 127.661C16.5709 125.904 16.3201 125.778 12.8051 125.778C9.29005 125.778 9.03925 125.653 9.03925 123.896C9.03925 122.389 8.66267 122.013 7.15634 122.013C5.31561 122.013 5.27344 122.138 5.27344 127.661ZM35.3999 127.661C35.3999 129.168 35.7765 129.544 37.2828 129.544C38.7892 129.544 39.1658 129.168 39.1658 127.661C39.1658 126.155 38.7892 125.778 37.2828 125.778C35.7765 125.778 35.3999 126.155 35.3999 127.661ZM99.4188 127.661C99.4188 129.168 99.0422 129.544 97.5359 129.544C95.7787 129.544 95.6529 129.795 95.6529 133.31V137.076H99.4188C102.934 137.076 103.185 136.95 103.185 135.193C103.185 133.352 103.31 133.31 108.833 133.31C114.356 133.31 114.482 133.268 114.482 131.427C114.482 129.67 114.231 129.544 110.716 129.544C107.201 129.544 106.95 129.419 106.95 127.661C106.95 125.904 106.7 125.778 103.185 125.778C99.6696 125.778 99.4188 125.904 99.4188 127.661ZM103.185 131.427C103.185 132.934 102.808 133.31 101.302 133.31C99.7953 133.31 99.4188 132.934 99.4188 131.427C99.4188 129.921 99.7953 129.544 101.302 129.544C102.808 129.544 103.185 129.921 103.185 131.427ZM133.311 131.427C133.311 132.934 132.934 133.31 131.428 133.31C129.922 133.31 129.545 132.934 129.545 131.427C129.545 129.921 129.922 129.544 131.428 129.544C132.934 129.544 133.311 129.921 133.311 131.427ZM27.8683 142.725C27.8683 144.231 28.2449 144.608 29.7512 144.608C31.2575 144.608 31.6341 144.231 31.6341 142.725C31.6341 141.218 31.2575 140.842 29.7512 140.842C28.2449 140.842 27.8683 141.218 27.8683 142.725ZM80.5897 142.725C80.5897 144.231 80.2131 144.608 78.7068 144.608C77.2005 144.608 76.8239 144.231 76.8239 142.725C76.8239 141.218 77.2005 140.842 78.7068 140.842C80.2131 140.842 80.5897 141.218 80.5897 142.725ZM95.6529 150.256V155.905H90.0042H84.3555V150.256V144.608H90.0042H95.6529V150.256ZM110.716 146.49C110.716 147.997 111.093 148.373 112.599 148.373C114.105 148.373 114.482 147.997 114.482 146.49C114.482 144.984 114.105 144.608 112.599 144.608C111.093 144.608 110.716 144.984 110.716 146.49ZM118.248 146.49C118.248 147.997 118.624 148.373 120.131 148.373C121.637 148.373 122.014 147.997 122.014 146.49C122.014 144.984 121.637 144.608 120.131 144.608C118.624 144.608 118.248 144.984 118.248 146.49ZM129.545 146.49C129.545 147.997 129.922 148.373 131.428 148.373C132.934 148.373 133.311 147.997 133.311 146.49C133.311 144.984 132.934 144.608 131.428 144.608C129.922 144.608 129.545 144.984 129.545 146.49ZM155.906 150.256V155.905H150.257H144.609V150.256V144.608H150.257H155.906V150.256ZM163.438 146.49C163.438 147.997 163.061 148.373 161.555 148.373C160.048 148.373 159.672 147.997 159.672 146.49C159.672 144.984 160.048 144.608 161.555 144.608C163.061 144.608 163.438 144.984 163.438 146.49ZM5.27344 161.554V174.734H18.4538H31.6341V161.554V148.373H18.4538H5.27344V161.554ZM88.1213 150.256C88.1213 151.763 88.4979 152.139 90.0042 152.139C91.5106 152.139 91.8871 151.763 91.8871 150.256C91.8871 148.75 91.5106 148.373 90.0042 148.373C88.4979 148.373 88.1213 148.75 88.1213 150.256ZM148.374 150.256C148.374 151.763 148.751 152.139 150.257 152.139C151.764 152.139 152.14 151.763 152.14 150.256C152.14 148.75 151.764 148.373 150.257 148.373C148.751 148.373 148.374 148.75 148.374 150.256ZM27.8683 161.554V170.968H18.4538H9.03925V161.554V152.139H18.4538H27.8683V161.554ZM80.5897 154.022C80.5897 155.863 80.4639 155.905 74.941 155.905H69.2923V159.671C69.2923 163.186 69.418 163.437 71.1752 163.437C72.6815 163.437 73.0581 163.06 73.0581 161.554C73.0581 159.797 73.3089 159.671 76.8239 159.671C80.3389 159.671 80.5897 159.797 80.5897 161.554C80.5897 163.311 80.3389 163.437 76.8239 163.437C73.3089 163.437 73.0581 163.562 73.0581 165.32C73.0581 166.826 72.6815 167.202 71.1752 167.202C69.6688 167.202 69.2923 166.826 69.2923 165.32C69.2923 163.813 68.9157 163.437 67.4093 163.437C65.903 163.437 65.5264 163.06 65.5264 161.554C65.5264 160.047 65.1499 159.671 63.6435 159.671C61.8864 159.671 61.7606 159.922 61.7606 163.437C61.7606 166.952 61.6349 167.202 59.8777 167.202C58.3714 167.202 57.9948 166.826 57.9948 165.32C57.9948 163.813 57.6182 163.437 56.1119 163.437C54.6056 163.437 54.229 163.06 54.229 161.554C54.229 159.797 54.4798 159.671 57.9948 159.671C61.5098 159.671 61.7606 159.545 61.7606 157.788C61.7606 156.282 62.1372 155.905 63.6435 155.905C65.1499 155.905 65.5264 155.528 65.5264 154.022V152.139H73.0581H80.5897V154.022ZM167.203 154.022C167.203 155.779 167.454 155.905 170.969 155.905C174.484 155.905 174.735 155.779 174.735 154.022C174.735 152.265 174.484 152.139 170.969 152.139C167.454 152.139 167.203 152.265 167.203 154.022ZM12.8051 161.554V167.202H18.4538H24.1025V161.554V155.905H18.4538H12.8051V161.554ZM122.014 157.788C122.014 159.294 122.39 159.671 123.897 159.671C125.403 159.671 125.779 160.047 125.779 161.554C125.779 163.06 125.403 163.437 123.897 163.437C122.39 163.437 122.014 163.813 122.014 165.32C122.014 166.826 121.637 167.202 120.131 167.202C118.374 167.202 118.248 166.952 118.248 163.437C118.248 159.922 118.122 159.671 116.365 159.671C114.859 159.671 114.482 159.294 114.482 157.788C114.482 156.031 114.733 155.905 118.248 155.905C121.763 155.905 122.014 156.031 122.014 157.788ZM50.4632 161.554C50.4632 163.06 50.0866 163.437 48.5803 163.437C47.074 163.437 46.6974 163.06 46.6974 161.554C46.6974 160.047 47.074 159.671 48.5803 159.671C50.0866 159.671 50.4632 160.047 50.4632 161.554ZM91.8871 161.554C91.8871 163.06 92.2637 163.437 93.77 163.437C95.2764 163.437 95.6529 163.813 95.6529 165.32C95.6529 166.826 95.2764 167.202 93.77 167.202C92.2637 167.202 91.8871 166.826 91.8871 165.32C91.8871 163.813 91.5106 163.437 90.0042 163.437C88.4979 163.437 88.1213 163.06 88.1213 161.554C88.1213 160.047 88.4979 159.671 90.0042 159.671C91.5106 159.671 91.8871 160.047 91.8871 161.554ZM155.906 163.437C155.906 166.952 155.78 167.202 154.023 167.202C152.517 167.202 152.14 167.579 152.14 169.085C152.14 170.592 151.764 170.968 150.257 170.968C148.751 170.968 148.374 170.592 148.374 169.085C148.374 167.579 148.751 167.202 150.257 167.202C151.764 167.202 152.14 166.826 152.14 165.32C152.14 163.813 151.764 163.437 150.257 163.437C148.751 163.437 148.374 163.06 148.374 161.554C148.374 159.797 148.625 159.671 152.14 159.671H155.906V163.437ZM50.4632 169.085C50.4632 170.592 50.0866 170.968 48.5803 170.968C47.074 170.968 46.6974 170.592 46.6974 169.085C46.6974 167.579 47.074 167.202 48.5803 167.202C50.0866 167.202 50.4632 167.579 50.4632 169.085ZM80.5897 172.851C80.5897 174.357 80.9663 174.734 82.4726 174.734C83.9789 174.734 84.3555 174.357 84.3555 172.851C84.3555 171.345 83.9789 170.968 82.4726 170.968C80.9663 170.968 80.5897 171.345 80.5897 172.851Z" fill="#2C2C2C"/>
</svg>
