<svg width="435" height="426" viewBox="0 0 435 426" fill="none" xmlns="http://www.w3.org/2000/svg">
<path d="M162.328 9.47607C95.5238 29.5375 42.6089 81.9216 21.5781 148.561" stroke="#2C2C2C" stroke-miterlimit="10"/>
<path d="M267.14 5.28224C252.875 2.22789 238.074 0.619629 222.902 0.619629C212.821 0.619629 202.909 1.32953 193.203 2.70114" stroke="#2C2C2C" stroke-miterlimit="10"/>
<path d="M424.582 275.752C430.737 255.844 434.053 234.683 434.053 212.742C434.053 120.051 374.869 41.2465 292.391 12.377" stroke="#2C2C2C" stroke-miterlimit="10"/>
<path d="M405.078 320.056C410.863 310.169 415.871 299.771 420.019 288.942" stroke="#2C2C2C" stroke-miterlimit="10"/>
<path d="M134.516 405.45C161.401 417.909 191.33 424.859 222.883 424.859C279.096 424.859 330.175 402.795 368.013 366.817" stroke="#2C2C2C" stroke-miterlimit="10"/>
<path d="M101.07 386.024C107.282 390.442 113.743 394.526 120.426 398.259" stroke="#2C2C2C" stroke-miterlimit="10"/>
<path d="M14.4211 178.85C12.6587 189.884 11.7383 201.203 11.7383 212.742C11.7383 277.505 40.6343 335.494 86.1769 374.403" stroke="#2C2C2C" stroke-miterlimit="10"/>
<path d="M222.899 404.692C328.431 404.692 413.982 318.753 413.982 212.741C413.982 106.729 328.431 20.79 222.899 20.79C117.367 20.79 31.8164 106.729 31.8164 212.741C31.8164 318.753 117.367 404.692 222.899 404.692Z" fill="#EFE3CD" stroke="#2C2C2C" stroke-miterlimit="10"/>
<path d="M340.384 340.082H127.739C121.697 340.082 116.58 335.621 115.725 329.618L77.9208 82.2982H30.6594C23.9589 82.2982 18.5234 76.8381 18.5234 70.1071C18.5234 63.3762 23.9589 57.916 30.6594 57.916H88.4471C94.4889 57.916 99.6059 62.377 100.461 68.3806L138.265 315.7H340.389C347.089 315.7 352.525 321.16 352.525 327.891C352.516 334.622 347.085 340.082 340.384 340.082Z" fill="#EFE3CD" stroke="#2C2C2C" stroke-miterlimit="10" stroke-linecap="round" stroke-linejoin="round"/>
<path d="M35.41 85.8527H15.5876C7.53037 85.8527 1 79.2926 1 71.1987V69.4634C1 61.3696 7.53037 54.8096 15.5876 54.8096H35.41C43.4672 54.8096 49.9976 61.3696 49.9976 69.4634V71.1987C49.9976 79.2926 43.4672 85.8527 35.41 85.8527Z" fill="#2C2C2C" stroke="#2C2C2C" stroke-miterlimit="10" stroke-linecap="round" stroke-linejoin="round"/>
<path d="M109.556 288.706H133.269L130.534 271.3H106.82L109.556 288.706Z" fill="#2C2C2C" stroke="#2C2C2C" stroke-miterlimit="10" stroke-linecap="round" stroke-linejoin="round"/>
<path d="M336.103 276.756H104.267L83.8125 116.545H356.558L336.103 276.756Z" fill="#FFB727" stroke="#2C2C2C" stroke-miterlimit="10" stroke-linecap="round" stroke-linejoin="round"/>
<path d="M162.124 259.32C155.712 259.32 150.512 254.096 150.512 247.655V166.892C150.512 160.45 155.712 155.227 162.124 155.227C168.537 155.227 173.737 160.45 173.737 166.892V247.655C173.737 254.096 168.537 259.32 162.124 259.32Z" fill="#EFE3CD" stroke="#2C2C2C" stroke-miterlimit="10" stroke-linecap="round" stroke-linejoin="round"/>
<path d="M203.222 259.32C196.809 259.32 191.609 254.096 191.609 247.655V166.892C191.609 160.45 196.809 155.227 203.222 155.227C209.634 155.227 214.834 160.45 214.834 166.892V247.655C214.834 254.096 209.634 259.32 203.222 259.32Z" fill="#EFE3CD" stroke="#2C2C2C" stroke-miterlimit="10" stroke-linecap="round" stroke-linejoin="round"/>
<path d="M244.304 259.32C237.891 259.32 232.691 254.096 232.691 247.655V166.892C232.691 160.45 237.891 155.227 244.304 155.227C250.717 155.227 255.916 160.45 255.916 166.892V247.655C255.921 254.096 250.721 259.32 244.304 259.32Z" fill="#EFE3CD" stroke="#2C2C2C" stroke-miterlimit="10" stroke-linecap="round" stroke-linejoin="round"/>
<path d="M285.39 259.32C278.977 259.32 273.777 254.096 273.777 247.655V166.892C273.777 160.45 278.977 155.227 285.39 155.227C291.802 155.227 297.002 160.45 297.002 166.892V247.655C297.002 254.096 291.802 259.32 285.39 259.32Z" fill="#EFE3CD" stroke="#2C2C2C" stroke-miterlimit="10" stroke-linecap="round" stroke-linejoin="round"/>
<path d="M177.832 367.686C193.62 367.686 206.419 354.829 206.419 338.97C206.419 323.11 193.62 310.253 177.832 310.253C162.045 310.253 149.246 323.11 149.246 338.97C149.246 354.829 162.045 367.686 177.832 367.686Z" fill="#2C2C2C" stroke="#2C2C2C" stroke-miterlimit="10" stroke-linecap="round" stroke-linejoin="round"/>
<path d="M177.831 351.274C184.597 351.274 190.081 345.765 190.081 338.969C190.081 332.173 184.597 326.664 177.831 326.664C171.066 326.664 165.582 332.173 165.582 338.969C165.582 345.765 171.066 351.274 177.831 351.274Z" fill="#EFE3CD" stroke="#2C2C2C" stroke-miterlimit="10" stroke-linecap="round" stroke-linejoin="round"/>
<path d="M274.559 367.685C290.347 367.685 303.145 354.829 303.145 338.969C303.145 323.11 290.347 310.253 274.559 310.253C258.771 310.253 245.973 323.11 245.973 338.969C245.973 354.829 258.771 367.685 274.559 367.685Z" fill="#2C2C2C" stroke="#2C2C2C" stroke-miterlimit="10" stroke-linecap="round" stroke-linejoin="round"/>
<path d="M286.807 338.968C286.807 332.171 281.324 326.663 274.558 326.663C267.792 326.663 262.309 332.171 262.309 338.968C262.309 345.765 267.792 351.273 274.558 351.273C281.324 351.273 286.807 345.765 286.807 338.968Z" fill="#EFE3CD" stroke="#2C2C2C" stroke-miterlimit="10" stroke-linecap="round" stroke-linejoin="round"/>
<path d="M325.969 142.662H351.139" stroke="#2C2C2C" stroke-miterlimit="10" stroke-linecap="round" stroke-linejoin="round"/>
<path d="M294.348 142.662H312.264" stroke="#2C2C2C" stroke-miterlimit="10" stroke-linecap="round" stroke-linejoin="round"/>
<path d="M90.2891 142.662H280.652" stroke="#2C2C2C" stroke-miterlimit="10" stroke-linecap="round" stroke-linejoin="round"/>
<path d="M359.549 186.579C389.664 186.579 414.078 162.055 414.078 131.803C414.078 101.55 389.664 77.0259 359.549 77.0259C329.433 77.0259 305.02 101.55 305.02 131.803C305.02 162.055 329.433 186.579 359.549 186.579Z" fill="#2C2C2C"/>
<path d="M359.545 193.153C325.868 193.153 298.473 165.633 298.473 131.803C298.473 97.973 325.868 70.4531 359.545 70.4531C393.222 70.4531 420.618 97.973 420.618 131.803C420.618 165.633 393.218 193.153 359.545 193.153ZM359.545 83.5996C333.088 83.5996 311.56 105.225 311.56 131.803C311.56 158.381 333.088 180.007 359.545 180.007C386.003 180.007 407.531 158.381 407.531 131.803C407.531 105.225 386.003 83.5996 359.545 83.5996Z" fill="#2C2C2C"/>
<path d="M359.765 90.8359C354.037 90.8359 349.102 92.2408 344.958 95.0497C340.815 97.8586 337.613 102.153 335.355 107.93C333.096 113.708 331.967 121.753 331.967 132.064C331.967 142.482 333.114 150.588 335.408 156.384C337.702 162.18 340.788 166.437 344.665 169.158C348.542 171.878 353.433 173.238 359.338 173.238C365.242 173.238 370.204 171.869 374.224 169.131C378.243 166.393 381.391 162.233 383.668 156.651C385.944 151.068 387.082 143.122 387.082 132.81C387.082 118.409 384.859 107.973 380.412 101.502C375.469 94.3915 368.586 90.8359 359.765 90.8359ZM359.418 105.023C361.939 105.023 364.175 105.832 366.128 107.449C368.08 109.067 369.569 111.849 370.601 115.796C371.628 119.743 372.143 125.521 372.143 133.13C372.143 143.05 370.965 149.903 368.604 153.69C366.243 157.476 363.18 159.37 359.418 159.37C355.799 159.37 352.922 157.574 350.792 153.983C348.2 149.645 346.907 142.392 346.907 132.222C346.907 121.911 348.072 114.8 350.393 110.889C352.718 106.979 355.728 105.023 359.418 105.023Z" fill="#FFF2D8"/>
</svg>
