<svg width="285" height="251" viewBox="0 0 285 251" fill="none" xmlns="http://www.w3.org/2000/svg">
<path fill-rule="evenodd" clip-rule="evenodd" d="M62.6292 189.644C62.926 191.721 63.2228 193.799 63.5196 195.876L60.4033 186.082C60.1066 189.94 60.1066 193.947 60.4033 198.102C60.7001 200.179 61.1452 202.257 61.7388 204.334C61.7388 204.631 61.8871 205.076 62.1839 205.67L33.2478 207.896C32.951 207.302 32.6544 206.709 32.3577 206.115L60.4033 203.889L31.0219 203.444C29.8348 200.179 29.0929 196.766 28.7961 193.205C26.1251 170.501 36.8091 150.024 59.958 139.785L53.7258 140.23L62.6292 138.894L88.004 134.888C70.6423 146.462 59.9582 167.385 62.6292 189.644ZM35.4736 190.089C34.5833 190.089 33.6931 191.424 33.6931 192.76C34.1383 194.095 35.0285 194.986 36.364 194.986C37.2544 194.986 38.1448 193.65 38.1448 192.315C37.6996 190.979 36.8091 189.644 35.4736 190.089ZM53.2804 187.863C52.3901 188.308 51.4999 189.198 51.4999 190.534C51.4999 192.315 52.8354 193.205 53.7258 193.205C55.0613 192.76 55.9515 191.869 55.5063 190.089C55.5063 188.753 54.616 187.863 53.2804 187.863Z" fill="#FFB727"/>
<path fill-rule="evenodd" clip-rule="evenodd" d="M47.9405 136.667L98.6897 128.654C99.5801 127.764 100.619 127.022 101.806 126.428L104.032 1.33546C104.032 0.445116 104.922 0 105.367 0C105.812 0 106.703 0.445116 106.703 1.33546L104.032 124.648C106.406 123.164 109.077 121.68 112.045 120.196L120.948 44.0718C120.948 43.6267 121.393 43.1814 122.284 43.1814C122.729 43.1814 123.174 43.6267 123.174 44.517L114.271 119.306C119.91 116.931 125.845 115.299 132.078 114.409C132.671 114.112 133.265 113.667 133.858 113.073C135.639 111.293 138.31 110.402 141.871 109.957L196.627 48.5235C197.072 48.0784 197.963 48.0784 198.408 48.5235C198.853 48.9687 198.853 49.859 198.408 50.3042L145.433 109.512C146.917 109.512 148.4 109.512 149.884 109.512C152.555 109.809 154.93 110.402 157.007 111.293L195.737 78.7951C196.182 78.3499 196.627 78.3499 197.073 78.7951C197.518 79.2402 197.518 80.1306 197.073 80.5757L159.678 112.183C159.975 112.183 160.272 112.331 160.569 112.628C162.794 113.964 164.13 115.299 164.575 116.189C165.91 117.525 166.801 118.415 167.246 119.306C181.046 125.538 192.621 136.222 199.743 149.577L282.99 112.183C283.436 111.738 284.326 112.183 284.326 112.628C284.771 113.073 284.326 113.964 283.881 113.964L200.634 151.803C202.711 155.958 204.344 160.261 205.531 164.713C207.311 166.939 208.647 169.61 209.092 173.171C209.537 176.733 208.647 179.849 207.311 182.52C207.311 190.978 205.531 199.436 202.414 207.004L268.3 211.456C268.745 211.456 269.635 212.346 269.19 212.791C269.19 213.385 268.893 213.83 268.3 214.127L201.079 209.23C196.182 219.469 189.059 228.372 179.711 235.05C179.711 235.94 179.266 237.276 177.93 238.611C177.93 239.947 177.04 241.727 174.814 243.508C172.588 245.289 169.027 247.069 165.02 248.405C162.646 249.295 160.272 249.889 157.897 250.186C153.891 250.631 150.775 249.741 148.994 248.405C148.104 248.108 147.362 247.811 146.768 247.515C134.303 248.85 121.839 246.179 111.154 241.282L59.9599 244.398C29.6883 246.179 3.42341 225.256 0.307215 196.32C-2.80898 167.384 18.1141 141.119 47.9405 136.667ZM62.6311 138.893L53.7277 140.229L59.9599 139.783C36.811 150.022 26.1269 170.5 28.798 193.204C29.0947 196.765 29.8367 200.178 31.0238 203.443L60.4052 203.888L32.3595 206.114C32.6563 206.707 32.9529 207.301 33.2497 207.894L62.1857 205.669C61.8889 205.075 61.7407 204.63 61.7407 204.333C61.1471 202.256 60.702 200.178 60.4052 198.101C60.1084 193.946 60.1084 189.939 60.4052 186.081L63.5215 195.875C63.2247 193.798 62.9278 191.72 62.6311 189.642C59.96 167.384 70.6442 146.461 88.0058 134.887L62.6311 138.893ZM22.5657 229.263C28.7981 234.16 36.366 237.721 43.9338 239.502C47.792 240.392 51.65 240.837 55.5082 240.837C59.5147 240.837 63.5214 240.392 67.0828 239.947C74.799 239.353 82.5154 238.76 90.2317 238.166C82.5154 238.166 74.799 238.463 67.0828 239.056C63.0762 239.056 59.5147 239.502 55.5082 239.502C51.65 239.502 47.9403 239.056 44.3789 238.166C29.2431 234.605 15.8882 224.366 9.21062 210.12L14.9978 209.675C14.9978 209.082 14.8495 208.34 14.5527 207.449L8.76529 208.34C7.87495 206.559 7.28155 204.927 6.98477 203.443H13.217C12.3267 200.772 11.7333 197.952 11.4365 194.985C9.65579 179.404 15.4428 160.261 28.798 148.687C34.5852 144.68 41.7079 142.009 48.8306 141.119C41.2627 142.009 33.695 144.68 27.0174 149.132C20.3399 153.139 14.9977 158.926 10.9911 165.603C6.98461 172.281 4.31369 180.294 3.86852 187.862C3.42335 195.875 4.75886 203.888 8.32023 211.011C11.4364 218.133 16.7785 224.366 22.5657 229.263ZM67.0828 184.301C67.5279 176.287 69.7537 168.274 74.2054 161.597C71.5344 168.72 70.6441 176.733 71.5345 184.301C72.4248 190.088 74.2055 195.875 76.8766 201.217C75.3927 197.062 74.3539 192.759 73.7603 188.307C71.9796 170.945 76.8764 154.474 86.225 141.564C72.8699 152.693 64.8569 170.5 67.0828 189.197C67.3795 192.165 67.9729 194.985 68.8633 197.656C67.6762 193.204 67.0828 188.752 67.0828 184.301ZM149.439 111.738C147.065 111.441 144.839 111.441 142.762 111.738C138.31 112.183 135.194 113.964 135.194 115.744C134.749 118.86 140.536 121.977 148.549 122.867C150.923 123.164 153.149 123.164 155.226 122.867C159.678 122.422 162.794 120.641 163.239 118.86C163.685 115.744 157.452 112.628 149.439 111.738ZM165.02 119.751C164.13 122.422 160.568 124.202 155.671 125.093C153.297 125.093 150.775 125.093 148.104 125.093C144.097 124.648 140.536 123.312 137.865 121.977C134.303 120.196 132.968 117.97 132.968 116.635C132.671 117.228 132.523 117.673 132.523 117.97C132.078 121.532 139.2 125.093 148.104 125.983C151.072 126.28 153.743 126.28 156.117 125.983C161.459 125.538 165.02 123.757 165.465 121.531C165.465 120.938 165.317 120.344 165.02 119.751ZM188.614 140.674C184.459 135.925 179.859 131.77 174.814 128.209C172.143 126.428 169.472 124.944 166.801 123.757C165.614 125.241 163.833 126.428 161.459 127.319C170.807 134.441 178.82 144.68 183.272 156.7L195.737 151.358C193.659 147.5 191.285 143.938 188.614 140.674ZM169.917 179.404L94.6834 187.417C104.922 211.011 129.852 225.701 156.562 223.03C161.904 222.437 166.949 221.25 171.698 219.469C171.104 219.766 170.659 220.211 170.362 220.804C169.472 222.585 168.581 224.069 167.691 225.256C166.801 226.74 166.059 227.779 165.465 228.372C164.872 229.263 164.575 229.708 164.575 229.708C164.575 229.708 165.02 229.411 165.911 228.818C166.504 228.224 167.246 227.334 168.136 226.146C169.324 224.663 170.511 223.179 171.698 221.695C172.885 219.914 173.924 218.133 174.814 216.353C175.408 215.462 175.853 214.572 176.149 213.682C176.743 212.495 177.188 211.456 177.485 210.566C177.782 209.675 178.079 208.785 178.375 207.894C178.672 207.301 178.969 206.559 179.266 205.669C180.156 202.998 180.749 200.327 181.046 197.656C175.704 198.991 170.807 191.868 169.917 183.41L111.154 187.862L169.917 179.404ZM175.704 181.629C176.594 183.855 177.93 185.636 179.711 186.972C178.524 185.488 177.633 184.004 177.04 182.52L193.066 178.068C192.769 177.771 192.621 177.623 192.621 177.623L176.595 181.184C175.704 179.107 175.259 177.029 175.259 174.952C175.259 174.655 175.259 174.358 175.259 174.061L192.176 172.281C192.176 170.203 192.472 168.423 193.066 166.939L177.93 165.158C178.524 164.565 179.117 163.971 179.711 163.377L194.401 164.713C194.698 164.119 195.143 163.674 195.737 163.377L183.717 162.042C183.124 162.042 182.678 162.042 182.382 162.042C181.491 162.042 180.156 162.487 179.711 162.932C177.93 164.416 176.594 166.197 175.704 168.274C174.369 170.5 173.924 172.726 173.924 174.952C174.22 177.326 174.814 179.552 175.704 181.629ZM184.163 190.088C184.756 190.384 185.35 190.384 185.943 190.088C186.537 190.088 186.982 190.088 187.279 190.088L198.853 185.636C198.556 185.636 198.259 185.488 197.963 185.191L184.163 190.088ZM198.408 156.7C197.814 155.513 197.369 154.474 197.073 153.584L184.608 159.371C184.608 159.668 184.756 160.113 185.053 160.706L199.298 162.042C199.595 162.042 199.892 162.042 200.189 162.042C199.595 160.261 199.002 158.481 198.408 156.7ZM206.421 173.616C205.531 169.61 202.86 167.829 202.414 168.72C201.969 169.61 202.86 171.836 202.86 174.061C203.305 176.287 203.305 178.513 203.75 179.404C204.64 179.849 206.866 177.623 206.421 173.616ZM203.75 183.855C200.189 184.3 196.627 180.294 195.737 174.952C195.292 169.61 197.518 165.158 201.079 164.713C201.969 164.713 202.711 164.861 203.305 165.158C202.118 163.971 200.782 163.526 199.298 163.823C197.963 163.823 196.627 164.713 196.182 165.603C194.401 167.829 193.511 171.391 193.956 174.952C194.847 180.739 198.853 185.191 202.414 184.746C203.75 184.746 204.64 183.855 205.531 182.965C204.937 183.262 204.344 183.559 203.75 183.855ZM198.408 170.055C198.853 168.719 199.744 167.384 201.524 166.939C200.634 167.236 199.892 167.532 199.298 167.829C198.705 168.423 198.259 169.165 197.963 170.055C197.072 171.391 197.073 173.171 197.073 174.952C197.518 176.287 197.963 178.068 198.853 179.404C199.447 179.997 200.189 180.442 201.079 180.739C201.672 181.036 202.414 181.184 203.305 181.184C201.524 181.184 200.634 180.294 199.743 178.958C198.853 177.771 198.259 176.287 197.963 174.507C197.666 173.023 197.814 171.539 198.408 170.055ZM191.73 206.114C191.73 205.223 191.73 203.888 192.621 202.998C193.956 202.107 195.292 201.662 196.182 202.107C198.26 199.436 200.189 196.617 201.969 193.649C202.563 191.275 202.86 188.901 202.86 186.526C202.86 186.526 202.711 186.526 202.414 186.526L188.169 191.868C187.872 196.617 186.982 201.217 185.498 205.669L191.73 206.114ZM189.95 208.785L185.053 208.34C184.459 210.417 183.717 212.346 182.827 214.127C185.201 212.346 187.575 210.566 189.95 208.785ZM184.163 200.327C183.569 202.404 182.827 204.482 181.937 206.559C180.156 210.714 177.93 214.572 175.259 218.133C176.149 217.837 177.04 217.391 177.93 216.798C180.601 211.753 182.679 206.262 184.163 200.327ZM149.884 246.179C150.329 243.508 155.227 239.947 161.459 237.721C169.027 235.05 175.259 235.495 176.595 238.166C176.891 237.869 176.891 237.424 176.595 236.831C176.149 235.05 172.588 234.16 168.136 234.605C166.059 234.901 163.833 235.347 161.459 235.94C153.891 238.611 148.994 243.063 149.884 246.179ZM146.768 244.398C147.065 244.695 147.362 245.14 147.658 245.734C147.658 243.953 148.104 241.727 151.22 239.056C153.446 237.276 157.007 235.495 161.014 234.16C163.239 233.269 165.465 232.824 167.691 232.379C173.033 231.934 176.595 232.824 178.375 235.495C178.375 234.902 178.227 234.308 177.93 233.714C177.485 231.489 173.479 230.598 168.136 231.043C165.762 231.34 163.24 231.934 160.569 232.824C151.665 235.94 145.878 240.837 146.768 244.398ZM112.045 236.831C117.684 239.798 123.471 241.728 129.407 242.618C123.471 241.134 117.832 239.056 112.49 236.385C106.851 233.418 101.954 229.856 97.7993 225.701C93.3476 221.25 89.6379 216.353 86.6701 211.011C83.5539 205.669 81.7734 199.881 80.4379 194.094C79.2507 188.159 78.9539 182.075 79.5475 175.842C79.9926 169.61 81.3283 163.823 83.5541 158.035C85.9284 152.397 89.0444 147.203 92.9026 142.455C93.4961 141.564 94.2381 140.822 95.1284 140.229C91.1219 149.132 89.3412 159.371 90.6767 170.055C90.9735 173.616 91.5672 177.029 92.4575 180.294C90.3801 180.591 88.5993 180.887 87.1154 181.184C85.038 181.184 83.4055 181.333 82.2184 181.629C81.0313 181.926 80.4379 182.075 80.4379 182.075C80.4379 182.075 81.0313 182.075 82.2184 182.075C83.4055 182.075 85.038 181.926 87.1154 181.629C89.1929 181.629 91.4187 181.629 93.793 181.629C95.8704 181.333 97.9477 181.036 100.025 180.739L139.2 178.068L100.025 184.301L170.807 176.287C171.698 170.945 174.369 166.939 177.04 164.713C177.633 163.823 178.227 163.081 178.82 162.487C178.524 160.706 178.079 159.074 177.485 157.59C176.595 154.326 175.259 151.209 173.478 148.242C169.917 142.454 165.465 137.112 160.123 132.216C165.762 136.37 170.807 141.267 175.259 146.906C176.149 148.39 177.04 149.874 177.93 151.358C173.033 141.564 166.356 133.996 158.343 128.209C157.749 128.209 157.304 128.357 157.007 128.654C154.336 128.654 151.22 128.654 148.549 128.654C143.652 128.209 139.645 126.873 136.529 125.093C132.078 122.867 131.187 120.641 130.742 118.86C127.774 119.454 124.806 120.196 121.839 121.086C116.051 122.867 110.264 125.538 105.367 129.099C100.025 132.661 95.4253 136.816 91.5671 141.564C87.709 146.609 84.5926 151.951 82.2184 157.59C79.9925 163.377 78.6572 169.61 78.212 175.842C77.6185 182.075 77.9153 188.159 79.1024 194.094C80.4379 200.327 82.6638 206.114 85.78 211.456C88.7478 216.798 92.4575 221.695 96.9092 226.146C101.361 230.598 106.406 234.16 112.045 236.831ZM16.3332 186.081C16.63 181.926 17.372 177.92 18.5591 174.061C19.7462 170.203 21.3787 166.345 23.4561 162.487C25.5336 158.926 28.056 155.661 31.0238 152.693C33.9916 149.726 37.2562 147.203 40.8176 145.125C33.2497 148.687 26.5723 154.474 22.5657 162.042C18.114 169.165 15.443 177.623 14.9978 186.081C14.5526 194.539 15.8881 203.443 19.4495 211.011C21.5269 214.869 23.9011 218.43 26.5721 221.695C29.2431 224.959 32.2109 227.927 35.4755 230.598C29.2431 224.811 23.9011 218.133 20.7849 210.566C17.2236 202.998 15.8881 194.539 16.3332 186.081Z" fill="#2C2C2C"/>
<path d="M67.0843 189.197C64.8585 170.5 72.8715 152.693 86.2266 141.563C76.878 154.473 71.9812 170.945 73.7619 188.306C74.3554 192.758 75.3942 197.061 76.8781 201.216C74.2071 195.874 72.4263 190.087 71.536 184.3C70.6457 176.732 71.536 168.719 73.7619 161.596C69.7553 168.274 67.5295 176.287 67.0843 184.3C67.0843 188.752 67.6777 193.203 68.8648 197.655C67.9745 194.984 67.3811 192.165 67.0843 189.197Z" fill="#EFE3CD"/>
<path d="M181.49 206.559C182.38 204.482 183.122 202.256 183.716 199.882C182.232 205.817 180.154 211.456 177.483 216.798C176.593 217.095 175.703 217.392 174.812 217.689C177.187 214.127 179.413 210.418 181.49 206.559Z" fill="#EFE3CD"/>
<path d="M189.502 208.338C187.127 210.415 184.605 212.196 181.934 213.68C182.824 211.899 183.714 209.97 184.605 207.893L189.502 208.338Z" fill="#EFE3CD"/>
<path d="M188.171 191.423L202.416 186.526C202.416 186.229 202.565 186.081 202.862 186.081C202.565 188.752 202.12 191.275 201.526 193.649C200.042 196.617 198.113 199.288 195.739 201.662C194.848 201.217 193.513 201.662 192.623 202.997C191.732 203.888 191.287 204.778 191.287 206.114L185.055 205.669C186.539 201.217 187.577 196.468 188.171 191.423Z" fill="#EFE3CD"/>
<path d="M181.043 197.657C180.746 200.328 180.152 202.999 179.262 205.67C178.965 206.561 178.668 207.303 178.372 207.896C178.075 208.786 177.778 209.677 177.481 210.567C177.184 211.458 176.739 212.496 176.146 213.683C175.849 214.574 175.404 215.464 174.81 216.354C173.92 218.135 172.881 219.916 171.694 221.696C170.507 223.18 169.32 224.664 168.133 226.148C167.242 227.335 166.501 228.226 165.907 228.819C165.017 229.413 164.571 229.709 164.571 229.709C164.571 229.709 164.868 229.264 165.462 228.374C166.055 227.78 166.797 226.742 167.687 225.258C168.578 224.071 169.468 222.587 170.359 220.806C170.655 220.213 171.101 219.767 171.694 219.471C166.946 221.251 161.9 222.438 156.558 223.032C129.848 225.703 104.919 211.012 94.6797 187.418L169.913 179.405L111.151 187.863L169.913 183.412C170.804 191.87 175.701 198.993 181.043 197.657Z" fill="#FFB727"/>
<path d="M198.851 161.596L184.605 160.26C184.605 159.964 184.457 159.518 184.16 158.925L196.625 153.138C197.218 154.325 197.664 155.363 197.96 156.254C198.851 158.034 199.593 159.815 200.186 161.596C199.593 161.596 199.148 161.596 198.851 161.596Z" fill="#EFE3CD"/>
<path fill-rule="evenodd" clip-rule="evenodd" d="M161.461 127.318C163.835 126.428 165.616 125.241 166.803 123.757C169.474 124.944 172.145 126.428 174.816 128.209C179.861 131.77 184.461 135.925 188.616 140.673C191.287 143.938 193.661 147.499 195.739 151.357L183.274 156.699C178.822 144.68 170.81 134.441 161.461 127.318ZM186.39 148.241C188.171 149.132 189.952 149.132 190.397 147.796C191.287 146.46 190.397 144.235 188.616 143.344C187.281 142.009 185.5 142.454 184.61 143.79C184.164 145.125 185.055 146.906 186.39 148.241Z" fill="#EFE3CD"/>
<path d="M78.6589 194.095C77.4718 187.863 77.0266 181.63 77.3234 175.398C78.2138 169.166 79.5493 163.378 81.7751 157.591C84.1494 151.656 87.2654 146.314 91.1236 141.565C94.9817 136.52 99.582 132.216 104.924 128.655C109.821 125.094 115.608 122.423 121.395 120.642C124.363 119.752 127.331 119.158 130.299 118.861C130.299 120.197 131.634 122.868 135.641 125.094C139.202 126.429 143.209 127.765 148.106 128.21C150.777 128.655 153.893 128.655 156.564 128.21C156.86 128.21 157.306 128.21 157.899 128.21C165.912 133.552 172.59 141.565 177.487 150.914C176.596 149.43 175.706 148.094 174.816 146.907C170.364 140.972 165.319 135.926 159.68 131.771C165.022 136.668 169.474 142.01 173.035 147.797C174.519 150.765 175.855 153.881 177.042 157.146C177.635 158.927 178.08 160.559 178.377 162.043C177.784 162.636 177.042 163.378 176.151 164.269C173.925 166.495 171.254 170.501 170.364 176.288L99.5819 183.856L138.312 178.069L99.5819 180.74C97.5045 180.74 95.4269 180.888 93.3494 181.185C90.9752 181.482 88.7493 181.63 86.6719 181.63C84.5944 181.63 82.9622 181.63 81.7751 181.63C82.9622 181.334 84.5944 181.037 86.6719 180.74C88.1558 180.443 89.9365 180.146 92.014 179.85C91.1236 176.585 90.5302 173.172 90.2335 169.611C88.898 159.372 90.6786 149.133 94.6852 139.784C93.7948 140.675 93.0529 141.565 92.4593 142.455C88.6012 147.204 85.4848 152.398 83.1106 158.036C80.8847 163.378 79.5492 169.611 78.6589 175.398C78.3621 181.63 78.8072 187.714 79.9943 193.65C81.3298 199.437 83.1106 205.224 86.2268 210.566C89.1946 215.908 92.7561 220.805 96.911 225.257C101.363 229.412 106.26 232.973 111.602 235.941C117.24 238.909 123.027 240.986 128.963 242.174C134.008 243.064 139.054 243.361 144.099 243.064C139.054 243.657 134.008 243.509 128.963 242.619C122.731 241.432 116.944 239.502 111.602 236.831C105.963 233.864 100.917 230.302 96.4657 226.147C92.014 221.696 88.3042 216.799 85.3364 211.457C82.2202 206.115 79.9944 199.882 78.6589 194.095Z" fill="#FFB727"/>
<path d="M156.114 125.984C153.74 126.281 151.069 126.281 148.101 125.984C139.197 125.094 132.075 121.533 132.52 117.971C132.52 117.675 132.668 117.229 132.965 116.636C132.965 117.971 134.3 120.197 137.862 121.978C140.533 123.313 144.094 124.649 148.101 125.094C150.772 125.094 153.294 125.094 155.668 125.094C160.565 124.204 164.127 122.423 165.017 119.752C165.314 120.346 165.462 120.939 165.462 121.533C165.017 123.758 161.456 125.539 156.114 125.984Z" fill="#EFE3CD"/>
<path fill-rule="evenodd" clip-rule="evenodd" d="M155.229 122.866C153.151 123.163 150.925 123.163 148.551 122.866C140.538 121.976 134.751 118.86 135.196 115.744C135.196 113.963 138.312 112.182 142.764 111.737C144.841 111.44 147.067 111.44 149.441 111.737C157.454 112.628 163.687 115.744 163.242 118.86C162.796 120.641 159.68 122.421 155.229 122.866ZM148.996 117.525C142.319 116.634 136.977 113.518 136.977 116.189C136.532 118.415 141.873 121.086 148.551 121.976C155.229 122.421 161.016 121.086 161.461 118.415C161.461 116.189 155.674 117.97 148.996 117.525Z" fill="#EFE3CD"/>
<path d="M160.121 232.826C162.792 231.935 165.315 231.342 167.689 231.045C173.031 230.6 177.038 231.49 177.483 233.716C177.78 234.013 177.78 234.458 177.483 235.051C176.147 232.826 172.586 231.935 167.244 232.38C165.018 232.38 162.792 233.271 160.121 233.716C156.56 235.051 152.998 236.832 150.773 239.058C147.656 241.729 147.211 243.955 147.211 245.29C146.915 244.993 146.618 244.548 146.321 243.955C144.985 240.839 151.218 235.497 160.121 232.826Z" fill="#EFE3CD"/>
<path d="M161.011 235.941C163.385 235.051 165.611 234.457 167.688 234.16C172.14 233.715 175.701 234.605 176.146 236.831C176.146 237.128 176.146 237.425 176.146 237.722C174.811 235.051 168.133 235.051 161.011 237.276C154.778 239.502 149.881 243.064 149.436 245.735C148.546 242.618 153.443 238.167 161.011 235.941Z" fill="#EFE3CD"/>
<path d="M148.546 121.977C141.868 121.087 136.526 118.416 136.971 116.19C136.971 113.519 142.313 116.635 148.991 117.526C155.668 117.971 161.456 116.19 161.456 118.416C161.01 121.087 155.223 122.422 148.546 121.977Z" fill="#2C2C2C"/>
<path fill-rule="evenodd" clip-rule="evenodd" d="M3.87168 187.863C4.31685 180.295 6.98777 172.282 10.9943 165.604C15.0008 158.927 20.343 153.14 27.0206 149.133C33.6982 144.682 41.2659 142.01 48.8338 141.12C41.7111 142.01 34.5883 144.682 28.8011 148.688C15.446 160.262 9.65895 179.405 11.4396 194.986C11.7364 197.954 12.3298 200.773 13.2202 203.444H6.98793C7.28471 204.928 7.87811 206.56 8.76845 208.341L14.5559 207.45C14.8527 208.341 15.0009 209.083 15.0009 209.676C15.0009 209.676 9.21367 210.122 9.65884 210.567C15.8912 224.367 29.2463 234.606 44.3821 238.167C47.9434 239.058 51.6532 239.503 55.5113 239.503C59.5179 239.503 63.0794 239.058 67.0859 239.058C74.8022 238.464 82.5185 238.167 90.2348 238.167C82.5185 238.761 74.8022 239.354 67.0859 239.948C63.5246 240.393 59.5179 240.838 55.5113 240.838C51.6532 240.838 47.7952 240.393 43.937 239.503C36.3691 237.722 28.8013 234.161 22.5689 229.264C16.7817 224.367 11.4396 218.135 8.32339 211.012C4.76202 203.889 3.42651 195.876 3.87168 187.863ZM8.32339 197.212C9.21373 197.212 9.65884 196.321 9.65884 195.431C9.21367 194.541 8.76866 193.65 7.87832 193.65C6.98798 194.095 6.5426 194.541 6.5426 195.876C6.98777 196.766 7.43304 197.212 8.32339 197.212Z" fill="#EFE3CD"/>
<path d="M35.0327 230.153C31.7682 227.482 28.8004 224.514 26.1293 221.249C23.4583 217.985 21.0842 214.423 19.0067 210.565C15.4454 202.997 13.6647 194.539 14.555 186.081C15.0002 177.622 17.6711 169.164 21.6776 161.596C26.1293 154.474 32.8069 148.241 40.3748 145.125C36.5167 146.906 33.1038 149.28 30.136 152.248C27.1682 155.216 24.7938 158.629 23.0131 162.487C20.9356 166.048 19.3034 169.758 18.1163 173.616C16.9292 177.771 16.1873 181.926 15.8905 186.081C15.4453 194.094 16.7808 202.552 20.3422 210.12C23.4584 217.688 28.8004 224.811 35.0327 230.153Z" fill="#EFE3CD"/>
<path d="M53.7298 193.204C52.8394 193.204 51.5039 192.314 51.5039 190.533C51.5039 189.198 52.3941 188.307 53.2844 187.862C54.6199 187.862 55.5103 188.753 55.5103 190.088C55.9554 191.869 55.0653 192.759 53.7298 193.204Z" fill="#2C2C2C"/>
<path d="M36.3662 194.986C35.0307 194.986 34.1405 194.096 33.6953 192.76C33.6953 191.425 34.5855 190.089 35.4758 190.089C36.8113 189.644 37.7018 190.98 38.147 192.315C38.147 193.651 37.2566 194.986 36.3662 194.986Z" fill="#2C2C2C"/>
<path d="M7.87088 193.648C8.76123 193.648 9.20623 194.539 9.6514 195.429C9.6514 196.319 9.20629 197.21 8.31595 197.21C7.42561 197.21 6.98033 196.765 6.53516 195.874C6.53516 194.539 6.98054 194.094 7.87088 193.648Z" fill="#2C2C2C"/>
<path d="M175.702 168.274C176.593 166.197 177.928 164.416 179.709 162.932C180.154 162.487 181.49 162.042 182.38 162.042C182.677 162.042 183.122 162.042 183.716 162.042L195.735 163.377C195.141 163.674 194.696 164.119 194.4 164.713L179.709 163.377C179.115 163.971 178.522 164.565 177.928 165.158L193.064 166.939C192.471 168.423 192.174 170.203 192.174 172.281L175.257 174.062C175.257 174.358 175.257 174.655 175.257 174.952C175.257 177.029 175.702 179.107 176.593 181.184L192.619 177.623C192.619 177.623 192.767 177.771 193.064 178.068L177.038 182.52C177.632 184.004 178.522 185.488 179.709 186.972C177.928 185.636 176.593 183.855 175.702 181.629C174.812 179.552 174.219 177.326 173.922 174.952C173.922 172.726 174.367 170.5 175.702 168.274Z" fill="#EFE3CD"/>
<path d="M198.851 185.636L187.276 190.087C186.98 190.087 186.535 190.087 185.941 190.087C185.347 190.384 184.754 190.384 184.16 190.087L197.96 185.19C198.257 185.487 198.554 185.636 198.851 185.636Z" fill="#EFE3CD"/>
<path d="M193.961 174.951C193.516 171.39 193.961 167.829 195.742 165.603C196.632 164.712 197.523 163.822 199.303 163.377C200.491 163.377 201.678 163.822 202.865 164.713C202.271 164.416 201.529 164.416 200.639 164.713C197.078 165.158 194.852 169.609 195.742 174.951C196.187 179.848 199.748 183.855 203.31 183.41C203.903 183.41 204.497 183.261 205.091 182.964C204.2 183.855 203.31 184.3 201.974 184.745C198.413 185.19 194.852 180.739 193.961 174.951Z" fill="#EFE3CD"/>
<path d="M203.752 178.959C202.861 178.513 202.861 175.842 202.861 173.617C202.416 171.391 201.526 169.165 202.416 168.274C202.861 167.384 205.532 169.165 205.978 173.171C206.423 177.178 204.642 179.849 203.752 178.959Z" fill="#EFE3CD"/>
<path d="M202.861 180.738C202.267 181.034 201.525 181.034 200.635 180.738C200.041 180.144 199.448 179.551 198.854 178.957C197.519 177.622 197.074 176.286 197.074 174.505C196.629 172.725 196.628 171.389 197.519 169.608C197.816 169.015 198.261 168.421 198.854 167.828C199.448 167.234 200.19 166.938 201.08 166.938C199.745 167.383 198.409 168.718 197.964 170.054C197.667 171.538 197.519 173.021 197.519 174.505C197.816 175.989 198.409 177.325 199.3 178.512C200.19 179.847 201.525 180.738 202.861 180.738Z" fill="#EFE3CD"/>
<path d="M188.619 143.345C190.399 144.236 191.29 146.462 190.399 147.797C189.954 149.133 188.173 149.133 186.393 148.242C185.057 146.907 184.167 145.126 184.612 143.791C185.502 142.455 187.283 142.01 188.619 143.345Z" fill="#2C2C2C"/>
</svg>
