<svg width="140" height="140" viewBox="0 0 140 140" fill="none" xmlns="http://www.w3.org/2000/svg">
<path d="M73.6866 6.13864L85.9788 23.6996C87.2049 25.4512 89.335 26.3335 91.4406 25.9619L112.55 22.2364C115.626 21.6934 118.307 24.3736 117.764 27.45L114.038 48.5594C113.666 50.665 114.549 52.7951 116.3 54.0212L133.861 66.3134C136.421 68.1049 136.421 71.8951 133.861 73.6866L116.3 85.9788C114.549 87.2049 113.666 89.335 114.038 91.4406L117.764 112.55C118.307 115.626 115.626 118.307 112.55 117.764L91.4406 114.038C89.335 113.666 87.2049 114.549 85.9788 116.3L73.6866 133.861C71.8951 136.421 68.1049 136.421 66.3134 133.861L54.0212 116.3C52.7951 114.549 50.665 113.666 48.5594 114.038L27.45 117.764C24.3736 118.307 21.6934 115.626 22.2364 112.55L25.9619 91.4406C26.3335 89.335 25.4512 87.2049 23.6996 85.9788L6.13864 73.6866C3.57934 71.8951 3.57934 68.1049 6.13864 66.3134L23.6996 54.0212C25.4512 52.7951 26.3335 50.665 25.9619 48.5594L22.2364 27.45C21.6934 24.3736 24.3736 21.6934 27.45 22.2364L48.5594 25.9619C50.665 26.3335 52.7951 25.4512 54.0212 23.6996L66.3134 6.13864C68.1049 3.57934 71.8951 3.57934 73.6866 6.13864Z" stroke="#2C2C2C"/>
</svg>
