<svg width="1429" height="480" viewBox="0 0 1429 480" fill="none" xmlns="http://www.w3.org/2000/svg">
<path d="M1359.17 448.813C1342.22 448.266 1318.7 447.72 1290.25 447.173C1288.8 447.173 1287.34 447.173 1285.88 447.173C1285.51 435.504 1284.42 424.018 1282.6 412.714L1113.59 411.62V453.736C1121.97 453.736 1130.36 453.736 1138.75 453.736C1157.34 453.372 1175.57 453.189 1193.44 453.189C1211.31 452.825 1228.27 452.642 1244.31 452.642C1260.72 452.278 1276.03 452.095 1290.25 452.095C1318.7 451.548 1342.22 450.455 1359.17 450.455C1367.19 450.09 1373.57 449.907 1378.32 449.907C1382.69 449.543 1384.88 449.361 1384.88 449.361C1384.88 449.361 1382.69 449.361 1378.32 449.361C1373.57 449.361 1367.19 449.178 1359.17 448.813Z" fill="#DCD1BD"/>
<path fill-rule="evenodd" clip-rule="evenodd" d="M1394.18 438.969C1394.73 446.08 1394.73 449.908 1394.73 449.908C1394.73 449.908 1394.18 446.08 1394.18 438.969C1393.64 431.859 1392.54 421.466 1390.9 408.886C1388.17 395.759 1384.89 379.898 1378.32 362.942C1372.31 345.439 1364.1 326.842 1352.62 307.698C1347.15 297.853 1340.04 288.008 1332.93 278.163C1325.81 268.864 1318.16 259.019 1308.86 249.721C1300.11 240.422 1290.26 231.124 1280.42 222.373C1274.95 218.544 1269.48 214.168 1264.01 209.793C1258.54 205.964 1253.07 202.135 1247.05 198.306C1235.02 190.649 1222.99 183.538 1209.86 177.522L1204.94 175.334L1199.47 173.146C1196.18 172.052 1192.9 170.776 1189.62 169.317C1182.51 166.583 1175.95 164.395 1168.84 162.207C1144.77 155.096 1119.06 150.721 1093.9 149.627C1111.41 156.737 1138.21 175.334 1166.65 203.229L958.257 206.511L1173.21 209.793C1183.06 220.185 1192.9 231.671 1202.75 243.704L907.389 246.986L1208.22 250.815C1216.24 261.389 1224.08 272.511 1231.74 284.179L1113.05 285.273C1111.95 281.991 1109.22 279.256 1105.39 279.256H1056.71C1052.88 279.256 1049.6 281.991 1048.51 285.82L872.384 287.461L1048.51 289.649C1049.6 292.931 1052.88 295.665 1056.71 295.665H1105.39C1109.22 295.665 1111.95 293.477 1113.05 290.196L1236.11 291.29C1242.68 301.864 1248.69 312.986 1254.16 324.654L845.583 327.936L1257.44 331.765C1258.17 333.588 1258.9 335.411 1259.63 337.235C1255.8 339.422 1252.52 343.798 1252.52 348.721C1252.52 348.721 1252.52 348.903 1252.52 349.268C1252.89 349.997 1253.07 350.726 1253.07 351.455C1253.43 352.185 1253.8 353.096 1254.16 354.19C1254.89 354.919 1255.62 355.831 1256.35 356.925C1258.54 358.566 1261.27 360.207 1264.56 360.207C1266.01 360.572 1267.65 360.389 1269.48 359.66C1270.94 358.931 1272.21 358.019 1273.31 356.925C1274.76 355.831 1275.68 354.373 1276.04 352.549C1276.41 351.82 1276.59 351.091 1276.59 350.361C1276.95 349.997 1277.14 349.632 1277.14 349.268C1277.14 348.903 1277.14 348.538 1277.14 348.174C1276.59 344.892 1275.49 341.61 1273.31 339.969C1272.58 338.875 1271.67 338.146 1270.57 337.781C1269.48 337.052 1268.57 336.687 1267.84 336.687C1267.11 336.323 1266.56 336.141 1266.2 336.141C1266.56 336.141 1267.11 336.141 1267.84 336.141C1269.48 336.141 1272.21 336.688 1274.4 338.875C1277.14 340.516 1278.78 343.798 1279.32 347.627C1279.32 347.991 1279.32 348.538 1279.32 349.268C1279.32 349.632 1279.32 349.997 1279.32 350.361C1279.32 351.455 1279.14 352.549 1278.78 353.643C1278.05 355.467 1276.95 357.107 1275.49 358.566C1274.04 360.024 1272.21 361.119 1270.02 361.848C1270.02 362.212 1269.84 362.395 1269.48 362.395C1269.84 363.124 1270.21 364.036 1270.57 365.129L826.439 368.958L1272.76 372.24C1276.04 383.179 1278.78 394.301 1280.96 405.605L1113.59 407.246V388.102C1113.59 383.726 1109.76 379.897 1105.39 379.897H1056.71C1052.33 379.897 1048.51 383.726 1048.51 388.102V407.246L807.842 409.434L1048.51 411.074V453.737C1040.85 453.737 1033.19 453.737 1025.53 453.737C1006.94 453.373 988.704 453.19 970.837 453.19C935.831 452.643 902.467 452.643 874.025 452.096C845.583 451.549 822.063 450.456 805.654 450.456C797.268 450.091 790.887 449.908 786.511 449.908H767.367C767.367 447.356 767.367 444.986 767.367 442.798C767.732 441.704 767.914 440.428 767.914 438.969C767.914 431.859 768.461 421.467 770.649 408.34C772.29 395.212 775.572 379.897 781.588 362.395C787.605 344.892 795.809 325.748 806.748 306.058C812.218 296.212 819.328 286.367 825.892 275.975C833.549 266.676 841.207 256.284 849.958 246.986C858.71 237.141 868.555 228.389 878.947 219.091C884.417 214.715 889.34 210.339 895.356 206.511C900.826 202.135 906.842 198.306 912.312 194.477C924.345 186.82 936.925 179.163 950.599 173.146L955.522 170.958L960.445 168.77C963.726 167.312 967.19 165.853 970.837 164.395C977.4 162.207 984.511 159.472 991.621 157.284C1020.06 148.533 1050.69 144.157 1080.78 144.157C1111.41 144.157 1141.49 148.533 1170.48 157.284C1177.59 159.472 1184.7 162.207 1191.26 164.395C1194.91 165.853 1198.37 167.312 1201.65 168.77L1206.58 170.958L1211.5 173.146C1225.17 179.163 1237.75 186.82 1249.79 194.477C1255.26 198.306 1261.27 202.135 1266.74 206.511C1272.76 210.339 1277.68 214.715 1283.15 219.091C1293.54 228.389 1303.39 237.141 1312.14 246.986C1320.89 256.284 1328.55 266.676 1336.21 275.975C1342.77 286.367 1349.88 296.212 1355.35 306.058C1366.29 325.748 1374.49 344.892 1380.51 362.395C1385.98 379.897 1389.81 395.212 1391.45 408.34C1393.64 421.467 1394.18 431.859 1394.18 438.969ZM1196.18 348.721C1196.18 355.831 1201.65 361.848 1208.76 361.848C1215.88 361.848 1221.35 355.831 1221.35 348.721C1221.35 341.61 1215.88 336.141 1208.76 336.141C1201.65 336.141 1196.18 341.61 1196.18 348.721ZM1139.3 348.721C1139.3 355.831 1145.32 361.848 1152.43 361.848C1159.54 361.848 1165.01 355.831 1165.01 348.721C1165.01 341.61 1159.54 336.141 1152.43 336.141C1145.32 336.141 1139.3 341.61 1139.3 348.721ZM1082.96 348.721C1082.96 355.831 1088.43 361.848 1095.54 361.848C1102.65 361.848 1108.12 355.831 1108.12 348.721C1108.12 341.61 1102.65 336.141 1095.54 336.141C1088.43 336.141 1082.96 341.61 1082.96 348.721ZM1026.08 348.721C1026.08 355.831 1032.1 361.848 1039.21 361.848C1045.77 361.848 1051.79 355.831 1051.79 348.721C1051.79 341.61 1045.77 336.141 1039.21 336.141C1032.1 336.141 1026.08 341.61 1026.08 348.721ZM969.743 348.721C969.743 355.831 975.212 361.848 982.323 361.848C989.433 361.848 994.903 355.831 994.903 348.721C994.903 341.61 989.433 336.141 982.323 336.141C975.212 336.141 969.743 341.61 969.743 348.721ZM912.859 348.721C912.859 355.831 918.875 361.848 925.986 361.848C932.549 361.848 938.566 355.831 938.566 348.721C938.566 341.61 932.549 336.141 925.986 336.141C918.875 336.141 912.859 341.61 912.859 348.721ZM856.522 348.721C856.522 355.831 861.992 361.848 869.102 361.848C876.213 361.848 881.682 355.831 881.682 348.721C881.682 341.61 876.213 336.141 869.102 336.141C861.992 336.141 856.522 341.61 856.522 348.721ZM1056.71 172.052C1052.33 172.052 1048.51 175.881 1048.51 180.257C1048.51 184.632 1052.33 188.461 1056.71 188.461H1105.39C1109.76 188.461 1113.59 184.632 1113.59 180.257C1113.59 175.881 1109.76 172.052 1105.39 172.052H1056.71Z" fill="#DCD1BD"/>
<path fill-rule="evenodd" clip-rule="evenodd" d="M1428.09 460.848V479.445H735.094V460.848C735.094 454.831 740.016 449.909 746.033 449.909H756.425C756.425 373.881 790.337 295.666 848.862 235.5C911.762 170.958 993.806 135.953 1080.77 135.953C1168.29 135.953 1250.33 170.958 1313.23 235.5C1371.76 295.666 1405.67 373.881 1405.67 449.909H1417.15C1423.17 449.909 1428.09 454.831 1428.09 460.848ZM1384.88 449.362C1384.88 449.362 1382.7 449.362 1378.32 449.362C1373.58 449.362 1367.2 449.179 1359.18 448.815C1342.22 448.268 1318.7 447.721 1290.26 447.174C1288.8 447.174 1287.34 447.174 1285.88 447.174C1285.52 435.505 1284.43 424.019 1282.6 412.715L1113.59 411.621V453.738C1121.98 453.738 1130.36 453.738 1138.75 453.738C1157.35 453.373 1175.58 453.191 1193.45 453.191C1211.31 452.826 1228.27 452.644 1244.31 452.644C1260.72 452.279 1276.04 452.097 1290.26 452.097C1318.7 451.55 1342.22 450.456 1359.18 450.456C1367.2 450.091 1373.58 449.909 1378.32 449.909C1382.7 449.544 1384.88 449.362 1384.88 449.362ZM1394.73 449.909C1394.73 449.909 1394.73 446.08 1394.18 438.97C1394.18 431.859 1393.64 421.467 1391.45 408.34C1389.81 395.213 1385.98 379.898 1380.51 362.395C1374.49 344.892 1366.29 325.749 1355.35 306.058C1349.88 296.213 1342.77 286.367 1336.2 275.975C1328.55 266.677 1320.89 256.285 1312.14 246.986C1303.39 237.141 1293.54 228.389 1283.15 219.091C1277.68 214.715 1272.76 210.34 1266.74 206.511C1261.27 202.135 1255.25 198.306 1249.78 194.478C1237.75 186.82 1225.17 179.163 1211.5 173.146L1206.57 170.958L1201.65 168.771C1198.37 167.312 1194.91 165.853 1191.26 164.395C1184.7 162.207 1177.59 159.472 1170.47 157.284C1141.49 148.533 1111.4 144.158 1080.77 144.158C1050.69 144.158 1020.06 148.533 991.619 157.284C984.508 159.472 977.398 162.207 970.834 164.395C967.188 165.853 963.724 167.312 960.442 168.771L955.519 170.958L950.596 173.146C936.922 179.163 924.342 186.82 912.309 194.478C906.84 198.306 900.823 202.135 895.353 206.511C889.337 210.34 884.414 214.715 878.945 219.091C868.552 228.389 858.707 237.141 849.956 246.986C841.204 256.285 833.547 266.677 825.889 275.975C819.326 286.367 812.215 296.213 806.746 306.058C795.806 325.749 787.602 344.892 781.585 362.395C775.569 379.898 772.287 395.213 770.646 408.34C768.458 421.467 767.911 431.859 767.911 438.97C767.911 440.428 767.729 441.704 767.364 442.798C767.364 444.986 767.364 447.356 767.364 449.909H786.508C790.884 449.909 797.265 450.091 805.652 450.456C822.061 450.456 845.58 451.55 874.022 452.097C902.464 452.644 935.829 452.644 970.834 453.191C988.701 453.191 1006.93 453.373 1025.53 453.738C1033.19 453.738 1040.85 453.738 1048.5 453.738V411.075L807.84 409.434L1048.5 407.246V388.102C1048.5 383.726 1052.33 379.898 1056.71 379.898H1105.39C1109.76 379.898 1113.59 383.726 1113.59 388.102V407.246L1280.96 405.605C1278.77 394.301 1276.04 383.179 1272.76 372.24L826.436 368.959L1270.57 365.13C1270.2 364.036 1269.84 363.124 1269.47 362.395C1269.84 362.395 1270.02 362.213 1270.02 361.848C1272.21 361.119 1274.03 360.025 1275.49 358.566C1276.95 357.108 1278.04 355.467 1278.77 353.644C1279.14 352.55 1279.32 351.456 1279.32 350.362C1279.32 349.997 1279.32 349.633 1279.32 349.268C1279.32 348.539 1279.32 347.992 1279.32 347.627C1278.77 343.798 1277.13 340.517 1274.4 338.876C1272.21 336.688 1269.48 336.141 1267.83 336.141C1267.1 336.141 1266.56 336.141 1266.19 336.141C1266.56 336.141 1267.1 336.323 1267.83 336.688C1268.56 336.688 1269.48 337.052 1270.57 337.782C1271.66 338.146 1272.57 338.876 1273.3 339.97C1275.49 341.611 1276.59 344.892 1277.13 348.174C1277.13 348.539 1277.13 348.903 1277.13 349.268C1277.13 349.633 1276.95 349.997 1276.59 350.362C1276.59 351.091 1276.4 351.82 1276.04 352.55C1275.67 354.373 1274.76 355.831 1273.3 356.925C1272.21 358.019 1270.93 358.931 1269.47 359.66C1267.65 360.389 1266.01 360.572 1264.55 360.207C1261.27 360.207 1258.54 358.566 1256.35 356.925C1255.62 355.831 1254.89 354.92 1254.16 354.191C1253.8 353.097 1253.43 352.185 1253.07 351.456C1253.07 350.726 1252.88 349.997 1252.52 349.268C1252.52 348.903 1252.52 348.721 1252.52 348.721C1252.52 343.798 1255.8 339.423 1259.63 337.235C1258.9 335.412 1258.17 333.588 1257.44 331.765L845.58 327.936L1254.16 324.655C1248.69 312.986 1242.67 301.865 1236.11 291.29L1113.04 290.196C1111.95 293.478 1109.22 295.666 1105.39 295.666H1056.71C1052.88 295.666 1049.6 292.931 1048.5 289.649L872.381 287.461L1048.5 285.82C1049.6 281.992 1052.88 279.257 1056.71 279.257H1105.39C1109.22 279.257 1111.95 281.992 1113.04 285.274L1231.73 284.18C1224.08 272.511 1216.24 261.39 1208.22 250.815L907.387 246.986L1202.75 243.704C1192.9 231.671 1183.06 220.185 1173.21 209.793L958.254 206.511L1166.65 203.229C1138.2 175.334 1111.4 156.738 1093.9 149.627C1119.06 150.721 1144.77 155.097 1168.83 162.207C1175.94 164.395 1182.51 166.583 1189.62 169.318C1192.9 170.776 1196.18 172.053 1199.46 173.146L1204.93 175.334L1209.86 177.522C1222.98 183.539 1235.02 190.649 1247.05 198.307C1253.07 202.135 1258.54 205.964 1264.01 209.793C1269.47 214.169 1274.94 218.544 1280.41 222.373C1290.26 231.124 1300.1 240.423 1308.86 249.721C1318.15 259.019 1325.81 268.865 1332.92 278.163C1340.03 288.008 1347.14 297.853 1352.61 307.699C1364.1 326.842 1372.3 345.439 1378.32 362.942C1384.88 379.898 1388.17 395.76 1390.9 408.887C1392.54 421.467 1393.64 431.859 1394.18 438.97C1394.18 446.08 1394.73 449.909 1394.73 449.909Z" fill="#EFE3CD"/>
<path d="M869.111 361.851C876.222 361.851 881.692 355.834 881.692 348.724C881.692 341.613 876.222 336.144 869.111 336.144C862.001 336.144 856.531 341.613 856.531 348.724C856.531 355.834 862.001 361.851 869.111 361.851Z" fill="#EFE3CD"/>
<path d="M925.986 361.851C932.55 361.851 938.567 355.834 938.567 348.724C938.567 341.613 932.55 336.144 925.986 336.144C918.876 336.144 912.859 341.613 912.859 348.724C912.859 355.834 918.876 361.851 925.986 361.851Z" fill="#EFE3CD"/>
<path d="M982.315 361.851C989.425 361.851 994.895 355.834 994.895 348.724C994.895 341.613 989.425 336.144 982.315 336.144C975.204 336.144 969.734 341.613 969.734 348.724C969.734 355.834 975.204 361.851 982.315 361.851Z" fill="#EFE3CD"/>
<path d="M1039.21 361.851C1045.77 361.851 1051.79 355.834 1051.79 348.724C1051.79 341.613 1045.77 336.144 1039.21 336.144C1032.1 336.144 1026.08 341.613 1026.08 348.724C1026.08 355.834 1032.1 361.851 1039.21 361.851Z" fill="#EFE3CD"/>
<path d="M1095.54 361.851C1102.65 361.851 1108.12 355.834 1108.12 348.724C1108.12 341.613 1102.65 336.144 1095.54 336.144C1088.43 336.144 1082.96 341.613 1082.96 348.724C1082.96 355.834 1088.43 361.851 1095.54 361.851Z" fill="#EFE3CD"/>
<path d="M1152.43 361.851C1159.54 361.851 1165.01 355.834 1165.01 348.724C1165.01 341.613 1159.54 336.144 1152.43 336.144C1145.32 336.144 1139.3 341.613 1139.3 348.724C1139.3 355.834 1145.32 361.851 1152.43 361.851Z" fill="#EFE3CD"/>
<path d="M1208.76 361.851C1215.87 361.851 1221.34 355.834 1221.34 348.724C1221.34 341.613 1215.87 336.144 1208.76 336.144C1201.65 336.144 1196.18 341.613 1196.18 348.724C1196.18 355.834 1201.65 361.851 1208.76 361.851Z" fill="#EFE3CD"/>
<path d="M1048.5 180.252C1048.5 184.628 1052.32 188.457 1056.7 188.457H1105.38C1109.76 188.457 1113.58 184.628 1113.58 180.252C1113.58 175.877 1109.76 172.048 1105.38 172.048H1056.7C1052.32 172.048 1048.5 175.877 1048.5 180.252Z" fill="#EFE3CD"/>
<path d="M216.328 368.783C218.739 374.809 227.175 375.411 232.598 376.014C233 376.416 233.402 376.817 233.804 377.219C236.816 383.848 240.432 390.476 244.048 396.502C247.06 403.13 250.073 408.554 253.086 413.374C255.497 418.195 257.907 422.413 259.715 424.823C261.523 427.836 262.125 429.042 262.125 429.042C262.125 429.042 261.523 427.836 260.317 424.823C259.112 421.81 257.304 417.592 254.894 412.169C252.484 407.348 250.073 401.323 247.06 395.297C246.659 395.297 246.458 395.096 246.458 394.694C243.646 389.07 240.633 383.245 237.419 377.219C234.406 370.591 230.791 363.962 227.778 357.936C224.765 351.91 221.752 345.885 219.341 341.064C217.534 335.641 215.726 331.422 213.918 328.409C212.713 325.396 212.11 323.589 212.11 323.589C212.11 323.589 213.316 325.396 214.521 328.409C216.329 330.82 218.739 335.038 221.752 339.859C224.162 344.679 227.175 350.103 230.791 356.731C233.804 362.154 237.419 368.783 240.432 375.411C242.039 375.009 243.646 374.608 245.253 374.206L212.713 310.935C212.311 310.935 212.11 310.935 212.11 310.935C212.11 310.935 211.91 310.935 211.508 310.935L174.75 384.45C177.763 385.053 181.981 383.245 188.007 380.232C212.11 365.167 213.316 360.347 216.328 368.783Z" fill="#DCD1BD"/>
<path d="M324.808 402.525C336.86 400.717 341.681 399.512 358.553 405.538C376.028 411.563 397.119 407.948 401.94 403.127C404.953 400.114 421.222 403.73 435.082 404.935C435.885 406.14 436.689 407.345 437.492 408.55C441.71 414.576 445.326 420 447.736 423.615C450.147 427.231 451.352 429.039 451.352 429.039C451.352 429.039 450.147 427.231 448.339 423.013C446.732 421.004 445.125 418.192 443.518 414.576C442.313 412.969 440.907 410.961 439.3 408.55C435.082 402.525 430.261 394.691 425.441 386.857C420.017 379.024 414.594 370.588 409.171 362.152C404.35 353.715 398.927 344.676 394.106 336.843C389.285 329.009 385.067 321.175 380.849 314.547C377.234 307.919 374.221 302.495 371.81 298.88C370.003 294.662 368.797 292.854 368.797 292.854C368.797 292.854 370.003 294.662 372.413 298.277C374.823 301.893 378.439 307.316 382.657 313.342C386.875 319.97 391.696 327.201 397.119 335.035C401.94 342.869 407.363 351.305 412.786 359.741C417.607 368.78 423.03 377.216 427.851 385.05C432.069 392.281 436.287 398.909 439.3 404.935C442.916 404.935 446.129 404.533 448.942 403.73L368.195 277.187C367.793 277.187 367.391 277.187 366.99 277.187L313.359 400.114C317.577 401.922 321.796 403.127 324.808 402.525Z" fill="#DCD1BD"/>
<path fill-rule="evenodd" clip-rule="evenodd" d="M675.512 430.851L606.215 272.974C606.617 272.572 606.817 272.371 606.817 272.371L738.182 300.693C738.583 302.701 739.387 304.308 740.592 305.513L675.512 430.851ZM615.254 279.602L676.115 417.594L733.361 306.116L615.254 279.602Z" fill="#DCD1BD"/>
<path d="M771.921 272.368C767.503 276.385 763.084 280.403 758.665 284.42C763.485 281.206 768.306 277.791 773.127 274.176C778.349 270.962 783.371 267.547 788.191 263.932C797.833 256.701 807.474 249.47 817.116 242.239L819.526 240.431L817.116 238.623C807.876 230.991 798.636 223.358 789.397 215.725C779.755 208.092 770.315 200.66 761.075 193.429C751.434 186.198 741.993 178.967 732.753 171.736C727.933 168.12 723.112 164.505 718.291 160.889C713.471 157.274 708.449 153.658 703.227 150.043C707.646 154.462 712.265 158.479 717.086 162.095C721.505 166.112 725.924 170.129 730.343 174.146C739.583 181.779 748.822 189.412 758.062 197.045C767.302 205.079 776.541 212.712 785.781 219.943C794.217 226.772 802.653 233.602 811.09 240.431C802.653 247.26 794.217 254.089 785.781 260.919C781.362 264.936 776.742 268.753 771.921 272.368Z" fill="#DCD1BD"/>
<path d="M561.022 298.882C556.804 306.113 551.984 313.946 546.56 322.382C541.137 331.421 535.714 340.46 529.688 349.499C524.867 357.131 520.247 364.363 515.828 371.192C517.034 371.995 518.44 372.799 520.047 373.602L585.126 271.162C585.126 270.761 584.925 270.359 584.523 269.957H378.439C378.439 270.359 378.238 270.761 377.836 271.162L455.57 392.885C456.775 381.436 453.762 364.564 477.263 362.153C489.315 360.948 500.161 364.563 510.405 369.384C510.405 369.786 510.204 370.187 509.803 370.589C504.379 379.025 499.559 387.462 495.34 394.09C491.122 401.321 487.507 407.347 485.096 410.963C482.686 415.181 481.481 417.591 481.481 417.591C481.481 417.591 483.289 415.181 485.699 411.565C488.109 408.552 491.725 403.732 495.34 398.308C499.559 391.077 504.379 383.244 509.803 374.205C515.226 365.769 520.649 356.73 526.675 347.691C532.701 338.652 538.124 329.613 543.547 321.177C549.573 312.138 554.997 304.305 559.215 297.676C563.433 291.048 567.651 285.624 570.061 281.406C573.074 277.791 574.882 275.38 574.882 275.38C574.882 275.38 573.074 277.791 570.664 282.009C568.254 286.227 565.241 292.253 561.022 298.882Z" fill="#DCD1BD"/>
<path fill-rule="evenodd" clip-rule="evenodd" d="M594.154 251.283L494.125 112.085L675.504 142.817C675.905 144.022 676.307 145.026 676.709 145.83L598.975 251.283C598.172 250.881 597.368 250.68 596.565 250.68C595.761 250.68 594.958 250.881 594.154 251.283ZM596.565 245.257L670.683 146.432L609.822 136.188L596.565 245.257Z" fill="#DCD1BD"/>
<path d="M335.649 305.513C333.238 311.539 330.225 318.77 327.212 326.604C324.2 333.835 321.187 342.271 317.571 350.105C313.956 358.541 310.34 366.375 307.327 374.208C304.515 379.833 302.105 385.256 300.096 390.478C301.301 391.683 302.707 392.889 304.314 394.094L356.739 272.974C356.739 272.572 356.538 272.371 356.137 272.371L224.773 300.693C224.371 302.701 223.768 304.308 222.965 305.513L257.312 371.798C269.364 369.388 283.224 368.182 286.237 373.606C288.044 377.824 292.262 383.247 297.686 388.67C299.694 383.85 301.904 378.627 304.314 373.003C307.327 365.17 310.34 356.733 313.956 348.9C317.571 340.464 321.187 332.63 324.199 324.796C327.815 317.565 330.828 310.334 333.841 304.308C336.251 298.282 338.662 293.462 340.469 289.846C342.277 286.231 343.482 284.423 343.482 284.423C343.482 284.423 342.277 286.833 341.072 290.449C339.867 294.064 338.059 298.885 335.649 305.513Z" fill="#DCD1BD"/>
<path fill-rule="evenodd" clip-rule="evenodd" d="M144.617 239.826L262.724 155.464L211.504 284.418C209.094 284.819 207.085 285.422 205.478 286.225L144.617 244.044C144.617 243.241 144.617 242.638 144.617 242.237C144.617 241.433 144.617 240.63 144.617 239.826ZM206.684 274.776C206.684 274.776 207.889 272.969 209.094 270.558C210.299 267.545 212.107 263.93 214.517 259.109C216.325 254.288 218.735 248.865 221.748 242.839C224.159 236.813 226.569 230.787 229.582 224.159C231.992 217.53 234.403 211.505 236.813 205.479C239.223 199.453 241.031 193.427 242.839 188.606C244.647 183.785 245.852 179.568 247.057 177.157C247.66 174.144 248.262 172.337 248.262 172.337C248.262 172.337 247.66 174.144 246.454 176.554C245.249 179.567 242.839 183.183 241.031 188.004C238.621 192.824 236.21 198.248 233.8 204.274C231.39 210.3 228.377 216.325 225.966 222.954C223.556 228.98 220.543 235.608 218.735 241.634C216.325 247.66 213.915 253.686 212.107 258.507C210.299 263.327 209.094 267.545 208.491 269.955C207.286 272.968 206.684 274.776 206.684 274.776Z" fill="#DCD1BD"/>
<path fill-rule="evenodd" clip-rule="evenodd" d="M288.037 142.817L468.813 112.085L369.387 251.283C368.583 250.881 367.78 250.68 366.976 250.68C365.771 250.68 364.767 250.881 363.963 251.283L286.832 145.83C287.234 145.026 287.635 144.022 288.037 142.817ZM366.976 242.244C366.976 242.244 368.181 240.436 370.592 236.82C373.002 233.807 376.618 229.59 380.836 223.564C385.054 218.14 390.477 212.114 395.298 204.883C400.721 198.255 406.144 190.421 411.568 183.19C416.388 175.357 421.812 168.125 427.235 160.894C432.056 153.663 436.274 147.035 440.492 141.009C444.107 135.586 447.12 130.765 449.531 127.15C451.941 124.137 453.146 121.726 453.146 121.726C453.146 121.726 451.338 123.534 448.928 127.15C446.518 130.163 442.902 134.381 438.684 139.804C434.466 145.83 429.645 151.856 424.222 159.087C418.799 165.715 413.978 173.549 408.555 180.78C403.131 188.613 397.708 195.844 392.887 203.076C387.464 210.307 383.246 216.935 379.028 222.358C375.412 228.384 372.399 233.205 369.989 236.82C368.181 239.833 366.976 242.244 366.976 242.244Z" fill="#DCD1BD"/>
<path fill-rule="evenodd" clip-rule="evenodd" d="M378.44 42.7832L466.417 101.234L289.859 131.363L367.593 44.5909C368.798 44.5909 370.003 44.7916 371.209 45.1933C374.021 44.7916 376.431 43.9884 378.44 42.7832ZM379.645 51.2192C377.235 50.014 376.029 49.4115 376.029 49.4115C376.029 49.8132 377.034 50.6168 379.042 51.822C380.85 53.6298 383.863 56.04 386.876 58.4503C393.504 63.271 402.543 69.297 411.582 75.9255C420.621 81.9514 430.262 87.9771 437.493 91.5926C441.109 94.003 444.122 95.8109 445.929 97.0161C448.34 98.2212 449.545 98.8237 449.545 98.8237C449.545 98.8237 448.541 98.0201 446.532 96.4132C444.724 94.6055 441.711 92.7979 438.698 89.7849C432.07 84.9642 423.031 78.9382 413.992 72.3098C404.351 66.2839 395.312 60.8607 388.081 56.6426C384.466 54.2323 381.453 52.4244 379.645 51.2192Z" fill="#DCD1BD"/>
<path fill-rule="evenodd" clip-rule="evenodd" d="M573.064 37.3574L488.702 92.7955C486.694 91.5904 484.283 90.9878 481.471 90.9878C479.061 90.9878 476.851 91.5904 474.843 92.7955L390.48 37.3574H573.064ZM554.384 43.3833C555.991 41.7764 556.795 40.9728 556.795 40.9728C556.795 40.9728 555.79 41.5757 553.782 42.7809C551.974 43.986 548.961 45.1909 545.345 46.9987C538.717 50.6142 529.678 56.0376 520.639 61.4609C512.203 67.4868 503.164 72.9102 497.138 77.7309C493.523 80.1412 491.113 81.9487 489.305 83.1539C487.296 84.7608 486.292 85.5644 486.292 85.5644C486.694 85.5644 487.899 84.9619 489.907 83.7567C491.715 82.5516 494.728 81.3463 498.344 79.5385C504.972 75.923 514.011 70.4996 523.05 65.0763C531.486 59.0504 539.922 53.6274 546.551 48.8067C549.563 46.3964 552.576 44.5885 554.384 43.3833Z" fill="#DCD1BD"/>
<path d="M824.337 262.128C823.735 266.949 823.132 272.975 822.529 280.809C821.927 288.642 820.722 297.681 820.722 307.322C819.516 316.964 819.516 327.208 818.914 337.452C818.311 347.696 818.311 357.94 818.311 367.581C817.709 377.222 817.709 386.261 818.311 394.095C818.311 401.326 818.311 407.954 818.311 412.775C818.311 416.993 818.914 419.404 818.914 419.404C818.914 419.404 818.914 416.993 819.516 412.775C820.119 407.954 820.722 401.929 821.324 394.095C821.927 386.261 822.529 377.222 823.132 367.581C823.735 357.94 824.337 347.696 824.337 337.452C824.94 327.208 825.542 316.964 825.542 307.322C825.542 297.681 825.542 288.642 825.542 280.809C825.542 273.578 824.94 266.949 824.94 262.128C824.94 257.91 824.94 255.5 824.94 255.5C824.94 255.5 824.337 257.91 824.337 262.128Z" fill="#DCD1BD"/>
<path fill-rule="evenodd" clip-rule="evenodd" d="M277.802 152.453L354.934 257.906C354.532 259.111 354.13 260.115 353.728 260.919L222.364 289.843C222.364 289.442 222.163 289.04 221.762 288.638L275.995 152.453C276.396 152.453 276.999 152.453 277.802 152.453ZM280.815 165.71C278.405 163.3 277.802 162.095 277.802 162.095C277.802 162.095 278.405 163.3 280.213 166.313C282.02 168.723 283.828 172.941 286.841 177.159C289.854 181.378 293.47 186.801 297.085 192.224C300.701 198.25 304.919 203.673 309.137 209.699C312.752 215.725 316.971 221.148 321.189 226.572C324.804 231.995 329.022 236.815 332.035 241.034C335.048 245.854 338.061 248.867 339.869 251.278C342.279 253.688 343.484 255.496 343.484 255.496C343.484 255.496 342.279 253.688 340.471 251.278C339.266 248.265 336.856 244.649 333.843 239.828C330.83 235.61 327.817 230.187 323.599 224.764C319.983 219.34 315.765 213.315 312.15 207.289C307.932 201.866 303.714 195.84 299.495 190.416C295.88 184.993 291.662 180.172 288.649 175.954C285.636 171.736 282.623 168.12 280.815 165.71Z" fill="#DCD1BD"/>
<path fill-rule="evenodd" clip-rule="evenodd" d="M481.456 117.505C482.26 117.505 483.063 117.505 483.867 117.505L585.101 257.908C584.7 257.908 584.499 258.109 584.499 258.51H378.414C378.414 258.109 378.414 257.908 378.414 257.908L479.046 117.505C479.85 117.505 480.653 117.505 481.456 117.505ZM481.456 127.147C481.456 127.147 482.662 129.557 485.072 133.172C487.482 136.788 490.495 141.608 494.713 147.634C498.931 153.66 503.752 160.891 508.573 168.122C513.996 175.353 519.419 183.187 525.445 191.021C530.869 198.854 536.292 206.688 541.715 213.919C547.138 221.15 552.562 227.778 556.78 233.804C561.601 239.83 565.216 244.048 567.626 247.664C570.639 250.677 571.845 252.485 571.845 252.485C571.845 252.485 570.639 250.677 568.229 247.061C565.819 243.446 562.806 238.625 558.588 232.599C554.369 226.573 550.151 219.342 544.728 212.111C539.305 204.88 533.882 197.047 528.458 189.213C522.432 181.379 517.009 173.546 511.586 166.315C506.162 159.084 500.739 152.455 496.521 146.429C492.303 140.403 488.085 136.185 485.675 132.57C483.264 129.557 481.456 127.147 481.456 127.147Z" fill="#DCD1BD"/>
<path d="M185.007 322.985C183.199 327.203 181.391 332.626 178.981 337.447C176.571 342.87 173.558 348.896 171.147 354.319C168.134 359.743 165.724 365.769 162.711 370.589C162.309 371.393 161.908 372.196 161.506 373C162.711 375.008 163.916 376.816 165.121 378.423L201.879 306.112C200.071 303.702 198.866 300.689 198.866 297.676C198.866 296.873 198.866 296.27 198.866 295.869L138.005 253.688C137.603 253.688 137.402 253.688 137.402 253.688L141.018 360.948C146.441 360.345 150.659 360.345 154.275 362.153C155.48 363.358 156.685 364.764 157.89 366.371C155.48 371.192 153.672 376.615 152.467 380.231C150.659 384.449 149.454 388.064 148.852 391.077C148.249 393.488 147.646 394.693 147.646 394.693C147.646 394.693 148.249 393.488 149.454 391.077C150.659 388.667 152.467 385.654 154.275 381.436C155.078 379.427 156.083 377.418 157.288 375.41C158.091 373.401 158.895 371.393 159.698 369.384C162.108 363.961 165.121 358.537 167.532 352.512C170.545 347.088 172.955 341.665 175.968 336.242C178.378 330.818 181.391 325.998 183.199 322.382C185.609 318.164 187.417 314.549 188.622 312.138C190.43 309.728 191.033 308.523 191.033 308.523C191.033 308.523 190.43 309.728 189.225 312.741C188.622 315.151 186.815 318.767 185.007 322.985Z" fill="#DCD1BD"/>
<path d="M900.876 409.155C897.863 401.321 894.248 391.68 890.03 382.038C886.414 372.397 881.593 362.153 877.375 351.306C872.555 341.062 868.336 330.818 863.516 321.177C859.298 311.536 855.08 302.497 851.464 295.266C847.849 287.432 844.233 281.406 841.823 276.586C840.015 272.368 838.207 269.957 838.207 269.957C838.207 269.957 839.412 272.367 841.22 277.188C843.028 282.009 845.438 288.637 848.451 296.471C851.464 304.305 855.079 313.343 859.298 323.587C862.913 333.229 867.734 343.473 871.952 353.717C876.773 363.961 880.991 374.807 885.811 384.449C890.03 394.09 894.248 402.527 897.863 410.36C902.081 418.194 905.094 424.22 907.505 428.438C909.312 433.258 911.12 435.669 911.12 435.669C911.12 435.669 909.915 432.656 908.107 428.438C906.299 423.617 904.492 416.989 900.876 409.155Z" fill="#DCD1BD"/>
<path fill-rule="evenodd" clip-rule="evenodd" d="M57.2336 355.532C55.6267 362.763 54.0198 369.593 52.4129 376.02C50.0026 388.675 48.1948 399.521 47.5922 408.56C46.387 417.599 45.7845 424.83 45.7845 429.65C45.3827 434.471 45.1819 437.082 45.1819 437.484C45.1819 437.082 45.1819 434.471 45.1819 429.65C45.1819 424.83 44.5793 417.599 45.1819 408.56C45.7845 398.918 46.9896 388.072 48.1948 375.417C50.6052 362.763 53.0155 348.301 57.2336 333.236C58.0371 329.219 59.0414 325.202 60.2466 321.185C61.4517 317.167 62.8578 313.15 64.4647 309.133C66.875 301.299 70.4905 292.863 73.5035 284.427C80.7345 267.554 88.5681 250.079 98.8121 233.207C109.056 216.335 119.903 198.859 133.16 182.59C145.814 166.32 159.673 150.05 175.341 135.588C190.405 120.523 206.675 106.664 223.548 94.6119L230.176 90.3937L236.202 86.1755C240.621 82.9617 245.04 80.1499 249.459 77.7395C258.498 72.3163 266.934 66.893 275.973 62.6749C293.448 53.0335 310.923 45.8023 327.795 39.1738C345.27 33.1479 361.54 28.3275 377.207 24.7119C380.823 23.9085 384.639 23.1049 388.657 22.3014C392.272 21.6988 395.888 21.0963 399.503 20.4937C406.734 19.2886 413.363 18.0834 419.389 17.4808C426.017 16.8782 432.043 16.2757 437.466 15.6731C443.09 15.6731 448.112 15.472 452.531 15.0703C457.351 15.0703 461.57 15.0703 465.185 15.0703C468.801 15.0703 471.814 15.0703 474.224 15.0703C479.045 15.0703 481.455 15.0703 481.455 15.0703C514.597 15.0703 546.534 19.2883 576.664 25.9168H400.106C396.49 26.5194 393.477 27.1221 389.862 28.3273C386.246 29.1308 382.43 30.1351 378.413 31.3402C371.985 32.9471 365.357 34.9558 358.527 37.3661L278.986 126.549C277.781 126.147 276.375 125.947 274.768 125.947C273.964 125.947 272.96 126.147 271.755 126.549L244.638 93.4067C243.835 93.8084 243.232 94.2102 242.83 94.6119L236.202 98.8301L235.599 100.035L263.318 133.78C262.515 134.985 262.113 136.391 262.113 137.998L149.429 179.577C147.019 182.79 144.408 186.004 141.596 189.218C139.587 191.629 137.779 194.039 136.173 196.449L237.407 159.089L137.98 230.194C136.775 229.792 135.57 229.391 134.365 228.989L129.544 204.885C126.33 209.304 123.317 213.523 120.505 217.54L123.518 231.399C119.903 233.81 118.095 237.425 118.095 242.246C118.095 243.049 118.095 243.853 118.095 244.656L93.3889 263.336C90.9785 267.354 88.769 271.371 86.7604 275.388C85.5552 278.602 84.1492 281.816 82.5423 285.029L117.492 259.118L71.0931 363.366C70.2897 362.562 69.6871 361.357 69.2854 359.75C64.4647 351.314 61.4517 350.711 57.2336 355.532ZM137.98 223.566C138.382 223.566 139.587 222.963 141.596 221.758C143.404 220.552 146.417 218.745 149.429 216.937C156.058 212.719 165.097 206.693 173.533 200.667C181.969 194.641 190.405 188.013 197.034 183.192C200.047 180.782 202.457 178.371 204.265 176.564C205.872 175.358 206.675 174.555 206.675 174.153C206.675 174.153 205.671 174.756 203.662 175.961C201.855 177.166 198.842 178.974 195.226 181.385C188.598 185.603 180.161 191.026 171.725 197.654C162.686 203.68 154.25 209.706 148.224 215.129C145.211 217.54 142.801 219.347 140.993 221.155C138.985 222.762 137.98 223.566 137.98 223.566ZM277.781 119.921C277.781 119.921 278.986 118.715 280.793 116.908C282.601 115.1 285.614 112.087 289.23 108.471C292.243 105.458 296.461 101.24 300.679 96.4196C304.897 92.2015 309.115 87.3809 313.333 82.5602C317.551 77.7395 321.769 72.9186 325.988 68.0979C329.603 63.8798 333.219 59.0593 336.232 55.4437C339.244 51.8282 341.655 48.8153 343.463 46.4049C345.27 43.9946 346.476 42.7895 346.476 42.7895C346.476 42.7895 345.27 43.9947 342.86 45.8025C341.052 48.2128 338.039 50.623 334.424 54.2385C331.411 57.854 327.193 61.4695 322.975 66.2902C319.359 70.5083 314.538 75.329 310.32 80.1497C306.102 84.9704 301.884 89.7912 298.269 94.6119C294.05 98.83 290.435 103.651 287.422 107.266C284.409 110.882 281.999 114.497 280.191 116.305C278.383 118.715 277.781 119.921 277.781 119.921ZM154.853 173.551C155.254 173.149 155.455 172.948 155.455 172.948C158.468 172.346 162.686 171.141 167.507 169.333C172.328 167.525 178.354 165.717 184.38 163.307C191.008 161.499 197.034 159.089 203.662 156.678C210.291 153.665 216.919 151.255 222.945 148.845C228.971 146.434 234.394 144.024 239.215 142.216C244.036 139.806 248.254 137.998 250.664 136.793C253.677 135.588 255.485 134.985 255.485 134.985C255.485 134.985 253.677 135.588 250.664 136.191C247.651 137.396 243.433 138.601 238.612 139.806C233.792 141.614 227.766 143.421 221.74 145.832C215.714 148.242 209.086 150.653 202.457 153.063C195.829 155.473 189.2 157.884 183.174 160.294C177.148 162.704 171.725 165.114 166.904 167.525C162.084 169.333 158.468 171.141 156.058 172.346C155.656 172.748 155.254 173.149 154.853 173.551Z" fill="#DCD1BD"/>
<path d="M119.916 297.674C119.916 297.674 119.916 299.481 120.519 303.097C120.519 306.712 121.121 312.135 121.724 318.161C122.326 324.187 122.929 331.418 122.929 338.649C123.532 346.483 123.532 354.317 124.134 362.753C124.134 364.36 124.134 365.766 124.134 366.971C126.143 366.168 127.951 365.364 129.558 364.561L126.545 266.941L81.9531 367.574C84.9661 366.368 88.5816 364.561 92.7997 364.561C103.646 363.958 97.6204 381.433 111.48 373.599C113.087 372.796 114.895 371.792 116.903 370.586C117.305 376.211 117.506 381.634 117.506 386.856C118.108 394.087 118.711 401.319 119.314 407.345C119.314 413.37 119.916 418.794 120.519 422.409C120.519 426.025 121.121 427.832 121.121 427.832C121.121 427.832 121.121 426.025 121.121 422.409C121.121 418.794 121.121 413.37 121.121 407.345C121.121 401.319 121.121 394.087 121.121 386.856C121.121 380.831 120.92 374.805 120.519 368.779C120.519 366.77 120.519 364.762 120.519 362.753C119.916 354.919 119.916 346.483 119.916 339.252C119.314 331.418 119.916 324.187 119.314 318.161C119.314 312.135 119.916 306.712 119.916 303.097C119.916 299.481 119.916 297.674 119.916 297.674Z" fill="#DCD1BD"/>
<path fill-rule="evenodd" clip-rule="evenodd" d="M740.593 289.843L609.229 260.919C609.229 259.714 608.827 258.709 608.023 257.906L685.757 152.453C686.159 152.453 686.761 152.453 687.565 152.453L741.195 288.638C741.195 289.04 740.994 289.442 740.593 289.843ZM733.964 282.009L685.155 161.492L614.652 257.303L733.964 282.009Z" fill="#DCD1BD"/>
<path d="M911.7 385.654C909.691 375.209 907.481 364.564 905.071 353.717C904.268 348.495 903.263 343.273 902.058 338.05C900.853 332.828 899.447 327.605 897.84 322.383C895.43 311.536 892.818 300.89 890.006 290.446V289.24H889.404C882.574 284.42 875.544 279.599 868.313 274.778L858.069 268.15C854.454 265.739 850.838 263.53 847.223 261.521C850.436 264.334 853.65 266.945 856.864 269.355L866.506 277.189C872.933 282.411 879.361 287.433 885.788 292.253C887.797 302.698 890.006 313.143 892.417 323.588C893.622 328.81 895.028 334.033 896.635 339.255C897.84 344.477 899.045 349.7 900.25 354.923C902.661 365.769 905.473 376.415 908.687 386.86C909.892 392.082 911.298 397.304 912.905 402.527C914.512 407.749 916.119 412.972 917.725 418.194C916.922 412.57 915.918 407.147 914.713 401.924C913.909 396.702 912.905 391.278 911.7 385.654Z" fill="#DCD1BD"/>
<path fill-rule="evenodd" clip-rule="evenodd" d="M895.446 436.872C901.471 436.872 905.087 436.872 905.087 436.872C905.087 436.872 901.471 436.872 895.446 437.475C889.42 437.475 880.381 437.475 868.932 438.077C845.431 438.68 812.891 439.283 773.12 439.885C753.235 440.488 732.144 440.488 709.246 441.09C686.95 441.09 662.847 441.693 638.141 441.693C613.435 442.295 588.126 442.296 562.215 442.296C536.304 442.296 509.79 442.296 483.276 442.296C456.762 442.296 430.851 442.296 404.94 442.296C379.028 442.296 353.117 442.295 328.411 441.693C278.999 441.693 233.202 441.09 193.431 439.885C153.661 439.283 121.121 438.68 98.2227 438.077C86.1709 437.475 77.1321 437.475 71.1062 437.475C65.0804 436.872 61.4648 436.872 61.4648 436.872C61.4648 436.872 65.0804 436.872 71.1062 436.872C77.1321 436.27 86.1709 436.27 98.2227 435.667C121.121 435.064 153.661 434.462 193.431 433.859C233.202 432.654 278.999 432.052 328.411 432.052C353.117 431.449 379.028 431.449 404.94 431.449C430.851 431.449 456.762 431.449 483.276 431.449C509.79 431.449 536.304 431.449 562.215 431.449C588.126 431.449 613.435 431.449 638.141 432.052C644.167 432.052 650.193 432.052 656.218 432.052L594.755 284.418L565.228 374.806C560.407 375.408 556.189 377.216 552.573 380.229C547.15 385.05 539.919 382.639 530.278 378.421L594.755 277.187C595.156 277.187 595.558 277.187 595.96 277.187L663.449 432.052C671.484 432.052 679.518 432.252 687.553 432.654L750.222 310.932C750.624 310.932 751.026 310.932 751.427 310.932L813.494 434.462C835.187 435.065 853.867 435.667 868.932 435.667C880.381 436.27 889.42 436.27 895.446 436.872ZM805.057 432.052L750.825 319.97L694.181 432.052H805.057Z" fill="#DCD1BD"/>
<path d="M658.023 66.2924C662.844 69.1044 667.865 71.5148 673.088 73.5235C677.909 75.9338 682.729 78.3442 687.55 80.7546L702.615 87.3829L714.064 92.8063C712.859 94.4132 711.453 96.2208 709.846 98.2294C707.837 101.443 705.828 104.456 703.82 107.268C699.803 113.294 695.986 119.521 692.371 125.949C697.593 120.726 702.615 115.303 707.435 109.679C709.846 106.867 712.256 104.054 714.666 101.242C717.077 98.832 719.286 96.0201 721.295 92.8063L723.705 89.7934L720.09 87.9857L705.627 80.7546L691.165 74.1259C685.943 71.7156 680.921 69.3055 676.101 66.8952C671.28 64.4848 666.258 62.2751 661.036 60.2665C650.993 55.8475 640.95 51.6295 630.907 47.6123C620.864 43.1933 610.82 39.1761 600.777 35.5605C610.017 41.1847 619.458 46.6081 629.099 51.8305C638.74 57.0529 648.382 61.8734 658.023 66.2924Z" fill="#DCD1BD"/>
<path d="M758.656 125.335C764.08 130.759 770.106 136.182 776.132 141.605C781.555 147.029 787.581 153.055 793.607 157.875C799.03 162.696 804.453 167.517 809.274 171.735C818.313 179.568 824.941 184.389 824.941 184.389C824.941 184.389 819.518 177.761 811.082 169.325C806.863 164.504 802.043 159.683 796.619 154.26C791.196 148.837 785.773 143.413 779.747 137.387C773.721 131.964 767.695 126.541 762.272 121.72C756.246 116.297 751.425 111.476 746.605 107.861C736.963 100.027 730.938 95.2061 730.938 95.2061C730.938 95.2061 735.758 101.232 744.194 110.271C748.413 114.489 753.233 119.912 758.656 125.335Z" fill="#DCD1BD"/>
<path d="M830.379 224.165C831.584 221.755 832.187 218.139 833.392 214.524C833.995 210.908 833.995 207.293 834.597 204.28C834.597 201.869 833.995 200.062 833.995 200.062C833.995 200.062 833.392 201.267 832.187 204.28C830.982 206.69 830.379 210.305 829.174 213.921C828.571 217.536 828.571 221.152 827.969 224.165C827.969 226.575 828.571 228.383 828.571 228.383C828.571 228.383 829.174 227.178 830.379 224.165Z" fill="#DCD1BD"/>
<path fill-rule="evenodd" clip-rule="evenodd" d="M496.523 101.234L585.104 42.7832C587.112 43.9884 589.322 44.7916 591.732 45.1933C592.937 44.7916 594.143 44.5909 595.348 44.5909L673.082 131.363L496.523 101.234ZM592.335 48.2063L609.81 115.696L662.235 125.94L592.335 48.2063Z" fill="#DCD1BD"/>
<path d="M849.057 221.152C852.07 226.575 855.685 233.204 859.301 240.435C863.519 247.063 867.737 253.692 871.353 258.513C872.558 260.923 874.366 263.333 875.571 264.538C876.374 266.145 876.776 266.949 876.776 266.949C876.776 266.949 876.575 265.944 876.173 263.936C874.968 262.73 874.366 260.32 873.16 257.91C870.75 252.486 866.532 245.256 862.916 238.627C858.698 231.396 854.48 224.768 850.865 219.947C849.659 217.536 847.852 215.729 846.647 213.921C845.843 212.716 845.441 212.113 845.441 212.113C845.441 212.113 845.642 212.917 846.044 214.524C847.249 216.332 847.852 218.139 849.057 221.152Z" fill="#DCD1BD"/>
<path d="M609.827 136.183L596.57 245.251L670.689 146.426L609.827 136.183Z" fill="#EFE3CD"/>
<path d="M662.256 125.941L592.355 48.207L609.83 116.299L662.256 125.941Z" fill="#EFE3CD"/>
<path d="M694.184 432.06H805.06L750.827 319.979L694.184 432.06Z" fill="#EFE3CD"/>
<path d="M733.339 306.115L614.629 279.602L675.49 417.594L733.339 306.115Z" fill="#EFE3CD"/>
<path d="M614.629 257.31L733.941 282.016L685.132 161.498L614.629 257.31Z" fill="#EFE3CD"/>
<path d="M379.029 51.8236C380.836 53.6313 383.849 56.0415 386.862 58.4519C393.491 63.2726 402.53 69.2986 411.568 75.9271C420.607 81.9529 430.248 87.9787 437.48 91.5942C441.095 94.0045 444.108 95.8125 445.916 97.0176C448.326 98.2228 449.531 98.8253 449.531 98.8253C449.531 98.8253 448.527 98.0217 446.518 96.4148C444.711 94.6071 441.698 92.7994 438.685 89.7865C432.056 84.9658 423.017 78.9398 413.979 72.3113C404.337 66.2855 395.298 60.8623 388.067 56.6442C384.452 54.2339 381.439 52.4259 379.631 51.2208C377.221 50.0156 376.016 49.4131 376.016 49.4131C376.016 49.8148 377.02 50.6184 379.029 51.8236Z" fill="#EFE3CD"/>
<path d="M380.828 223.56C385.046 218.137 390.47 212.111 395.29 204.88C400.714 198.251 406.137 190.418 411.56 183.187C416.381 175.353 421.804 168.122 427.227 160.891C432.048 153.66 436.266 147.031 440.484 141.006C444.1 135.582 447.113 130.762 449.523 127.146C451.934 124.133 453.139 121.723 453.139 121.723C453.139 121.723 451.331 123.531 448.921 127.146C446.51 130.159 442.895 134.377 438.677 139.8C434.459 145.826 429.638 151.852 424.215 159.083C418.791 165.712 413.971 173.545 408.547 180.776C403.124 188.61 397.701 195.841 392.88 203.072C387.457 210.303 383.239 216.932 379.02 222.355C375.405 228.381 372.392 233.201 369.982 236.817C368.174 239.83 366.969 242.24 366.969 242.24C366.969 242.24 368.174 240.432 370.584 236.817C372.995 233.804 376.61 229.586 380.828 223.56Z" fill="#EFE3CD"/>
<path d="M485.08 133.172C487.491 136.788 490.504 141.608 494.722 147.634C498.94 153.66 503.761 160.891 508.581 168.122C514.005 175.353 519.428 183.187 525.454 191.021C530.877 198.854 536.3 206.688 541.724 213.919C547.147 221.15 552.57 227.778 556.788 233.804C561.609 239.83 565.224 244.048 567.635 247.664C570.648 250.677 571.853 252.485 571.853 252.485C571.853 252.485 570.648 250.677 568.237 247.061C565.827 243.446 562.814 238.625 558.596 232.599C554.378 226.573 550.16 219.342 544.737 212.111C539.313 204.88 533.89 197.047 528.467 189.213C522.441 181.379 517.017 173.546 511.594 166.315C506.171 159.084 500.748 152.455 496.53 146.429C492.311 140.403 488.093 136.185 485.683 132.57C483.273 129.557 481.465 127.146 481.465 127.146C481.465 127.146 482.67 129.557 485.08 133.172Z" fill="#EFE3CD"/>
<path d="M553.767 42.7866C551.357 43.9917 548.946 45.1966 545.331 47.0044C538.702 50.6199 529.664 56.0433 520.625 61.4666C511.586 67.4925 503.15 72.9159 497.124 77.7366C493.508 80.1469 491.098 81.9545 489.29 83.1596C487.282 84.7665 486.277 85.5701 486.277 85.5701C486.277 85.5701 487.483 84.9676 489.893 83.7624C491.701 82.5573 494.714 81.352 497.726 79.5442C504.958 75.9287 513.996 70.5053 522.433 65.082C531.471 59.0561 539.908 53.6331 546.536 48.8124C549.549 46.4021 551.959 44.5942 553.767 43.389C555.776 41.7821 556.78 40.9785 556.78 40.9785C556.78 40.9785 555.776 41.5814 553.767 42.7866Z" fill="#EFE3CD"/>
<path d="M214.541 259.109C216.348 254.289 218.759 248.865 221.772 242.839C224.182 236.813 226.592 230.788 229.605 224.159C232.016 217.531 234.426 211.505 236.836 205.479C239.247 199.453 241.055 193.427 242.862 188.606C244.67 183.786 245.875 179.568 247.08 177.158C247.683 174.145 248.286 172.337 248.286 172.337C248.286 172.337 247.683 174.144 246.478 176.555C245.273 179.568 242.862 183.183 241.055 188.004C238.644 192.825 236.234 198.248 233.823 204.274C231.413 210.3 228.4 216.326 225.99 222.954C223.58 228.98 220.567 235.609 218.759 241.634C216.348 247.66 213.938 253.686 212.13 258.507C210.323 263.328 209.117 267.545 208.515 269.956C207.31 272.969 206.707 274.777 206.707 274.777C206.707 274.777 207.912 272.969 209.117 270.559C210.323 267.546 212.13 263.93 214.541 259.109Z" fill="#EFE3CD"/>
<path d="M280.211 166.31C282.019 168.72 283.827 172.938 286.84 177.156C289.853 181.375 293.468 186.798 297.084 192.221C300.699 198.247 304.917 203.67 309.135 209.696C312.751 215.722 316.969 221.145 321.187 226.569C324.803 231.992 329.021 236.812 332.034 241.031C335.047 245.851 338.059 248.864 339.867 251.275C342.278 253.685 343.483 255.493 343.483 255.493C343.483 255.493 342.278 253.685 340.47 251.275C339.265 248.262 336.854 244.646 333.841 239.825C330.828 235.607 327.816 230.184 323.597 224.761C319.982 219.337 315.764 213.312 312.148 207.286C307.93 201.863 303.712 195.837 299.494 190.413C295.878 184.99 291.66 180.169 288.647 175.951C285.634 171.733 282.621 168.118 280.814 165.707C278.403 163.297 277.801 162.092 277.801 162.092C277.801 162.092 278.403 163.297 280.211 166.31Z" fill="#EFE3CD"/>
<path d="M289.25 108.465C292.263 105.452 296.481 101.234 300.699 96.4133C304.917 92.1951 309.135 87.3745 313.353 82.5538C317.572 77.7331 321.79 72.9123 326.008 68.0916C329.623 63.8735 333.239 59.0529 336.252 55.4374C339.265 51.8219 341.675 48.8089 343.483 46.3986C345.291 43.9882 346.496 42.7832 346.496 42.7832C346.496 42.7832 345.291 43.9884 342.88 45.7961C341.072 48.2065 338.06 50.6166 334.444 54.2321C331.431 57.8477 327.213 61.4632 322.995 66.2839C319.379 70.502 314.559 75.3226 310.341 80.1433C306.122 84.964 301.904 89.7849 298.289 94.6056C294.071 98.8237 290.455 103.644 287.442 107.26C284.429 110.875 282.019 114.491 280.211 116.299C278.403 118.709 277.801 119.914 277.801 119.914C277.801 119.914 279.006 118.709 280.814 116.901C282.621 115.094 285.634 112.081 289.25 108.465Z" fill="#EFE3CD"/>
<path d="M167.529 169.328C172.35 167.52 178.376 165.712 184.402 163.302C191.03 161.494 197.056 159.084 203.685 156.673C210.313 153.661 216.942 151.25 222.967 148.84C228.993 146.43 234.417 144.019 239.237 142.212C244.058 139.801 248.276 137.993 250.686 136.788C253.699 135.583 255.507 134.98 255.507 134.98C255.507 134.98 253.699 135.583 250.686 136.186C247.673 137.391 243.455 138.596 238.635 139.801C233.814 141.609 227.788 143.417 221.762 145.827C215.736 148.237 209.108 150.648 202.479 153.058C195.851 155.468 189.222 157.879 183.197 160.289C177.171 162.7 171.747 165.11 166.927 167.52C162.106 169.328 158.491 171.136 156.08 172.341C155.678 172.743 155.277 173.144 154.875 173.546C155.277 173.144 155.478 172.943 155.478 172.943C158.491 172.341 162.709 171.136 167.529 169.328Z" fill="#EFE3CD"/>
<path d="M149.437 216.928C156.066 212.71 165.105 206.684 173.541 200.658C181.977 194.632 190.413 188.004 197.042 183.183C200.055 180.773 202.465 178.362 204.273 176.555C205.88 175.349 206.683 174.546 206.683 174.145C206.683 174.145 205.679 174.747 203.67 175.952C201.863 177.157 198.85 178.965 195.234 181.376C188.606 185.594 180.169 191.017 171.733 197.645C162.694 203.671 154.258 209.697 148.232 215.12C145.219 217.531 142.809 219.339 141.001 221.146C138.993 222.753 137.988 223.557 137.988 223.557C138.39 223.557 139.595 222.954 141.604 221.749C143.412 220.544 146.425 218.736 149.437 216.928Z" fill="#EFE3CD"/>
<path fill-rule="evenodd" clip-rule="evenodd" d="M964.742 452.543V478.454H0V452.543C0 444.107 7.23104 437.479 15.6673 437.479H30.1294C30.1294 331.423 76.5286 222.355 158.48 138.595C245.856 49.4122 360.347 0 481.467 0C603.19 0 717.681 49.4122 804.454 138.595C886.406 222.355 933.408 331.423 933.408 437.479H949.677C958.114 437.479 964.742 444.107 964.742 452.543ZM845.43 212.111C845.43 212.111 845.631 212.914 846.032 214.521C847.238 216.329 847.84 218.137 849.045 221.15C852.058 226.573 855.674 233.201 859.289 240.432C863.508 247.061 867.726 253.689 871.341 258.51C872.546 260.92 874.354 263.331 875.559 264.536C876.363 266.143 876.764 266.946 876.764 266.946C876.764 266.946 876.564 265.942 876.162 263.933C874.957 262.728 874.354 260.318 873.149 257.907C870.739 252.484 866.52 245.253 862.905 238.625C858.687 231.394 854.469 224.765 850.853 219.944C849.648 217.534 847.84 215.726 846.635 213.918C845.832 212.713 845.43 212.111 845.43 212.111ZM828.557 228.381C828.557 228.381 829.16 227.175 830.365 224.163C831.57 221.752 832.173 218.137 833.378 214.521C833.981 210.906 833.981 207.29 834.583 204.277C834.583 201.867 833.981 200.059 833.981 200.059C833.981 200.059 833.378 201.264 832.173 204.277C830.968 206.688 830.365 210.303 829.16 213.918C828.557 217.534 828.557 221.15 827.955 224.163C827.955 226.573 828.557 228.381 828.557 228.381ZM824.942 262.125C824.942 257.907 824.942 255.497 824.942 255.497C824.942 255.497 824.339 257.907 824.339 262.125C823.737 266.946 823.134 272.972 822.532 280.806C821.929 288.64 820.724 297.678 820.724 307.32C819.519 316.961 819.519 327.205 818.916 337.449C818.313 347.693 818.314 357.937 818.314 367.578C817.711 377.22 817.711 386.259 818.314 394.092C818.314 401.323 818.314 407.952 818.314 412.772C818.314 416.99 818.916 419.401 818.916 419.401C818.916 419.401 818.916 416.99 819.519 412.772C820.121 407.952 820.724 401.926 821.326 394.092C821.929 386.259 822.532 377.22 823.134 367.578C823.737 357.937 824.339 347.693 824.339 337.449C824.942 327.205 825.545 316.961 825.545 307.32C825.545 297.678 825.545 288.64 825.545 280.806C825.545 273.575 824.942 266.946 824.942 262.125ZM811.082 240.432C802.646 247.262 794.21 254.091 785.774 260.92C781.355 264.937 776.735 268.754 771.914 272.37C767.495 276.387 763.076 280.404 758.657 284.421C763.478 281.207 768.299 277.793 773.119 274.177C778.342 270.963 783.363 267.549 788.184 263.933C797.826 256.702 807.467 249.471 817.108 242.24L819.519 240.432L817.108 238.625C807.869 230.992 798.629 223.359 789.389 215.726C779.748 208.093 770.307 200.662 761.068 193.431C751.426 186.2 741.986 178.968 732.746 171.737C727.925 168.122 723.105 164.506 718.284 160.891C713.463 157.275 708.442 153.66 703.219 150.044C707.638 154.463 712.258 158.481 717.079 162.096C721.498 166.113 725.917 170.131 730.336 174.148C739.575 181.781 748.815 189.413 758.055 197.046C767.294 205.081 776.534 212.713 785.774 219.944C794.21 226.774 802.646 233.603 811.082 240.432ZM574.868 275.382C574.868 275.382 573.06 277.793 570.65 282.011C568.24 286.229 565.227 292.255 561.009 298.884C556.791 306.115 551.97 313.948 546.547 322.384C541.123 331.423 535.7 340.462 529.674 349.501C524.853 357.133 520.234 364.365 515.815 371.194C517.02 371.997 518.426 372.801 520.033 373.604L585.112 271.164C585.112 270.763 584.911 270.361 584.51 269.959H378.425C378.425 270.361 378.224 270.763 377.822 271.164L455.556 392.887C456.761 381.438 453.748 364.566 477.249 362.155C489.301 360.95 500.147 364.565 510.391 369.386C510.391 369.788 510.191 370.189 509.789 370.591C504.365 379.027 499.545 387.464 495.327 394.092C491.109 401.323 487.493 407.349 485.083 410.965C482.672 415.183 481.467 417.593 481.467 417.593C481.467 417.593 483.275 415.183 485.685 411.567C488.096 408.554 491.711 403.734 495.327 398.31C499.545 391.079 504.365 383.246 509.789 374.207C515.212 365.771 520.635 356.732 526.661 347.693C532.687 338.654 538.11 329.615 543.534 321.179C549.56 312.14 554.983 304.307 559.201 297.678C563.419 291.05 567.637 285.626 570.048 281.408C573.06 277.793 574.868 275.382 574.868 275.382ZM69.2975 359.745C69.6993 361.352 70.3018 362.557 71.1053 363.36L117.505 259.113L82.5544 285.024C84.1613 281.81 85.5674 278.596 86.7725 275.382C88.7812 271.365 90.9907 267.348 93.401 263.331L118.107 244.651C118.107 243.847 118.107 243.044 118.107 242.24C118.107 237.419 119.915 233.804 123.53 231.394L120.517 217.534C123.33 213.517 126.342 209.299 129.556 204.88L134.377 228.983C135.582 229.385 136.787 229.787 137.992 230.188L237.419 159.083L136.185 196.444C137.792 194.033 139.599 191.623 141.608 189.213C144.42 185.999 147.031 182.785 149.442 179.571L262.125 137.993C262.125 136.386 262.527 134.98 263.331 133.774L235.612 100.03L236.214 98.8245L242.843 94.6063C243.244 94.2046 243.847 93.8028 244.65 93.401L271.767 126.543C272.972 126.142 273.976 125.941 274.78 125.941C276.387 125.941 277.793 126.142 278.998 126.543L358.539 37.3605C365.369 34.9501 371.997 32.9415 378.425 31.3346C382.442 30.1294 386.258 29.1251 389.874 28.3217C393.489 27.1165 396.502 26.5138 400.118 25.9112H576.676C546.547 19.2827 514.609 15.0647 481.467 15.0647C481.467 15.0647 479.057 15.0647 474.236 15.0647C471.826 15.0647 468.813 15.0647 465.197 15.0647C461.582 15.0647 457.364 15.0647 452.543 15.0647C448.124 15.4664 443.102 15.6675 437.478 15.6675C432.055 16.2701 426.029 16.8726 419.401 17.4752C413.375 18.0778 406.746 19.2829 399.515 20.4881C395.9 21.0907 392.284 21.6932 388.669 22.2958C384.652 23.0993 380.835 23.9028 377.22 24.7063C361.552 28.3218 345.282 33.1423 327.807 39.1682C310.935 45.7966 293.46 53.0278 275.985 62.6692C266.946 66.8873 258.51 72.3106 249.471 77.7339C245.052 80.1443 240.633 82.9561 236.214 86.1699L230.188 90.3881L223.56 94.6063C206.687 106.658 190.418 120.517 175.353 135.582C159.686 150.044 145.826 166.314 133.172 182.584C119.915 198.854 109.068 216.329 98.8243 233.201C88.5803 250.074 80.7467 267.549 73.5156 284.421C70.5027 292.857 66.8872 301.294 64.4768 309.127C62.8699 313.144 61.4639 317.162 60.2587 321.179C59.0536 325.196 58.0492 329.213 57.2458 333.231C53.0277 348.295 50.6173 362.757 48.207 375.412C47.0018 388.066 45.7966 398.913 45.194 408.554C44.5915 417.593 45.194 424.824 45.194 429.645C45.194 434.465 45.194 437.077 45.194 437.479C45.194 437.077 45.3949 434.465 45.7966 429.645C45.7966 424.824 46.3992 417.593 47.6044 408.554C48.2069 399.515 50.0147 388.669 52.4251 376.015C54.032 369.587 55.6389 362.758 57.2458 355.526C61.4639 350.706 64.4768 351.308 69.2975 359.745ZM191.02 308.525C191.02 308.525 190.418 309.73 189.212 312.743C188.61 315.153 186.802 318.769 184.994 322.987C183.187 327.205 181.379 332.628 178.968 337.449C176.558 342.872 173.545 348.898 171.135 354.321C168.122 359.745 165.711 365.77 162.699 370.591C162.297 371.395 161.895 372.198 161.493 373.002C162.699 375.01 163.904 376.818 165.109 378.425L201.867 306.114C200.059 303.704 198.854 300.691 198.854 297.678C198.854 296.875 198.854 296.272 198.854 295.871L137.992 253.689C137.591 253.689 137.39 253.689 137.39 253.689L141.005 360.95C146.429 360.347 150.647 360.347 154.262 362.155C155.468 363.36 156.673 364.766 157.878 366.373C155.467 371.194 153.66 376.617 152.455 380.233C150.647 384.451 149.442 388.066 148.839 391.079C148.236 393.49 147.634 394.695 147.634 394.695C147.634 394.695 148.236 393.49 149.442 391.079C150.647 388.669 152.455 385.656 154.262 381.438C155.066 379.429 156.07 377.42 157.275 375.412C158.079 373.403 158.882 371.395 159.686 369.386C162.096 363.963 165.109 358.539 167.519 352.514C170.532 347.09 172.943 341.667 175.955 336.244C178.366 330.82 181.379 326 183.186 322.384C185.597 318.166 187.405 314.55 188.61 312.14C190.418 309.73 191.02 308.525 191.02 308.525ZM488.698 92.7986L573.06 37.3605H390.477L474.839 92.7986C476.847 91.5934 479.057 90.9909 481.467 90.9909C484.279 90.9909 486.69 91.5934 488.698 92.7986ZM483.878 117.505C483.074 117.505 482.271 117.505 481.467 117.505C480.664 117.505 479.86 117.505 479.057 117.505L378.425 257.907C378.425 257.907 378.425 258.108 378.425 258.51H584.51C584.51 258.108 584.71 257.907 585.112 257.907L483.878 117.505ZM377.822 42.7839C375.814 43.9891 373.604 44.7923 371.194 45.194C369.989 45.194 368.783 44.9933 367.578 44.5916L289.844 131.364L466.403 101.235L377.822 42.7839ZM287.434 142.813C287.032 143.617 286.631 144.42 286.229 145.224L363.36 251.279C364.164 250.877 365.168 250.677 366.373 250.677C367.177 250.677 367.98 250.677 368.783 250.677L468.21 112.081L287.434 142.813ZM277.19 152.455C276.788 152.455 276.387 152.455 275.985 152.455L221.752 288.639C222.154 289.041 222.355 289.443 222.355 289.845L353.719 260.92C354.12 259.715 354.522 258.711 354.924 257.907L277.19 152.455ZM262.125 154.865L144.018 239.83C144.018 240.231 144.018 240.834 144.018 241.638C144.018 242.441 144.018 243.244 144.018 244.048L204.88 286.229C206.888 285.024 208.897 284.421 210.906 284.421L262.125 154.865ZM904.483 436.876C904.483 436.876 900.868 436.273 894.842 436.273C888.816 436.273 879.777 435.671 868.328 435.671C853.264 435.068 835.186 434.466 812.89 434.466L750.824 310.935C750.422 310.935 750.221 310.935 750.221 310.935L686.949 432.055C678.915 432.055 670.88 432.055 662.846 432.055L595.356 277.19C594.955 277.19 594.553 277.19 594.151 277.19L529.674 377.822C539.316 382.643 547.149 384.451 551.97 379.63C555.585 376.617 559.804 375.412 564.624 374.809L594.151 284.421L655.615 432.055C649.589 431.653 643.563 431.453 637.537 431.453C612.831 431.453 587.523 431.452 561.611 430.85C535.7 430.85 509.186 430.85 482.672 430.85C456.761 430.85 430.247 430.85 404.336 430.85C378.425 431.452 352.514 431.453 327.807 431.453C278.395 432.055 232.599 432.658 192.828 433.26C153.66 433.863 120.517 435.068 97.6191 435.671C86.17 435.671 77.1312 436.273 70.5027 436.273C64.4768 436.273 61.4639 436.876 61.4639 436.876C61.4639 436.876 64.4768 436.876 70.5027 436.876C77.1312 436.876 86.17 437.479 97.6191 437.479C120.517 438.081 153.66 439.286 192.828 439.889C232.599 440.491 278.395 441.094 327.807 441.696C352.514 441.696 378.425 441.697 404.336 442.299C430.247 442.299 456.761 442.299 482.672 442.299C509.186 442.299 535.7 442.299 561.611 442.299C587.523 441.697 612.831 441.696 637.537 441.696C662.243 441.094 686.347 441.094 708.643 441.094C731.541 440.491 752.631 439.889 772.517 439.889C812.288 439.286 845.43 438.081 868.328 437.479C879.777 437.479 888.816 436.876 894.842 436.876C900.868 436.876 904.483 436.876 904.483 436.876ZM313.345 400.118C316.961 401.926 321.179 403.131 324.192 402.528C336.846 400.118 341.064 398.913 358.539 404.939C375.412 410.965 396.502 407.349 401.323 402.528C404.336 399.515 420.606 403.734 434.465 404.336C435.269 405.541 436.072 406.947 436.876 408.554C441.094 414.58 444.709 420.003 447.12 423.619C449.53 427.234 450.735 429.042 450.735 429.042C450.735 429.042 449.53 426.632 447.722 423.016C446.517 420.606 444.91 417.794 442.902 414.58C441.696 412.571 440.29 410.563 438.684 408.554C434.465 401.926 429.645 394.695 424.824 386.861C419.401 379.027 413.977 369.989 409.157 361.552C403.733 353.116 398.31 344.68 393.49 336.244C388.669 328.41 384.451 320.577 380.233 314.551C376.617 307.922 373.604 302.499 371.194 298.281C369.386 294.665 368.181 292.255 368.181 292.255C368.181 292.255 369.386 294.665 371.796 298.281C374.809 301.896 378.425 306.717 382.04 313.345C386.258 319.371 391.079 326.603 396.502 335.039C401.323 342.872 406.746 351.308 412.17 359.745C417.593 368.181 422.414 376.617 427.234 385.053C431.452 392.284 435.671 398.913 439.286 404.336C442.902 404.336 445.915 403.934 448.325 403.131L367.578 277.19C367.177 277.19 366.775 277.19 366.373 277.19L313.345 400.118ZM594.151 251.279C594.954 250.877 595.758 250.677 596.561 250.677C597.365 250.677 598.168 250.877 598.972 251.279L676.706 145.224C676.304 144.42 675.902 143.617 675.5 142.813L494.122 112.081L594.151 251.279ZM606.805 272.972L675.5 431.453L740.58 306.114C739.375 304.507 738.571 302.901 738.169 301.294L607.408 272.37C607.006 272.771 606.805 272.972 606.805 272.972ZM740.58 289.845C740.981 289.443 741.182 289.242 741.182 289.242L687.552 153.057C686.749 153.057 686.146 152.856 685.744 152.455L608.011 257.907C608.814 259.112 609.417 260.318 609.818 261.523L740.58 289.845ZM730.336 95.2087C730.336 95.2087 735.759 101.235 744.195 110.273C748.413 114.492 753.234 119.915 758.657 125.338C764.081 130.761 769.504 136.185 775.53 141.608C781.556 147.634 787.582 153.057 793.005 157.878C799.031 163.301 803.851 167.519 808.672 171.737C818.313 179.571 824.942 184.392 824.942 184.392C824.942 184.392 819.519 178.366 811.082 169.327C806.864 164.507 802.044 159.686 796.62 154.263C791.197 148.839 785.171 143.416 779.748 137.993C773.722 131.967 767.696 126.543 761.67 121.723C756.247 116.299 750.824 112.081 746.003 107.863C736.964 100.03 730.336 95.2087 730.336 95.2087ZM600.177 35.5528C609.818 41.1769 619.46 46.6003 629.101 51.8227C638.742 57.0451 648.384 62.0667 658.025 66.8874C662.846 69.2978 667.667 71.5071 672.487 73.5157C677.71 75.9261 682.731 78.3365 687.552 80.7468L702.014 87.3752L713.463 92.7986C712.258 94.4055 711.053 96.213 709.848 98.2217C707.839 101.435 705.831 104.448 703.822 107.26C699.805 113.688 695.988 119.915 692.373 125.941C697.595 120.718 702.617 115.295 707.437 109.671C709.848 107.261 712.057 104.649 714.066 101.837C716.476 99.0253 718.887 96.2131 721.297 93.401L723.707 90.3881L720.092 87.978L705.63 80.7468L690.565 74.1182C685.744 71.7078 680.924 69.2978 676.103 66.8874C670.88 64.8788 665.859 62.6691 661.038 60.2587C650.995 55.8398 640.952 51.6218 630.909 47.6045C620.866 43.5873 610.622 39.57 600.177 35.5528ZM584.51 42.7839L496.532 101.235L673.09 131.364L595.356 44.5916C594.151 44.9933 592.946 45.194 591.741 45.194C588.929 45.194 586.518 44.3908 584.51 42.7839ZM342.872 284.421C342.872 284.421 342.27 286.832 341.064 290.447C339.859 294.063 338.051 298.883 335.641 305.512C333.231 311.538 330.218 318.769 327.205 326.602C324.192 333.833 320.576 342.27 317.563 350.103C313.948 358.54 310.332 366.373 306.717 374.207C304.307 380.233 301.896 385.656 299.486 390.476C301.093 391.682 302.499 392.887 303.704 394.092L356.732 272.972C356.33 272.57 356.129 272.37 356.129 272.37L224.765 300.691C224.363 302.7 223.56 304.507 222.355 306.114L256.702 371.796C269.357 369.386 283.216 368.181 285.626 373.604C288.037 377.822 292.255 383.246 297.678 388.669C299.687 383.848 301.695 378.626 303.704 373.002C306.717 365.168 310.332 357.334 313.948 348.898C316.961 341.065 320.576 332.628 324.192 324.795C327.205 317.564 330.82 310.332 333.231 304.307C336.244 298.281 338.654 293.46 340.462 289.845C342.27 286.229 342.872 284.421 342.872 284.421ZM119.312 318.166C119.312 312.14 119.312 306.717 119.312 303.704C119.312 300.089 119.915 297.678 119.915 297.678C119.915 297.678 119.915 300.089 120.517 303.704C120.517 306.717 121.12 312.14 121.723 318.166C121.723 324.192 122.325 331.423 122.928 338.654C123.53 346.488 123.53 354.924 124.133 362.758C124.133 364.365 124.133 365.771 124.133 366.976C125.74 366.172 127.548 365.369 129.556 364.565L126.543 266.946L81.3493 367.578C84.3622 366.373 87.9777 364.565 92.7984 364.565C103.645 363.963 97.6191 381.438 111.479 373.604C113.086 372.801 114.893 371.796 116.902 370.591C116.902 376.215 117.103 381.639 117.505 386.861C118.107 394.695 118.107 401.323 118.71 407.349C119.312 413.978 119.915 418.798 119.915 422.414C120.517 426.029 120.517 427.837 120.517 427.837C120.517 427.837 120.517 426.029 120.517 422.414C120.517 418.798 121.12 413.375 121.12 407.349C121.12 401.323 121.12 394.092 120.517 386.861C120.517 380.835 120.517 374.809 120.517 368.783C120.517 366.775 120.317 364.766 119.915 362.758C119.915 354.924 119.312 346.488 119.312 339.257C119.312 331.423 119.312 324.192 119.312 318.166ZM174.148 384.451C177.763 385.053 181.981 383.848 187.405 380.233C211.508 365.168 213.316 360.347 216.329 368.783C218.137 374.809 227.175 376.015 232.599 376.015C233 376.416 233.201 377.019 233.201 377.822C236.817 383.848 240.432 390.476 243.445 396.502C247.061 403.131 250.074 408.554 252.484 413.375C255.497 418.196 257.907 422.414 259.715 424.824C260.92 427.837 262.125 429.645 262.125 429.645C262.125 429.645 261.523 427.837 260.318 424.824C259.113 421.811 257.305 417.593 254.894 412.17C252.484 407.349 249.471 401.323 246.458 395.297C246.458 395.297 246.458 395.096 246.458 394.695C243.244 389.071 240.231 383.446 237.419 377.822C233.804 371.194 230.791 364.565 227.778 357.937C224.765 351.911 221.752 345.885 219.342 341.065C216.931 335.641 215.124 331.423 213.918 328.41C212.713 325.397 212.111 324.192 212.111 324.192C212.111 324.192 212.713 325.397 214.521 328.41C216.329 330.82 218.739 335.039 221.15 339.859C224.162 344.68 227.175 350.706 230.188 356.732C233.804 362.758 236.817 368.783 240.432 375.412C241.637 375.01 243.244 374.609 245.253 374.207L212.111 310.935C211.709 310.935 211.508 310.935 211.508 310.935L174.148 384.451ZM910.509 435.671C910.509 435.671 909.304 432.658 908.099 428.44C906.291 423.619 903.881 416.991 900.868 409.157C897.855 401.323 893.637 391.682 890.021 382.04C885.803 372.399 881.585 362.155 876.764 351.308C872.546 341.064 867.726 330.82 863.508 321.179C858.687 311.538 854.469 302.499 850.853 295.268C847.238 287.434 843.622 281.408 841.814 276.588C839.404 272.37 838.199 269.959 838.199 269.959C838.199 269.959 838.801 272.369 840.609 277.19C842.417 282.011 844.827 288.639 847.84 296.473C850.853 304.307 854.469 313.346 858.687 322.987C862.905 333.231 867.123 343.475 871.944 353.719C876.162 363.963 880.983 374.809 885.201 383.848C889.419 393.49 894.24 402.529 897.855 410.362C901.471 418.196 904.483 424.222 906.894 428.44C909.304 433.26 910.509 435.671 910.509 435.671ZM917.138 418.196C916.334 412.572 915.531 407.148 914.727 401.926C913.522 396.703 912.518 391.28 911.715 385.656C909.706 375.211 907.496 364.565 905.086 353.719C903.881 348.496 902.676 343.274 901.471 338.052C900.265 332.829 899.06 327.406 897.855 321.782C895.043 311.337 892.432 300.892 890.021 290.447L889.419 289.242H888.816C881.987 284.421 875.158 279.601 868.328 274.78L857.482 268.151C853.866 265.741 850.451 263.532 847.238 261.523C850.451 264.335 853.665 266.946 856.879 269.357L866.521 277.19C872.546 282.413 878.773 287.434 885.201 292.255C887.611 302.7 890.021 313.145 892.432 323.589C893.637 328.812 894.842 334.034 896.047 339.257C897.252 344.479 898.458 349.702 899.663 354.924C902.475 365.771 905.287 376.416 908.099 386.861C909.304 392.084 910.71 397.306 912.317 402.528C913.924 407.751 915.531 412.973 917.138 418.196Z" fill="#EFE3CD"/>
</svg>
